<?xml version="1.0" encoding="UTF-8"?>
<svg xmlns="http://www.w3.org/2000/svg" xmlns:xlink="http://www.w3.org/1999/xlink" width="153px" height="80px" viewBox="0 0 153 80" version="1.1">
<g id="surface1">
<path style=" stroke:none;fill-rule:nonzero;fill:rgb(9.019608%,8.235294%,99.607843%);fill-opacity:1;" d="M 93.675781 32.023438 C 94.417969 31.964844 95.136719 31.976562 95.816406 32.253906 C 98.855469 33.511719 95.601562 37.910156 96.457031 40.015625 C 96.554688 40.261719 96.753906 40.46875 97.054688 40.585938 C 99.714844 41.585938 118.308594 34.175781 121.984375 33.070312 C 122.632812 32.875 123.652344 32.566406 124.320312 32.828125 C 124.511719 32.902344 124.648438 33.011719 124.710938 33.171875 C 124.753906 33.285156 124.722656 33.386719 124.644531 33.488281 C 124.355469 33.851562 123.777344 34.15625 123.320312 34.386719 C 121.304688 35.394531 119.054688 36.175781 116.921875 37.019531 C 113.121094 38.519531 109.277344 40.054688 105.347656 41.335938 C 103.808594 41.828125 102.234375 42.253906 100.628906 42.601562 C 94.105469 43.992188 92.308594 42.152344 93.339844 37.097656 C 93.460938 36.519531 94.027344 35.140625 93.867188 34.644531 C 92.925781 33.949219 82.023438 38.964844 80.292969 39.753906 L 69.757812 44.507812 C 66.996094 45.753906 64.25 47.042969 61.300781 48.042969 C 59.472656 48.664062 56.503906 49.429688 54.902344 48.039062 C 54.222656 47.453125 54.136719 46.761719 54.203125 45.996094 C 54.652344 43.722656 56.152344 41.605469 56.808594 39.410156 C 55.269531 39.863281 52.621094 41.207031 51.105469 41.929688 C 47.105469 43.84375 43.132812 45.789062 39.179688 47.757812 C 36.671875 48.996094 33.957031 50.429688 31.265625 51.386719 C 30.800781 51.605469 29.933594 51.640625 29.441406 51.410156 C 27.8125 50.648438 31.558594 48.808594 32.097656 48.5 C 38.75 44.714844 45.753906 41.269531 52.890625 38.074219 C 54.136719 37.519531 55.59375 37.007812 56.964844 36.671875 C 58.625 36.414062 59.636719 36.789062 60.152344 38 C 60.902344 39.765625 57.660156 44.742188 58.003906 45.960938 C 58.707031 46.28125 61.519531 44.890625 62.210938 44.578125 C 63.574219 43.964844 64.945312 43.359375 66.324219 42.765625 C 72.035156 40.296875 77.765625 37.863281 83.519531 35.460938 C 86.570312 34.214844 90.351562 32.5625 93.675781 32.023438 Z M 93.675781 32.023438 "/>
</g>
</svg>
