<?xml version="1.0" encoding="UTF-8"?>
<svg xmlns="http://www.w3.org/2000/svg" xmlns:xlink="http://www.w3.org/1999/xlink" width="136px" height="92px" viewBox="0 0 136 92" version="1.1">
<g id="surface1">
<path style=" stroke:none;fill-rule:nonzero;fill:rgb(2.745098%,12.54902%,98.431373%);fill-opacity:1;" d="M 94.207031 28.660156 C 94.269531 28.664062 94.332031 28.664062 94.394531 28.667969 C 94.714844 28.714844 94.867188 28.78125 95.078125 29.039062 C 95.3125 29.417969 95.449219 29.644531 95.449219 30.097656 C 95.507812 30.128906 95.566406 30.15625 95.625 30.1875 C 95.558594 32.347656 95.445312 34.496094 95.230469 36.644531 C 95.222656 36.738281 95.214844 36.832031 95.203125 36.929688 C 95.125 37.746094 95.039062 38.558594 94.933594 39.371094 C 94.917969 39.464844 94.90625 39.554688 94.894531 39.652344 C 94.871094 39.824219 94.847656 39.996094 94.824219 40.167969 C 94.746094 40.738281 94.726562 41.292969 94.738281 41.867188 C 94.679688 41.867188 94.621094 41.867188 94.5625 41.867188 C 94.589844 41.957031 94.621094 42.046875 94.652344 42.136719 C 94.636719 42.304688 94.613281 42.46875 94.589844 42.632812 C 94.566406 42.78125 94.566406 42.78125 94.542969 42.933594 C 94.523438 43.039062 94.507812 43.140625 94.492188 43.25 C 94.476562 43.347656 94.457031 43.449219 94.441406 43.554688 C 94.410156 43.753906 94.378906 43.957031 94.347656 44.160156 C 94.269531 44.652344 94.195312 45.148438 94.121094 45.640625 C 94.5625 45.402344 94.886719 45.164062 95.238281 44.796875 C 95.285156 44.75 95.328125 44.703125 95.375 44.65625 C 95.515625 44.511719 95.65625 44.367188 95.796875 44.21875 C 97.179688 42.785156 97.179688 42.785156 97.574219 42.496094 C 97.632812 42.496094 97.691406 42.496094 97.75 42.496094 C 97.75 42.4375 97.75 42.378906 97.75 42.316406 C 97.898438 42.183594 98.054688 42.054688 98.210938 41.929688 C 98.550781 41.65625 98.859375 41.371094 99.167969 41.058594 C 99.269531 40.972656 99.378906 40.890625 99.488281 40.8125 C 99.777344 40.597656 100.054688 40.371094 100.328125 40.136719 C 101.207031 39.40625 102.121094 38.777344 103.097656 38.1875 C 103.179688 38.140625 103.261719 38.089844 103.34375 38.039062 C 103.800781 37.765625 104.246094 37.558594 104.746094 37.375 C 104.804688 37.316406 104.863281 37.257812 104.921875 37.195312 C 105.164062 37.152344 105.386719 37.125 105.628906 37.105469 C 105.734375 37.09375 105.734375 37.09375 105.84375 37.085938 C 106.445312 37.050781 106.910156 37.1875 107.402344 37.554688 C 108.109375 38.324219 108.230469 39.34375 108.324219 40.351562 C 108.347656 40.566406 108.367188 40.777344 108.390625 40.992188 C 108.402344 41.101562 108.414062 41.214844 108.425781 41.332031 C 108.464844 41.707031 108.511719 42.082031 108.558594 42.457031 C 108.566406 42.519531 108.574219 42.585938 108.582031 42.652344 C 108.617188 42.90625 108.648438 43.15625 108.679688 43.410156 C 108.945312 45.429688 108.945312 45.429688 108.464844 46.269531 C 108.039062 46.652344 107.574219 46.8125 107.007812 46.804688 C 106.476562 46.660156 106.113281 46.453125 105.792969 45.996094 C 105.574219 45.585938 105.558594 45.167969 105.53125 44.707031 C 105.519531 44.546875 105.507812 44.386719 105.496094 44.222656 C 105.492188 44.117188 105.492188 44.117188 105.484375 44.007812 C 105.472656 43.953125 105.464844 43.898438 105.453125 43.84375 C 105.394531 43.8125 105.335938 43.785156 105.277344 43.753906 C 105.238281 43.527344 105.238281 43.527344 105.21875 43.234375 C 105.210938 43.128906 105.207031 43.023438 105.199219 42.914062 C 105.1875 42.75 105.1875 42.75 105.175781 42.582031 C 105.167969 42.46875 105.160156 42.359375 105.152344 42.242188 C 105.132812 41.96875 105.117188 41.691406 105.097656 41.417969 C 104.550781 41.621094 104.085938 41.835938 103.617188 42.1875 C 103.5625 42.226562 103.511719 42.265625 103.457031 42.304688 C 103.296875 42.425781 103.136719 42.550781 102.972656 42.675781 C 102.921875 42.714844 102.871094 42.753906 102.816406 42.796875 C 102.128906 43.320312 101.484375 43.878906 100.859375 44.480469 C 100.667969 44.664062 100.472656 44.839844 100.273438 45.011719 C 99.761719 45.460938 99.289062 45.953125 98.808594 46.441406 C 98.644531 46.609375 98.480469 46.773438 98.316406 46.941406 C 98.210938 47.046875 98.105469 47.15625 98 47.261719 C 97.925781 47.335938 97.925781 47.335938 97.851562 47.414062 C 97.644531 47.621094 97.46875 47.820312 97.308594 48.066406 C 97.25 48.066406 97.191406 48.066406 97.128906 48.066406 C 97.097656 48.144531 97.097656 48.144531 97.066406 48.21875 C 96.929688 48.472656 96.757812 48.636719 96.554688 48.835938 C 96.332031 49.054688 96.152344 49.242188 95.980469 49.503906 C 95.921875 49.503906 95.863281 49.503906 95.800781 49.503906 C 95.777344 49.558594 95.753906 49.609375 95.730469 49.664062 C 95.625 49.863281 95.519531 50 95.367188 50.160156 C 95.316406 50.214844 95.265625 50.273438 95.214844 50.328125 C 95.160156 50.386719 95.105469 50.445312 95.050781 50.503906 C 94.964844 50.59375 94.964844 50.59375 94.878906 50.683594 C 94.769531 50.804688 94.65625 50.925781 94.542969 51.042969 C 94.40625 51.1875 94.273438 51.335938 94.136719 51.484375 C 93.605469 52.054688 93.039062 52.558594 92.234375 52.609375 C 91.386719 52.554688 90.519531 52.265625 89.941406 51.625 C 89.667969 51.222656 89.472656 50.902344 89.515625 50.402344 C 89.457031 50.371094 89.398438 50.34375 89.339844 50.3125 C 89.367188 50.28125 89.398438 50.253906 89.425781 50.222656 C 89.429688 50.0625 89.429688 49.902344 89.425781 49.742188 C 89.421875 49.1875 89.457031 48.644531 89.503906 48.089844 C 89.511719 47.992188 89.523438 47.894531 89.53125 47.792969 C 89.558594 47.472656 89.585938 47.152344 89.617188 46.832031 C 89.628906 46.664062 89.628906 46.664062 89.644531 46.496094 C 89.917969 43.414062 90.277344 40.34375 90.796875 37.296875 C 90.871094 36.84375 90.945312 36.390625 91.019531 35.9375 C 90.960938 35.9375 90.902344 35.9375 90.84375 35.9375 C 90.824219 35.988281 90.800781 36.035156 90.78125 36.089844 C 90.640625 36.347656 90.460938 36.539062 90.261719 36.757812 C 89.992188 37.042969 89.992188 37.042969 89.78125 37.375 C 89.722656 37.375 89.664062 37.375 89.605469 37.375 C 89.582031 37.425781 89.5625 37.472656 89.542969 37.523438 C 89.398438 37.789062 89.214844 37.984375 89.011719 38.207031 C 88.929688 38.292969 88.851562 38.382812 88.769531 38.472656 C 88.695312 38.554688 88.621094 38.636719 88.542969 38.722656 C 87.855469 39.5 87.191406 40.300781 86.542969 41.113281 C 86.273438 41.453125 85.988281 41.78125 85.699219 42.101562 C 85.378906 42.453125 85.085938 42.808594 84.800781 43.1875 C 84.285156 43.871094 83.734375 44.523438 83.179688 45.175781 C 82.910156 45.492188 82.648438 45.808594 82.386719 46.132812 C 82.039062 46.570312 81.679688 46.996094 81.320312 47.417969 C 81.046875 47.742188 80.777344 48.070312 80.511719 48.402344 C 80.265625 48.714844 80.007812 49.011719 79.742188 49.308594 C 79.363281 49.730469 79.019531 50.171875 78.679688 50.628906 C 78.578125 50.765625 78.46875 50.898438 78.359375 51.03125 C 78.300781 51.03125 78.242188 51.03125 78.183594 51.03125 C 78.160156 51.082031 78.132812 51.136719 78.109375 51.191406 C 78.003906 51.390625 77.886719 51.550781 77.742188 51.726562 C 77.691406 51.789062 77.640625 51.851562 77.589844 51.914062 C 77.484375 52.042969 77.375 52.175781 77.269531 52.304688 C 77.21875 52.363281 77.167969 52.425781 77.117188 52.492188 C 77.070312 52.546875 77.023438 52.601562 76.976562 52.660156 C 76.847656 52.824219 76.847656 52.824219 76.761719 53.019531 C 76.640625 53.261719 76.449219 53.378906 76.234375 53.546875 C 76.128906 53.65625 76.128906 53.65625 76.019531 53.773438 C 75.574219 54.210938 75.207031 54.433594 74.585938 54.472656 C 73.574219 54.382812 72.472656 53.941406 71.742188 53.214844 C 70.988281 52.195312 71.007812 50.8125 70.921875 49.59375 C 70.835938 49.5625 70.746094 49.535156 70.65625 49.503906 C 70.496094 49.585938 70.496094 49.585938 70.339844 49.722656 C 70.246094 49.796875 70.246094 49.796875 70.152344 49.875 C 70.082031 49.929688 70.015625 49.984375 69.949219 50.042969 C 69.882812 50.09375 69.8125 50.148438 69.746094 50.203125 C 69.324219 50.53125 68.921875 50.882812 68.53125 51.25 C 68.480469 51.296875 68.433594 51.34375 68.382812 51.390625 C 67.867188 51.875 67.371094 52.375 66.875 52.878906 C 66.726562 53.03125 66.574219 53.183594 66.425781 53.335938 C 65.847656 53.921875 65.285156 54.507812 64.785156 55.164062 C 64.734375 55.222656 64.6875 55.28125 64.636719 55.34375 C 64.578125 55.34375 64.519531 55.34375 64.457031 55.34375 C 64.441406 55.390625 64.421875 55.4375 64.402344 55.488281 C 64.234375 55.785156 64.007812 56.019531 63.777344 56.265625 C 63.679688 56.371094 63.582031 56.476562 63.484375 56.582031 C 63.441406 56.632812 63.394531 56.683594 63.34375 56.734375 C 63.089844 57.011719 62.84375 57.300781 62.597656 57.589844 C 62.515625 57.6875 62.429688 57.789062 62.34375 57.886719 C 61.917969 58.386719 61.496094 58.886719 61.113281 59.421875 C 60.949219 59.640625 60.757812 59.824219 60.5625 60.015625 C 60.511719 60.085938 60.464844 60.152344 60.414062 60.222656 C 60.375 60.273438 60.335938 60.324219 60.296875 60.375 C 60.238281 60.375 60.179688 60.375 60.121094 60.375 C 60.101562 60.421875 60.082031 60.46875 60.0625 60.519531 C 59.898438 60.816406 59.679688 61.0625 59.460938 61.320312 C 59.390625 61.402344 59.390625 61.402344 59.320312 61.484375 C 58.917969 61.953125 58.507812 62.410156 58.089844 62.859375 C 57.90625 63.054688 57.90625 63.054688 57.816406 63.25 C 57.757812 63.25 57.699219 63.25 57.640625 63.25 C 57.617188 63.300781 57.597656 63.351562 57.574219 63.40625 C 57.152344 64.179688 56.253906 64.867188 55.425781 65.136719 C 54.847656 65.179688 54.222656 65.191406 53.65625 65.046875 C 53.480469 64.882812 53.480469 64.882812 53.300781 64.6875 C 53.148438 64.597656 52.992188 64.503906 52.835938 64.417969 C 52.617188 64.289062 52.425781 64.140625 52.238281 63.96875 C 52.238281 63.910156 52.238281 63.851562 52.238281 63.789062 C 52.152344 63.757812 52.0625 63.730469 51.972656 63.699219 C 51.472656 62.625 51.703125 61.296875 51.859375 60.167969 C 51.871094 60.066406 51.882812 59.960938 51.898438 59.855469 C 51.949219 59.460938 52.003906 59.0625 52.0625 58.667969 C 52.078125 58.566406 52.089844 58.46875 52.105469 58.363281 C 52.402344 56.316406 52.742188 54.277344 53.101562 52.242188 C 53.171875 51.828125 53.246094 51.414062 53.316406 51.003906 C 53.351562 50.8125 53.382812 50.625 53.417969 50.433594 C 53.4375 50.320312 53.457031 50.207031 53.476562 50.085938 C 53.496094 49.988281 53.511719 49.886719 53.53125 49.785156 C 53.566406 49.507812 53.574219 49.242188 53.566406 48.964844 C 53.523438 49.015625 53.480469 49.070312 53.4375 49.121094 C 53.382812 49.1875 53.328125 49.253906 53.269531 49.324219 C 53.214844 49.390625 53.15625 49.457031 53.101562 49.527344 C 53.050781 49.578125 53 49.628906 52.949219 49.683594 C 52.890625 49.683594 52.832031 49.683594 52.769531 49.683594 C 52.75 49.734375 52.730469 49.78125 52.707031 49.832031 C 52.183594 50.792969 51.148438 51.613281 50.386719 52.386719 C 50.273438 52.503906 50.15625 52.621094 50.042969 52.738281 C 49.804688 52.980469 49.5625 53.222656 49.324219 53.46875 C 49.015625 53.777344 48.710938 54.089844 48.402344 54.40625 C 48.167969 54.644531 47.929688 54.886719 47.691406 55.128906 C 47.578125 55.242188 47.464844 55.359375 47.351562 55.472656 C 47.195312 55.632812 47.039062 55.792969 46.878906 55.953125 C 46.808594 56.023438 46.808594 56.023438 46.738281 56.097656 C 46.417969 56.421875 46.417969 56.421875 46.21875 56.421875 C 46.191406 56.511719 46.160156 56.601562 46.128906 56.691406 C 45.992188 56.832031 45.992188 56.832031 45.8125 56.980469 C 45.429688 57.308594 45.078125 57.660156 44.726562 58.023438 C 44.59375 58.160156 44.464844 58.292969 44.332031 58.425781 C 44.128906 58.632812 43.925781 58.84375 43.726562 59.050781 C 41.476562 61.363281 41.476562 61.363281 40.394531 61.480469 C 39.792969 61.46875 39.453125 61.265625 39.03125 60.835938 C 38.667969 60.40625 38.550781 60.046875 38.574219 59.488281 C 38.621094 59.183594 38.765625 58.988281 38.957031 58.757812 C 39.015625 58.683594 39.074219 58.613281 39.132812 58.535156 C 39.527344 58.035156 39.941406 57.554688 40.367188 57.078125 C 40.53125 56.894531 40.691406 56.710938 40.851562 56.523438 C 41.160156 56.164062 41.480469 55.8125 41.800781 55.460938 C 41.980469 55.261719 42.15625 55.058594 42.324219 54.84375 C 42.515625 54.605469 42.722656 54.390625 42.941406 54.175781 C 43.085938 54.03125 43.230469 53.886719 43.375 53.742188 C 43.445312 53.671875 43.515625 53.601562 43.589844 53.527344 C 43.828125 53.277344 44.054688 53.015625 44.28125 52.75 C 44.558594 52.429688 44.847656 52.125 45.132812 51.816406 C 45.554688 51.367188 45.972656 50.914062 46.386719 50.453125 C 46.753906 50.042969 47.136719 49.648438 47.523438 49.261719 C 47.699219 49.078125 47.867188 48.894531 48.027344 48.699219 C 48.351562 48.316406 48.707031 47.964844 49.066406 47.609375 C 49.253906 47.417969 49.429688 47.21875 49.601562 47.015625 C 49.925781 46.636719 50.269531 46.277344 50.621094 45.917969 C 50.6875 45.855469 50.75 45.789062 50.816406 45.722656 C 50.949219 45.585938 51.082031 45.449219 51.21875 45.3125 C 51.417969 45.109375 51.621094 44.902344 51.824219 44.695312 C 52.433594 44.070312 53.046875 43.464844 53.726562 42.921875 C 53.96875 42.726562 54.1875 42.519531 54.410156 42.304688 C 55.070312 41.6875 55.6875 41.210938 56.59375 41.121094 C 57.207031 41.171875 57.828125 41.414062 58.261719 41.867188 C 58.910156 42.953125 58.597656 44.425781 58.476562 45.628906 C 58.46875 45.707031 58.460938 45.78125 58.453125 45.863281 C 58.230469 48.089844 57.871094 50.292969 57.519531 52.5 C 57.472656 52.816406 57.421875 53.132812 57.371094 53.449219 C 57.335938 53.664062 57.300781 53.878906 57.265625 54.097656 C 57.246094 54.230469 57.226562 54.359375 57.203125 54.492188 C 57.183594 54.605469 57.167969 54.71875 57.148438 54.835938 C 57.105469 55.191406 57.101562 55.527344 57.109375 55.882812 C 57.050781 55.882812 56.992188 55.882812 56.933594 55.882812 C 56.933594 56.179688 56.933594 56.476562 56.933594 56.78125 C 57.894531 55.828125 57.894531 55.828125 58.75 54.777344 C 58.792969 54.726562 58.835938 54.675781 58.878906 54.625 C 58.9375 54.625 58.996094 54.625 59.058594 54.625 C 59.082031 54.570312 59.105469 54.519531 59.128906 54.464844 C 59.234375 54.261719 59.347656 54.121094 59.503906 53.957031 C 59.558594 53.898438 59.613281 53.84375 59.667969 53.78125 C 59.726562 53.722656 59.785156 53.660156 59.84375 53.597656 C 59.964844 53.46875 60.085938 53.335938 60.210938 53.207031 C 60.269531 53.140625 60.332031 53.078125 60.394531 53.011719 C 60.578125 52.8125 60.761719 52.609375 60.941406 52.40625 C 61.441406 51.847656 61.957031 51.308594 62.480469 50.773438 C 62.566406 50.6875 62.652344 50.601562 62.738281 50.511719 C 62.855469 50.390625 62.976562 50.265625 63.097656 50.144531 C 63.167969 50.074219 63.238281 50 63.308594 49.929688 C 63.484375 49.773438 63.484375 49.773438 63.660156 49.773438 C 63.691406 49.683594 63.71875 49.59375 63.75 49.503906 C 63.808594 49.503906 63.867188 49.503906 63.925781 49.503906 C 63.925781 49.445312 63.925781 49.386719 63.925781 49.324219 C 64.042969 49.203125 64.042969 49.203125 64.214844 49.058594 C 64.539062 48.78125 64.855469 48.492188 65.167969 48.203125 C 65.519531 47.875 65.871094 47.550781 66.230469 47.234375 C 66.429688 47.058594 66.617188 46.878906 66.808594 46.703125 C 68.34375 45.304688 70.070312 43.777344 72.25 43.84375 C 72.839844 43.929688 73.433594 44.101562 73.84375 44.5625 C 74.019531 44.851562 74.15625 45.148438 74.285156 45.460938 C 74.316406 45.53125 74.34375 45.597656 74.375 45.671875 C 74.464844 45.910156 74.511719 46.128906 74.554688 46.378906 C 74.570312 46.46875 74.585938 46.554688 74.601562 46.644531 C 74.617188 46.734375 74.628906 46.824219 74.644531 46.914062 C 74.675781 47.09375 74.707031 47.273438 74.738281 47.453125 C 74.75 47.53125 74.765625 47.609375 74.777344 47.691406 C 74.808594 47.890625 74.808594 47.890625 74.90625 48.066406 C 75.308594 47.625 75.699219 47.179688 76.070312 46.707031 C 76.570312 46.082031 77.117188 45.5 77.664062 44.917969 C 77.902344 44.664062 78.132812 44.410156 78.363281 44.152344 C 78.644531 43.84375 78.925781 43.535156 79.210938 43.226562 C 79.292969 43.140625 79.292969 43.140625 79.375 43.046875 C 79.480469 42.933594 79.585938 42.824219 79.6875 42.710938 C 79.941406 42.433594 80.191406 42.15625 80.433594 41.875 C 80.757812 41.496094 81.097656 41.128906 81.4375 40.765625 C 82.011719 40.148438 82.578125 39.527344 83.140625 38.902344 C 83.296875 38.726562 83.453125 38.554688 83.609375 38.378906 C 83.652344 38.335938 83.691406 38.292969 83.730469 38.246094 C 83.960938 37.992188 84.191406 37.742188 84.421875 37.492188 C 85.097656 36.765625 85.746094 36.035156 86.339844 35.234375 C 86.394531 35.171875 86.449219 35.105469 86.503906 35.039062 C 86.5625 35.039062 86.621094 35.039062 86.683594 35.039062 C 86.71875 34.960938 86.71875 34.960938 86.753906 34.878906 C 86.859375 34.683594 86.960938 34.550781 87.109375 34.390625 C 87.160156 34.335938 87.210938 34.285156 87.261719 34.226562 C 87.316406 34.171875 87.367188 34.113281 87.425781 34.054688 C 87.535156 33.9375 87.648438 33.816406 87.761719 33.695312 C 87.816406 33.632812 87.875 33.574219 87.933594 33.511719 C 88.179688 33.246094 88.425781 32.976562 88.667969 32.707031 C 88.714844 32.660156 88.757812 32.613281 88.804688 32.5625 C 89.027344 32.3125 89.246094 32.0625 89.460938 31.804688 C 89.761719 31.453125 90.09375 31.136719 90.429688 30.816406 C 90.484375 30.761719 90.539062 30.710938 90.597656 30.65625 C 91 30.277344 91 30.277344 91.199219 30.277344 C 91.199219 30.21875 91.199219 30.160156 91.199219 30.097656 C 92.042969 29.269531 93.003906 28.585938 94.207031 28.660156 Z M 94.207031 28.660156 "/>
<path style=" stroke:none;fill-rule:nonzero;fill:rgb(7.058824%,10.196079%,75.686276%);fill-opacity:1;" d="M 94.207031 28.660156 C 94.269531 28.664062 94.332031 28.664062 94.394531 28.667969 C 94.714844 28.714844 94.867188 28.78125 95.078125 29.039062 C 95.3125 29.417969 95.449219 29.644531 95.449219 30.097656 C 95.507812 30.128906 95.566406 30.15625 95.625 30.1875 C 95.558594 32.347656 95.445312 34.496094 95.230469 36.644531 C 95.21875 36.785156 95.21875 36.785156 95.203125 36.929688 C 95.125 37.746094 95.039062 38.558594 94.933594 39.371094 C 94.914062 39.511719 94.914062 39.511719 94.894531 39.652344 C 94.871094 39.824219 94.847656 39.996094 94.824219 40.167969 C 94.746094 40.738281 94.726562 41.292969 94.738281 41.867188 C 94.679688 41.867188 94.621094 41.867188 94.5625 41.867188 C 94.535156 42.046875 94.503906 42.222656 94.472656 42.40625 C 94.445312 42.40625 94.414062 42.40625 94.386719 42.40625 C 94.429688 41.402344 94.519531 40.414062 94.65625 39.421875 C 94.707031 39.039062 94.753906 38.65625 94.804688 38.273438 C 94.8125 38.199219 94.824219 38.121094 94.832031 38.042969 C 94.976562 36.925781 95.085938 35.804688 95.183594 34.679688 C 95.191406 34.570312 95.191406 34.570312 95.203125 34.453125 C 95.273438 33.558594 95.28125 32.664062 95.285156 31.765625 C 95.285156 31.636719 95.289062 31.507812 95.289062 31.378906 C 95.304688 30.40625 95.304688 30.40625 95.09375 29.46875 C 94.734375 29.105469 94.367188 28.902344 93.859375 28.878906 C 93.125 28.890625 92.460938 29.277344 91.9375 29.789062 C 91.867188 29.859375 91.800781 29.933594 91.730469 30.007812 C 91.628906 30.101562 91.523438 30.191406 91.417969 30.28125 C 90.429688 31.15625 89.457031 32.058594 88.601562 33.074219 C 88.457031 33.234375 88.308594 33.386719 88.15625 33.539062 C 87.894531 33.796875 87.667969 34.074219 87.441406 34.359375 C 87.203125 34.660156 86.964844 34.9375 86.695312 35.203125 C 86.382812 35.507812 86.125 35.835938 85.863281 36.183594 C 85.457031 36.726562 85.011719 37.203125 84.53125 37.675781 C 84.289062 37.914062 84.070312 38.164062 83.851562 38.425781 C 83.59375 38.722656 83.328125 39.007812 83.0625 39.296875 C 82.71875 39.667969 82.378906 40.039062 82.046875 40.417969 C 81.679688 40.832031 81.304688 41.238281 80.925781 41.640625 C 80.03125 42.601562 80.03125 42.601562 79.179688 43.601562 C 78.914062 43.925781 78.617188 44.214844 78.320312 44.507812 C 77.929688 44.902344 77.546875 45.300781 77.1875 45.726562 C 77.007812 45.9375 76.824219 46.140625 76.636719 46.347656 C 76.179688 46.867188 75.730469 47.394531 75.347656 47.976562 C 75.289062 47.976562 75.230469 47.976562 75.171875 47.976562 C 75.144531 48.066406 75.113281 48.15625 75.082031 48.246094 C 74.964844 48.246094 74.847656 48.246094 74.730469 48.246094 C 74.527344 47.683594 74.398438 47.132812 74.296875 46.542969 C 74.15625 45.777344 74 45.015625 73.402344 44.472656 C 72.652344 44.082031 71.472656 44.058594 70.683594 44.308594 C 69.542969 44.734375 69.542969 44.734375 68.707031 45.550781 C 68.558594 45.636719 68.40625 45.722656 68.257812 45.808594 C 67.996094 45.96875 67.78125 46.175781 67.5625 46.386719 C 67.46875 46.476562 67.375 46.566406 67.285156 46.652344 C 67.15625 46.773438 67.15625 46.773438 67.027344 46.898438 C 66.703125 47.195312 66.371094 47.480469 66.039062 47.765625 C 65.960938 47.832031 65.960938 47.832031 65.882812 47.898438 C 65.785156 47.980469 65.6875 48.066406 65.585938 48.148438 C 65.335938 48.359375 65.101562 48.578125 64.875 48.816406 C 64.636719 49.054688 64.636719 49.054688 64.457031 49.054688 C 64.457031 49.113281 64.457031 49.171875 64.457031 49.234375 C 64.34375 49.347656 64.34375 49.347656 64.175781 49.488281 C 63.664062 49.925781 63.199219 50.414062 62.730469 50.898438 C 62.429688 51.203125 62.128906 51.507812 61.824219 51.8125 C 61.703125 51.9375 61.582031 52.058594 61.460938 52.183594 C 61.398438 52.242188 61.339844 52.304688 61.277344 52.367188 C 60.925781 52.71875 60.59375 53.082031 60.269531 53.460938 C 60.023438 53.75 59.761719 54.03125 59.5 54.3125 C 59.128906 54.710938 58.761719 55.117188 58.40625 55.53125 C 57.960938 56.054688 57.507812 56.570312 57.019531 57.050781 C 56.960938 57.019531 56.902344 56.992188 56.84375 56.960938 C 57.152344 56.589844 57.46875 56.230469 57.8125 55.894531 C 58.15625 55.554688 58.445312 55.183594 58.734375 54.796875 C 58.78125 54.738281 58.832031 54.683594 58.878906 54.625 C 58.9375 54.625 58.996094 54.625 59.058594 54.625 C 59.082031 54.570312 59.105469 54.519531 59.128906 54.464844 C 59.234375 54.261719 59.347656 54.121094 59.503906 53.957031 C 59.558594 53.898438 59.613281 53.84375 59.667969 53.78125 C 59.753906 53.691406 59.753906 53.691406 59.84375 53.597656 C 59.964844 53.46875 60.085938 53.335938 60.210938 53.207031 C 60.269531 53.140625 60.332031 53.078125 60.394531 53.011719 C 60.578125 52.8125 60.761719 52.609375 60.941406 52.40625 C 61.441406 51.847656 61.957031 51.308594 62.480469 50.773438 C 62.566406 50.6875 62.652344 50.601562 62.738281 50.511719 C 62.855469 50.390625 62.976562 50.265625 63.097656 50.144531 C 63.167969 50.074219 63.238281 50 63.308594 49.929688 C 63.484375 49.773438 63.484375 49.773438 63.660156 49.773438 C 63.691406 49.683594 63.71875 49.59375 63.75 49.503906 C 63.808594 49.503906 63.867188 49.503906 63.925781 49.503906 C 63.925781 49.445312 63.925781 49.386719 63.925781 49.324219 C 64.042969 49.203125 64.042969 49.203125 64.214844 49.058594 C 64.539062 48.78125 64.855469 48.492188 65.167969 48.203125 C 65.519531 47.875 65.871094 47.550781 66.230469 47.234375 C 66.429688 47.058594 66.617188 46.878906 66.808594 46.703125 C 68.34375 45.304688 70.070312 43.777344 72.25 43.84375 C 72.839844 43.929688 73.433594 44.101562 73.84375 44.5625 C 74.019531 44.851562 74.15625 45.148438 74.285156 45.460938 C 74.316406 45.53125 74.34375 45.597656 74.375 45.671875 C 74.464844 45.910156 74.511719 46.128906 74.554688 46.378906 C 74.570312 46.46875 74.585938 46.554688 74.601562 46.644531 C 74.617188 46.734375 74.628906 46.824219 74.644531 46.914062 C 74.675781 47.09375 74.707031 47.273438 74.738281 47.453125 C 74.75 47.53125 74.765625 47.609375 74.777344 47.691406 C 74.808594 47.890625 74.808594 47.890625 74.90625 48.066406 C 75.308594 47.625 75.699219 47.179688 76.070312 46.707031 C 76.570312 46.082031 77.117188 45.5 77.664062 44.917969 C 77.902344 44.664062 78.132812 44.410156 78.363281 44.152344 C 78.644531 43.84375 78.925781 43.535156 79.210938 43.226562 C 79.292969 43.140625 79.292969 43.140625 79.375 43.046875 C 79.480469 42.933594 79.585938 42.824219 79.6875 42.710938 C 79.941406 42.433594 80.191406 42.15625 80.433594 41.875 C 80.757812 41.496094 81.097656 41.128906 81.4375 40.765625 C 82.011719 40.148438 82.578125 39.527344 83.140625 38.902344 C 83.296875 38.726562 83.453125 38.554688 83.609375 38.378906 C 83.652344 38.335938 83.691406 38.292969 83.730469 38.246094 C 83.960938 37.992188 84.191406 37.742188 84.421875 37.492188 C 85.097656 36.765625 85.746094 36.035156 86.339844 35.234375 C 86.394531 35.171875 86.449219 35.105469 86.503906 35.039062 C 86.5625 35.039062 86.621094 35.039062 86.683594 35.039062 C 86.707031 34.984375 86.730469 34.933594 86.753906 34.878906 C 86.859375 34.683594 86.960938 34.550781 87.109375 34.390625 C 87.160156 34.335938 87.210938 34.285156 87.261719 34.226562 C 87.316406 34.171875 87.367188 34.113281 87.425781 34.054688 C 87.535156 33.9375 87.648438 33.816406 87.761719 33.695312 C 87.816406 33.632812 87.875 33.574219 87.933594 33.511719 C 88.179688 33.246094 88.425781 32.976562 88.667969 32.707031 C 88.734375 32.636719 88.734375 32.636719 88.804688 32.5625 C 89.027344 32.3125 89.246094 32.0625 89.460938 31.804688 C 89.761719 31.453125 90.09375 31.136719 90.429688 30.816406 C 90.484375 30.761719 90.539062 30.710938 90.597656 30.65625 C 91 30.277344 91 30.277344 91.199219 30.277344 C 91.199219 30.21875 91.199219 30.160156 91.199219 30.097656 C 92.042969 29.269531 93.003906 28.585938 94.207031 28.660156 Z M 94.207031 28.660156 "/>
<path style=" stroke:none;fill-rule:nonzero;fill:rgb(7.058824%,10.588235%,74.901962%);fill-opacity:1;" d="M 105.277344 41.238281 C 105.449219 41.894531 105.5625 42.492188 105.539062 43.171875 C 105.542969 43.433594 105.601562 43.664062 105.675781 43.914062 C 105.734375 44.175781 105.742188 44.433594 105.757812 44.703125 C 105.796875 45.316406 105.882812 45.6875 106.289062 46.164062 C 106.550781 46.390625 106.730469 46.535156 107.082031 46.546875 C 107.519531 46.5 107.832031 46.445312 108.199219 46.179688 C 108.257812 46.179688 108.316406 46.179688 108.375 46.179688 C 108.480469 45.792969 108.476562 45.417969 108.476562 45.023438 C 108.472656 44.945312 108.472656 44.867188 108.472656 44.789062 C 108.46875 43.871094 108.421875 42.960938 108.375 42.046875 C 108.5625 42.332031 108.589844 42.46875 108.628906 42.804688 C 108.640625 42.902344 108.648438 43 108.660156 43.097656 C 108.671875 43.199219 108.683594 43.300781 108.695312 43.40625 C 108.714844 43.554688 108.714844 43.554688 108.730469 43.707031 C 108.933594 45.453125 108.933594 45.453125 108.464844 46.269531 C 108.039062 46.652344 107.574219 46.8125 107.007812 46.804688 C 106.476562 46.660156 106.113281 46.453125 105.792969 45.996094 C 105.574219 45.585938 105.558594 45.167969 105.53125 44.707031 C 105.519531 44.546875 105.507812 44.386719 105.496094 44.222656 C 105.492188 44.152344 105.488281 44.082031 105.484375 44.007812 C 105.472656 43.953125 105.464844 43.898438 105.453125 43.84375 C 105.394531 43.8125 105.335938 43.785156 105.277344 43.753906 C 105.238281 43.527344 105.238281 43.527344 105.21875 43.234375 C 105.210938 43.128906 105.207031 43.023438 105.199219 42.914062 C 105.191406 42.804688 105.183594 42.695312 105.175781 42.582031 C 105.167969 42.46875 105.160156 42.359375 105.152344 42.242188 C 105.132812 41.96875 105.117188 41.691406 105.097656 41.417969 C 104.550781 41.621094 104.085938 41.835938 103.617188 42.1875 C 103.5625 42.226562 103.511719 42.265625 103.457031 42.304688 C 103.296875 42.425781 103.136719 42.550781 102.972656 42.675781 C 102.921875 42.714844 102.871094 42.753906 102.816406 42.796875 C 102.128906 43.320312 101.484375 43.878906 100.859375 44.480469 C 100.667969 44.664062 100.472656 44.839844 100.273438 45.011719 C 99.761719 45.460938 99.289062 45.953125 98.808594 46.441406 C 98.644531 46.609375 98.480469 46.773438 98.316406 46.941406 C 98.210938 47.046875 98.105469 47.15625 98 47.261719 C 97.949219 47.3125 97.902344 47.363281 97.851562 47.414062 C 97.644531 47.621094 97.46875 47.820312 97.308594 48.066406 C 97.25 48.066406 97.191406 48.066406 97.128906 48.066406 C 97.109375 48.117188 97.089844 48.167969 97.066406 48.21875 C 96.929688 48.472656 96.757812 48.636719 96.554688 48.835938 C 96.332031 49.054688 96.152344 49.242188 95.980469 49.503906 C 95.921875 49.503906 95.863281 49.503906 95.800781 49.503906 C 95.765625 49.582031 95.765625 49.582031 95.730469 49.664062 C 95.625 49.863281 95.519531 50 95.367188 50.160156 C 95.316406 50.214844 95.265625 50.273438 95.214844 50.328125 C 95.160156 50.386719 95.105469 50.445312 95.050781 50.503906 C 94.964844 50.59375 94.964844 50.59375 94.878906 50.683594 C 94.769531 50.804688 94.65625 50.925781 94.542969 51.042969 C 94.40625 51.1875 94.273438 51.335938 94.136719 51.484375 C 93.582031 52.082031 93.015625 52.570312 92.171875 52.597656 C 91.894531 52.589844 91.84375 52.585938 91.640625 52.378906 C 91.703125 52.375 91.765625 52.375 91.828125 52.371094 C 92.855469 52.308594 93.386719 51.921875 94.121094 51.210938 C 94.230469 51.105469 94.230469 51.105469 94.339844 50.996094 C 94.792969 50.515625 95.226562 50.015625 95.65625 49.515625 C 96.25 48.824219 96.859375 48.152344 97.503906 47.511719 C 97.652344 47.355469 97.792969 47.195312 97.933594 47.027344 C 98.601562 46.238281 99.351562 45.484375 100.136719 44.8125 C 100.332031 44.640625 100.523438 44.457031 100.714844 44.277344 C 101.175781 43.835938 101.648438 43.417969 102.144531 43.019531 C 102.195312 42.976562 102.25 42.933594 102.300781 42.890625 C 102.527344 42.714844 102.703125 42.585938 102.972656 42.496094 C 102.972656 42.4375 102.972656 42.378906 102.972656 42.316406 C 103.097656 42.214844 103.097656 42.214844 103.269531 42.109375 C 103.363281 42.050781 103.363281 42.050781 103.460938 41.988281 C 103.527344 41.949219 103.59375 41.910156 103.660156 41.867188 C 103.726562 41.828125 103.789062 41.785156 103.855469 41.746094 C 104.710938 41.210938 104.710938 41.210938 105.277344 41.238281 Z M 105.277344 41.238281 "/>
<path style=" stroke:none;fill-rule:nonzero;fill:rgb(7.058824%,9.803922%,74.509805%);fill-opacity:1;" d="M 55.160156 41.6875 C 55.25 41.730469 55.25 41.730469 55.339844 41.777344 C 54.207031 42.84375 54.207031 42.84375 53.652344 43.332031 C 53.078125 43.839844 52.523438 44.359375 51.988281 44.910156 C 51.808594 45.089844 51.621094 45.261719 51.425781 45.425781 C 51.152344 45.664062 50.917969 45.914062 50.691406 46.199219 C 50.511719 46.414062 50.3125 46.609375 50.113281 46.808594 C 49.621094 47.300781 49.136719 47.792969 48.6875 48.324219 C 48.390625 48.660156 48.074219 48.972656 47.753906 49.285156 C 47.539062 49.5 47.539062 49.5 47.371094 49.773438 C 47.3125 49.773438 47.253906 49.773438 47.191406 49.773438 C 47.167969 49.828125 47.144531 49.878906 47.121094 49.933594 C 47.011719 50.140625 46.894531 50.273438 46.730469 50.4375 C 46.671875 50.492188 46.617188 50.550781 46.558594 50.605469 C 46.5 50.664062 46.441406 50.722656 46.378906 50.785156 C 46.257812 50.90625 46.136719 51.027344 46.011719 51.152344 C 45.957031 51.207031 45.902344 51.257812 45.847656 51.316406 C 45.632812 51.535156 45.433594 51.765625 45.238281 52 C 44.988281 52.292969 44.730469 52.570312 44.46875 52.851562 C 44.09375 53.257812 43.722656 53.664062 43.351562 54.074219 C 42.953125 54.515625 42.550781 54.953125 42.144531 55.390625 C 40.96875 56.648438 40.96875 56.648438 39.863281 57.972656 C 39.726562 58.144531 39.585938 58.3125 39.445312 58.476562 C 38.929688 59.085938 38.929688 59.085938 38.691406 59.835938 C 38.664062 59.835938 38.632812 59.835938 38.605469 59.835938 C 38.558594 59.363281 38.675781 59.117188 38.957031 58.757812 C 39.042969 58.648438 39.042969 58.648438 39.132812 58.535156 C 39.527344 58.035156 39.941406 57.554688 40.367188 57.078125 C 40.53125 56.894531 40.691406 56.710938 40.851562 56.523438 C 41.160156 56.164062 41.480469 55.8125 41.800781 55.460938 C 41.980469 55.261719 42.15625 55.058594 42.324219 54.84375 C 42.515625 54.605469 42.722656 54.390625 42.941406 54.175781 C 43.085938 54.03125 43.230469 53.886719 43.375 53.742188 C 43.445312 53.671875 43.515625 53.601562 43.589844 53.527344 C 43.828125 53.277344 44.054688 53.015625 44.28125 52.75 C 44.558594 52.429688 44.847656 52.125 45.132812 51.816406 C 45.554688 51.367188 45.972656 50.914062 46.382812 50.453125 C 46.753906 50.042969 47.136719 49.648438 47.523438 49.261719 C 47.699219 49.078125 47.867188 48.894531 48.027344 48.699219 C 48.351562 48.316406 48.707031 47.964844 49.066406 47.609375 C 49.253906 47.417969 49.429688 47.21875 49.601562 47.015625 C 49.925781 46.636719 50.269531 46.277344 50.621094 45.917969 C 50.6875 45.855469 50.75 45.789062 50.816406 45.722656 C 50.949219 45.585938 51.082031 45.449219 51.21875 45.3125 C 51.417969 45.109375 51.621094 44.902344 51.824219 44.695312 C 52.496094 44.011719 53.171875 43.363281 53.921875 42.765625 C 54.101562 42.605469 54.277344 42.441406 54.453125 42.277344 C 54.683594 42.058594 54.898438 41.867188 55.160156 41.6875 Z M 55.160156 41.6875 "/>
<path style=" stroke:none;fill-rule:nonzero;fill:rgb(6.666667%,10.196079%,74.901962%);fill-opacity:1;" d="M 53.480469 48.695312 C 53.566406 48.738281 53.566406 48.738281 53.65625 48.785156 C 53.542969 48.933594 53.429688 49.085938 53.3125 49.234375 C 53.21875 49.359375 53.21875 49.359375 53.121094 49.488281 C 53.0625 49.550781 53.007812 49.617188 52.949219 49.683594 C 52.890625 49.683594 52.832031 49.683594 52.769531 49.683594 C 52.75 49.734375 52.730469 49.78125 52.707031 49.832031 C 52.183594 50.792969 51.148438 51.613281 50.386719 52.386719 C 50.273438 52.503906 50.15625 52.621094 50.042969 52.738281 C 49.804688 52.980469 49.5625 53.222656 49.324219 53.46875 C 49.015625 53.777344 48.710938 54.089844 48.402344 54.40625 C 48.167969 54.644531 47.929688 54.886719 47.691406 55.128906 C 47.578125 55.242188 47.464844 55.359375 47.351562 55.472656 C 47.195312 55.632812 47.039062 55.792969 46.878906 55.953125 C 46.832031 56 46.785156 56.046875 46.738281 56.097656 C 46.417969 56.421875 46.417969 56.421875 46.21875 56.421875 C 46.175781 56.554688 46.175781 56.554688 46.128906 56.691406 C 45.992188 56.832031 45.992188 56.832031 45.8125 56.980469 C 45.429688 57.308594 45.078125 57.660156 44.726562 58.023438 C 44.59375 58.160156 44.464844 58.292969 44.332031 58.425781 C 44.128906 58.632812 43.925781 58.84375 43.726562 59.050781 C 41.476562 61.363281 41.476562 61.363281 40.394531 61.480469 C 39.789062 61.46875 39.460938 61.257812 39.027344 60.832031 C 38.875 60.652344 38.769531 60.511719 38.691406 60.285156 C 38.726562 60.082031 38.726562 60.082031 38.78125 59.925781 C 38.808594 59.980469 38.832031 60.035156 38.859375 60.089844 C 39.152344 60.671875 39.394531 60.972656 40.019531 61.183594 C 40.59375 61.246094 40.925781 61.117188 41.429688 60.832031 C 41.613281 60.734375 41.613281 60.734375 41.792969 60.734375 C 41.792969 60.675781 41.792969 60.617188 41.792969 60.554688 C 41.90625 60.441406 41.90625 60.441406 42.074219 60.300781 C 42.574219 59.867188 43.035156 59.398438 43.5 58.929688 C 43.652344 58.773438 43.808594 58.617188 43.960938 58.464844 C 44.058594 58.363281 44.15625 58.265625 44.253906 58.167969 C 44.300781 58.121094 44.347656 58.074219 44.394531 58.027344 C 44.640625 57.804688 44.640625 57.804688 44.714844 57.5 C 44.789062 57.46875 44.863281 57.4375 44.941406 57.402344 C 45.316406 57.191406 45.574219 56.925781 45.871094 56.613281 C 45.957031 56.523438 45.957031 56.523438 46.046875 56.433594 C 46.230469 56.246094 46.414062 56.054688 46.59375 55.867188 C 46.777344 55.675781 46.960938 55.484375 47.148438 55.292969 C 47.261719 55.175781 47.375 55.058594 47.488281 54.9375 C 47.625 54.800781 47.761719 54.667969 47.902344 54.535156 C 47.960938 54.535156 48.019531 54.535156 48.078125 54.535156 C 48.101562 54.484375 48.125 54.429688 48.144531 54.378906 C 48.265625 54.152344 48.402344 54.003906 48.582031 53.820312 C 48.648438 53.753906 48.714844 53.683594 48.785156 53.613281 C 48.855469 53.542969 48.929688 53.46875 49.003906 53.394531 C 49.113281 53.28125 49.113281 53.28125 49.226562 53.164062 C 49.382812 53.007812 49.539062 52.847656 49.695312 52.691406 C 49.9375 52.445312 50.175781 52.203125 50.417969 51.957031 C 50.570312 51.804688 50.722656 51.648438 50.871094 51.496094 C 50.945312 51.421875 51.015625 51.347656 51.089844 51.273438 C 51.15625 51.207031 51.226562 51.136719 51.292969 51.070312 C 51.351562 51.011719 51.410156 50.949219 51.472656 50.890625 C 51.621094 50.761719 51.621094 50.761719 51.796875 50.761719 C 51.824219 50.691406 51.824219 50.691406 51.851562 50.617188 C 52.023438 50.3125 52.253906 50.082031 52.488281 49.828125 C 52.832031 49.460938 53.164062 49.089844 53.480469 48.695312 Z M 53.480469 48.695312 "/>
<path style=" stroke:none;fill-rule:nonzero;fill:rgb(6.666667%,10.588235%,77.64706%);fill-opacity:1;" d="M 105.84375 37.085938 C 106.445312 37.050781 106.910156 37.1875 107.402344 37.554688 C 108.207031 38.429688 108.304688 39.640625 108.292969 40.785156 C 108.292969 40.863281 108.292969 40.941406 108.289062 41.023438 C 108.289062 41.214844 108.289062 41.40625 108.285156 41.597656 C 108.257812 41.597656 108.226562 41.597656 108.199219 41.597656 C 108.121094 41.253906 108.09375 40.925781 108.078125 40.574219 C 107.996094 39.089844 107.996094 39.089844 107.3125 37.824219 C 106.910156 37.492188 106.582031 37.402344 106.074219 37.414062 C 106.007812 37.414062 105.941406 37.417969 105.871094 37.417969 C 103.753906 37.5 101.683594 39.265625 100.140625 40.609375 C 99.972656 40.75 99.800781 40.890625 99.632812 41.03125 C 98.980469 41.570312 98.359375 42.136719 97.742188 42.71875 C 97.488281 42.957031 97.234375 43.191406 96.96875 43.417969 C 96.464844 43.867188 96.003906 44.359375 95.535156 44.84375 C 95.144531 45.246094 94.773438 45.621094 94.296875 45.910156 C 94.210938 45.878906 94.121094 45.851562 94.03125 45.820312 C 94.089844 45.820312 94.148438 45.820312 94.207031 45.820312 C 94.207031 45.761719 94.207031 45.703125 94.207031 45.640625 C 94.328125 45.539062 94.328125 45.539062 94.5 45.421875 C 95.015625 45.042969 95.449219 44.578125 95.890625 44.117188 C 97.167969 42.796875 97.167969 42.796875 97.574219 42.496094 C 97.632812 42.496094 97.691406 42.496094 97.75 42.496094 C 97.75 42.4375 97.75 42.378906 97.75 42.316406 C 97.898438 42.183594 98.054688 42.054688 98.210938 41.929688 C 98.550781 41.65625 98.859375 41.371094 99.167969 41.058594 C 99.269531 40.972656 99.378906 40.890625 99.488281 40.8125 C 99.777344 40.597656 100.054688 40.371094 100.328125 40.136719 C 101.207031 39.40625 102.121094 38.777344 103.09375 38.1875 C 103.179688 38.140625 103.261719 38.089844 103.34375 38.039062 C 103.800781 37.765625 104.246094 37.558594 104.746094 37.375 C 104.804688 37.316406 104.863281 37.257812 104.921875 37.195312 C 105.230469 37.140625 105.53125 37.113281 105.84375 37.085938 Z M 105.84375 37.085938 "/>
<path style=" stroke:none;fill-rule:nonzero;fill:rgb(6.666667%,9.803922%,73.333335%);fill-opacity:1;" d="M 56.59375 41.121094 C 57.207031 41.171875 57.828125 41.414062 58.261719 41.867188 C 58.910156 42.953125 58.597656 44.425781 58.476562 45.628906 C 58.46875 45.707031 58.460938 45.78125 58.453125 45.859375 C 58.320312 47.1875 58.144531 48.503906 57.945312 49.824219 C 57.933594 49.910156 57.917969 49.996094 57.90625 50.085938 C 57.753906 51.097656 57.582031 52.097656 57.375 53.097656 C 57.347656 53.097656 57.316406 53.097656 57.285156 53.097656 C 57.269531 52.480469 57.332031 51.917969 57.441406 51.3125 C 57.472656 51.121094 57.507812 50.929688 57.539062 50.738281 C 57.554688 50.640625 57.574219 50.539062 57.589844 50.4375 C 57.808594 49.117188 58.003906 47.792969 58.121094 46.457031 C 58.144531 46.144531 58.183594 45.851562 58.261719 45.550781 C 58.304688 45.101562 58.328125 44.652344 58.347656 44.203125 C 58.351562 44.136719 58.355469 44.070312 58.359375 44.003906 C 58.417969 42.820312 58.417969 42.820312 57.867188 41.8125 C 57.429688 41.410156 56.929688 41.375 56.363281 41.390625 C 56.074219 41.425781 55.855469 41.539062 55.605469 41.6875 C 55.515625 41.65625 55.429688 41.628906 55.339844 41.597656 C 55.777344 41.277344 56.066406 41.171875 56.59375 41.121094 Z M 56.59375 41.121094 "/>
<path style=" stroke:none;fill-rule:nonzero;fill:rgb(6.666667%,9.803922%,72.549021%);fill-opacity:1;" d="M 64.722656 54.894531 C 64.722656 55.164062 64.722656 55.164062 64.636719 55.34375 C 64.578125 55.34375 64.519531 55.34375 64.457031 55.34375 C 64.429688 55.414062 64.429688 55.414062 64.402344 55.488281 C 64.234375 55.785156 64.007812 56.019531 63.777344 56.265625 C 63.679688 56.371094 63.582031 56.476562 63.484375 56.582031 C 63.441406 56.632812 63.394531 56.683594 63.34375 56.734375 C 63.089844 57.011719 62.84375 57.300781 62.597656 57.589844 C 62.515625 57.6875 62.429688 57.789062 62.34375 57.886719 C 61.917969 58.386719 61.496094 58.886719 61.113281 59.421875 C 60.949219 59.640625 60.757812 59.824219 60.5625 60.015625 C 60.511719 60.085938 60.464844 60.152344 60.414062 60.222656 C 60.375 60.273438 60.335938 60.324219 60.296875 60.375 C 60.238281 60.375 60.179688 60.375 60.121094 60.375 C 60.101562 60.421875 60.082031 60.46875 60.0625 60.519531 C 59.898438 60.816406 59.679688 61.0625 59.460938 61.320312 C 59.414062 61.375 59.367188 61.429688 59.320312 61.484375 C 58.917969 61.953125 58.507812 62.410156 58.089844 62.859375 C 57.90625 63.054688 57.90625 63.054688 57.816406 63.25 C 57.757812 63.25 57.699219 63.25 57.640625 63.25 C 57.617188 63.300781 57.597656 63.351562 57.574219 63.40625 C 57.152344 64.183594 56.253906 64.855469 55.425781 65.136719 C 55.210938 65.152344 55.210938 65.152344 55 65.148438 C 54.929688 65.144531 54.859375 65.144531 54.789062 65.144531 C 54.738281 65.140625 54.683594 65.140625 54.628906 65.136719 C 54.628906 65.105469 54.628906 65.078125 54.628906 65.046875 C 54.710938 65.035156 54.710938 65.035156 54.792969 65.027344 C 55.699219 64.882812 56.3125 64.449219 56.933594 63.789062 C 56.992188 63.789062 57.050781 63.789062 57.109375 63.789062 C 57.152344 63.65625 57.152344 63.65625 57.199219 63.519531 C 57.257812 63.519531 57.316406 63.519531 57.375 63.519531 C 57.394531 63.472656 57.414062 63.421875 57.433594 63.371094 C 57.589844 63.09375 57.796875 62.875 58.011719 62.644531 C 58.101562 62.546875 58.191406 62.449219 58.277344 62.351562 C 58.320312 62.304688 58.363281 62.257812 58.410156 62.210938 C 58.660156 61.933594 58.902344 61.648438 59.144531 61.363281 C 59.183594 61.316406 59.222656 61.273438 59.261719 61.226562 C 59.71875 60.691406 60.171875 60.15625 60.605469 59.605469 C 60.992188 59.125 61.40625 58.671875 61.824219 58.21875 C 62.117188 57.894531 62.402344 57.5625 62.6875 57.230469 C 63.355469 56.441406 64.03125 55.660156 64.722656 54.894531 Z M 64.722656 54.894531 "/>
<path style=" stroke:none;fill-rule:nonzero;fill:rgb(6.27451%,9.411765%,72.941178%);fill-opacity:1;" d="M 88.808594 38.09375 C 88.867188 38.09375 88.925781 38.09375 88.984375 38.09375 C 88.839844 38.464844 88.574219 38.722656 88.308594 39.003906 C 87.925781 39.417969 87.5625 39.839844 87.21875 40.285156 C 86.714844 40.929688 86.1875 41.550781 85.640625 42.160156 C 85.347656 42.488281 85.070312 42.832031 84.804688 43.183594 C 84.285156 43.867188 83.734375 44.523438 83.179688 45.175781 C 82.847656 45.566406 82.523438 45.96875 82.199219 46.371094 C 81.898438 46.742188 81.589844 47.105469 81.28125 47.464844 C 81.089844 47.691406 80.910156 47.910156 80.75 48.15625 C 80.691406 48.15625 80.632812 48.15625 80.574219 48.15625 C 80.601562 48.070312 80.632812 47.984375 80.660156 47.898438 C 80.757812 47.636719 80.757812 47.636719 80.75 47.4375 C 80.8125 47.417969 80.875 47.398438 80.941406 47.382812 C 81.261719 47.222656 81.441406 47 81.65625 46.722656 C 81.699219 46.671875 81.742188 46.621094 81.785156 46.566406 C 81.914062 46.40625 82.039062 46.25 82.167969 46.089844 C 82.300781 45.925781 82.433594 45.761719 82.566406 45.59375 C 82.628906 45.515625 82.695312 45.4375 82.757812 45.355469 C 83.1875 44.824219 83.625 44.304688 84.0625 43.785156 C 84.546875 43.203125 85.03125 42.621094 85.503906 42.03125 C 85.773438 41.699219 86.046875 41.371094 86.320312 41.042969 C 86.578125 40.738281 86.828125 40.429688 87.074219 40.117188 C 87.425781 39.675781 87.800781 39.261719 88.179688 38.851562 C 88.363281 38.652344 88.539062 38.457031 88.695312 38.238281 C 88.730469 38.191406 88.769531 38.144531 88.808594 38.09375 Z M 88.808594 38.09375 "/>
<path style=" stroke:none;fill-rule:nonzero;fill:rgb(7.450981%,10.588235%,76.862746%);fill-opacity:1;" d="M 52.769531 54.535156 C 52.800781 54.535156 52.828125 54.535156 52.859375 54.535156 C 52.808594 55.28125 52.71875 56.015625 52.605469 56.753906 C 52.589844 56.855469 52.574219 56.957031 52.558594 57.0625 C 52.46875 57.628906 52.375 58.195312 52.273438 58.757812 C 51.746094 61.300781 51.746094 61.300781 52.328125 63.699219 C 52.890625 64.378906 53.71875 64.707031 54.542969 64.957031 C 54.542969 64.988281 54.542969 65.015625 54.542969 65.046875 C 53.726562 65.105469 53.726562 65.105469 53.460938 64.890625 C 53.410156 64.824219 53.355469 64.757812 53.300781 64.6875 C 53.148438 64.597656 52.992188 64.503906 52.835938 64.417969 C 52.617188 64.289062 52.425781 64.140625 52.238281 63.96875 C 52.238281 63.910156 52.238281 63.851562 52.238281 63.789062 C 52.152344 63.757812 52.0625 63.730469 51.972656 63.699219 C 51.472656 62.625 51.703125 61.296875 51.859375 60.167969 C 51.875 60.046875 51.890625 59.929688 51.90625 59.808594 C 52.085938 58.4375 52.292969 57.070312 52.503906 55.703125 C 52.53125 55.542969 52.53125 55.542969 52.554688 55.382812 C 52.570312 55.28125 52.585938 55.183594 52.601562 55.082031 C 52.613281 54.996094 52.628906 54.910156 52.640625 54.820312 C 52.683594 54.625 52.683594 54.625 52.769531 54.535156 Z M 52.769531 54.535156 "/>
<path style=" stroke:none;fill-rule:nonzero;fill:rgb(7.058824%,10.196079%,75.686276%);fill-opacity:1;" d="M 90.046875 43.125 C 90.074219 43.125 90.105469 43.125 90.136719 43.125 C 90.171875 44.902344 90.171875 44.902344 89.957031 45.550781 C 89.941406 45.746094 89.925781 45.945312 89.914062 46.140625 C 89.90625 46.257812 89.898438 46.375 89.890625 46.496094 C 89.882812 46.621094 89.878906 46.746094 89.871094 46.871094 C 89.789062 48.230469 89.789062 48.230469 89.734375 48.648438 C 89.609375 49.613281 89.585938 50.660156 90.101562 51.515625 C 90.460938 51.933594 91.039062 52.140625 91.550781 52.289062 C 91.550781 52.320312 91.550781 52.347656 91.550781 52.378906 C 90.867188 52.339844 90.40625 52.128906 89.929688 51.621094 C 89.667969 51.214844 89.472656 50.898438 89.515625 50.402344 C 89.457031 50.371094 89.398438 50.34375 89.339844 50.3125 C 89.382812 50.269531 89.382812 50.269531 89.425781 50.222656 C 89.429688 50.066406 89.429688 49.910156 89.425781 49.75 C 89.421875 49.152344 89.464844 48.566406 89.519531 47.972656 C 89.527344 47.867188 89.535156 47.757812 89.546875 47.648438 C 89.566406 47.421875 89.585938 47.195312 89.605469 46.96875 C 89.636719 46.625 89.667969 46.28125 89.695312 45.9375 C 89.714844 45.714844 89.734375 45.492188 89.753906 45.273438 C 89.765625 45.171875 89.773438 45.070312 89.78125 44.964844 C 89.839844 44.34375 89.925781 43.738281 90.046875 43.125 Z M 90.046875 43.125 "/>
<path style=" stroke:none;fill-rule:nonzero;fill:rgb(7.058824%,9.803922%,73.333335%);fill-opacity:1;" d="M 71.011719 49.324219 C 71.070312 49.324219 71.128906 49.324219 71.1875 49.324219 C 71.191406 49.433594 71.195312 49.546875 71.199219 49.660156 C 71.238281 51.519531 71.238281 51.519531 72 53.164062 C 72.71875 53.75 73.648438 54.175781 74.578125 54.214844 C 75.328125 54.125 75.738281 53.851562 76.234375 53.277344 C 76.234375 53.546875 76.234375 53.546875 76.046875 53.765625 C 75.578125 54.191406 75.222656 54.433594 74.585938 54.472656 C 73.574219 54.382812 72.472656 53.941406 71.742188 53.214844 C 70.929688 52.121094 70.976562 50.628906 71.011719 49.324219 Z M 71.011719 49.324219 "/>
<path style=" stroke:none;fill-rule:nonzero;fill:rgb(6.666667%,10.196079%,75.294119%);fill-opacity:1;" d="M 70.746094 49.234375 C 70.789062 49.324219 70.789062 49.324219 70.832031 49.414062 C 70.785156 49.445312 70.742188 49.472656 70.691406 49.503906 C 69.269531 50.4375 68.0625 51.671875 66.871094 52.882812 C 66.71875 53.039062 66.570312 53.191406 66.417969 53.34375 C 65.832031 53.933594 65.832031 53.933594 65.285156 54.5625 C 65.21875 54.640625 65.148438 54.722656 65.078125 54.804688 C 65.019531 54.804688 64.960938 54.804688 64.902344 54.804688 C 65.007812 54.390625 65.214844 54.222656 65.53125 53.964844 C 65.695312 53.816406 65.832031 53.667969 65.976562 53.496094 C 66.273438 53.136719 66.59375 52.800781 66.921875 52.46875 C 66.972656 52.414062 67.023438 52.363281 67.074219 52.308594 C 67.203125 52.179688 67.335938 52.054688 67.46875 51.929688 C 67.527344 51.929688 67.585938 51.929688 67.644531 51.929688 C 67.664062 51.882812 67.683594 51.832031 67.699219 51.78125 C 67.871094 51.484375 68.109375 51.277344 68.359375 51.046875 C 68.410156 51 68.460938 50.953125 68.515625 50.902344 C 68.867188 50.582031 69.230469 50.277344 69.609375 49.988281 C 69.773438 49.867188 69.773438 49.867188 69.902344 49.722656 C 70.058594 49.574219 70.210938 49.492188 70.40625 49.398438 C 70.46875 49.367188 70.535156 49.335938 70.597656 49.304688 C 70.671875 49.269531 70.671875 49.269531 70.746094 49.234375 Z M 70.746094 49.234375 "/>
<path style=" stroke:none;fill-rule:nonzero;fill:rgb(6.666667%,9.411765%,73.725492%);fill-opacity:1;" d="M 53.746094 48.875 C 53.773438 48.875 53.804688 48.875 53.832031 48.875 C 53.839844 49.027344 53.839844 49.179688 53.84375 49.328125 C 53.847656 49.414062 53.847656 49.5 53.851562 49.585938 C 53.835938 49.84375 53.777344 50.058594 53.707031 50.304688 C 53.609375 50.671875 53.550781 51.046875 53.484375 51.417969 C 53.46875 51.503906 53.453125 51.59375 53.4375 51.679688 C 53.386719 51.957031 53.339844 52.234375 53.292969 52.507812 C 53.257812 52.695312 53.222656 52.882812 53.191406 53.070312 C 53.109375 53.527344 53.027344 53.988281 52.949219 54.445312 C 52.917969 54.445312 52.890625 54.445312 52.859375 54.445312 C 52.84375 53.835938 52.902344 53.273438 53.007812 52.675781 C 53.03125 52.542969 53.03125 52.542969 53.054688 52.40625 C 53.085938 52.21875 53.121094 52.03125 53.152344 51.84375 C 53.203125 51.558594 53.25 51.273438 53.300781 50.988281 C 53.332031 50.804688 53.363281 50.625 53.394531 50.441406 C 53.410156 50.355469 53.425781 50.273438 53.441406 50.183594 C 53.519531 49.738281 53.613281 49.308594 53.746094 48.875 Z M 53.746094 48.875 "/>
<path style=" stroke:none;fill-rule:nonzero;fill:rgb(7.450981%,10.980392%,77.254903%);fill-opacity:1;" d="M 105.277344 41.238281 C 105.449219 41.890625 105.5625 42.484375 105.539062 43.160156 C 105.542969 43.40625 105.582031 43.621094 105.636719 43.859375 C 105.730469 44.273438 105.707031 44.59375 105.628906 45.011719 C 105.601562 45.011719 105.570312 45.011719 105.542969 45.011719 C 105.539062 44.929688 105.53125 44.84375 105.527344 44.757812 C 105.523438 44.652344 105.515625 44.542969 105.507812 44.433594 C 105.503906 44.324219 105.496094 44.21875 105.488281 44.109375 C 105.476562 44.019531 105.464844 43.933594 105.453125 43.84375 C 105.394531 43.8125 105.335938 43.785156 105.277344 43.753906 C 105.238281 43.527344 105.238281 43.527344 105.21875 43.234375 C 105.210938 43.128906 105.207031 43.023438 105.199219 42.914062 C 105.191406 42.804688 105.183594 42.695312 105.175781 42.582031 C 105.167969 42.46875 105.160156 42.359375 105.152344 42.242188 C 105.132812 41.96875 105.117188 41.691406 105.097656 41.417969 C 105.011719 41.386719 104.921875 41.359375 104.832031 41.328125 C 105.097656 41.238281 105.097656 41.238281 105.277344 41.238281 Z M 105.277344 41.238281 "/>
<path style=" stroke:none;fill-rule:nonzero;fill:rgb(6.666667%,9.019608%,73.333335%);fill-opacity:1;" d="M 57.199219 53.1875 C 57.226562 53.1875 57.257812 53.1875 57.285156 53.1875 C 57.304688 53.773438 57.242188 54.308594 57.148438 54.882812 C 57.101562 55.222656 57.097656 55.542969 57.109375 55.882812 C 57.050781 55.882812 56.992188 55.882812 56.933594 55.882812 C 56.929688 55.9375 56.921875 55.992188 56.917969 56.046875 C 56.914062 56.117188 56.90625 56.191406 56.898438 56.265625 C 56.894531 56.335938 56.886719 56.40625 56.878906 56.480469 C 56.84375 56.699219 56.773438 56.859375 56.667969 57.050781 C 56.617188 56.183594 56.765625 55.378906 56.933594 54.535156 C 56.945312 54.46875 56.957031 54.402344 56.972656 54.335938 C 57.042969 53.953125 57.121094 53.570312 57.199219 53.1875 Z M 57.199219 53.1875 "/>
<path style=" stroke:none;fill-rule:nonzero;fill:rgb(6.666667%,8.627451%,69.01961%);fill-opacity:1;" d="M 78.183594 44.382812 C 78.242188 44.414062 78.300781 44.441406 78.359375 44.472656 C 78.292969 44.539062 78.292969 44.539062 78.226562 44.605469 C 77.867188 44.964844 77.523438 45.328125 77.195312 45.71875 C 77.007812 45.9375 76.816406 46.152344 76.621094 46.363281 C 76.386719 46.625 76.171875 46.886719 75.972656 47.179688 C 75.914062 47.265625 75.855469 47.351562 75.792969 47.4375 C 75.734375 47.4375 75.675781 47.4375 75.613281 47.4375 C 75.746094 46.980469 76.023438 46.710938 76.339844 46.375 C 76.445312 46.265625 76.550781 46.152344 76.652344 46.039062 C 76.703125 45.988281 76.753906 45.933594 76.804688 45.878906 C 76.972656 45.699219 77.128906 45.515625 77.285156 45.332031 C 77.570312 45 77.871094 44.6875 78.183594 44.382812 Z M 78.183594 44.382812 "/>
<path style=" stroke:none;fill-rule:nonzero;fill:rgb(8.235294%,11.764706%,76.078433%);fill-opacity:1;" d="M 105.84375 37.085938 C 106.457031 37.050781 106.875 37.238281 107.402344 37.554688 C 107.402344 37.613281 107.402344 37.671875 107.402344 37.734375 C 107.140625 37.679688 107.011719 37.621094 106.78125 37.464844 C 106.53125 37.449219 106.289062 37.445312 106.039062 37.449219 C 105.9375 37.449219 105.9375 37.449219 105.835938 37.449219 C 105.492188 37.449219 105.171875 37.46875 104.832031 37.554688 C 104.804688 37.496094 104.773438 37.4375 104.746094 37.375 C 105.039062 37.074219 105.445312 37.125 105.84375 37.085938 Z M 105.84375 37.085938 "/>
<path style=" stroke:none;fill-rule:nonzero;fill:rgb(5.882353%,8.627451%,72.156864%);fill-opacity:1;" d="M 80.394531 48.246094 C 80.394531 48.597656 80.285156 48.679688 80.0625 48.949219 C 79.992188 49.035156 79.921875 49.121094 79.847656 49.210938 C 79.765625 49.308594 79.679688 49.40625 79.597656 49.503906 C 79.554688 49.558594 79.507812 49.613281 79.460938 49.667969 C 79.0625 50.136719 79.0625 50.136719 78.890625 50.339844 C 78.699219 50.566406 78.523438 50.785156 78.359375 51.03125 C 78.300781 51.03125 78.242188 51.03125 78.183594 51.03125 C 78.328125 50.679688 78.5625 50.414062 78.808594 50.128906 C 78.894531 50.023438 78.984375 49.917969 79.070312 49.816406 C 79.113281 49.765625 79.160156 49.710938 79.203125 49.660156 C 79.460938 49.347656 79.714844 49.03125 79.964844 48.71875 C 80.101562 48.550781 80.242188 48.394531 80.394531 48.246094 Z M 80.394531 48.246094 "/>
<path style=" stroke:none;fill-rule:nonzero;fill:rgb(6.27451%,10.196079%,76.47059%);fill-opacity:1;" d="M 94.296875 42.765625 C 94.324219 42.765625 94.355469 42.765625 94.386719 42.765625 C 94.421875 43.457031 94.363281 44.117188 94.265625 44.804688 C 94.246094 44.925781 94.246094 44.925781 94.230469 45.046875 C 94.21875 45.125 94.207031 45.199219 94.195312 45.277344 C 94.183594 45.34375 94.175781 45.414062 94.164062 45.484375 C 94.148438 45.535156 94.136719 45.585938 94.121094 45.640625 C 94.03125 45.683594 94.03125 45.683594 93.941406 45.730469 C 93.90625 44.953125 94.03125 44.238281 94.175781 43.476562 C 94.21875 43.242188 94.257812 43.003906 94.296875 42.765625 Z M 94.296875 42.765625 "/>
<path style=" stroke:none;fill-rule:nonzero;fill:rgb(6.666667%,9.803922%,74.117649%);fill-opacity:1;" d="M 90.84375 35.757812 C 90.871094 35.816406 90.902344 35.875 90.933594 35.9375 C 90.757812 36.160156 90.585938 36.378906 90.410156 36.601562 C 90.300781 36.738281 90.191406 36.875 90.085938 37.015625 C 89.988281 37.140625 89.886719 37.257812 89.78125 37.375 C 89.722656 37.375 89.664062 37.375 89.605469 37.375 C 89.582031 37.429688 89.558594 37.484375 89.53125 37.539062 C 89.429688 37.730469 89.320312 37.855469 89.160156 38.003906 C 89.101562 37.972656 89.042969 37.945312 88.984375 37.914062 C 89.113281 37.75 89.242188 37.585938 89.371094 37.421875 C 89.445312 37.328125 89.515625 37.238281 89.589844 37.140625 C 89.652344 37.070312 89.714844 37 89.78125 36.925781 C 89.839844 36.925781 89.898438 36.925781 89.957031 36.925781 C 89.988281 36.835938 90.015625 36.746094 90.046875 36.65625 C 90.105469 36.65625 90.164062 36.65625 90.222656 36.65625 C 90.242188 36.609375 90.265625 36.558594 90.285156 36.511719 C 90.4375 36.226562 90.636719 36.003906 90.84375 35.757812 Z M 90.84375 35.757812 "/>
<path style=" stroke:none;fill-rule:nonzero;fill:rgb(7.450981%,9.803922%,70.980394%);fill-opacity:1;" d="M 89.605469 50.492188 C 89.695312 50.675781 89.785156 50.859375 89.867188 51.046875 C 90.199219 51.742188 90.644531 51.96875 91.335938 52.226562 C 91.40625 52.246094 91.480469 52.269531 91.550781 52.289062 C 91.550781 52.320312 91.550781 52.347656 91.550781 52.378906 C 90.863281 52.339844 90.398438 52.128906 89.925781 51.609375 C 89.660156 51.207031 89.582031 50.984375 89.605469 50.492188 Z M 89.605469 50.492188 "/>
<path style=" stroke:none;fill-rule:nonzero;fill:rgb(6.27451%,9.019608%,70.980394%);fill-opacity:1;" d="M 78.003906 51.03125 C 78.0625 51.03125 78.121094 51.03125 78.183594 51.03125 C 77.992188 51.441406 77.722656 51.765625 77.441406 52.113281 C 77.390625 52.179688 77.339844 52.246094 77.285156 52.3125 C 77.234375 52.375 77.1875 52.4375 77.132812 52.5 C 77.089844 52.554688 77.042969 52.613281 76.996094 52.671875 C 76.84375 52.839844 76.683594 52.964844 76.5 53.097656 C 76.65625 52.722656 76.90625 52.429688 77.152344 52.113281 C 77.195312 52.058594 77.238281 52.003906 77.28125 51.949219 C 77.367188 51.84375 77.449219 51.734375 77.535156 51.628906 C 77.640625 51.492188 77.746094 51.355469 77.847656 51.214844 C 77.925781 51.125 77.925781 51.125 78.003906 51.03125 Z M 78.003906 51.03125 "/>
<path style=" stroke:none;fill-rule:nonzero;fill:rgb(8.235294%,11.372549%,72.549021%);fill-opacity:1;" d="M 52.503906 63.96875 C 52.570312 64.011719 52.636719 64.050781 52.703125 64.09375 C 53.300781 64.460938 53.878906 64.742188 54.542969 64.957031 C 54.542969 64.988281 54.542969 65.015625 54.542969 65.046875 C 53.726562 65.105469 53.726562 65.105469 53.460938 64.890625 C 53.410156 64.824219 53.355469 64.757812 53.300781 64.6875 C 53.195312 64.625 53.089844 64.566406 52.980469 64.507812 C 52.679688 64.328125 52.632812 64.273438 52.503906 63.96875 Z M 52.503906 63.96875 "/>
<path style=" stroke:none;fill-rule:nonzero;fill:rgb(7.058824%,8.627451%,69.411767%);fill-opacity:1;" d="M 59.765625 53.636719 C 59.851562 53.667969 59.941406 53.695312 60.03125 53.726562 C 59.953125 53.8125 59.875 53.894531 59.796875 53.984375 C 59.691406 54.097656 59.585938 54.207031 59.484375 54.320312 C 59.433594 54.378906 59.382812 54.433594 59.328125 54.488281 C 59.019531 54.824219 58.722656 55.167969 58.4375 55.523438 C 58.4375 55.222656 58.480469 55.15625 58.648438 54.921875 C 58.707031 54.839844 58.707031 54.839844 58.765625 54.753906 C 58.804688 54.710938 58.839844 54.667969 58.878906 54.625 C 58.9375 54.625 58.996094 54.625 59.058594 54.625 C 59.082031 54.574219 59.105469 54.519531 59.128906 54.464844 C 59.238281 54.261719 59.359375 54.105469 59.511719 53.929688 C 59.558594 53.875 59.605469 53.820312 59.65625 53.761719 C 59.710938 53.699219 59.710938 53.699219 59.765625 53.636719 Z M 59.765625 53.636719 "/>
<path style=" stroke:none;fill-rule:nonzero;fill:rgb(7.058824%,12.941177%,85.490197%);fill-opacity:1;" d="M 72.691406 44.023438 C 72.722656 44.082031 72.75 44.140625 72.78125 44.203125 C 72.550781 44.191406 72.320312 44.179688 72.089844 44.167969 C 72.023438 44.167969 71.957031 44.164062 71.890625 44.160156 C 71.558594 44.144531 71.382812 44.125 71.097656 43.933594 C 71.636719 43.820312 72.21875 43.703125 72.691406 44.023438 Z M 72.691406 44.023438 "/>
<path style=" stroke:none;fill-rule:nonzero;fill:rgb(7.058824%,13.333334%,89.803922%);fill-opacity:1;" d="M 94.207031 42.046875 C 94.472656 42.046875 94.472656 42.046875 94.652344 42.136719 C 94.628906 42.296875 94.605469 42.457031 94.578125 42.621094 C 94.566406 42.710938 94.550781 42.800781 94.539062 42.890625 C 94.472656 43.125 94.472656 43.125 94.207031 43.304688 C 94.207031 42.890625 94.207031 42.472656 94.207031 42.046875 Z M 94.207031 42.046875 "/>
<path style=" stroke:none;fill-rule:nonzero;fill:rgb(7.058824%,9.803922%,70.588237%);fill-opacity:1;" d="M 107.3125 37.734375 C 107.613281 37.859375 107.726562 37.96875 107.859375 38.269531 C 107.902344 38.359375 107.902344 38.359375 107.945312 38.457031 C 108.101562 38.828125 108.117188 39.128906 108.109375 39.53125 C 107.925781 39.175781 107.804688 38.808594 107.675781 38.429688 C 107.578125 38.179688 107.457031 37.960938 107.3125 37.734375 Z M 107.3125 37.734375 "/>
<path style=" stroke:none;fill-rule:nonzero;fill:rgb(8.235294%,13.333334%,86.666667%);fill-opacity:1;" d="M 104.832031 37.195312 C 105.417969 37.226562 106.003906 37.253906 106.605469 37.285156 C 106.605469 37.316406 106.605469 37.34375 106.605469 37.375 C 106.46875 37.382812 106.46875 37.382812 106.328125 37.390625 C 106.207031 37.398438 106.089844 37.40625 105.96875 37.414062 C 105.90625 37.417969 105.847656 37.421875 105.785156 37.425781 C 105.460938 37.445312 105.152344 37.480469 104.832031 37.554688 C 104.804688 37.496094 104.773438 37.4375 104.746094 37.375 C 104.773438 37.316406 104.804688 37.257812 104.832031 37.195312 Z M 104.832031 37.195312 "/>
<path style=" stroke:none;fill-rule:nonzero;fill:rgb(5.882353%,8.627451%,72.156864%);fill-opacity:1;" d="M 101.027344 44.023438 C 101.085938 44.054688 101.144531 44.082031 101.203125 44.113281 C 100.835938 44.496094 100.460938 44.855469 100.050781 45.191406 C 99.992188 45.160156 99.933594 45.132812 99.875 45.101562 C 100 44.972656 100.125 44.84375 100.25 44.714844 C 100.320312 44.640625 100.390625 44.570312 100.464844 44.496094 C 100.644531 44.320312 100.824219 44.167969 101.027344 44.023438 Z M 101.027344 44.023438 "/>
<path style=" stroke:none;fill-rule:nonzero;fill:rgb(6.27451%,10.588235%,80.784315%);fill-opacity:1;" d="M 53.390625 50.492188 C 53.621094 50.847656 53.550781 50.980469 53.480469 51.390625 C 53.460938 51.523438 53.445312 51.65625 53.429688 51.789062 C 53.410156 51.949219 53.410156 51.949219 53.390625 52.109375 C 53.332031 52.050781 53.273438 51.992188 53.214844 51.929688 C 53.230469 51.679688 53.253906 51.445312 53.289062 51.199219 C 53.300781 51.132812 53.308594 51.0625 53.320312 50.996094 C 53.34375 50.828125 53.367188 50.660156 53.390625 50.492188 Z M 53.390625 50.492188 "/>
<path style=" stroke:none;fill-rule:nonzero;fill:rgb(8.235294%,12.156863%,79.215688%);fill-opacity:1;" d="M 56.933594 41.148438 C 56.671875 41.289062 56.417969 41.386719 56.136719 41.46875 C 56.058594 41.492188 55.984375 41.511719 55.910156 41.535156 C 55.71875 41.589844 55.53125 41.640625 55.339844 41.6875 C 55.769531 41.164062 56.289062 41.121094 56.933594 41.148438 Z M 56.933594 41.148438 "/>
<path style=" stroke:none;fill-rule:nonzero;fill:rgb(9.411765%,9.803922%,66.666669%);fill-opacity:1;" d="M 41.261719 61.183594 C 40.773438 61.445312 40.382812 61.519531 39.84375 61.363281 C 39.816406 61.304688 39.785156 61.246094 39.753906 61.183594 C 39.859375 61.183594 39.859375 61.183594 39.960938 61.1875 C 40.09375 61.1875 40.09375 61.1875 40.230469 61.1875 C 40.363281 61.191406 40.363281 61.191406 40.5 61.191406 C 41.203125 61.164062 41.203125 61.164062 41.261719 61.183594 Z M 41.261719 61.183594 "/>
<path style=" stroke:none;fill-rule:nonzero;fill:rgb(6.666667%,10.980392%,81.176472%);fill-opacity:1;" d="M 75.527344 47.347656 C 75.585938 47.40625 75.644531 47.464844 75.703125 47.527344 C 75.589844 47.679688 75.472656 47.832031 75.347656 47.976562 C 75.289062 47.976562 75.230469 47.976562 75.171875 47.976562 C 75.144531 48.066406 75.113281 48.15625 75.082031 48.246094 C 74.964844 48.246094 74.847656 48.246094 74.730469 48.246094 C 74.757812 48.128906 74.789062 48.007812 74.816406 47.886719 C 74.847656 47.945312 74.875 48.003906 74.90625 48.066406 C 75.109375 47.828125 75.316406 47.59375 75.527344 47.347656 Z M 75.527344 47.347656 "/>
<path style=" stroke:none;fill-rule:nonzero;fill:rgb(7.450981%,10.980392%,80.392158%);fill-opacity:1;" d="M 56.933594 54.535156 C 57.109375 54.714844 57.109375 54.714844 57.125 54.988281 C 57.125 55.09375 57.121094 55.199219 57.121094 55.308594 C 57.117188 55.417969 57.117188 55.523438 57.117188 55.632812 C 57.113281 55.714844 57.113281 55.796875 57.109375 55.882812 C 57.050781 55.882812 56.992188 55.882812 56.933594 55.882812 C 56.8125 54.933594 56.8125 54.933594 56.933594 54.535156 Z M 56.933594 54.535156 "/>
<path style=" stroke:none;fill-rule:nonzero;fill:rgb(6.666667%,9.019608%,69.411767%);fill-opacity:1;" d="M 46.308594 56.152344 C 46.335938 56.242188 46.367188 56.332031 46.394531 56.421875 C 46.335938 56.421875 46.277344 56.421875 46.21875 56.421875 C 46.191406 56.511719 46.160156 56.601562 46.128906 56.691406 C 45.984375 56.835938 45.984375 56.835938 45.816406 56.976562 C 45.757812 57.023438 45.703125 57.074219 45.644531 57.121094 C 45.597656 57.15625 45.554688 57.195312 45.511719 57.230469 C 45.453125 57.199219 45.394531 57.171875 45.332031 57.140625 C 45.65625 56.816406 45.976562 56.488281 46.308594 56.152344 Z M 46.308594 56.152344 "/>
<path style=" stroke:none;fill-rule:nonzero;fill:rgb(7.450981%,14.117648%,87.450981%);fill-opacity:1;" d="M 105.277344 41.238281 C 105.355469 41.683594 105.355469 42.050781 105.277344 42.496094 C 105.246094 42.496094 105.21875 42.496094 105.1875 42.496094 C 105.160156 42.140625 105.128906 41.785156 105.097656 41.417969 C 105.011719 41.386719 104.921875 41.359375 104.832031 41.328125 C 105.097656 41.238281 105.097656 41.238281 105.277344 41.238281 Z M 105.277344 41.238281 "/>
<path style=" stroke:none;fill-rule:nonzero;fill:rgb(9.019608%,14.901961%,86.666667%);fill-opacity:1;" d="M 89.425781 49.144531 C 89.457031 49.144531 89.484375 49.144531 89.515625 49.144531 C 89.550781 49.363281 89.582031 49.578125 89.617188 49.796875 C 89.625 49.855469 89.636719 49.917969 89.644531 49.980469 C 89.695312 50.328125 89.71875 50.558594 89.515625 50.851562 C 89.515625 50.703125 89.515625 50.554688 89.515625 50.402344 C 89.457031 50.371094 89.398438 50.34375 89.339844 50.3125 C 89.367188 50.28125 89.398438 50.253906 89.425781 50.222656 C 89.433594 50.042969 89.433594 49.859375 89.433594 49.679688 C 89.433594 49.578125 89.429688 49.480469 89.429688 49.378906 C 89.429688 49.300781 89.429688 49.222656 89.425781 49.144531 Z M 89.425781 49.144531 "/>
<path style=" stroke:none;fill-rule:nonzero;fill:rgb(6.27451%,10.196079%,78.823531%);fill-opacity:1;" d="M 80.75 47.4375 C 80.925781 47.4375 81.101562 47.4375 81.28125 47.4375 C 81.195312 47.558594 81.113281 47.675781 81.027344 47.796875 C 80.980469 47.863281 80.933594 47.929688 80.882812 48 C 80.839844 48.050781 80.796875 48.101562 80.75 48.15625 C 80.691406 48.15625 80.632812 48.15625 80.574219 48.15625 C 80.601562 48.070312 80.632812 47.984375 80.660156 47.898438 C 80.757812 47.636719 80.757812 47.636719 80.75 47.4375 Z M 80.75 47.4375 "/>
<path style=" stroke:none;fill-rule:nonzero;fill:rgb(7.058824%,8.627451%,70.19608%);fill-opacity:1;" d="M 65.433594 47.976562 C 65.492188 48.007812 65.550781 48.035156 65.609375 48.066406 C 65.347656 48.332031 65.082031 48.601562 64.8125 48.875 C 64.785156 48.785156 64.753906 48.695312 64.722656 48.605469 C 64.957031 48.398438 65.191406 48.191406 65.433594 47.976562 Z M 65.433594 47.976562 "/>
<path style=" stroke:none;fill-rule:nonzero;fill:rgb(7.058824%,11.764706%,78.823531%);fill-opacity:1;" d="M 58.082031 47.4375 C 58.113281 47.4375 58.140625 47.4375 58.171875 47.4375 C 58.179688 47.898438 58.175781 48.332031 58.082031 48.785156 C 58.054688 48.785156 58.023438 48.785156 57.996094 48.785156 C 57.890625 48.273438 57.9375 47.9375 58.082031 47.4375 Z M 58.082031 47.4375 "/>
<path style=" stroke:none;fill-rule:nonzero;fill:rgb(7.450981%,12.54902%,82.745099%);fill-opacity:1;" d="M 105.453125 43.394531 C 105.480469 43.394531 105.511719 43.394531 105.542969 43.394531 C 105.683594 43.96875 105.738281 44.429688 105.628906 45.011719 C 105.601562 45.011719 105.570312 45.011719 105.542969 45.011719 C 105.472656 44.464844 105.445312 43.945312 105.453125 43.394531 Z M 105.453125 43.394531 "/>
<path style=" stroke:none;fill-rule:nonzero;fill:rgb(7.450981%,10.980392%,76.078433%);fill-opacity:1;" d="M 42.058594 55.164062 C 42.117188 55.222656 42.175781 55.28125 42.234375 55.34375 C 42.058594 55.523438 41.882812 55.699219 41.703125 55.882812 C 41.617188 55.851562 41.527344 55.824219 41.4375 55.792969 C 41.640625 55.585938 41.847656 55.378906 42.058594 55.164062 Z M 42.058594 55.164062 "/>
<path style=" stroke:none;fill-rule:nonzero;fill:rgb(7.058824%,10.980392%,78.039217%);fill-opacity:1;" d="M 60.472656 52.917969 C 60.53125 52.976562 60.589844 53.035156 60.652344 53.097656 C 60.476562 53.277344 60.300781 53.453125 60.121094 53.636719 C 60.03125 53.605469 59.945312 53.578125 59.855469 53.546875 C 60.058594 53.339844 60.261719 53.132812 60.472656 52.917969 Z M 60.472656 52.917969 "/>
<path style=" stroke:none;fill-rule:nonzero;fill:rgb(5.882353%,9.803922%,73.333335%);fill-opacity:1;" d="M 105.097656 41.328125 C 104.957031 41.40625 104.816406 41.484375 104.671875 41.558594 C 104.59375 41.601562 104.515625 41.644531 104.433594 41.6875 C 104.214844 41.777344 104.214844 41.777344 103.949219 41.6875 C 104.074219 41.609375 104.199219 41.53125 104.324219 41.457031 C 104.394531 41.414062 104.464844 41.371094 104.535156 41.328125 C 104.773438 41.226562 104.863281 41.238281 105.097656 41.328125 Z M 105.097656 41.328125 "/>
<path style=" stroke:none;fill-rule:nonzero;fill:rgb(7.450981%,11.372549%,81.568629%);fill-opacity:1;" d="M 68.621094 45.191406 C 68.648438 45.308594 68.679688 45.429688 68.707031 45.550781 C 68.503906 45.691406 68.503906 45.691406 68.265625 45.820312 C 68.179688 45.789062 68.089844 45.761719 68 45.730469 C 68.203125 45.550781 68.410156 45.375 68.621094 45.191406 Z M 68.621094 45.191406 "/>
<path style=" stroke:none;fill-rule:nonzero;fill:rgb(6.27451%,12.54902%,90.588236%);fill-opacity:1;" d="M 38.691406 59.476562 C 38.824219 59.566406 38.824219 59.566406 38.957031 59.65625 C 38.976562 59.980469 38.976562 59.980469 38.957031 60.285156 C 38.839844 60.226562 38.722656 60.167969 38.605469 60.105469 C 38.632812 59.898438 38.664062 59.691406 38.691406 59.476562 Z M 38.691406 59.476562 "/>
<path style=" stroke:none;fill-rule:nonzero;fill:rgb(7.843138%,12.156863%,81.176472%);fill-opacity:1;" d="M 81.988281 40.160156 C 81.988281 40.511719 81.855469 40.621094 81.636719 40.878906 C 81.546875 40.847656 81.460938 40.820312 81.371094 40.789062 C 81.574219 40.582031 81.777344 40.375 81.988281 40.160156 Z M 81.988281 40.160156 "/>
<path style=" stroke:none;fill-rule:nonzero;fill:rgb(7.450981%,10.980392%,76.47059%);fill-opacity:1;" d="M 40.109375 57.320312 C 40.167969 57.378906 40.226562 57.4375 40.285156 57.5 C 40.109375 57.707031 39.9375 57.914062 39.753906 58.128906 C 39.695312 58.070312 39.636719 58.011719 39.578125 57.949219 C 39.753906 57.742188 39.929688 57.535156 40.109375 57.320312 Z M 40.109375 57.320312 "/>
<path style=" stroke:none;fill-rule:nonzero;fill:rgb(6.27451%,10.588235%,80.000001%);fill-opacity:1;" d="M 65.253906 54.265625 C 65.34375 54.296875 65.429688 54.324219 65.519531 54.355469 C 65.378906 54.507812 65.230469 54.660156 65.078125 54.804688 C 65.019531 54.804688 64.960938 54.804688 64.902344 54.804688 C 65.054688 54.367188 65.054688 54.367188 65.253906 54.265625 Z M 65.253906 54.265625 "/>
<path style=" stroke:none;fill-rule:nonzero;fill:rgb(6.27451%,7.450981%,65.882355%);fill-opacity:1;" d="M 81.722656 46.628906 C 81.753906 46.6875 81.78125 46.746094 81.8125 46.808594 C 81.636719 47.015625 81.460938 47.222656 81.28125 47.4375 C 81.222656 47.40625 81.164062 47.378906 81.105469 47.347656 C 81.308594 47.109375 81.511719 46.875 81.722656 46.628906 Z M 81.722656 46.628906 "/>
<path style=" stroke:none;fill-rule:nonzero;fill:rgb(7.058824%,9.019608%,69.411767%);fill-opacity:1;" d="M 98.902344 41.328125 C 98.960938 41.359375 99.019531 41.386719 99.078125 41.417969 C 98.980469 41.523438 98.878906 41.628906 98.78125 41.734375 C 98.722656 41.789062 98.667969 41.847656 98.609375 41.910156 C 98.457031 42.046875 98.457031 42.046875 98.28125 42.046875 C 98.402344 41.675781 98.601562 41.570312 98.902344 41.328125 Z M 98.902344 41.328125 "/>
<path style=" stroke:none;fill-rule:nonzero;fill:rgb(5.490196%,11.764706%,91.764706%);fill-opacity:1;" d="M 64.722656 54.625 C 64.78125 54.625 64.839844 54.625 64.902344 54.625 C 64.929688 54.714844 64.960938 54.804688 64.988281 54.894531 C 64.8125 54.984375 64.640625 55.074219 64.457031 55.164062 C 64.507812 54.90625 64.535156 54.816406 64.722656 54.625 Z M 64.722656 54.625 "/>
<path style=" stroke:none;fill-rule:nonzero;fill:rgb(10.196079%,17.254902%,93.333334%);fill-opacity:1;" d="M 73.753906 54.445312 C 73.902344 54.445312 74.046875 54.445312 74.199219 54.445312 C 74.199219 54.476562 74.199219 54.503906 74.199219 54.535156 C 74.050781 54.535156 73.90625 54.535156 73.753906 54.535156 C 73.753906 54.503906 73.753906 54.476562 73.753906 54.445312 Z M 73.753906 54.445312 "/>
<path style=" stroke:none;fill-rule:nonzero;fill:rgb(40.000001%,38.431373%,50.196081%);fill-opacity:1;" d="M 83.9375 91.011719 C 84.023438 91.054688 84.023438 91.054688 84.113281 91.101562 C 84.027344 91.144531 84.027344 91.144531 83.9375 91.191406 C 83.9375 91.132812 83.9375 91.074219 83.9375 91.011719 Z M 83.9375 91.011719 "/>
<path style=" stroke:none;fill-rule:nonzero;fill:rgb(39.607844%,37.64706%,50.588238%);fill-opacity:1;" d="M 83.9375 83.105469 C 84.023438 83.148438 84.023438 83.148438 84.113281 83.195312 C 84.027344 83.238281 84.027344 83.238281 83.9375 83.285156 C 83.9375 83.226562 83.9375 83.167969 83.9375 83.105469 Z M 83.9375 83.105469 "/>
<path style=" stroke:none;fill-rule:nonzero;fill:rgb(40.392157%,38.039216%,50.196081%);fill-opacity:1;" d="M 83.9375 91.730469 C 84.113281 91.820312 84.113281 91.820312 84.113281 91.820312 Z M 83.9375 91.730469 "/>
<path style=" stroke:none;fill-rule:nonzero;fill:rgb(40.784314%,38.039216%,50.196081%);fill-opacity:1;" d="M 96.511719 90.113281 C 96.6875 90.203125 96.6875 90.203125 96.6875 90.203125 Z M 96.511719 90.113281 "/>
<path style=" stroke:none;fill-rule:nonzero;fill:rgb(40.392157%,38.039216%,50.588238%);fill-opacity:1;" d="M 83.9375 89.574219 C 84.113281 89.664062 84.113281 89.664062 84.113281 89.664062 Z M 83.9375 89.574219 "/>
<path style=" stroke:none;fill-rule:nonzero;fill:rgb(40.392157%,38.039216%,50.588238%);fill-opacity:1;" d="M 96.511719 87.957031 C 96.6875 88.046875 96.6875 88.046875 96.6875 88.046875 Z M 96.511719 87.957031 "/>
<path style=" stroke:none;fill-rule:nonzero;fill:rgb(40.392157%,38.039216%,50.588238%);fill-opacity:1;" d="M 96.511719 85.800781 C 96.6875 85.890625 96.6875 85.890625 96.6875 85.890625 Z M 96.511719 85.800781 "/>
<path style=" stroke:none;fill-rule:nonzero;fill:rgb(40.392157%,38.039216%,50.588238%);fill-opacity:1;" d="M 96.511719 83.644531 C 96.6875 83.734375 96.6875 83.734375 96.6875 83.734375 Z M 96.511719 83.644531 "/>
<path style=" stroke:none;fill-rule:nonzero;fill:rgb(39.607844%,37.64706%,50.196081%);fill-opacity:1;" d="M 96.511719 80.050781 C 96.6875 80.140625 96.6875 80.140625 96.6875 80.140625 Z M 96.511719 80.050781 "/>
<path style=" stroke:none;fill-rule:nonzero;fill:rgb(39.215687%,36.862746%,50.980395%);fill-opacity:1;" d="M 83.9375 79.511719 C 84.113281 79.601562 84.113281 79.601562 84.113281 79.601562 Z M 83.9375 79.511719 "/>
<path style=" stroke:none;fill-rule:nonzero;fill:rgb(38.039216%,36.470589%,50.980395%);fill-opacity:1;" d="M 83.9375 76.636719 C 84.113281 76.726562 84.113281 76.726562 84.113281 76.726562 Z M 83.9375 76.636719 "/>
<path style=" stroke:none;fill-rule:nonzero;fill:rgb(39.215687%,36.470589%,50.980395%);fill-opacity:1;" d="M 96.511719 75.738281 C 96.6875 75.828125 96.6875 75.828125 96.6875 75.828125 Z M 96.511719 75.738281 "/>
<path style=" stroke:none;fill-rule:nonzero;fill:rgb(38.039216%,36.862746%,51.372552%);fill-opacity:1;" d="M 92.261719 74.480469 C 92.4375 74.570312 92.4375 74.570312 92.4375 74.570312 Z M 92.261719 74.480469 "/>
<path style=" stroke:none;fill-rule:nonzero;fill:rgb(36.078432%,34.901962%,52.549022%);fill-opacity:1;" d="M 83.9375 72.324219 C 84.113281 72.414062 84.113281 72.414062 84.113281 72.414062 Z M 83.9375 72.324219 "/>
<path style=" stroke:none;fill-rule:nonzero;fill:rgb(36.078432%,34.117648%,52.941179%);fill-opacity:1;" d="M 83.9375 71.605469 C 84.113281 71.695312 84.113281 71.695312 84.113281 71.695312 Z M 83.9375 71.605469 "/>
<path style=" stroke:none;fill-rule:nonzero;fill:rgb(35.294119%,33.725491%,54.11765%);fill-opacity:1;" d="M 83.9375 70.167969 C 84.113281 70.257812 84.113281 70.257812 84.113281 70.257812 Z M 83.9375 70.167969 "/>
<path style=" stroke:none;fill-rule:nonzero;fill:rgb(30.588236%,30.588236%,60.000002%);fill-opacity:1;" d="M 83.9375 64.417969 C 84.113281 64.507812 84.113281 64.507812 84.113281 64.507812 Z M 83.9375 64.417969 "/>
<path style=" stroke:none;fill-rule:nonzero;fill:rgb(32.549021%,32.156864%,60.000002%);fill-opacity:1;" d="M 96.511719 62.800781 C 96.6875 62.890625 96.6875 62.890625 96.6875 62.890625 Z M 96.511719 62.800781 "/>
<path style=" stroke:none;fill-rule:nonzero;fill:rgb(10.196079%,17.647059%,92.941177%);fill-opacity:1;" d="M 73.578125 54.535156 C 73.753906 54.625 73.753906 54.625 73.753906 54.625 Z M 73.578125 54.535156 "/>
<path style=" stroke:none;fill-rule:nonzero;fill:rgb(10.196079%,17.254902%,92.156863%);fill-opacity:1;" d="M 72.691406 43.84375 C 72.871094 43.933594 72.871094 43.933594 72.871094 43.933594 Z M 72.691406 43.84375 "/>
<path style=" stroke:none;fill-rule:nonzero;fill:rgb(12.156863%,18.431373%,92.54902%);fill-opacity:1;" d="M 58.261719 41.777344 C 58.4375 41.867188 58.4375 41.867188 58.4375 41.867188 Z M 58.261719 41.777344 "/>
<path style=" stroke:none;fill-rule:nonzero;fill:rgb(10.980392%,18.039216%,92.941177%);fill-opacity:1;" d="M 56.222656 40.96875 C 56.402344 41.058594 56.402344 41.058594 56.402344 41.058594 Z M 56.222656 40.96875 "/>
<path style=" stroke:none;fill-rule:nonzero;fill:rgb(12.54902%,18.039216%,92.156863%);fill-opacity:1;" d="M 105.542969 36.925781 C 105.71875 37.015625 105.71875 37.015625 105.71875 37.015625 Z M 105.542969 36.925781 "/>
<path style=" stroke:none;fill-rule:nonzero;fill:rgb(10.196079%,18.039216%,92.54902%);fill-opacity:1;" d="M 92.792969 28.75 C 92.96875 28.839844 92.96875 28.839844 92.96875 28.839844 Z M 92.792969 28.75 "/>
<path style=" stroke:none;fill-rule:nonzero;fill:rgb(37.254903%,34.901962%,53.725493%);fill-opacity:1;" d="M 96.511719 16.082031 C 96.6875 16.171875 96.6875 16.171875 96.6875 16.171875 Z M 96.511719 16.082031 "/>
<path style=" stroke:none;fill-rule:nonzero;fill:rgb(36.862746%,35.294119%,51.372552%);fill-opacity:1;" d="M 83.9375 14.824219 C 84.113281 14.914062 84.113281 14.914062 84.113281 14.914062 Z M 83.9375 14.824219 "/>
<path style=" stroke:none;fill-rule:nonzero;fill:rgb(37.64706%,36.078432%,48.235294%);fill-opacity:1;" d="M 83.9375 10.511719 C 84.113281 10.601562 84.113281 10.601562 84.113281 10.601562 Z M 83.9375 10.511719 "/>
<path style=" stroke:none;fill-rule:nonzero;fill:rgb(38.039216%,36.078432%,47.843137%);fill-opacity:1;" d="M 88.1875 9.074219 C 88.363281 9.164062 88.363281 9.164062 88.363281 9.164062 Z M 88.1875 9.074219 "/>
<path style=" stroke:none;fill-rule:nonzero;fill:rgb(38.039216%,36.078432%,46.27451%);fill-opacity:1;" d="M 96.511719 5.300781 C 96.6875 5.390625 96.6875 5.390625 96.6875 5.390625 Z M 96.511719 5.300781 "/>
<path style=" stroke:none;fill-rule:nonzero;fill:rgb(38.039216%,35.686275%,46.666667%);fill-opacity:1;" d="M 96.511719 3.863281 C 96.6875 3.953125 96.6875 3.953125 96.6875 3.953125 Z M 96.511719 3.863281 "/>
<path style=" stroke:none;fill-rule:nonzero;fill:rgb(37.64706%,36.078432%,45.882353%);fill-opacity:1;" d="M 83.9375 3.324219 C 84.113281 3.414062 84.113281 3.414062 84.113281 3.414062 Z M 83.9375 3.324219 "/>
<path style=" stroke:none;fill-rule:nonzero;fill:rgb(38.039216%,35.686275%,46.27451%);fill-opacity:1;" d="M 96.511719 3.144531 C 96.6875 3.234375 96.6875 3.234375 96.6875 3.234375 Z M 96.511719 3.144531 "/>
<path style=" stroke:none;fill-rule:nonzero;fill:rgb(38.039216%,35.686275%,46.666667%);fill-opacity:1;" d="M 96.511719 2.425781 C 96.6875 2.515625 96.6875 2.515625 96.6875 2.515625 Z M 96.511719 2.425781 "/>
<path style=" stroke:none;fill-rule:nonzero;fill:rgb(37.64706%,35.686275%,45.490196%);fill-opacity:1;" d="M 83.9375 1.886719 C 84.113281 1.976562 84.113281 1.976562 84.113281 1.976562 Z M 83.9375 1.886719 "/>
<path style=" stroke:none;fill-rule:nonzero;fill:rgb(37.64706%,36.078432%,45.882353%);fill-opacity:1;" d="M 83.9375 1.167969 C 84.113281 1.257812 84.113281 1.257812 84.113281 1.257812 Z M 83.9375 1.167969 "/>
</g>
</svg>
