<?xml version="1.0" encoding="UTF-8"?>
<svg xmlns="http://www.w3.org/2000/svg" xmlns:xlink="http://www.w3.org/1999/xlink" width="80px" height="47px" viewBox="0 0 80 47" version="1.1">
<g id="surface1">
<path style=" stroke:none;fill-rule:nonzero;fill:rgb(6.27451%,6.666667%,6.666667%);fill-opacity:1;" d="M 40.832031 12.484375 C 40.992188 12.597656 40.992188 12.597656 41.09375 12.714844 C 41.144531 12.761719 41.144531 12.761719 41.199219 12.8125 C 42.183594 14.058594 41.992188 16.246094 41.707031 17.652344 C 41.679688 17.78125 41.648438 17.910156 41.613281 18.039062 C 41.628906 18.011719 41.644531 17.984375 41.660156 17.953125 C 42.230469 16.9375 42.230469 16.9375 42.550781 16.476562 C 42.59375 16.417969 42.632812 16.359375 42.671875 16.300781 C 42.941406 15.914062 43.226562 15.550781 43.542969 15.191406 C 43.574219 15.15625 43.605469 15.117188 43.636719 15.078125 C 44.054688 14.582031 44.667969 14.109375 45.359375 13.96875 C 45.851562 13.921875 46.324219 13.957031 46.738281 14.21875 C 47.121094 14.5 47.273438 14.800781 47.34375 15.238281 C 47.414062 16.53125 46.363281 17.699219 45.441406 18.605469 C 45.25 18.792969 45.046875 18.964844 44.84375 19.140625 C 44.878906 19.15625 44.914062 19.171875 44.949219 19.1875 C 44.980469 19.15625 45.015625 19.125 45.050781 19.09375 C 45.136719 19.0625 45.226562 19.03125 45.3125 19 C 45.421875 18.953125 45.527344 18.90625 45.636719 18.855469 C 45.730469 18.820312 45.730469 18.820312 45.832031 18.820312 C 45.851562 18.789062 45.867188 18.757812 45.886719 18.726562 C 45.988281 18.695312 46.09375 18.664062 46.199219 18.632812 C 46.285156 18.601562 46.371094 18.570312 46.457031 18.535156 C 46.769531 18.417969 47.085938 18.324219 47.410156 18.234375 C 47.457031 18.222656 47.507812 18.207031 47.554688 18.195312 C 47.695312 18.15625 47.832031 18.121094 47.96875 18.085938 C 48.035156 18.066406 48.101562 18.046875 48.167969 18.03125 C 48.472656 17.964844 48.792969 17.980469 49.105469 17.980469 C 49.167969 17.980469 49.234375 17.980469 49.296875 17.980469 C 49.359375 17.980469 49.421875 17.980469 49.484375 17.980469 C 49.539062 17.980469 49.59375 17.980469 49.652344 17.980469 C 49.792969 17.992188 49.792969 17.992188 49.949219 18.085938 C 50.023438 18.121094 50.101562 18.15625 50.175781 18.191406 C 50.554688 18.375 50.828125 18.644531 50.976562 19.007812 C 51.058594 19.292969 51.050781 19.582031 51.042969 19.875 C 51.007812 19.875 50.972656 19.875 50.9375 19.875 C 50.929688 19.917969 50.921875 19.960938 50.914062 20.007812 C 50.773438 20.4375 50.234375 20.804688 49.808594 21.019531 C 48.324219 21.734375 46.703125 21.957031 45.050781 22.167969 C 45.109375 22.175781 45.171875 22.183594 45.230469 22.195312 C 47.277344 22.484375 47.277344 22.484375 48.085938 22.714844 C 48.269531 22.761719 48.40625 22.777344 48.59375 22.765625 C 48.59375 22.796875 48.59375 22.828125 48.59375 22.859375 C 48.660156 22.878906 48.660156 22.878906 48.726562 22.902344 C 49.449219 23.160156 50.3125 23.519531 50.636719 24.183594 C 50.808594 24.609375 50.792969 24.953125 50.625 25.382812 C 50.351562 25.851562 49.960938 26.097656 49.40625 26.265625 C 48.679688 26.453125 47.953125 26.335938 47.238281 26.164062 C 47.203125 26.152344 47.167969 26.144531 47.128906 26.136719 C 46.582031 26 46.0625 25.800781 45.546875 25.589844 C 45.453125 25.550781 45.453125 25.550781 45.359375 25.511719 C 45.042969 25.378906 44.734375 25.238281 44.4375 25.074219 C 44.316406 25.011719 44.199219 24.953125 44.074219 24.894531 C 43.890625 24.804688 43.714844 24.707031 43.542969 24.601562 C 43.8125 24.886719 44.105469 25.148438 44.40625 25.410156 C 44.621094 25.597656 44.828125 25.789062 45.023438 25.988281 C 45.125 26.09375 45.230469 26.191406 45.339844 26.289062 C 46.125 27.050781 47.03125 27.996094 46.980469 29.089844 C 46.917969 29.480469 46.71875 29.796875 46.367188 30.042969 C 45.933594 30.292969 45.511719 30.34375 45 30.292969 C 43.921875 30.058594 43.257812 29.144531 42.714844 28.359375 C 42.421875 27.929688 42.148438 27.496094 41.925781 27.035156 C 41.910156 27 41.894531 26.964844 41.875 26.929688 C 41.753906 26.671875 41.632812 26.417969 41.511719 26.164062 C 41.457031 26.164062 41.40625 26.164062 41.355469 26.164062 C 41.359375 26.203125 41.367188 26.246094 41.375 26.285156 C 41.398438 26.441406 41.421875 26.59375 41.441406 26.75 C 41.453125 26.816406 41.464844 26.882812 41.472656 26.949219 C 41.488281 27.046875 41.503906 27.140625 41.515625 27.238281 C 41.527344 27.296875 41.535156 27.351562 41.542969 27.414062 C 41.5625 27.59375 41.566406 27.769531 41.5625 27.953125 C 41.597656 27.96875 41.632812 27.984375 41.667969 28 C 41.808594 30.917969 41.808594 30.917969 41.085938 31.726562 C 40.757812 32.003906 40.269531 32.128906 39.828125 32.144531 C 39.261719 32.132812 38.855469 31.9375 38.421875 31.628906 C 37.691406 30.820312 37.949219 29.445312 38.070312 28.5 C 38.199219 27.574219 38.4375 26.65625 38.699219 25.75 C 38.671875 25.804688 38.644531 25.859375 38.617188 25.914062 C 38.019531 27.113281 37.335938 28.207031 36.355469 29.191406 C 36.308594 29.238281 36.265625 29.28125 36.21875 29.328125 C 35.738281 29.78125 35.109375 30.09375 34.410156 30.175781 C 33.847656 30.117188 33.359375 29.949219 32.988281 29.5625 C 32.679688 29.152344 32.636719 28.6875 32.742188 28.214844 C 32.953125 27.523438 33.476562 26.949219 34.046875 26.453125 C 34.164062 26.347656 34.25 26.246094 34.324219 26.117188 C 34.355469 26.132812 34.390625 26.148438 34.425781 26.164062 C 34.425781 26.132812 34.425781 26.101562 34.425781 26.070312 C 34.503906 26.003906 34.503906 26.003906 34.609375 25.925781 C 34.839844 25.753906 35.050781 25.570312 35.261719 25.382812 C 35.527344 25.140625 35.800781 24.910156 36.09375 24.695312 C 35.9375 24.753906 35.777344 24.816406 35.621094 24.878906 C 35.574219 24.898438 35.527344 24.917969 35.476562 24.9375 C 35.230469 25.035156 34.984375 25.132812 34.742188 25.238281 C 33.914062 25.585938 33.078125 25.800781 32.1875 25.976562 C 32.125 25.992188 32.125 25.992188 32.058594 26.003906 C 31.804688 26.042969 31.546875 26.035156 31.292969 26.035156 C 31.207031 26.039062 31.207031 26.039062 31.121094 26.039062 C 30.503906 26.042969 29.910156 25.898438 29.433594 25.535156 C 29.09375 25.210938 28.941406 24.8125 28.957031 24.371094 C 29.058594 23.851562 29.300781 23.558594 29.785156 23.253906 C 30.425781 22.863281 31.125 22.691406 31.875 22.535156 C 31.933594 22.523438 31.933594 22.523438 31.996094 22.511719 C 32.515625 22.402344 33.039062 22.328125 33.570312 22.269531 C 33.628906 22.261719 33.6875 22.257812 33.746094 22.25 C 33.796875 22.246094 33.851562 22.238281 33.90625 22.234375 C 33.953125 22.230469 34 22.222656 34.050781 22.21875 C 34.167969 22.214844 34.167969 22.214844 34.269531 22.261719 C 34.289062 22.214844 34.304688 22.167969 34.324219 22.125 C 34.324219 22.152344 34.324219 22.183594 34.324219 22.214844 C 34.441406 22.199219 34.5625 22.183594 34.6875 22.167969 C 34.28125 22.050781 33.863281 22.019531 33.4375 22.03125 C 33.421875 21.984375 33.402344 21.941406 33.386719 21.894531 C 33.289062 21.886719 33.289062 21.886719 33.1875 21.878906 C 32.886719 21.851562 32.601562 21.777344 32.308594 21.699219 C 32.226562 21.675781 32.226562 21.675781 32.140625 21.65625 C 31.234375 21.414062 31.234375 21.414062 30.9375 21.296875 C 30.921875 21.265625 30.902344 21.234375 30.886719 21.203125 C 30.839844 21.191406 30.796875 21.179688 30.75 21.167969 C 30.53125 21.101562 30.363281 20.996094 30.171875 20.878906 C 29.925781 20.710938 29.925781 20.710938 29.636719 20.65625 C 29.613281 20.605469 29.589844 20.554688 29.566406 20.503906 C 29.503906 20.375 29.449219 20.285156 29.324219 20.195312 C 29.289062 20.210938 29.253906 20.226562 29.21875 20.242188 C 29.203125 20.179688 29.183594 20.121094 29.167969 20.058594 C 29.199219 20.058594 29.234375 20.058594 29.269531 20.058594 C 29.253906 20.027344 29.238281 19.992188 29.222656 19.960938 C 29.058594 19.570312 29.074219 19.148438 29.269531 18.773438 C 29.445312 18.484375 29.660156 18.285156 29.949219 18.085938 C 30 18.039062 30 18.039062 30.050781 17.992188 C 31.335938 17.585938 32.816406 18.101562 33.992188 18.582031 C 34.257812 18.695312 34.511719 18.828125 34.761719 18.964844 C 34.917969 19.0625 34.917969 19.0625 35.105469 19.09375 C 35.136719 19.125 35.171875 19.15625 35.207031 19.1875 C 35.1875 19.164062 35.164062 19.144531 35.144531 19.121094 C 35.117188 19.09375 35.085938 19.066406 35.058594 19.035156 C 35.03125 19.007812 35.003906 18.980469 34.972656 18.953125 C 34.894531 18.863281 34.894531 18.863281 34.84375 18.765625 C 34.796875 18.664062 34.796875 18.664062 34.636719 18.632812 C 33.800781 17.871094 33.085938 16.902344 32.761719 15.882812 C 32.75 15.847656 32.738281 15.816406 32.730469 15.785156 C 32.636719 15.402344 32.710938 15.03125 32.917969 14.6875 C 33.160156 14.394531 33.503906 14.207031 33.90625 14.136719 C 34.464844 14.078125 34.921875 14.230469 35.367188 14.53125 C 36.4375 15.335938 37.304688 16.496094 37.96875 17.578125 C 37.96875 17.609375 37.96875 17.640625 37.96875 17.671875 C 38.019531 17.6875 38.070312 17.703125 38.125 17.71875 C 38.125 17.761719 38.125 17.808594 38.125 17.855469 C 38.183594 17.945312 38.242188 18.03125 38.308594 18.117188 C 38.359375 18.183594 38.359375 18.183594 38.410156 18.253906 C 38.4375 18.289062 38.460938 18.324219 38.488281 18.359375 C 38.460938 18.226562 38.445312 18.183594 38.332031 18.085938 C 38.367188 18.085938 38.402344 18.085938 38.4375 18.085938 C 38.421875 18.058594 38.402344 18.03125 38.386719 18.003906 C 38.320312 17.875 38.3125 17.75 38.296875 17.609375 C 38.28125 17.476562 38.257812 17.34375 38.234375 17.210938 C 38.132812 16.660156 38.039062 16.117188 38.019531 15.558594 C 37.988281 15.558594 37.953125 15.558594 37.917969 15.558594 C 37.925781 15.535156 37.933594 15.507812 37.941406 15.480469 C 37.96875 15.375 37.980469 15.277344 37.984375 15.167969 C 37.988281 15.128906 37.988281 15.089844 37.992188 15.050781 C 37.992188 15.011719 37.996094 14.96875 38 14.929688 C 38 14.867188 38 14.867188 38.003906 14.804688 C 38.011719 14.703125 38.015625 14.605469 38.019531 14.503906 C 37.988281 14.488281 37.953125 14.472656 37.917969 14.457031 C 37.949219 14.457031 37.984375 14.457031 38.019531 14.457031 C 38.027344 14.390625 38.027344 14.390625 38.035156 14.316406 C 38.113281 13.675781 38.242188 13.089844 38.757812 12.609375 C 39.4375 12.25 40.113281 12.222656 40.832031 12.484375 Z M 35.261719 19.1875 C 35.277344 19.230469 35.292969 19.277344 35.3125 19.324219 C 35.347656 19.308594 35.382812 19.292969 35.417969 19.277344 C 35.363281 19.246094 35.3125 19.214844 35.261719 19.1875 Z M 44.601562 19.300781 C 44.578125 19.324219 44.554688 19.347656 44.53125 19.367188 C 44.660156 19.351562 44.660156 19.351562 44.792969 19.324219 C 44.808594 19.292969 44.824219 19.261719 44.84375 19.230469 C 44.6875 19.214844 44.6875 19.214844 44.601562 19.300781 Z M 38.75 25.566406 C 38.800781 25.65625 38.800781 25.65625 38.800781 25.65625 Z M 41.300781 25.65625 C 41.355469 25.796875 41.355469 25.796875 41.355469 25.796875 Z M 41.300781 25.839844 C 41.320312 25.933594 41.335938 26.023438 41.355469 26.117188 C 41.386719 26.101562 41.421875 26.085938 41.457031 26.070312 C 41.441406 25.996094 41.425781 25.917969 41.40625 25.839844 C 41.371094 25.839844 41.335938 25.839844 41.300781 25.839844 Z M 41.300781 25.839844 "/>
<path style=" stroke:none;fill-rule:nonzero;fill:rgb(8.627451%,8.627451%,9.019608%);fill-opacity:1;" d="M 31.667969 17.898438 C 31.667969 17.929688 31.667969 17.960938 31.667969 17.992188 C 31.601562 17.992188 31.535156 17.988281 31.46875 17.988281 C 30.851562 17.972656 30.851562 17.972656 30.253906 18.105469 C 30.136719 18.136719 30.066406 18.117188 29.949219 18.085938 C 30.339844 17.738281 31.167969 17.820312 31.667969 17.898438 Z M 31.667969 17.898438 "/>
<path style=" stroke:none;fill-rule:nonzero;fill:rgb(9.411765%,9.803922%,9.803922%);fill-opacity:1;" d="M 48.542969 17.992188 C 48.746094 17.988281 48.953125 17.988281 49.15625 17.988281 C 49.214844 17.984375 49.273438 17.984375 49.332031 17.984375 C 49.390625 17.984375 49.445312 17.984375 49.503906 17.984375 C 49.582031 17.984375 49.582031 17.984375 49.660156 17.980469 C 49.839844 17.996094 49.925781 18.066406 50.050781 18.175781 C 50.019531 18.207031 49.984375 18.238281 49.949219 18.265625 C 49.824219 18.265625 49.824219 18.265625 49.679688 18.25 C 49.632812 18.246094 49.585938 18.238281 49.539062 18.234375 C 49.5 18.230469 49.464844 18.226562 49.425781 18.222656 C 49.425781 18.191406 49.425781 18.160156 49.425781 18.128906 C 49.246094 18.078125 49.085938 18.070312 48.898438 18.058594 C 48.832031 18.054688 48.765625 18.050781 48.695312 18.046875 C 48.644531 18.042969 48.59375 18.039062 48.542969 18.039062 C 48.542969 18.023438 48.542969 18.007812 48.542969 17.992188 Z M 48.542969 17.992188 "/>
<path style=" stroke:none;fill-rule:nonzero;fill:rgb(4.313726%,3.921569%,4.313726%);fill-opacity:1;" d="M 38.125 28.503906 C 38.140625 28.503906 38.160156 28.503906 38.175781 28.503906 C 38.179688 28.691406 38.183594 28.878906 38.1875 29.0625 C 38.1875 29.128906 38.1875 29.191406 38.1875 29.253906 C 38.191406 29.347656 38.191406 29.4375 38.191406 29.53125 C 38.191406 29.585938 38.195312 29.640625 38.195312 29.695312 C 38.175781 29.835938 38.175781 29.835938 38.097656 29.921875 C 38.074219 29.9375 38.046875 29.953125 38.019531 29.972656 C 38.019531 29.804688 38.015625 29.636719 38.015625 29.46875 C 38.011719 29.421875 38.011719 29.375 38.011719 29.328125 C 38.007812 29.039062 38.039062 28.785156 38.125 28.503906 Z M 38.125 28.503906 "/>
<path style=" stroke:none;fill-rule:nonzero;fill:rgb(1.568628%,1.568628%,1.568628%);fill-opacity:1;" d="M 41.71875 14.78125 C 41.734375 14.78125 41.753906 14.78125 41.769531 14.78125 C 41.792969 14.972656 41.8125 15.167969 41.828125 15.363281 C 41.835938 15.417969 41.839844 15.472656 41.847656 15.53125 C 41.878906 15.890625 41.859375 16.214844 41.769531 16.570312 C 41.753906 16.570312 41.738281 16.570312 41.71875 16.570312 C 41.71875 15.980469 41.71875 15.386719 41.71875 14.78125 Z M 41.71875 14.78125 "/>
<path style=" stroke:none;fill-rule:nonzero;fill:rgb(9.019608%,9.411765%,9.803922%);fill-opacity:1;" d="M 32.136719 19.921875 C 32.257812 19.929688 32.257812 19.929688 32.394531 19.964844 C 32.457031 20.054688 32.457031 20.054688 32.5 20.148438 C 32.535156 20.179688 32.570312 20.210938 32.605469 20.242188 C 32.269531 20.265625 32.023438 20.179688 31.71875 20.058594 C 31.71875 20.042969 31.71875 20.027344 31.71875 20.011719 C 31.855469 20.011719 31.992188 20.011719 32.136719 20.011719 C 32.136719 19.980469 32.136719 19.949219 32.136719 19.921875 Z M 32.136719 19.921875 "/>
<path style=" stroke:none;fill-rule:nonzero;fill:rgb(9.803922%,10.196079%,10.588235%);fill-opacity:1;" d="M 41.5625 27.953125 C 41.613281 27.976562 41.613281 27.976562 41.667969 28 C 41.679688 28.199219 41.6875 28.398438 41.699219 28.601562 C 41.699219 28.667969 41.703125 28.738281 41.707031 28.804688 C 41.714844 28.902344 41.71875 29.003906 41.722656 29.101562 C 41.726562 29.160156 41.730469 29.21875 41.730469 29.28125 C 41.726562 29.328125 41.722656 29.371094 41.71875 29.421875 C 41.667969 29.453125 41.617188 29.480469 41.5625 29.511719 C 41.5625 28.996094 41.5625 28.484375 41.5625 27.953125 Z M 41.5625 27.953125 "/>
<path style=" stroke:none;fill-rule:nonzero;fill:rgb(7.450981%,7.450981%,7.450981%);fill-opacity:1;" d="M 46.042969 21.984375 C 46.042969 22 46.042969 22.015625 46.042969 22.03125 C 45.996094 22.039062 45.996094 22.039062 45.953125 22.042969 C 45.816406 22.0625 45.683594 22.078125 45.550781 22.097656 C 45.503906 22.101562 45.457031 22.109375 45.410156 22.117188 C 45.363281 22.121094 45.320312 22.128906 45.273438 22.132812 C 45.210938 22.144531 45.210938 22.144531 45.148438 22.152344 C 45.050781 22.160156 45.050781 22.160156 45 22.214844 C 44.859375 22.207031 44.722656 22.1875 44.582031 22.167969 C 44.582031 22.152344 44.582031 22.136719 44.582031 22.125 C 44.644531 22.113281 44.644531 22.113281 44.707031 22.105469 C 44.757812 22.097656 44.8125 22.089844 44.867188 22.078125 C 44.917969 22.070312 44.972656 22.0625 45.027344 22.054688 C 45.152344 22.042969 45.152344 22.042969 45.207031 21.984375 C 45.496094 21.933594 45.75 21.949219 46.042969 21.984375 Z M 46.042969 21.984375 "/>
<path style=" stroke:none;fill-rule:nonzero;fill:rgb(3.921569%,4.313726%,4.313726%);fill-opacity:1;" d="M 36.300781 24.554688 C 36.300781 24.695312 36.300781 24.695312 36.226562 24.777344 C 36.191406 24.804688 36.15625 24.835938 36.121094 24.867188 C 36.082031 24.898438 36.042969 24.933594 36.007812 24.964844 C 35.964844 25 35.925781 25.035156 35.886719 25.070312 C 35.84375 25.105469 35.804688 25.136719 35.765625 25.171875 C 35.667969 25.257812 35.566406 25.34375 35.46875 25.429688 C 35.46875 25.261719 35.5 25.242188 35.625 25.128906 C 35.65625 25.097656 35.6875 25.066406 35.722656 25.035156 C 35.757812 25.003906 35.792969 24.972656 35.828125 24.941406 C 35.878906 24.890625 35.878906 24.890625 35.929688 24.84375 C 36.183594 24.609375 36.183594 24.609375 36.300781 24.554688 Z M 35.3125 25.429688 C 35.417969 25.472656 35.417969 25.472656 35.417969 25.472656 Z M 35.3125 25.429688 "/>
<path style=" stroke:none;fill-rule:nonzero;fill:rgb(9.803922%,9.803922%,10.588235%);fill-opacity:1;" d="M 40.417969 12.347656 C 40.417969 12.363281 40.417969 12.378906 40.417969 12.390625 C 40.277344 12.40625 40.140625 12.421875 40 12.4375 C 40 12.46875 40 12.5 40 12.53125 C 39.929688 12.515625 39.863281 12.5 39.792969 12.484375 C 39.792969 12.46875 39.792969 12.453125 39.792969 12.4375 C 39.636719 12.414062 39.636719 12.414062 39.480469 12.390625 C 39.480469 12.378906 39.480469 12.363281 39.480469 12.347656 C 39.792969 12.277344 40.105469 12.277344 40.417969 12.347656 Z M 40.417969 12.347656 "/>
<path style=" stroke:none;fill-rule:nonzero;fill:rgb(9.803922%,10.196079%,10.588235%);fill-opacity:1;" d="M 31.71875 22.859375 C 31.71875 22.886719 31.71875 22.917969 31.71875 22.949219 C 31.488281 22.972656 31.488281 22.972656 31.25 22.996094 C 31.25 23.027344 31.25 23.054688 31.25 23.085938 C 30.949219 23.050781 30.949219 23.050781 30.832031 22.949219 C 31.125 22.890625 31.421875 22.859375 31.71875 22.859375 Z M 31.71875 22.859375 "/>
<path style=" stroke:none;fill-rule:nonzero;fill:rgb(3.529412%,3.529412%,3.529412%);fill-opacity:1;" d="M 41.667969 16.796875 C 41.683594 16.796875 41.699219 16.796875 41.71875 16.796875 C 41.730469 16.878906 41.738281 16.957031 41.75 17.035156 C 41.753906 17.082031 41.757812 17.125 41.765625 17.171875 C 41.769531 17.300781 41.753906 17.40625 41.71875 17.53125 C 41.683594 17.53125 41.648438 17.53125 41.613281 17.53125 C 41.597656 17.59375 41.582031 17.65625 41.5625 17.71875 C 41.570312 17.582031 41.578125 17.445312 41.585938 17.308594 C 41.585938 17.269531 41.589844 17.230469 41.589844 17.191406 C 41.59375 17.15625 41.597656 17.117188 41.597656 17.082031 C 41.601562 17.046875 41.601562 17.011719 41.605469 16.976562 C 41.613281 16.890625 41.613281 16.890625 41.667969 16.796875 Z M 41.667969 16.796875 "/>
<path style=" stroke:none;fill-rule:nonzero;fill:rgb(1.568628%,1.960784%,1.568628%);fill-opacity:1;" d="M 48.644531 18.035156 C 48.707031 18.035156 48.707031 18.035156 48.765625 18.035156 C 48.828125 18.035156 48.828125 18.035156 48.890625 18.035156 C 48.929688 18.035156 48.972656 18.035156 49.015625 18.035156 C 49.117188 18.035156 49.21875 18.039062 49.324219 18.039062 C 49.324219 18.054688 49.324219 18.070312 49.324219 18.085938 C 49.191406 18.097656 49.054688 18.113281 48.921875 18.128906 C 48.886719 18.132812 48.847656 18.136719 48.808594 18.144531 C 48.613281 18.164062 48.425781 18.179688 48.230469 18.175781 C 48.316406 18.019531 48.46875 18.03125 48.644531 18.035156 Z M 48.644531 18.035156 "/>
<path style=" stroke:none;fill-rule:nonzero;fill:rgb(2.745098%,3.137255%,3.137255%);fill-opacity:1;" d="M 41.613281 29.238281 C 41.632812 29.238281 41.648438 29.238281 41.667969 29.238281 C 41.71875 29.59375 41.71875 29.898438 41.613281 30.246094 C 41.597656 30.246094 41.582031 30.246094 41.5625 30.246094 C 41.5625 30.128906 41.558594 30.015625 41.558594 29.898438 C 41.558594 29.863281 41.558594 29.832031 41.558594 29.796875 C 41.558594 29.605469 41.570312 29.425781 41.613281 29.238281 Z M 41.613281 29.238281 "/>
<path style=" stroke:none;fill-rule:nonzero;fill:rgb(9.019608%,8.627451%,9.411765%);fill-opacity:1;" d="M 39.167969 31.945312 C 39.339844 31.960938 39.511719 31.976562 39.6875 31.992188 C 39.6875 32.023438 39.6875 32.050781 39.6875 32.082031 C 39.824219 32.082031 39.960938 32.082031 40.105469 32.082031 C 40.105469 32.097656 40.105469 32.113281 40.105469 32.128906 C 39.75 32.144531 39.484375 32.140625 39.167969 31.992188 C 39.167969 31.976562 39.167969 31.960938 39.167969 31.945312 Z M 39.167969 31.945312 "/>
<path style=" stroke:none;fill-rule:nonzero;fill:rgb(9.019608%,9.019608%,9.411765%);fill-opacity:1;" d="M 44.792969 29.972656 C 44.808594 30.03125 44.824219 30.09375 44.84375 30.15625 C 44.90625 30.164062 44.90625 30.164062 44.972656 30.171875 C 45.035156 30.1875 45.035156 30.1875 45.105469 30.203125 C 45.121094 30.230469 45.136719 30.261719 45.15625 30.292969 C 45.082031 30.277344 45.003906 30.265625 44.929688 30.25 C 44.886719 30.242188 44.84375 30.234375 44.800781 30.226562 C 44.6875 30.203125 44.6875 30.203125 44.582031 30.15625 C 44.582031 30.125 44.582031 30.09375 44.582031 30.0625 C 44.652344 30.03125 44.722656 30.003906 44.792969 29.972656 Z M 44.792969 29.972656 "/>
<path style=" stroke:none;fill-rule:nonzero;fill:rgb(10.588235%,10.980392%,10.980392%);fill-opacity:1;" d="M 46.667969 16.707031 C 46.699219 16.707031 46.734375 16.707031 46.769531 16.707031 C 46.753906 16.734375 46.742188 16.757812 46.726562 16.785156 C 46.664062 16.890625 46.664062 16.890625 46.613281 17.007812 C 46.5625 17.121094 46.5625 17.121094 46.457031 17.257812 C 46.425781 17.257812 46.390625 17.257812 46.355469 17.257812 C 46.355469 17.183594 46.355469 17.105469 46.355469 17.027344 C 46.40625 17.011719 46.457031 16.996094 46.511719 16.984375 C 46.570312 16.867188 46.570312 16.867188 46.613281 16.753906 C 46.632812 16.738281 46.648438 16.722656 46.667969 16.707031 Z M 46.667969 16.707031 "/>
<path style=" stroke:none;fill-rule:nonzero;fill:rgb(4.313726%,4.313726%,4.313726%);fill-opacity:1;" d="M 42.1875 17.164062 C 42.203125 17.195312 42.222656 17.226562 42.238281 17.257812 C 42.1875 17.367188 42.1875 17.367188 42.113281 17.492188 C 42.089844 17.535156 42.0625 17.578125 42.039062 17.621094 C 42.019531 17.652344 42 17.683594 41.980469 17.71875 C 41.945312 17.703125 41.910156 17.6875 41.875 17.671875 C 41.992188 17.347656 41.992188 17.347656 42.082031 17.210938 C 42.117188 17.195312 42.152344 17.179688 42.1875 17.164062 Z M 42.1875 17.164062 "/>
<path style=" stroke:none;fill-rule:nonzero;fill:rgb(3.921569%,3.921569%,3.921569%);fill-opacity:1;" d="M 38.386719 27.21875 C 38.402344 27.21875 38.417969 27.21875 38.4375 27.21875 C 38.449219 27.4375 38.425781 27.609375 38.332031 27.8125 C 38.316406 27.8125 38.300781 27.8125 38.28125 27.8125 C 38.277344 27.742188 38.277344 27.667969 38.273438 27.59375 C 38.273438 27.550781 38.273438 27.511719 38.269531 27.46875 C 38.28125 27.355469 38.28125 27.355469 38.386719 27.21875 Z M 38.386719 27.21875 "/>
<path style=" stroke:none;fill-rule:nonzero;fill:rgb(9.803922%,9.803922%,10.196079%);fill-opacity:1;" d="M 32.082031 19.140625 C 32.066406 19.199219 32.050781 19.261719 32.03125 19.324219 C 31.910156 19.3125 31.789062 19.296875 31.667969 19.277344 C 31.648438 19.246094 31.632812 19.214844 31.613281 19.1875 C 31.792969 19.109375 31.894531 19.078125 32.082031 19.140625 Z M 32.082031 19.140625 "/>
<path style=" stroke:none;fill-rule:nonzero;fill:rgb(3.529412%,3.529412%,3.921569%);fill-opacity:1;" d="M 40.417969 31.992188 C 40.3125 32.082031 40.3125 32.082031 40.164062 32.09375 C 40.109375 32.089844 40.050781 32.089844 39.992188 32.089844 C 39.9375 32.089844 39.878906 32.085938 39.820312 32.085938 C 39.777344 32.085938 39.734375 32.085938 39.6875 32.082031 C 39.835938 31.996094 39.886719 31.976562 40.050781 31.960938 C 40.105469 31.953125 40.105469 31.953125 40.160156 31.949219 C 40.261719 31.945312 40.261719 31.945312 40.417969 31.992188 Z M 40.417969 31.992188 "/>
<path style=" stroke:none;fill-rule:nonzero;fill:rgb(10.196079%,10.588235%,10.980392%);fill-opacity:1;" d="M 32.5 19.507812 C 32.722656 19.539062 32.945312 19.566406 33.175781 19.597656 C 33.125 19.621094 33.125 19.621094 33.074219 19.644531 C 33.074219 19.675781 33.074219 19.707031 33.074219 19.734375 C 32.859375 19.707031 32.691406 19.644531 32.5 19.554688 C 32.5 19.539062 32.5 19.523438 32.5 19.507812 Z M 32.5 19.507812 "/>
<path style=" stroke:none;fill-rule:nonzero;fill:rgb(9.019608%,9.019608%,9.803922%);fill-opacity:1;" d="M 47.238281 14.960938 C 47.257812 14.960938 47.273438 14.960938 47.292969 14.960938 C 47.308594 15.128906 47.324219 15.296875 47.34375 15.46875 C 47.308594 15.453125 47.273438 15.4375 47.238281 15.421875 C 47.207031 15.46875 47.171875 15.511719 47.136719 15.558594 C 47.144531 15.496094 47.152344 15.429688 47.15625 15.363281 C 47.164062 15.328125 47.167969 15.292969 47.171875 15.253906 C 47.1875 15.15625 47.210938 15.058594 47.238281 14.960938 Z M 47.238281 14.960938 "/>
<path style=" stroke:none;fill-rule:nonzero;fill:rgb(8.627451%,9.019608%,9.411765%);fill-opacity:1;" d="M 41.355469 26.53125 C 41.371094 26.53125 41.386719 26.53125 41.40625 26.53125 C 41.445312 26.777344 41.464844 27.011719 41.457031 27.265625 C 41.347656 27.074219 41.292969 26.941406 41.324219 26.726562 C 41.332031 26.691406 41.335938 26.652344 41.339844 26.613281 C 41.34375 26.585938 41.351562 26.558594 41.355469 26.53125 Z M 41.355469 26.53125 "/>
<path style=" stroke:none;fill-rule:nonzero;fill:rgb(9.019608%,9.019608%,9.411765%);fill-opacity:1;" d="M 32.292969 25.703125 C 32.382812 25.699219 32.472656 25.699219 32.566406 25.699219 C 32.617188 25.695312 32.667969 25.695312 32.71875 25.695312 C 32.867188 25.703125 32.949219 25.730469 33.074219 25.796875 C 32.953125 25.808594 32.832031 25.824219 32.707031 25.839844 C 32.707031 25.808594 32.707031 25.78125 32.707031 25.75 C 32.476562 25.773438 32.476562 25.773438 32.238281 25.796875 C 32.257812 25.765625 32.273438 25.734375 32.292969 25.703125 Z M 32.292969 25.703125 "/>
<path style=" stroke:none;fill-rule:nonzero;fill:rgb(3.921569%,4.313726%,4.313726%);fill-opacity:1;" d="M 46.980469 14.59375 C 47.082031 14.632812 47.082031 14.632812 47.1875 14.6875 C 47.246094 14.847656 47.242188 14.980469 47.238281 15.148438 C 47.1875 15.054688 47.1875 15.054688 47.136719 14.960938 C 47.09375 14.890625 47.09375 14.890625 47.050781 14.820312 C 46.980469 14.6875 46.980469 14.6875 46.980469 14.59375 Z M 46.980469 14.59375 "/>
<path style=" stroke:none;fill-rule:nonzero;fill:rgb(12.156863%,12.156863%,12.54902%);fill-opacity:1;" d="M 34.207031 14.132812 C 34.257812 14.132812 34.308594 14.132812 34.359375 14.136719 C 34.417969 14.136719 34.417969 14.136719 34.480469 14.136719 C 34.480469 14.152344 34.480469 14.167969 34.480469 14.183594 C 34.324219 14.183594 34.167969 14.183594 34.011719 14.183594 C 34.011719 14.214844 34.011719 14.242188 34.011719 14.273438 C 33.90625 14.273438 33.804688 14.273438 33.699219 14.273438 C 33.699219 14.242188 33.699219 14.214844 33.699219 14.183594 C 33.871094 14.136719 34.027344 14.132812 34.207031 14.132812 Z M 34.207031 14.132812 "/>
<path style=" stroke:none;fill-rule:nonzero;fill:rgb(4.313726%,4.313726%,4.313726%);fill-opacity:1;" d="M 33.386719 27.21875 C 33.386719 27.34375 33.382812 27.425781 33.332031 27.539062 C 33.226562 27.597656 33.226562 27.597656 33.125 27.632812 C 33.148438 27.433594 33.214844 27.347656 33.386719 27.21875 Z M 33.386719 27.21875 "/>
<path style=" stroke:none;fill-rule:nonzero;fill:rgb(14.117648%,14.901961%,14.901961%);fill-opacity:1;" d="M 45.3125 22.078125 C 45.3125 22.09375 45.3125 22.109375 45.3125 22.125 C 45.042969 22.222656 44.867188 22.210938 44.582031 22.167969 C 44.582031 22.152344 44.582031 22.136719 44.582031 22.125 C 44.828125 22.066406 45.0625 22.074219 45.3125 22.078125 Z M 45.3125 22.078125 "/>
<path style=" stroke:none;fill-rule:nonzero;fill:rgb(3.921569%,3.921569%,4.313726%);fill-opacity:1;" d="M 41.511719 30.382812 C 41.527344 30.382812 41.542969 30.382812 41.5625 30.382812 C 41.5625 30.550781 41.5625 30.71875 41.5625 30.890625 C 41.511719 30.90625 41.460938 30.921875 41.40625 30.9375 C 41.441406 30.753906 41.476562 30.570312 41.511719 30.382812 Z M 41.511719 30.382812 "/>
<path style=" stroke:none;fill-rule:nonzero;fill:rgb(9.803922%,9.803922%,9.803922%);fill-opacity:1;" d="M 34.738281 29.835938 C 34.898438 29.875 34.984375 29.914062 35.105469 30.015625 C 35.019531 30.03125 34.933594 30.046875 34.84375 30.0625 C 34.828125 30.03125 34.808594 30.003906 34.792969 29.972656 C 34.6875 29.941406 34.6875 29.941406 34.582031 29.925781 C 34.636719 29.894531 34.6875 29.863281 34.738281 29.835938 Z M 34.738281 29.835938 "/>
<path style=" stroke:none;fill-rule:nonzero;fill:rgb(1.960784%,1.960784%,2.352941%);fill-opacity:1;" d="M 38.074219 29.46875 C 38.089844 29.46875 38.105469 29.46875 38.125 29.46875 C 38.179688 29.738281 38.179688 29.738281 38.175781 29.835938 C 38.101562 29.914062 38.101562 29.914062 38.019531 29.972656 C 38.019531 29.894531 38.019531 29.820312 38.019531 29.746094 C 38.015625 29.703125 38.015625 29.660156 38.015625 29.617188 C 38.019531 29.511719 38.019531 29.511719 38.074219 29.46875 Z M 38.074219 29.46875 "/>
<path style=" stroke:none;fill-rule:nonzero;fill:rgb(3.137255%,3.137255%,3.137255%);fill-opacity:1;" d="M 32.082031 25.839844 C 32.066406 25.886719 32.050781 25.933594 32.03125 25.976562 C 31.859375 25.976562 31.6875 25.976562 31.511719 25.976562 C 31.707031 25.863281 31.851562 25.839844 32.082031 25.839844 Z M 32.082031 25.839844 "/>
<path style=" stroke:none;fill-rule:nonzero;fill:rgb(3.921569%,3.921569%,4.313726%);fill-opacity:1;" d="M 46.667969 22.492188 C 46.839844 22.492188 47.011719 22.492188 47.1875 22.492188 C 47.203125 22.535156 47.222656 22.582031 47.238281 22.628906 C 47.015625 22.605469 46.871094 22.578125 46.667969 22.492188 Z M 46.667969 22.492188 "/>
<path style=" stroke:none;fill-rule:nonzero;fill:rgb(11.764706%,11.764706%,12.156863%);fill-opacity:1;" d="M 41.613281 29.925781 C 41.632812 29.925781 41.648438 29.925781 41.667969 29.925781 C 41.671875 30.175781 41.664062 30.414062 41.613281 30.660156 C 41.597656 30.660156 41.582031 30.660156 41.5625 30.660156 C 41.515625 30.378906 41.515625 30.378906 41.511719 30.292969 C 41.527344 30.277344 41.542969 30.261719 41.5625 30.246094 C 41.582031 30.140625 41.597656 30.03125 41.613281 29.925781 Z M 41.613281 29.925781 "/>
<path style=" stroke:none;fill-rule:nonzero;fill:rgb(3.529412%,3.137255%,3.529412%);fill-opacity:1;" d="M 50.625 24.464844 C 50.730469 24.601562 50.730469 24.601562 50.78125 24.738281 C 50.734375 24.886719 50.734375 24.886719 50.675781 25.015625 C 50.660156 25.015625 50.644531 25.015625 50.625 25.015625 C 50.625 24.832031 50.625 24.652344 50.625 24.464844 Z M 50.625 24.464844 "/>
<path style=" stroke:none;fill-rule:nonzero;fill:rgb(9.803922%,9.803922%,10.196079%);fill-opacity:1;" d="M 33.699219 21.847656 C 33.699219 21.878906 33.699219 21.910156 33.699219 21.9375 C 33.75 21.953125 33.800781 21.96875 33.855469 21.984375 C 33.714844 22 33.578125 22.015625 33.4375 22.03125 C 33.421875 21.984375 33.402344 21.941406 33.386719 21.894531 C 33.488281 21.847656 33.488281 21.847656 33.699219 21.847656 Z M 33.699219 21.847656 "/>
<path style=" stroke:none;fill-rule:nonzero;fill:rgb(9.411765%,9.411765%,9.803922%);fill-opacity:1;" d="M 48.019531 26.070312 C 48.019531 26.144531 48.019531 26.222656 48.019531 26.300781 C 47.882812 26.285156 47.746094 26.269531 47.605469 26.253906 C 47.875 26.070312 47.875 26.070312 48.019531 26.070312 Z M 48.019531 26.070312 "/>
<path style=" stroke:none;fill-rule:nonzero;fill:rgb(3.529412%,3.529412%,3.529412%);fill-opacity:1;" d="M 38.75 25.839844 C 38.765625 25.839844 38.785156 25.839844 38.800781 25.839844 C 38.820312 26.089844 38.820312 26.089844 38.722656 26.226562 C 38.699219 26.25 38.671875 26.273438 38.644531 26.300781 C 38.632812 25.996094 38.632812 25.996094 38.75 25.839844 Z M 38.75 25.839844 "/>
<path style=" stroke:none;fill-rule:nonzero;fill:rgb(3.921569%,4.313726%,4.313726%);fill-opacity:1;" d="M 35.363281 19.140625 C 35.433594 19.183594 35.5 19.226562 35.570312 19.273438 C 35.609375 19.296875 35.644531 19.320312 35.683594 19.347656 C 35.78125 19.414062 35.78125 19.414062 35.832031 19.507812 C 35.65625 19.449219 35.503906 19.390625 35.363281 19.277344 C 35.363281 19.230469 35.363281 19.1875 35.363281 19.140625 Z M 35.363281 19.140625 "/>
<path style=" stroke:none;fill-rule:nonzero;fill:rgb(3.921569%,3.921569%,4.313726%);fill-opacity:1;" d="M 47.761719 18.128906 C 47.949219 18.121094 47.949219 18.121094 48.125 18.128906 C 48.125 18.160156 48.125 18.191406 48.125 18.222656 C 47.894531 18.246094 47.894531 18.246094 47.65625 18.265625 C 47.691406 18.222656 47.726562 18.175781 47.761719 18.128906 Z M 47.761719 18.128906 "/>
<path style=" stroke:none;fill-rule:nonzero;fill:rgb(12.156863%,12.54902%,12.54902%);fill-opacity:1;" d="M 31.070312 22.902344 C 31.128906 22.902344 31.1875 22.902344 31.25 22.902344 C 31.199219 22.925781 31.199219 22.925781 31.144531 22.949219 C 31.144531 22.980469 31.144531 23.011719 31.144531 23.039062 C 31.179688 23.054688 31.214844 23.070312 31.25 23.085938 C 30.949219 23.050781 30.949219 23.050781 30.832031 22.949219 C 30.886719 22.902344 30.886719 22.902344 31.070312 22.902344 Z M 31.070312 22.902344 "/>
<path style=" stroke:none;fill-rule:nonzero;fill:rgb(3.137255%,3.137255%,3.137255%);fill-opacity:1;" d="M 46.925781 16.15625 C 46.980469 16.15625 47.03125 16.15625 47.082031 16.15625 C 47.082031 16.246094 47.082031 16.339844 47.082031 16.429688 C 47.03125 16.445312 46.980469 16.460938 46.925781 16.476562 C 46.925781 16.371094 46.925781 16.265625 46.925781 16.15625 Z M 46.925781 16.15625 "/>
<path style=" stroke:none;fill-rule:nonzero;fill:rgb(13.725491%,13.725491%,14.117648%);fill-opacity:1;" d="M 48.386719 26.390625 C 48.503906 26.390625 48.625 26.390625 48.75 26.390625 C 48.75 26.40625 48.75 26.421875 48.75 26.4375 C 48.628906 26.4375 48.507812 26.4375 48.386719 26.4375 C 48.386719 26.421875 48.386719 26.40625 48.386719 26.390625 Z M 48.386719 26.390625 "/>
<path style=" stroke:none;fill-rule:nonzero;fill:rgb(12.156863%,10.980392%,12.54902%);fill-opacity:1;" d="M 37.917969 28.640625 C 37.96875 28.664062 37.96875 28.664062 38.019531 28.6875 C 38.019531 28.71875 38.019531 28.746094 38.019531 28.777344 C 37.988281 28.777344 37.953125 28.777344 37.917969 28.777344 C 37.917969 28.734375 37.917969 28.6875 37.917969 28.640625 Z M 37.917969 28.640625 "/>
<path style=" stroke:none;fill-rule:nonzero;fill:rgb(45.490196%,45.490196%,53.333336%);fill-opacity:1;" d="M 54.324219 33.644531 C 54.375 33.660156 54.425781 33.675781 54.480469 33.6875 C 54.425781 33.6875 54.375 33.6875 54.324219 33.6875 C 54.324219 33.675781 54.324219 33.660156 54.324219 33.644531 Z M 54.324219 33.644531 "/>
<path style=" stroke:none;fill-rule:nonzero;fill:rgb(39.607844%,39.607844%,46.27451%);fill-opacity:1;" d="M 54.324219 30.339844 C 54.375 30.355469 54.425781 30.371094 54.480469 30.382812 C 54.425781 30.382812 54.375 30.382812 54.324219 30.382812 C 54.324219 30.371094 54.324219 30.355469 54.324219 30.339844 Z M 54.324219 30.339844 "/>
<path style=" stroke:none;fill-rule:nonzero;fill:rgb(11.372549%,10.980392%,12.156863%);fill-opacity:1;" d="M 37.96875 27.90625 C 38.019531 27.90625 38.070312 27.90625 38.125 27.90625 C 38.109375 27.9375 38.089844 27.96875 38.074219 28 C 38.039062 27.96875 38.003906 27.9375 37.96875 27.90625 Z M 37.96875 27.90625 "/>
<path style=" stroke:none;fill-rule:nonzero;fill:rgb(10.980392%,10.588235%,10.980392%);fill-opacity:1;" d="M 44.375 25.335938 C 44.425781 25.351562 44.476562 25.367188 44.53125 25.382812 C 44.480469 25.382812 44.429688 25.382812 44.375 25.382812 C 44.375 25.367188 44.375 25.351562 44.375 25.335938 Z M 44.375 25.335938 "/>
<path style=" stroke:none;fill-rule:nonzero;fill:rgb(16.470589%,16.470589%,17.254902%);fill-opacity:1;" d="M 28.855469 24.738281 C 28.886719 24.769531 28.921875 24.800781 28.957031 24.832031 C 28.90625 24.816406 28.855469 24.800781 28.800781 24.785156 C 28.820312 24.769531 28.835938 24.753906 28.855469 24.738281 Z M 28.855469 24.738281 "/>
<path style=" stroke:none;fill-rule:nonzero;fill:rgb(15.294118%,15.686275%,17.254902%);fill-opacity:1;" d="M 50.78125 24.507812 C 50.832031 24.695312 50.832031 24.695312 50.832031 24.695312 Z M 50.78125 24.507812 "/>
<path style=" stroke:none;fill-rule:nonzero;fill:rgb(11.372549%,11.372549%,11.764706%);fill-opacity:1;" d="M 46.457031 21.984375 C 46.667969 22.03125 46.667969 22.03125 46.667969 22.03125 Z M 46.457031 21.984375 "/>
<path style=" stroke:none;fill-rule:nonzero;fill:rgb(11.764706%,11.764706%,11.764706%);fill-opacity:1;" d="M 34.582031 18.726562 C 34.636719 18.742188 34.6875 18.757812 34.738281 18.773438 C 34.6875 18.773438 34.636719 18.773438 34.582031 18.773438 C 34.582031 18.757812 34.582031 18.742188 34.582031 18.726562 Z M 34.582031 18.726562 "/>
<path style=" stroke:none;fill-rule:nonzero;fill:rgb(12.156863%,12.156863%,13.333334%);fill-opacity:1;" d="M 33.332031 17.164062 C 33.386719 17.1875 33.386719 17.1875 33.4375 17.210938 C 33.421875 17.242188 33.402344 17.273438 33.386719 17.304688 C 33.367188 17.257812 33.351562 17.210938 33.332031 17.164062 Z M 33.332031 17.164062 "/>
<path style=" stroke:none;fill-rule:nonzero;fill:rgb(10.588235%,10.980392%,10.980392%);fill-opacity:1;" d="M 37.96875 16.429688 C 38.003906 16.429688 38.039062 16.429688 38.074219 16.429688 C 38.054688 16.476562 38.039062 16.523438 38.019531 16.570312 C 38.003906 16.523438 37.988281 16.476562 37.96875 16.429688 Z M 37.96875 16.429688 "/>
<path style=" stroke:none;fill-rule:nonzero;fill:rgb(59.607846%,60.000002%,69.411767%);fill-opacity:1;" d="M 49.375 46.496094 C 49.425781 46.519531 49.425781 46.519531 49.480469 46.539062 C 49.425781 46.5625 49.425781 46.5625 49.375 46.585938 C 49.375 46.554688 49.375 46.527344 49.375 46.496094 Z M 49.375 46.496094 "/>
<path style=" stroke:none;fill-rule:nonzero;fill:rgb(57.254905%,58.039218%,67.058825%);fill-opacity:1;" d="M 49.375 43.925781 C 49.425781 43.949219 49.425781 43.949219 49.480469 43.96875 C 49.425781 43.992188 49.425781 43.992188 49.375 44.015625 C 49.375 43.984375 49.375 43.957031 49.375 43.925781 Z M 49.375 43.925781 "/>
<path style=" stroke:none;fill-rule:nonzero;fill:rgb(55.29412%,55.686277%,65.098041%);fill-opacity:1;" d="M 49.375 42.457031 C 49.425781 42.480469 49.425781 42.480469 49.480469 42.5 C 49.425781 42.523438 49.425781 42.523438 49.375 42.546875 C 49.375 42.515625 49.375 42.488281 49.375 42.457031 Z M 49.375 42.457031 "/>
<path style=" stroke:none;fill-rule:nonzero;fill:rgb(54.11765%,54.509807%,63.921571%);fill-opacity:1;" d="M 49.375 41.355469 C 49.425781 41.378906 49.425781 41.378906 49.480469 41.398438 C 49.425781 41.421875 49.425781 41.421875 49.375 41.445312 C 49.375 41.414062 49.375 41.386719 49.375 41.355469 Z M 49.375 41.355469 "/>
<path style=" stroke:none;fill-rule:nonzero;fill:rgb(52.941179%,52.941179%,61.960787%);fill-opacity:1;" d="M 49.375 40.621094 C 49.425781 40.644531 49.425781 40.644531 49.480469 40.664062 C 49.425781 40.6875 49.425781 40.6875 49.375 40.710938 C 49.375 40.679688 49.375 40.652344 49.375 40.621094 Z M 49.375 40.621094 "/>
<path style=" stroke:none;fill-rule:nonzero;fill:rgb(39.215687%,39.607844%,46.27451%);fill-opacity:1;" d="M 49.375 34.011719 C 49.425781 34.035156 49.425781 34.035156 49.480469 34.054688 C 49.425781 34.078125 49.425781 34.078125 49.375 34.101562 C 49.375 34.070312 49.375 34.042969 49.375 34.011719 Z M 49.375 34.011719 "/>
<path style=" stroke:none;fill-rule:nonzero;fill:rgb(38.431373%,38.82353%,45.490196%);fill-opacity:1;" d="M 49.375 33.644531 C 49.425781 33.667969 49.425781 33.667969 49.480469 33.6875 C 49.425781 33.710938 49.425781 33.710938 49.375 33.734375 C 49.375 33.703125 49.375 33.675781 49.375 33.644531 Z M 49.375 33.644531 "/>
<path style=" stroke:none;fill-rule:nonzero;fill:rgb(37.254903%,37.64706%,44.313726%);fill-opacity:1;" d="M 49.375 33.277344 C 49.425781 33.300781 49.425781 33.300781 49.480469 33.320312 C 49.425781 33.34375 49.425781 33.34375 49.375 33.367188 C 49.375 33.335938 49.375 33.308594 49.375 33.277344 Z M 49.375 33.277344 "/>
<path style=" stroke:none;fill-rule:nonzero;fill:rgb(36.078432%,36.862746%,42.745098%);fill-opacity:1;" d="M 49.375 32.910156 C 49.425781 32.933594 49.425781 32.933594 49.480469 32.953125 C 49.425781 32.976562 49.425781 32.976562 49.375 33 C 49.375 32.96875 49.375 32.941406 49.375 32.910156 Z M 49.375 32.910156 "/>
<path style=" stroke:none;fill-rule:nonzero;fill:rgb(35.294119%,35.686275%,41.568628%);fill-opacity:1;" d="M 49.375 32.542969 C 49.425781 32.566406 49.425781 32.566406 49.480469 32.585938 C 49.425781 32.609375 49.425781 32.609375 49.375 32.632812 C 49.375 32.601562 49.375 32.574219 49.375 32.542969 Z M 49.375 32.542969 "/>
<path style=" stroke:none;fill-rule:nonzero;fill:rgb(17.254902%,16.470589%,17.647059%);fill-opacity:1;" d="M 39.636719 32.175781 C 39.792969 32.21875 39.792969 32.21875 39.792969 32.21875 Z M 39.636719 32.175781 "/>
<path style=" stroke:none;fill-rule:nonzero;fill:rgb(16.470589%,16.078432%,17.254902%);fill-opacity:1;" d="M 33.59375 30.015625 C 33.628906 30.046875 33.664062 30.078125 33.699219 30.109375 C 33.664062 30.109375 33.628906 30.109375 33.59375 30.109375 C 33.59375 30.078125 33.59375 30.046875 33.59375 30.015625 Z M 33.59375 30.015625 "/>
<path style=" stroke:none;fill-rule:nonzero;fill:rgb(14.901961%,14.509805%,15.686275%);fill-opacity:1;" d="M 44.167969 30.015625 C 44.199219 30.015625 44.234375 30.015625 44.269531 30.015625 C 44.253906 30.046875 44.238281 30.078125 44.21875 30.109375 C 44.203125 30.078125 44.183594 30.046875 44.167969 30.015625 Z M 44.167969 30.015625 "/>
<path style=" stroke:none;fill-rule:nonzero;fill:rgb(13.725491%,13.333334%,14.117648%);fill-opacity:1;" d="M 33.074219 27.21875 C 33.230469 27.265625 33.230469 27.265625 33.230469 27.265625 Z M 33.074219 27.21875 "/>
<path style=" stroke:none;fill-rule:nonzero;fill:rgb(10.980392%,10.980392%,11.372549%);fill-opacity:1;" d="M 41.71875 26.757812 C 41.734375 26.789062 41.753906 26.820312 41.769531 26.851562 C 41.738281 26.835938 41.703125 26.820312 41.667969 26.804688 C 41.683594 26.789062 41.699219 26.773438 41.71875 26.757812 Z M 41.71875 26.757812 "/>
<path style=" stroke:none;fill-rule:nonzero;fill:rgb(14.901961%,14.509805%,15.686275%);fill-opacity:1;" d="M 30.105469 25.933594 C 30.136719 25.933594 30.171875 25.933594 30.207031 25.933594 C 30.191406 25.964844 30.175781 25.992188 30.15625 26.023438 C 30.140625 25.992188 30.121094 25.964844 30.105469 25.933594 Z M 30.105469 25.933594 "/>
<path style=" stroke:none;fill-rule:nonzero;fill:rgb(12.156863%,12.156863%,12.54902%);fill-opacity:1;" d="M 32.917969 25.839844 C 33.074219 25.886719 33.074219 25.886719 33.074219 25.886719 Z M 32.917969 25.839844 "/>
<path style=" stroke:none;fill-rule:nonzero;fill:rgb(33.725491%,33.725491%,39.215687%);fill-opacity:1;" d="M 54.425781 24.464844 C 54.445312 24.496094 54.460938 24.523438 54.480469 24.554688 C 54.445312 24.539062 54.410156 24.523438 54.375 24.507812 C 54.390625 24.496094 54.410156 24.480469 54.425781 24.464844 Z M 54.425781 24.464844 "/>
<path style=" stroke:none;fill-rule:nonzero;fill:rgb(11.764706%,11.764706%,12.156863%);fill-opacity:1;" d="M 46.769531 21.9375 C 46.925781 21.984375 46.925781 21.984375 46.925781 21.984375 Z M 46.769531 21.9375 "/>
<path style=" stroke:none;fill-rule:nonzero;fill:rgb(11.764706%,12.156863%,12.54902%);fill-opacity:1;" d="M 33.074219 21.9375 C 33.105469 21.9375 33.140625 21.9375 33.175781 21.9375 C 33.160156 21.96875 33.144531 22 33.125 22.03125 C 33.109375 22 33.089844 21.96875 33.074219 21.9375 Z M 33.074219 21.9375 "/>
<path style=" stroke:none;fill-rule:nonzero;fill:rgb(11.764706%,11.372549%,11.764706%);fill-opacity:1;" d="M 32.96875 21.894531 C 33.019531 21.917969 33.019531 21.917969 33.074219 21.9375 C 33.019531 21.960938 33.019531 21.960938 32.96875 21.984375 C 32.96875 21.953125 32.96875 21.925781 32.96875 21.894531 Z M 32.96875 21.894531 "/>
<path style=" stroke:none;fill-rule:nonzero;fill:rgb(11.372549%,10.980392%,11.764706%);fill-opacity:1;" d="M 46.667969 18.359375 C 46.824219 18.40625 46.824219 18.40625 46.824219 18.40625 Z M 46.667969 18.359375 "/>
<path style=" stroke:none;fill-rule:nonzero;fill:rgb(10.980392%,10.980392%,10.980392%);fill-opacity:1;" d="M 37.863281 16.9375 C 38.019531 16.984375 38.019531 16.984375 38.019531 16.984375 Z M 37.863281 16.9375 "/>
<path style=" stroke:none;fill-rule:nonzero;fill:rgb(15.294118%,15.686275%,16.470589%);fill-opacity:1;" d="M 32.550781 15.515625 C 32.585938 15.515625 32.621094 15.515625 32.65625 15.515625 C 32.640625 15.542969 32.621094 15.574219 32.605469 15.605469 C 32.585938 15.574219 32.570312 15.542969 32.550781 15.515625 Z M 32.550781 15.515625 "/>
<path style=" stroke:none;fill-rule:nonzero;fill:rgb(36.862746%,37.254903%,42.745098%);fill-opacity:1;" d="M 49.375 9.777344 C 49.425781 9.800781 49.425781 9.800781 49.480469 9.820312 C 49.425781 9.84375 49.425781 9.84375 49.375 9.867188 C 49.375 9.835938 49.375 9.808594 49.375 9.777344 Z M 49.375 9.777344 "/>
<path style=" stroke:none;fill-rule:nonzero;fill:rgb(44.313726%,44.313726%,51.764709%);fill-opacity:1;" d="M 49.375 0.597656 C 49.425781 0.621094 49.425781 0.621094 49.480469 0.640625 C 49.425781 0.664062 49.425781 0.664062 49.375 0.6875 C 49.375 0.65625 49.375 0.628906 49.375 0.597656 Z M 49.375 0.597656 "/>
<path style=" stroke:none;fill-rule:nonzero;fill:rgb(60.000002%,60.000002%,69.411767%);fill-opacity:1;" d="M 49.375 46.863281 C 49.480469 46.90625 49.480469 46.90625 49.480469 46.90625 Z M 49.375 46.863281 "/>
<path style=" stroke:none;fill-rule:nonzero;fill:rgb(59.215689%,59.215689%,69.01961%);fill-opacity:1;" d="M 49.375 45.761719 C 49.480469 45.804688 49.480469 45.804688 49.480469 45.804688 Z M 49.375 45.761719 "/>
<path style=" stroke:none;fill-rule:nonzero;fill:rgb(61.960787%,61.960787%,72.156864%);fill-opacity:1;" d="M 56.769531 44.933594 C 56.875 44.980469 56.875 44.980469 56.875 44.980469 Z M 56.769531 44.933594 "/>
<path style=" stroke:none;fill-rule:nonzero;fill:rgb(60.784316%,61.176473%,71.372551%);fill-opacity:1;" d="M 56.769531 43.832031 C 56.875 43.878906 56.875 43.878906 56.875 43.878906 Z M 56.769531 43.832031 "/>
<path style=" stroke:none;fill-rule:nonzero;fill:rgb(60.000002%,60.000002%,70.19608%);fill-opacity:1;" d="M 56.769531 42.730469 C 56.875 42.777344 56.875 42.777344 56.875 42.777344 Z M 56.769531 42.730469 "/>
<path style=" stroke:none;fill-rule:nonzero;fill:rgb(70.19608%,70.19608%,79.215688%);fill-opacity:1;" d="M 4.425781 39.886719 C 4.53125 39.929688 4.53125 39.929688 4.53125 39.929688 Z M 4.425781 39.886719 "/>
<path style=" stroke:none;fill-rule:nonzero;fill:rgb(54.509807%,55.29412%,63.921571%);fill-opacity:1;" d="M 54.375 39.5625 C 54.480469 39.609375 54.480469 39.609375 54.480469 39.609375 Z M 54.375 39.5625 "/>
<path style=" stroke:none;fill-rule:nonzero;fill:rgb(50.980395%,50.980395%,60.000002%);fill-opacity:1;" d="M 49.375 39.519531 C 49.480469 39.5625 49.480469 39.5625 49.480469 39.5625 Z M 49.375 39.519531 "/>
<path style=" stroke:none;fill-rule:nonzero;fill:rgb(50.196081%,50.588238%,58.823532%);fill-opacity:1;" d="M 49.375 39.152344 C 49.480469 39.195312 49.480469 39.195312 49.480469 39.195312 Z M 49.375 39.152344 "/>
<path style=" stroke:none;fill-rule:nonzero;fill:rgb(55.686277%,55.29412%,65.098041%);fill-opacity:1;" d="M 56.769531 38.691406 C 56.875 38.738281 56.875 38.738281 56.875 38.738281 Z M 56.769531 38.691406 "/>
<path style=" stroke:none;fill-rule:nonzero;fill:rgb(52.156866%,52.941179%,61.56863%);fill-opacity:1;" d="M 54.269531 38.050781 C 54.375 38.09375 54.375 38.09375 54.375 38.09375 Z M 54.269531 38.050781 "/>
<path style=" stroke:none;fill-rule:nonzero;fill:rgb(47.450981%,47.058824%,55.686277%);fill-opacity:1;" d="M 49.375 37.683594 C 49.480469 37.726562 49.480469 37.726562 49.480469 37.726562 Z M 49.375 37.683594 "/>
<path style=" stroke:none;fill-rule:nonzero;fill:rgb(45.490196%,46.27451%,54.11765%);fill-opacity:1;" d="M 49.375 36.949219 C 49.480469 36.992188 49.480469 36.992188 49.480469 36.992188 Z M 49.375 36.949219 "/>
<path style=" stroke:none;fill-rule:nonzero;fill:rgb(50.196081%,50.980395%,59.215689%);fill-opacity:1;" d="M 54.375 36.625 C 54.480469 36.671875 54.480469 36.671875 54.480469 36.671875 Z M 54.375 36.625 "/>
<path style=" stroke:none;fill-rule:nonzero;fill:rgb(45.490196%,45.490196%,53.333336%);fill-opacity:1;" d="M 49.375 36.582031 C 49.480469 36.625 49.480469 36.625 49.480469 36.625 Z M 49.375 36.582031 "/>
<path style=" stroke:none;fill-rule:nonzero;fill:rgb(52.941179%,52.941179%,62.352943%);fill-opacity:1;" d="M 56.769531 36.488281 C 56.875 36.535156 56.875 36.535156 56.875 36.535156 Z M 56.769531 36.488281 "/>
<path style=" stroke:none;fill-rule:nonzero;fill:rgb(44.313726%,44.705883%,52.549022%);fill-opacity:1;" d="M 49.375 36.214844 C 49.480469 36.257812 49.480469 36.257812 49.480469 36.257812 Z M 49.375 36.214844 "/>
<path style=" stroke:none;fill-rule:nonzero;fill:rgb(43.921569%,43.529412%,51.764709%);fill-opacity:1;" d="M 49.375 35.847656 C 49.480469 35.890625 49.480469 35.890625 49.480469 35.890625 Z M 49.375 35.847656 "/>
<path style=" stroke:none;fill-rule:nonzero;fill:rgb(42.745098%,42.745098%,50.588238%);fill-opacity:1;" d="M 49.375 35.480469 C 49.480469 35.523438 49.480469 35.523438 49.480469 35.523438 Z M 49.375 35.480469 "/>
<path style=" stroke:none;fill-rule:nonzero;fill:rgb(51.764709%,51.764709%,60.392159%);fill-opacity:1;" d="M 56.769531 35.386719 C 56.875 35.433594 56.875 35.433594 56.875 35.433594 Z M 56.769531 35.386719 "/>
<path style=" stroke:none;fill-rule:nonzero;fill:rgb(41.960785%,42.352942%,49.411765%);fill-opacity:1;" d="M 49.375 35.113281 C 49.480469 35.15625 49.480469 35.15625 49.480469 35.15625 Z M 49.375 35.113281 "/>
<path style=" stroke:none;fill-rule:nonzero;fill:rgb(40.000001%,40.392157%,47.450981%);fill-opacity:1;" d="M 49.375 34.378906 C 49.480469 34.421875 49.480469 34.421875 49.480469 34.421875 Z M 49.375 34.378906 "/>
<path style=" stroke:none;fill-rule:nonzero;fill:rgb(48.627451%,49.019608%,57.647061%);fill-opacity:1;" d="M 56.769531 33.550781 C 56.875 33.597656 56.875 33.597656 56.875 33.597656 Z M 56.769531 33.550781 "/>
<path style=" stroke:none;fill-rule:nonzero;fill:rgb(47.843137%,47.843137%,56.470591%);fill-opacity:1;" d="M 56.769531 32.816406 C 56.875 32.863281 56.875 32.863281 56.875 32.863281 Z M 56.769531 32.816406 "/>
<path style=" stroke:none;fill-rule:nonzero;fill:rgb(34.509805%,34.117648%,40.392157%);fill-opacity:1;" d="M 49.375 32.175781 C 49.480469 32.21875 49.480469 32.21875 49.480469 32.21875 Z M 49.375 32.175781 "/>
<path style=" stroke:none;fill-rule:nonzero;fill:rgb(47.058824%,47.058824%,55.29412%);fill-opacity:1;" d="M 56.769531 32.082031 C 56.875 32.128906 56.875 32.128906 56.875 32.128906 Z M 56.769531 32.082031 "/>
<path style=" stroke:none;fill-rule:nonzero;fill:rgb(16.862746%,16.470589%,18.039216%);fill-opacity:1;" d="M 40.363281 32.082031 C 40.46875 32.128906 40.46875 32.128906 40.46875 32.128906 Z M 40.363281 32.082031 "/>
<path style=" stroke:none;fill-rule:nonzero;fill:rgb(15.686275%,15.686275%,16.862746%);fill-opacity:1;" d="M 40.832031 31.898438 C 40.9375 31.945312 40.9375 31.945312 40.9375 31.945312 Z M 40.832031 31.898438 "/>
<path style=" stroke:none;fill-rule:nonzero;fill:rgb(33.333334%,33.333334%,39.215687%);fill-opacity:1;" d="M 49.375 31.808594 C 49.480469 31.851562 49.480469 31.851562 49.480469 31.851562 Z M 49.375 31.808594 "/>
<path style=" stroke:none;fill-rule:nonzero;fill:rgb(46.27451%,46.666667%,54.509807%);fill-opacity:1;" d="M 56.769531 31.714844 C 56.875 31.761719 56.875 31.761719 56.875 31.761719 Z M 56.769531 31.714844 "/>
<path style=" stroke:none;fill-rule:nonzero;fill:rgb(16.078432%,16.078432%,16.862746%);fill-opacity:1;" d="M 38.332031 31.625 C 38.4375 31.671875 38.4375 31.671875 38.4375 31.671875 Z M 38.332031 31.625 "/>
<path style=" stroke:none;fill-rule:nonzero;fill:rgb(45.09804%,45.490196%,53.725493%);fill-opacity:1;" d="M 56.769531 30.980469 C 56.875 31.027344 56.875 31.027344 56.875 31.027344 Z M 56.769531 30.980469 "/>
<path style=" stroke:none;fill-rule:nonzero;fill:rgb(29.411766%,29.411766%,34.509805%);fill-opacity:1;" d="M 49.375 30.707031 C 49.480469 30.75 49.480469 30.75 49.480469 30.75 Z M 49.375 30.707031 "/>
<path style=" stroke:none;fill-rule:nonzero;fill:rgb(45.09804%,44.705883%,52.941179%);fill-opacity:1;" d="M 56.769531 30.613281 C 56.875 30.660156 56.875 30.660156 56.875 30.660156 Z M 56.769531 30.613281 "/>
<path style=" stroke:none;fill-rule:nonzero;fill:rgb(28.627452%,28.627452%,32.941177%);fill-opacity:1;" d="M 49.375 30.339844 C 49.480469 30.382812 49.480469 30.382812 49.480469 30.382812 Z M 49.375 30.339844 "/>
<path style=" stroke:none;fill-rule:nonzero;fill:rgb(43.921569%,44.313726%,52.156866%);fill-opacity:1;" d="M 56.769531 30.246094 C 56.875 30.292969 56.875 30.292969 56.875 30.292969 Z M 56.769531 30.246094 "/>
<path style=" stroke:none;fill-rule:nonzero;fill:rgb(43.137255%,43.137255%,50.980395%);fill-opacity:1;" d="M 56.769531 29.511719 C 56.875 29.558594 56.875 29.558594 56.875 29.558594 Z M 56.769531 29.511719 "/>
<path style=" stroke:none;fill-rule:nonzero;fill:rgb(42.745098%,41.960785%,50.196081%);fill-opacity:1;" d="M 56.769531 28.410156 C 56.875 28.457031 56.875 28.457031 56.875 28.457031 Z M 56.769531 28.410156 "/>
<path style=" stroke:none;fill-rule:nonzero;fill:rgb(22.745098%,23.137255%,26.274511%);fill-opacity:1;" d="M 49.375 28.136719 C 49.480469 28.179688 49.480469 28.179688 49.480469 28.179688 Z M 49.375 28.136719 "/>
<path style=" stroke:none;fill-rule:nonzero;fill:rgb(42.352942%,41.568628%,49.019608%);fill-opacity:1;" d="M 56.769531 28.042969 C 56.875 28.089844 56.875 28.089844 56.875 28.089844 Z M 56.769531 28.042969 "/>
<path style=" stroke:none;fill-rule:nonzero;fill:rgb(14.117648%,13.725491%,14.509805%);fill-opacity:1;" d="M 32.917969 27.402344 C 33.019531 27.445312 33.019531 27.445312 33.019531 27.445312 Z M 32.917969 27.402344 "/>
<path style=" stroke:none;fill-rule:nonzero;fill:rgb(41.176471%,40.784314%,48.235294%);fill-opacity:1;" d="M 56.769531 27.308594 C 56.875 27.355469 56.875 27.355469 56.875 27.355469 Z M 56.769531 27.308594 "/>
<path style=" stroke:none;fill-rule:nonzero;fill:rgb(12.156863%,11.764706%,12.54902%);fill-opacity:1;" d="M 46.511719 26.023438 C 46.613281 26.070312 46.613281 26.070312 46.613281 26.070312 Z M 46.511719 26.023438 "/>
<path style=" stroke:none;fill-rule:nonzero;fill:rgb(40.392157%,40.392157%,47.450981%);fill-opacity:1;" d="M 56.769531 25.839844 C 56.875 25.886719 56.875 25.886719 56.875 25.886719 Z M 56.769531 25.839844 "/>
<path style=" stroke:none;fill-rule:nonzero;fill:rgb(40.392157%,40.392157%,47.450981%);fill-opacity:1;" d="M 56.769531 25.472656 C 56.875 25.519531 56.875 25.519531 56.875 25.519531 Z M 56.769531 25.472656 "/>
<path style=" stroke:none;fill-rule:nonzero;fill:rgb(16.470589%,16.470589%,18.039216%);fill-opacity:1;" d="M 29.167969 25.382812 C 29.269531 25.429688 29.269531 25.429688 29.269531 25.429688 Z M 29.167969 25.382812 "/>
<path style=" stroke:none;fill-rule:nonzero;fill:rgb(10.980392%,10.980392%,11.764706%);fill-opacity:1;" d="M 44.167969 25.0625 C 44.269531 25.105469 44.269531 25.105469 44.269531 25.105469 Z M 44.167969 25.0625 "/>
<path style=" stroke:none;fill-rule:nonzero;fill:rgb(40.784314%,40.392157%,47.450981%);fill-opacity:1;" d="M 56.769531 24.371094 C 56.875 24.417969 56.875 24.417969 56.875 24.417969 Z M 56.769531 24.371094 "/>
<path style=" stroke:none;fill-rule:nonzero;fill:rgb(15.686275%,15.686275%,17.254902%);fill-opacity:1;" d="M 50.519531 23.914062 C 50.625 23.960938 50.625 23.960938 50.625 23.960938 Z M 50.519531 23.914062 "/>
<path style=" stroke:none;fill-rule:nonzero;fill:rgb(13.333334%,12.941177%,14.117648%);fill-opacity:1;" d="M 49.375 23.132812 C 49.480469 23.179688 49.480469 23.179688 49.480469 23.179688 Z M 49.375 23.132812 "/>
<path style=" stroke:none;fill-rule:nonzero;fill:rgb(41.176471%,40.784314%,47.450981%);fill-opacity:1;" d="M 56.769531 22.902344 C 56.875 22.949219 56.875 22.949219 56.875 22.949219 Z M 56.769531 22.902344 "/>
<path style=" stroke:none;fill-rule:nonzero;fill:rgb(13.333334%,13.333334%,13.725491%);fill-opacity:1;" d="M 31.875 22.445312 C 31.980469 22.492188 31.980469 22.492188 31.980469 22.492188 Z M 31.875 22.445312 "/>
<path style=" stroke:none;fill-rule:nonzero;fill:rgb(11.764706%,12.156863%,12.156863%);fill-opacity:1;" d="M 47.1875 22.398438 C 47.292969 22.445312 47.292969 22.445312 47.292969 22.445312 Z M 47.1875 22.398438 "/>
<path style=" stroke:none;fill-rule:nonzero;fill:rgb(12.941177%,12.941177%,13.725491%);fill-opacity:1;" d="M 32.082031 22.398438 C 32.1875 22.445312 32.1875 22.445312 32.1875 22.445312 Z M 32.082031 22.398438 "/>
<path style=" stroke:none;fill-rule:nonzero;fill:rgb(12.156863%,12.156863%,12.54902%);fill-opacity:1;" d="M 33.386719 22.214844 C 33.488281 22.261719 33.488281 22.261719 33.488281 22.261719 Z M 33.386719 22.214844 "/>
<path style=" stroke:none;fill-rule:nonzero;fill:rgb(12.156863%,12.156863%,12.54902%);fill-opacity:1;" d="M 47.34375 21.847656 C 47.449219 21.894531 47.449219 21.894531 47.449219 21.894531 Z M 47.34375 21.847656 "/>
<path style=" stroke:none;fill-rule:nonzero;fill:rgb(12.156863%,12.156863%,12.156863%);fill-opacity:1;" d="M 48.542969 21.527344 C 48.644531 21.570312 48.644531 21.570312 48.644531 21.570312 Z M 48.542969 21.527344 "/>
<path style=" stroke:none;fill-rule:nonzero;fill:rgb(40.784314%,40.784314%,47.450981%);fill-opacity:1;" d="M 56.769531 21.433594 C 56.875 21.480469 56.875 21.480469 56.875 21.480469 Z M 56.769531 21.433594 "/>
<path style=" stroke:none;fill-rule:nonzero;fill:rgb(40.000001%,40.392157%,47.843137%);fill-opacity:1;" d="M 56.769531 20.332031 C 56.875 20.378906 56.875 20.378906 56.875 20.378906 Z M 56.769531 20.332031 "/>
<path style=" stroke:none;fill-rule:nonzero;fill:rgb(41.176471%,40.784314%,47.450981%);fill-opacity:1;" d="M 56.769531 18.863281 C 56.875 18.910156 56.875 18.910156 56.875 18.910156 Z M 56.769531 18.863281 "/>
<path style=" stroke:none;fill-rule:nonzero;fill:rgb(11.764706%,11.764706%,11.764706%);fill-opacity:1;" d="M 34.113281 18.40625 C 34.21875 18.453125 34.21875 18.453125 34.21875 18.453125 Z M 34.113281 18.40625 "/>
<path style=" stroke:none;fill-rule:nonzero;fill:rgb(10.980392%,11.372549%,11.764706%);fill-opacity:1;" d="M 46.300781 18.359375 C 46.40625 18.40625 46.40625 18.40625 46.40625 18.40625 Z M 46.300781 18.359375 "/>
<path style=" stroke:none;fill-rule:nonzero;fill:rgb(18.82353%,18.431373%,20%);fill-opacity:1;" d="M 29.167969 18.359375 C 29.269531 18.40625 29.269531 18.40625 29.269531 18.40625 Z M 29.167969 18.359375 "/>
<path style=" stroke:none;fill-rule:nonzero;fill:rgb(12.54902%,13.333334%,13.333334%);fill-opacity:1;" d="M 47.605469 18.085938 C 47.707031 18.128906 47.707031 18.128906 47.707031 18.128906 Z M 47.605469 18.085938 "/>
<path style=" stroke:none;fill-rule:nonzero;fill:rgb(13.725491%,13.333334%,13.725491%);fill-opacity:1;" d="M 48.074219 17.992188 C 48.175781 18.039062 48.175781 18.039062 48.175781 18.039062 Z M 48.074219 17.992188 "/>
<path style=" stroke:none;fill-rule:nonzero;fill:rgb(12.54902%,12.54902%,13.333334%);fill-opacity:1;" d="M 32.394531 17.992188 C 32.5 18.039062 32.5 18.039062 32.5 18.039062 Z M 32.394531 17.992188 "/>
<path style=" stroke:none;fill-rule:nonzero;fill:rgb(41.568628%,40.784314%,47.843137%);fill-opacity:1;" d="M 56.769531 17.761719 C 56.875 17.808594 56.875 17.808594 56.875 17.808594 Z M 56.769531 17.761719 "/>
<path style=" stroke:none;fill-rule:nonzero;fill:rgb(14.117648%,14.117648%,14.509805%);fill-opacity:1;" d="M 33.125 16.9375 C 33.230469 16.984375 33.230469 16.984375 33.230469 16.984375 Z M 33.125 16.9375 "/>
<path style=" stroke:none;fill-rule:nonzero;fill:rgb(41.960785%,41.960785%,49.411765%);fill-opacity:1;" d="M 56.769531 16.292969 C 56.875 16.339844 56.875 16.339844 56.875 16.339844 Z M 56.769531 16.292969 "/>
<path style=" stroke:none;fill-rule:nonzero;fill:rgb(37.254903%,37.254903%,43.137255%);fill-opacity:1;" d="M 54.375 16.0625 C 54.480469 16.109375 54.480469 16.109375 54.480469 16.109375 Z M 54.375 16.0625 "/>
<path style=" stroke:none;fill-rule:nonzero;fill:rgb(42.352942%,41.960785%,49.019608%);fill-opacity:1;" d="M 56.769531 15.925781 C 56.875 15.972656 56.875 15.972656 56.875 15.972656 Z M 56.769531 15.925781 "/>
<path style=" stroke:none;fill-rule:nonzero;fill:rgb(42.352942%,41.568628%,49.411765%);fill-opacity:1;" d="M 56.769531 14.824219 C 56.875 14.871094 56.875 14.871094 56.875 14.871094 Z M 56.769531 14.824219 "/>
<path style=" stroke:none;fill-rule:nonzero;fill:rgb(42.745098%,42.352942%,49.803922%);fill-opacity:1;" d="M 56.769531 14.457031 C 56.875 14.503906 56.875 14.503906 56.875 14.503906 Z M 56.769531 14.457031 "/>
<path style=" stroke:none;fill-rule:nonzero;fill:rgb(16.862746%,16.862746%,17.647059%);fill-opacity:1;" d="M 33.125 14.367188 C 33.230469 14.414062 33.230469 14.414062 33.230469 14.414062 Z M 33.125 14.367188 "/>
<path style=" stroke:none;fill-rule:nonzero;fill:rgb(27.450982%,27.843139%,31.764707%);fill-opacity:1;" d="M 49.375 14.183594 C 49.480469 14.226562 49.480469 14.226562 49.480469 14.226562 Z M 49.375 14.183594 "/>
<path style=" stroke:none;fill-rule:nonzero;fill:rgb(16.470589%,16.078432%,17.647059%);fill-opacity:1;" d="M 34.269531 14.046875 C 34.375 14.089844 34.375 14.089844 34.375 14.089844 Z M 34.269531 14.046875 "/>
<path style=" stroke:none;fill-rule:nonzero;fill:rgb(43.921569%,43.529412%,51.372552%);fill-opacity:1;" d="M 56.769531 13.355469 C 56.875 13.402344 56.875 13.402344 56.875 13.402344 Z M 56.769531 13.355469 "/>
<path style=" stroke:none;fill-rule:nonzero;fill:rgb(16.078432%,16.078432%,17.647059%);fill-opacity:1;" d="M 40 12.210938 C 40.105469 12.253906 40.105469 12.253906 40.105469 12.253906 Z M 40 12.210938 "/>
<path style=" stroke:none;fill-rule:nonzero;fill:rgb(45.09804%,45.09804%,53.333336%);fill-opacity:1;" d="M 56.769531 11.519531 C 56.875 11.566406 56.875 11.566406 56.875 11.566406 Z M 56.769531 11.519531 "/>
<path style=" stroke:none;fill-rule:nonzero;fill:rgb(45.09804%,45.09804%,53.725493%);fill-opacity:1;" d="M 56.769531 11.152344 C 56.875 11.199219 56.875 11.199219 56.875 11.199219 Z M 56.769531 11.152344 "/>
<path style=" stroke:none;fill-rule:nonzero;fill:rgb(45.882353%,45.09804%,53.725493%);fill-opacity:1;" d="M 56.769531 10.785156 C 56.875 10.832031 56.875 10.832031 56.875 10.832031 Z M 56.769531 10.785156 "/>
<path style=" stroke:none;fill-rule:nonzero;fill:rgb(45.882353%,45.882353%,54.509807%);fill-opacity:1;" d="M 56.769531 10.050781 C 56.875 10.097656 56.875 10.097656 56.875 10.097656 Z M 56.769531 10.050781 "/>
<path style=" stroke:none;fill-rule:nonzero;fill:rgb(45.882353%,46.27451%,54.509807%);fill-opacity:1;" d="M 56.769531 9.683594 C 56.875 9.730469 56.875 9.730469 56.875 9.730469 Z M 56.769531 9.683594 "/>
<path style=" stroke:none;fill-rule:nonzero;fill:rgb(46.666667%,46.27451%,54.901963%);fill-opacity:1;" d="M 56.769531 8.214844 C 56.875 8.261719 56.875 8.261719 56.875 8.261719 Z M 56.769531 8.214844 "/>
<path style=" stroke:none;fill-rule:nonzero;fill:rgb(38.431373%,38.82353%,45.09804%);fill-opacity:1;" d="M 49.375 7.574219 C 49.480469 7.617188 49.480469 7.617188 49.480469 7.617188 Z M 49.375 7.574219 "/>
<path style=" stroke:none;fill-rule:nonzero;fill:rgb(39.607844%,39.607844%,46.27451%);fill-opacity:1;" d="M 49.375 6.839844 C 49.480469 6.882812 49.480469 6.882812 49.480469 6.882812 Z M 49.375 6.839844 "/>
<path style=" stroke:none;fill-rule:nonzero;fill:rgb(40.392157%,40.392157%,47.450981%);fill-opacity:1;" d="M 49.375 5.371094 C 49.480469 5.414062 49.480469 5.414062 49.480469 5.414062 Z M 49.375 5.371094 "/>
<path style=" stroke:none;fill-rule:nonzero;fill:rgb(43.529412%,43.137255%,50.980395%);fill-opacity:1;" d="M 51.875 4.636719 C 51.980469 4.679688 51.980469 4.679688 51.980469 4.679688 Z M 51.875 4.636719 "/>
<path style=" stroke:none;fill-rule:nonzero;fill:rgb(42.745098%,42.745098%,49.411765%);fill-opacity:1;" d="M 49.375 2.800781 C 49.480469 2.84375 49.480469 2.84375 49.480469 2.84375 Z M 49.375 2.800781 "/>
<path style=" stroke:none;fill-rule:nonzero;fill:rgb(49.411765%,49.019608%,57.647061%);fill-opacity:1;" d="M 56.769531 2.707031 C 56.875 2.753906 56.875 2.753906 56.875 2.753906 Z M 56.769531 2.707031 "/>
<path style=" stroke:none;fill-rule:nonzero;fill:rgb(49.803922%,49.803922%,58.823532%);fill-opacity:1;" d="M 56.769531 1.972656 C 56.875 2.019531 56.875 2.019531 56.875 2.019531 Z M 56.769531 1.972656 "/>
<path style=" stroke:none;fill-rule:nonzero;fill:rgb(43.137255%,43.529412%,50.980395%);fill-opacity:1;" d="M 49.375 1.699219 C 49.480469 1.742188 49.480469 1.742188 49.480469 1.742188 Z M 49.375 1.699219 "/>
<path style=" stroke:none;fill-rule:nonzero;fill:rgb(50.196081%,49.803922%,58.823532%);fill-opacity:1;" d="M 56.769531 1.605469 C 56.875 1.652344 56.875 1.652344 56.875 1.652344 Z M 56.769531 1.605469 "/>
<path style=" stroke:none;fill-rule:nonzero;fill:rgb(50.588238%,50.196081%,59.607846%);fill-opacity:1;" d="M 56.769531 1.238281 C 56.875 1.285156 56.875 1.285156 56.875 1.285156 Z M 56.769531 1.238281 "/>
<path style=" stroke:none;fill-rule:nonzero;fill:rgb(43.921569%,43.921569%,51.372552%);fill-opacity:1;" d="M 49.375 0.964844 C 49.480469 1.007812 49.480469 1.007812 49.480469 1.007812 Z M 49.375 0.964844 "/>
</g>
</svg>
