<?xml version="1.0" encoding="UTF-8"?>
<svg xmlns="http://www.w3.org/2000/svg" xmlns:xlink="http://www.w3.org/1999/xlink" width="60px" height="46px" viewBox="0 0 60 46" version="1.1">
<g id="surface1">
<path style=" stroke:none;fill-rule:nonzero;fill:rgb(99.607843%,99.607843%,99.607843%);fill-opacity:1;" d="M 33.796875 11.007812 C 34.136719 11.382812 34.339844 11.859375 34.375 12.398438 C 34.378906 14.25 33.402344 16.101562 32.695312 17.699219 C 32.707031 17.714844 32.722656 17.730469 32.734375 17.742188 C 32.902344 17.507812 33.070312 17.273438 33.234375 17.03125 C 33.332031 16.882812 33.4375 16.75 33.554688 16.621094 C 33.578125 16.59375 33.597656 16.566406 33.621094 16.539062 C 33.671875 16.484375 33.671875 16.484375 33.75 16.484375 C 33.75 16.457031 33.75 16.425781 33.75 16.398438 C 33.808594 16.328125 33.808594 16.328125 33.890625 16.253906 C 33.996094 16.148438 34.09375 16.046875 34.191406 15.929688 C 34.371094 15.722656 34.566406 15.542969 34.765625 15.363281 C 34.785156 15.34375 34.808594 15.324219 34.828125 15.304688 C 35.453125 14.746094 36.230469 14.121094 37.03125 14.015625 C 37.03125 13.972656 37.03125 13.925781 37.03125 13.882812 C 37.058594 13.894531 37.082031 13.910156 37.109375 13.925781 C 37.179688 13.929688 37.246094 13.929688 37.316406 13.933594 C 37.722656 13.941406 38.046875 14.066406 38.359375 14.382812 C 38.609375 14.707031 38.660156 15.101562 38.648438 15.519531 C 38.542969 16.632812 37.699219 17.511719 36.988281 18.179688 C 36.441406 18.683594 35.875 19.136719 35.277344 19.558594 C 35 19.757812 34.726562 19.964844 34.453125 20.171875 C 34.511719 20.15625 34.570312 20.144531 34.625 20.128906 C 34.660156 20.125 34.691406 20.117188 34.722656 20.109375 C 34.75 20.097656 34.777344 20.089844 34.804688 20.078125 C 34.816406 20.050781 34.832031 20.019531 34.84375 19.992188 C 34.882812 20.003906 34.882812 20.003906 34.925781 20.015625 C 35.0625 20.039062 35.171875 20.019531 35.308594 19.992188 C 35.335938 19.988281 35.359375 19.980469 35.386719 19.976562 C 35.441406 19.964844 35.496094 19.957031 35.546875 19.945312 C 35.628906 19.929688 35.710938 19.914062 35.792969 19.898438 C 36.0625 19.847656 36.0625 19.847656 36.328125 19.765625 C 36.394531 19.757812 36.460938 19.753906 36.523438 19.75 C 36.566406 19.75 36.605469 19.746094 36.644531 19.746094 C 36.6875 19.742188 36.734375 19.742188 36.777344 19.742188 C 36.84375 19.738281 36.84375 19.738281 36.914062 19.734375 C 39.570312 19.636719 39.570312 19.636719 40.351562 20.476562 C 40.570312 20.746094 40.710938 20.996094 40.707031 21.371094 C 40.707031 21.40625 40.703125 21.445312 40.703125 21.480469 C 40.703125 21.519531 40.703125 21.519531 40.703125 21.5625 C 40.730469 21.5625 40.753906 21.5625 40.78125 21.5625 C 40.769531 21.605469 40.753906 21.652344 40.742188 21.695312 C 40.769531 21.695312 40.792969 21.695312 40.820312 21.695312 C 40.832031 21.667969 40.847656 21.636719 40.859375 21.609375 C 40.867188 21.734375 40.867188 21.734375 40.859375 21.875 C 40.78125 21.960938 40.78125 21.960938 40.703125 22.011719 C 40.714844 21.96875 40.730469 21.921875 40.742188 21.875 C 40.714844 21.863281 40.691406 21.847656 40.664062 21.832031 C 40.664062 21.867188 40.660156 21.902344 40.660156 21.9375 C 40.566406 22.382812 40.273438 22.789062 39.933594 23.027344 C 39.90625 23.046875 39.875 23.070312 39.84375 23.089844 C 39.816406 23.121094 39.792969 23.148438 39.765625 23.179688 C 39.296875 23.453125 38.796875 23.617188 38.28125 23.71875 C 38.210938 23.734375 38.210938 23.734375 38.136719 23.746094 C 36.914062 23.953125 35.675781 23.8125 34.453125 23.671875 C 34.488281 23.691406 34.523438 23.710938 34.558594 23.730469 C 36.332031 24.734375 36.332031 24.734375 36.917969 25.277344 C 36.992188 25.347656 36.992188 25.347656 37.109375 25.335938 C 37.117188 25.363281 37.128906 25.386719 37.136719 25.414062 C 37.199219 25.539062 37.265625 25.59375 37.363281 25.679688 C 37.84375 26.113281 38.246094 26.609375 38.386719 27.3125 C 38.441406 27.9375 38.285156 28.488281 37.957031 28.988281 C 37.761719 29.210938 37.535156 29.394531 37.265625 29.46875 C 37.214844 29.46875 37.164062 29.46875 37.109375 29.46875 C 37.097656 29.5 37.082031 29.527344 37.070312 29.558594 C 36.707031 29.515625 36.367188 29.457031 36.015625 29.328125 C 35.910156 29.292969 35.808594 29.265625 35.703125 29.242188 C 35.703125 29.214844 35.703125 29.183594 35.703125 29.152344 C 35.652344 29.136719 35.652344 29.136719 35.601562 29.121094 C 35.457031 29.058594 35.328125 28.980469 35.199219 28.886719 C 35.171875 28.871094 35.148438 28.851562 35.121094 28.835938 C 34.832031 28.628906 34.566406 28.402344 34.296875 28.164062 C 34.273438 28.144531 34.25 28.125 34.226562 28.105469 C 33.9375 27.851562 33.660156 27.585938 33.394531 27.300781 C 33.308594 27.207031 33.222656 27.121094 33.136719 27.035156 C 32.941406 26.839844 32.761719 26.628906 32.578125 26.417969 C 32.542969 26.378906 32.511719 26.339844 32.476562 26.296875 C 32.390625 26.203125 32.308594 26.105469 32.226562 26.007812 C 32.242188 26.050781 32.242188 26.050781 32.257812 26.089844 C 32.359375 26.363281 32.464844 26.632812 32.566406 26.90625 C 32.609375 27.027344 32.65625 27.148438 32.703125 27.269531 C 33.203125 28.59375 33.769531 30.320312 33.320312 31.757812 C 33.140625 32.238281 32.90625 32.582031 32.480469 32.796875 C 32.398438 32.828125 32.3125 32.859375 32.226562 32.882812 C 32.195312 32.894531 32.164062 32.902344 32.132812 32.914062 C 31.695312 32.976562 31.257812 32.921875 30.898438 32.613281 C 29.9375 31.632812 29.636719 29.566406 29.53125 28.164062 C 29.527344 28.03125 29.527344 27.898438 29.53125 27.761719 C 29.503906 27.746094 29.480469 27.730469 29.453125 27.714844 C 29.453125 27.582031 29.453125 27.449219 29.453125 27.3125 C 29.425781 27.3125 29.402344 27.3125 29.375 27.3125 C 29.367188 27.363281 29.367188 27.363281 29.355469 27.414062 C 29.085938 28.945312 28.742188 30.5625 27.8125 31.757812 C 27.78125 31.800781 27.75 31.84375 27.714844 31.886719 C 27.4375 32.234375 27.046875 32.582031 26.617188 32.621094 C 26.121094 32.632812 25.632812 32.457031 25.257812 32.066406 C 24.921875 31.628906 24.835938 31.15625 24.835938 30.589844 C 24.835938 30.550781 24.835938 30.511719 24.835938 30.472656 C 24.835938 30.253906 24.847656 30.078125 24.921875 29.871094 C 24.9375 29.824219 24.949219 29.773438 24.964844 29.722656 C 25.125 29.199219 25.347656 28.730469 25.585938 28.253906 C 25.613281 28.253906 25.636719 28.253906 25.664062 28.253906 C 25.671875 28.226562 25.683594 28.195312 25.691406 28.164062 C 25.757812 27.992188 25.84375 27.851562 25.9375 27.699219 C 25.976562 27.636719 26.015625 27.570312 26.054688 27.507812 C 26.074219 27.476562 26.09375 27.441406 26.113281 27.410156 C 26.496094 26.800781 26.496094 26.800781 26.796875 26.144531 C 26.785156 26.113281 26.769531 26.085938 26.757812 26.054688 C 26.726562 26.09375 26.691406 26.132812 26.65625 26.171875 C 26.425781 26.441406 26.191406 26.710938 25.9375 26.953125 C 25.917969 26.972656 25.894531 26.992188 25.875 27.011719 C 23.320312 29.46875 23.320312 29.46875 21.953125 29.394531 C 21.53125 29.335938 21.175781 29.128906 20.910156 28.742188 C 20.667969 28.339844 20.578125 27.886719 20.625 27.402344 C 20.84375 26.285156 21.878906 25.59375 22.65625 25.023438 C 22.691406 24.996094 22.730469 24.96875 22.765625 24.941406 C 23.019531 24.757812 23.292969 24.609375 23.5625 24.457031 C 23.78125 24.332031 23.996094 24.207031 24.214844 24.078125 C 24.347656 24.003906 24.476562 23.929688 24.609375 23.851562 C 24.675781 23.816406 24.675781 23.816406 24.746094 23.773438 C 24.777344 23.757812 24.8125 23.738281 24.84375 23.71875 C 24.832031 23.703125 24.816406 23.6875 24.804688 23.671875 C 24.734375 23.675781 24.664062 23.679688 24.59375 23.6875 C 24.542969 23.691406 24.492188 23.695312 24.441406 23.703125 C 24.304688 23.714844 24.167969 23.726562 24.03125 23.742188 C 22.617188 23.882812 20.886719 23.964844 19.730469 22.847656 C 19.390625 22.503906 19.066406 22.113281 19.011719 21.570312 C 19.003906 21.109375 19.097656 20.765625 19.375 20.429688 C 20.027344 19.742188 20.933594 19.664062 21.773438 19.664062 C 21.804688 19.664062 21.835938 19.664062 21.867188 19.664062 C 22.726562 19.664062 23.539062 19.804688 24.375 20.035156 C 24.386719 20.003906 24.402344 19.976562 24.414062 19.945312 C 24.441406 19.976562 24.464844 20.003906 24.492188 20.035156 C 24.542969 20.035156 24.59375 20.035156 24.648438 20.035156 C 24.476562 19.894531 24.300781 19.753906 24.125 19.621094 C 23.039062 18.804688 21.570312 17.664062 21.269531 16.117188 C 21.203125 15.707031 21.285156 15.3125 21.476562 14.964844 C 21.742188 14.546875 22.082031 14.347656 22.515625 14.269531 C 22.640625 14.246094 22.769531 14.226562 22.898438 14.210938 C 22.972656 14.199219 22.972656 14.199219 23.046875 14.148438 C 23.046875 14.179688 23.046875 14.210938 23.046875 14.242188 C 23.070312 14.246094 23.097656 14.253906 23.121094 14.261719 C 23.917969 14.488281 24.570312 14.992188 25.195312 15.585938 C 25.21875 15.609375 25.242188 15.632812 25.269531 15.65625 C 25.503906 15.886719 25.738281 16.113281 25.953125 16.371094 C 26.023438 16.449219 26.097656 16.523438 26.171875 16.597656 C 26.304688 16.726562 26.417969 16.867188 26.53125 17.019531 C 26.609375 17.128906 26.695312 17.234375 26.777344 17.339844 C 26.929688 17.53125 27.078125 17.726562 27.226562 17.921875 C 27.226562 17.742188 27.15625 17.605469 27.089844 17.445312 C 27.074219 17.410156 27.0625 17.375 27.046875 17.339844 C 26.96875 17.148438 26.886719 16.960938 26.804688 16.773438 C 26.222656 15.453125 25.667969 14.113281 25.546875 12.625 C 25.574219 12.625 25.597656 12.625 25.625 12.625 C 25.628906 12.582031 25.628906 12.539062 25.632812 12.492188 C 25.683594 12.109375 25.871094 11.78125 26.132812 11.546875 C 26.433594 11.304688 26.695312 11.167969 27.066406 11.171875 C 27.109375 11.171875 27.109375 11.171875 27.148438 11.167969 C 27.453125 11.167969 27.671875 11.304688 27.890625 11.539062 C 28.179688 11.898438 28.34375 12.359375 28.515625 12.796875 C 28.550781 12.886719 28.585938 12.972656 28.621094 13.058594 C 29.152344 14.351562 29.152344 14.351562 29.335938 14.945312 C 29.371094 15.054688 29.371094 15.054688 29.453125 15.140625 C 29.46875 15.214844 29.480469 15.289062 29.492188 15.363281 C 29.527344 15.488281 29.5625 15.609375 29.597656 15.734375 C 29.613281 15.785156 29.613281 15.785156 29.628906 15.839844 C 29.660156 15.949219 29.695312 16.0625 29.726562 16.175781 C 29.757812 16.285156 29.792969 16.398438 29.824219 16.511719 C 29.84375 16.582031 29.867188 16.648438 29.886719 16.71875 C 29.929688 16.867188 29.96875 17.011719 30 17.160156 C 30.015625 17.085938 30.015625 17.085938 30.03125 17.011719 C 31.066406 11.820312 31.066406 11.820312 32.1875 10.914062 C 32.707031 10.558594 33.320312 10.546875 33.796875 11.007812 Z M 32.617188 17.789062 C 32.628906 17.820312 32.644531 17.847656 32.65625 17.878906 C 32.667969 17.847656 32.683594 17.820312 32.695312 17.789062 C 32.667969 17.789062 32.644531 17.789062 32.617188 17.789062 Z M 32.578125 17.878906 C 32.617188 17.96875 32.617188 17.96875 32.617188 17.96875 Z M 24.765625 20.078125 C 24.765625 20.109375 24.765625 20.140625 24.765625 20.171875 C 24.804688 20.15625 24.84375 20.140625 24.882812 20.125 C 24.84375 20.109375 24.804688 20.09375 24.765625 20.078125 Z M 24.84375 23.585938 C 24.910156 23.640625 24.910156 23.640625 25 23.671875 C 25.105469 23.636719 25.105469 23.636719 25.195312 23.585938 C 25.066406 23.535156 24.976562 23.546875 24.84375 23.585938 Z M 26.835938 25.921875 C 26.824219 25.949219 26.808594 25.980469 26.796875 26.007812 C 26.835938 25.996094 26.875 25.980469 26.914062 25.964844 C 26.886719 25.949219 26.863281 25.933594 26.835938 25.921875 Z M 26.835938 25.921875 "/>
<path style=" stroke:none;fill-rule:nonzero;fill:rgb(97.254902%,97.254902%,97.647059%);fill-opacity:1;" d="M 34.335938 15.765625 C 34.414062 15.8125 34.414062 15.8125 34.414062 15.8125 Z M 34.21875 15.902344 C 34.21875 16.039062 34.21875 16.039062 34.128906 16.15625 C 34.089844 16.203125 34.046875 16.25 34.003906 16.296875 C 33.984375 16.320312 33.960938 16.34375 33.9375 16.371094 C 33.871094 16.449219 33.800781 16.527344 33.730469 16.605469 C 33.683594 16.660156 33.636719 16.714844 33.589844 16.765625 C 33.472656 16.898438 33.359375 17.03125 33.242188 17.160156 C 33.242188 17.023438 33.242188 17.023438 33.324219 16.925781 C 33.363281 16.882812 33.398438 16.84375 33.4375 16.800781 C 33.5 16.71875 33.558594 16.632812 33.621094 16.546875 C 33.636719 16.527344 33.652344 16.507812 33.671875 16.484375 C 33.699219 16.484375 33.722656 16.484375 33.75 16.484375 C 33.75 16.457031 33.75 16.425781 33.75 16.398438 C 33.8125 16.324219 33.8125 16.324219 33.898438 16.246094 C 34.007812 16.136719 34.117188 16.023438 34.21875 15.902344 Z M 34.21875 15.902344 "/>
<path style=" stroke:none;fill-rule:nonzero;fill:rgb(92.941177%,93.725491%,95.294118%);fill-opacity:1;" d="M 40.664062 21.15625 C 40.675781 21.15625 40.691406 21.15625 40.703125 21.15625 C 40.703125 21.292969 40.703125 21.425781 40.703125 21.5625 C 40.730469 21.5625 40.753906 21.5625 40.78125 21.5625 C 40.769531 21.605469 40.753906 21.652344 40.742188 21.695312 C 40.769531 21.695312 40.792969 21.695312 40.820312 21.695312 C 40.832031 21.667969 40.847656 21.636719 40.859375 21.609375 C 40.867188 21.734375 40.867188 21.734375 40.859375 21.875 C 40.78125 21.960938 40.78125 21.960938 40.703125 22.011719 C 40.714844 21.96875 40.730469 21.921875 40.742188 21.875 C 40.714844 21.863281 40.691406 21.847656 40.664062 21.832031 C 40.664062 21.609375 40.664062 21.386719 40.664062 21.15625 Z M 40.664062 21.15625 "/>
<path style=" stroke:none;fill-rule:nonzero;fill:rgb(95.686275%,95.686275%,96.470588%);fill-opacity:1;" d="M 32.1875 10.914062 C 32.214844 10.929688 32.238281 10.945312 32.265625 10.960938 C 32.097656 11.152344 31.929688 11.347656 31.757812 11.546875 C 31.757812 11.378906 31.789062 11.351562 31.882812 11.230469 C 31.910156 11.199219 31.933594 11.167969 31.957031 11.136719 C 32.027344 11.054688 32.101562 10.984375 32.1875 10.914062 Z M 32.1875 10.914062 "/>
<path style=" stroke:none;fill-rule:nonzero;fill:rgb(94.901961%,94.901961%,96.078432%);fill-opacity:1;" d="M 21.835938 14.554688 C 21.863281 14.570312 21.886719 14.585938 21.914062 14.601562 C 21.773438 14.761719 21.628906 14.925781 21.484375 15.09375 C 21.484375 14.925781 21.519531 14.894531 21.617188 14.773438 C 21.640625 14.742188 21.664062 14.710938 21.691406 14.679688 C 21.757812 14.601562 21.757812 14.601562 21.835938 14.554688 Z M 21.835938 14.554688 "/>
<path style=" stroke:none;fill-rule:nonzero;fill:rgb(92.156863%,93.333334%,94.901961%);fill-opacity:1;" d="M 40.820312 21.203125 C 40.847656 21.234375 40.871094 21.261719 40.898438 21.292969 C 40.871094 21.382812 40.847656 21.472656 40.820312 21.5625 C 40.792969 21.503906 40.769531 21.445312 40.742188 21.382812 C 40.769531 21.367188 40.792969 21.351562 40.820312 21.335938 C 40.820312 21.292969 40.820312 21.25 40.820312 21.203125 Z M 40.820312 21.203125 "/>
<path style=" stroke:none;fill-rule:nonzero;fill:rgb(93.333334%,94.117647%,95.686275%);fill-opacity:1;" d="M 40.703125 20.890625 C 40.753906 20.949219 40.804688 21.007812 40.859375 21.070312 C 40.847656 21.113281 40.832031 21.15625 40.820312 21.203125 C 40.78125 21.1875 40.742188 21.171875 40.703125 21.15625 C 40.703125 21.070312 40.703125 20.980469 40.703125 20.890625 Z M 40.703125 20.890625 "/>
<path style=" stroke:none;fill-rule:nonzero;fill:rgb(98.039216%,98.823529%,99.215686%);fill-opacity:1;" d="M 21.835938 19.539062 C 21.835938 19.570312 21.835938 19.601562 21.835938 19.632812 C 21.757812 19.632812 21.679688 19.632812 21.601562 19.632812 C 21.71875 19.539062 21.71875 19.539062 21.835938 19.539062 Z M 21.835938 19.539062 "/>
<path style=" stroke:none;fill-rule:nonzero;fill:rgb(97.647059%,98.039216%,98.823529%);fill-opacity:1;" d="M 21.953125 19.496094 C 22.03125 19.539062 22.03125 19.539062 22.109375 19.585938 C 22.058594 19.601562 22.007812 19.617188 21.953125 19.632812 C 21.953125 19.585938 21.953125 19.542969 21.953125 19.496094 Z M 21.953125 19.496094 "/>
<path style=" stroke:none;fill-rule:nonzero;fill:rgb(98.431373%,98.431373%,99.215686%);fill-opacity:1;" d="M 22.851562 23.851562 C 22.949219 23.875 22.949219 23.875 23.046875 23.898438 C 23.007812 23.921875 23.007812 23.921875 22.96875 23.945312 C 22.929688 23.914062 22.890625 23.882812 22.851562 23.851562 Z M 22.851562 23.851562 "/>
<path style=" stroke:none;fill-rule:nonzero;fill:rgb(97.254902%,98.039216%,98.431373%);fill-opacity:1;" d="M 21.953125 25.203125 C 21.964844 25.230469 21.980469 25.261719 21.992188 25.289062 C 22.019531 25.304688 22.042969 25.320312 22.070312 25.335938 C 22.03125 25.335938 21.992188 25.335938 21.953125 25.335938 C 21.953125 25.292969 21.953125 25.246094 21.953125 25.203125 Z M 21.953125 25.203125 "/>
<path style=" stroke:none;fill-rule:nonzero;fill:rgb(99.215686%,99.215686%,99.607843%);fill-opacity:1;" d="M 23.90625 24.078125 C 23.917969 24.121094 23.933594 24.167969 23.945312 24.210938 C 23.917969 24.210938 23.894531 24.210938 23.867188 24.210938 C 23.878906 24.167969 23.894531 24.125 23.90625 24.078125 Z M 23.90625 24.078125 "/>
<path style=" stroke:none;fill-rule:nonzero;fill:rgb(94.117647%,94.509804%,96.470588%);fill-opacity:1;" d="M 19.21875 22.414062 C 19.257812 22.414062 19.296875 22.414062 19.335938 22.414062 C 19.335938 22.445312 19.335938 22.476562 19.335938 22.507812 C 19.296875 22.492188 19.257812 22.476562 19.21875 22.460938 C 19.21875 22.445312 19.21875 22.429688 19.21875 22.414062 Z M 19.21875 22.414062 "/>
<path style=" stroke:none;fill-rule:nonzero;fill:rgb(98.823529%,98.823529%,98.823529%);fill-opacity:1;" d="M 34.921875 19.855469 C 34.949219 19.855469 34.972656 19.855469 35 19.855469 C 35 19.886719 35 19.914062 35 19.945312 C 34.960938 19.929688 34.921875 19.914062 34.882812 19.898438 C 34.894531 19.886719 34.910156 19.871094 34.921875 19.855469 Z M 34.921875 19.855469 "/>
<path style=" stroke:none;fill-rule:nonzero;fill:rgb(92.941177%,93.725491%,94.901961%);fill-opacity:1;" d="M 32.03125 32.929688 C 32.1875 32.972656 32.1875 32.972656 32.1875 32.972656 Z M 32.03125 32.929688 "/>
<path style=" stroke:none;fill-rule:nonzero;fill:rgb(99.215686%,99.215686%,99.607843%);fill-opacity:1;" d="M 29.21875 28.210938 C 29.257812 28.390625 29.257812 28.390625 29.257812 28.390625 Z M 29.21875 28.210938 "/>
<path style=" stroke:none;fill-rule:nonzero;fill:rgb(96.470588%,96.862745%,98.039216%);fill-opacity:1;" d="M 38.90625 23.585938 C 38.933594 23.597656 38.957031 23.613281 38.984375 23.628906 C 38.945312 23.628906 38.90625 23.628906 38.867188 23.628906 C 38.878906 23.613281 38.894531 23.597656 38.90625 23.585938 Z M 38.90625 23.585938 "/>
<path style=" stroke:none;fill-rule:nonzero;fill:rgb(98.431373%,98.431373%,99.607843%);fill-opacity:1;" d="M 37.578125 19.632812 C 37.734375 19.675781 37.734375 19.675781 37.734375 19.675781 Z M 37.578125 19.632812 "/>
<path style=" stroke:none;fill-rule:nonzero;fill:rgb(98.039216%,98.431373%,98.823529%);fill-opacity:1;" d="M 36.132812 18.914062 C 36.160156 18.925781 36.183594 18.941406 36.210938 18.957031 C 36.171875 18.957031 36.132812 18.957031 36.09375 18.957031 C 36.105469 18.941406 36.121094 18.925781 36.132812 18.914062 Z M 36.132812 18.914062 "/>
<path style=" stroke:none;fill-rule:nonzero;fill:rgb(97.647059%,97.647059%,98.431373%);fill-opacity:1;" d="M 36.953125 18.195312 C 37.109375 18.238281 37.109375 18.238281 37.109375 18.238281 Z M 36.953125 18.195312 "/>
<path style=" stroke:none;fill-rule:nonzero;fill:rgb(97.254902%,98.039216%,98.431373%);fill-opacity:1;" d="M 36.40625 14.0625 C 36.445312 14.082031 36.445312 14.082031 36.484375 14.105469 C 36.457031 14.136719 36.433594 14.164062 36.40625 14.195312 C 36.40625 14.152344 36.40625 14.105469 36.40625 14.0625 Z M 36.40625 14.0625 "/>
<path style=" stroke:none;fill-rule:nonzero;fill:rgb(47.450981%,50.196081%,56.470591%);fill-opacity:1;" d="M 37.03125 45.507812 C 37.070312 45.527344 37.070312 45.527344 37.109375 45.550781 C 37.070312 45.574219 37.070312 45.574219 37.03125 45.59375 C 37.03125 45.566406 37.03125 45.535156 37.03125 45.507812 Z M 37.03125 45.507812 "/>
<path style=" stroke:none;fill-rule:nonzero;fill:rgb(47.450981%,49.803922%,56.078434%);fill-opacity:1;" d="M 37.03125 42.992188 C 37.070312 43.011719 37.070312 43.011719 37.109375 43.035156 C 37.070312 43.058594 37.070312 43.058594 37.03125 43.078125 C 37.03125 43.050781 37.03125 43.019531 37.03125 42.992188 Z M 37.03125 42.992188 "/>
<path style=" stroke:none;fill-rule:nonzero;fill:rgb(47.058824%,49.411765%,55.686277%);fill-opacity:1;" d="M 37.03125 41.554688 C 37.070312 41.574219 37.070312 41.574219 37.109375 41.597656 C 37.070312 41.621094 37.070312 41.621094 37.03125 41.640625 C 37.03125 41.613281 37.03125 41.582031 37.03125 41.554688 Z M 37.03125 41.554688 "/>
<path style=" stroke:none;fill-rule:nonzero;fill:rgb(47.058824%,49.019608%,55.686277%);fill-opacity:1;" d="M 38.984375 40.382812 C 38.996094 40.414062 39.011719 40.445312 39.023438 40.476562 C 38.996094 40.460938 38.972656 40.445312 38.945312 40.429688 C 38.957031 40.414062 38.972656 40.398438 38.984375 40.382812 Z M 38.984375 40.382812 "/>
<path style=" stroke:none;fill-rule:nonzero;fill:rgb(47.450981%,49.019608%,55.29412%);fill-opacity:1;" d="M 37.03125 39.757812 C 37.070312 39.777344 37.070312 39.777344 37.109375 39.800781 C 37.070312 39.824219 37.070312 39.824219 37.03125 39.84375 C 37.03125 39.816406 37.03125 39.785156 37.03125 39.757812 Z M 37.03125 39.757812 "/>
<path style=" stroke:none;fill-rule:nonzero;fill:rgb(92.941177%,94.117647%,95.294118%);fill-opacity:1;" d="M 31.640625 32.972656 C 31.757812 33.015625 31.757812 33.015625 31.757812 33.015625 Z M 31.640625 32.972656 "/>
<path style=" stroke:none;fill-rule:nonzero;fill:rgb(92.54902%,92.941177%,94.901961%);fill-opacity:1;" d="M 32.421875 32.835938 C 32.433594 32.867188 32.449219 32.898438 32.460938 32.929688 C 32.433594 32.914062 32.410156 32.898438 32.382812 32.882812 C 32.394531 32.867188 32.410156 32.851562 32.421875 32.835938 Z M 32.421875 32.835938 "/>
<path style=" stroke:none;fill-rule:nonzero;fill:rgb(93.333334%,94.117647%,94.901961%);fill-opacity:1;" d="M 26.367188 32.65625 C 26.484375 32.703125 26.484375 32.703125 26.484375 32.703125 Z M 26.367188 32.65625 "/>
<path style=" stroke:none;fill-rule:nonzero;fill:rgb(99.215686%,99.215686%,99.607843%);fill-opacity:1;" d="M 29.375 28.570312 C 29.386719 28.601562 29.402344 28.628906 29.414062 28.660156 C 29.386719 28.644531 29.363281 28.628906 29.335938 28.617188 C 29.347656 28.601562 29.363281 28.585938 29.375 28.570312 Z M 29.375 28.570312 "/>
<path style=" stroke:none;fill-rule:nonzero;fill:rgb(97.254902%,97.647059%,98.431373%);fill-opacity:1;" d="M 22.03125 25.382812 C 22.070312 25.402344 22.070312 25.402344 22.109375 25.425781 C 22.070312 25.449219 22.070312 25.449219 22.03125 25.46875 C 22.03125 25.441406 22.03125 25.410156 22.03125 25.382812 Z M 22.03125 25.382812 "/>
<path style=" stroke:none;fill-rule:nonzero;fill:rgb(97.647059%,98.039216%,98.823529%);fill-opacity:1;" d="M 36.953125 23.851562 C 37.070312 23.898438 37.070312 23.898438 37.070312 23.898438 Z M 36.953125 23.851562 "/>
<path style=" stroke:none;fill-rule:nonzero;fill:rgb(98.431373%,98.431373%,99.215686%);fill-opacity:1;" d="M 36.171875 23.851562 C 36.289062 23.898438 36.289062 23.898438 36.289062 23.898438 Z M 36.171875 23.851562 "/>
<path style=" stroke:none;fill-rule:nonzero;fill:rgb(98.039216%,98.823529%,99.215686%);fill-opacity:1;" d="M 22.65625 23.851562 C 22.773438 23.898438 22.773438 23.898438 22.773438 23.898438 Z M 22.65625 23.851562 "/>
<path style=" stroke:none;fill-rule:nonzero;fill:rgb(96.470588%,97.254902%,98.039216%);fill-opacity:1;" d="M 38.710938 23.628906 C 38.828125 23.671875 38.828125 23.671875 38.828125 23.671875 Z M 38.710938 23.628906 "/>
<path style=" stroke:none;fill-rule:nonzero;fill:rgb(92.156863%,92.941177%,95.294118%);fill-opacity:1;" d="M 40.78125 22.054688 C 40.808594 22.085938 40.832031 22.117188 40.859375 22.148438 C 40.832031 22.148438 40.808594 22.148438 40.78125 22.148438 C 40.78125 22.117188 40.78125 22.085938 40.78125 22.054688 Z M 40.78125 22.054688 "/>
<path style=" stroke:none;fill-rule:nonzero;fill:rgb(91.37255%,92.54902%,94.901961%);fill-opacity:1;" d="M 40.820312 20.890625 C 40.859375 20.910156 40.859375 20.910156 40.898438 20.933594 C 40.859375 20.957031 40.859375 20.957031 40.820312 20.976562 C 40.820312 20.949219 40.820312 20.917969 40.820312 20.890625 Z M 40.820312 20.890625 "/>
<path style=" stroke:none;fill-rule:nonzero;fill:rgb(98.823529%,99.215686%,99.607843%);fill-opacity:1;" d="M 35.78125 19.765625 C 35.792969 19.796875 35.808594 19.824219 35.820312 19.855469 C 35.792969 19.839844 35.769531 19.824219 35.742188 19.8125 C 35.753906 19.796875 35.769531 19.78125 35.78125 19.765625 Z M 35.78125 19.765625 "/>
<path style=" stroke:none;fill-rule:nonzero;fill:rgb(98.039216%,98.431373%,99.215686%);fill-opacity:1;" d="M 37.929688 19.632812 C 38.046875 19.675781 38.046875 19.675781 38.046875 19.675781 Z M 37.929688 19.632812 "/>
<path style=" stroke:none;fill-rule:nonzero;fill:rgb(96.470588%,96.862745%,98.823529%);fill-opacity:1;" d="M 22.03125 17.742188 C 22.070312 17.765625 22.070312 17.765625 22.109375 17.789062 C 22.070312 17.8125 22.070312 17.8125 22.03125 17.835938 C 22.03125 17.804688 22.03125 17.773438 22.03125 17.742188 Z M 22.03125 17.742188 "/>
<path style=" stroke:none;fill-rule:nonzero;fill:rgb(98.039216%,98.431373%,99.215686%);fill-opacity:1;" d="M 37.65625 17.519531 C 37.683594 17.519531 37.707031 17.519531 37.734375 17.519531 C 37.722656 17.550781 37.707031 17.578125 37.695312 17.609375 C 37.683594 17.578125 37.667969 17.550781 37.65625 17.519531 Z M 37.65625 17.519531 "/>
<path style=" stroke:none;fill-rule:nonzero;fill:rgb(96.862745%,97.647059%,98.039216%);fill-opacity:1;" d="M 37.929688 17.160156 C 38.046875 17.203125 38.046875 17.203125 38.046875 17.203125 Z M 37.929688 17.160156 "/>
<path style=" stroke:none;fill-rule:nonzero;fill:rgb(98.431373%,98.431373%,99.215686%);fill-opacity:1;" d="M 29.960938 16.890625 C 30 16.914062 30 16.914062 30.039062 16.9375 C 30 16.957031 30 16.957031 29.960938 16.980469 C 29.960938 16.949219 29.960938 16.921875 29.960938 16.890625 Z M 29.960938 16.890625 "/>
<path style=" stroke:none;fill-rule:nonzero;fill:rgb(93.725491%,94.117647%,96.078432%);fill-opacity:1;" d="M 37.617188 13.882812 C 37.734375 13.925781 37.734375 13.925781 37.734375 13.925781 Z M 37.617188 13.882812 "/>
<path style=" stroke:none;fill-rule:nonzero;fill:rgb(63.529414%,64.705884%,69.803923%);fill-opacity:1;" d="M 37.03125 9.570312 C 37.070312 9.589844 37.070312 9.589844 37.109375 9.613281 C 37.070312 9.636719 37.070312 9.636719 37.03125 9.65625 C 37.03125 9.628906 37.03125 9.597656 37.03125 9.570312 Z M 37.03125 9.570312 "/>
<path style=" stroke:none;fill-rule:nonzero;fill:rgb(45.882353%,47.843137%,54.509807%);fill-opacity:1;" d="M 42.578125 1.929688 C 42.605469 1.929688 42.628906 1.929688 42.65625 1.929688 C 42.644531 1.960938 42.628906 1.992188 42.617188 2.023438 C 42.605469 1.992188 42.589844 1.960938 42.578125 1.929688 Z M 42.578125 1.929688 "/>
<path style=" stroke:none;fill-rule:nonzero;fill:rgb(45.490196%,47.843137%,54.11765%);fill-opacity:1;" d="M 37.03125 1.664062 C 37.070312 1.683594 37.070312 1.683594 37.109375 1.707031 C 37.070312 1.730469 37.070312 1.730469 37.03125 1.75 C 37.03125 1.722656 37.03125 1.691406 37.03125 1.664062 Z M 37.03125 1.664062 "/>
<path style=" stroke:none;fill-rule:nonzero;fill:rgb(45.490196%,47.843137%,54.11765%);fill-opacity:1;" d="M 37.03125 0.945312 C 37.070312 0.964844 37.070312 0.964844 37.109375 0.988281 C 37.070312 1.011719 37.070312 1.011719 37.03125 1.03125 C 37.03125 1.003906 37.03125 0.972656 37.03125 0.945312 Z M 37.03125 0.945312 "/>
<path style=" stroke:none;fill-rule:nonzero;fill:rgb(45.882353%,48.235294%,54.11765%);fill-opacity:1;" d="M 37.03125 0.585938 C 37.070312 0.605469 37.070312 0.605469 37.109375 0.628906 C 37.070312 0.652344 37.070312 0.652344 37.03125 0.671875 C 37.03125 0.644531 37.03125 0.613281 37.03125 0.585938 Z M 37.03125 0.585938 "/>
<path style=" stroke:none;fill-rule:nonzero;fill:rgb(47.843137%,49.803922%,56.470591%);fill-opacity:1;" d="M 37.03125 45.867188 C 37.109375 45.910156 37.109375 45.910156 37.109375 45.910156 Z M 37.03125 45.867188 "/>
<path style=" stroke:none;fill-rule:nonzero;fill:rgb(47.843137%,49.803922%,56.862748%);fill-opacity:1;" d="M 42.578125 45.054688 C 42.65625 45.101562 42.65625 45.101562 42.65625 45.101562 Z M 42.578125 45.054688 "/>
<path style=" stroke:none;fill-rule:nonzero;fill:rgb(47.843137%,49.803922%,56.470591%);fill-opacity:1;" d="M 37.03125 44.789062 C 37.109375 44.832031 37.109375 44.832031 37.109375 44.832031 Z M 37.03125 44.789062 "/>
<path style=" stroke:none;fill-rule:nonzero;fill:rgb(47.843137%,49.803922%,56.470591%);fill-opacity:1;" d="M 42.578125 44.695312 C 42.65625 44.742188 42.65625 44.742188 42.65625 44.742188 Z M 42.578125 44.695312 "/>
<path style=" stroke:none;fill-rule:nonzero;fill:rgb(47.843137%,49.803922%,56.862748%);fill-opacity:1;" d="M 42.578125 44.335938 C 42.65625 44.382812 42.65625 44.382812 42.65625 44.382812 Z M 42.578125 44.335938 "/>
<path style=" stroke:none;fill-rule:nonzero;fill:rgb(48.235294%,50.196081%,56.470591%);fill-opacity:1;" d="M 40.703125 44.070312 C 40.78125 44.113281 40.78125 44.113281 40.78125 44.113281 Z M 40.703125 44.070312 "/>
<path style=" stroke:none;fill-rule:nonzero;fill:rgb(47.450981%,49.803922%,56.862748%);fill-opacity:1;" d="M 42.578125 43.976562 C 42.65625 44.023438 42.65625 44.023438 42.65625 44.023438 Z M 42.578125 43.976562 "/>
<path style=" stroke:none;fill-rule:nonzero;fill:rgb(47.450981%,49.803922%,56.470591%);fill-opacity:1;" d="M 42.578125 43.257812 C 42.65625 43.304688 42.65625 43.304688 42.65625 43.304688 Z M 42.578125 43.257812 "/>
<path style=" stroke:none;fill-rule:nonzero;fill:rgb(47.450981%,50.196081%,56.470591%);fill-opacity:1;" d="M 40.703125 42.992188 C 40.78125 43.035156 40.78125 43.035156 40.78125 43.035156 Z M 40.703125 42.992188 "/>
<path style=" stroke:none;fill-rule:nonzero;fill:rgb(47.450981%,49.411765%,56.470591%);fill-opacity:1;" d="M 42.578125 42.898438 C 42.65625 42.945312 42.65625 42.945312 42.65625 42.945312 Z M 42.578125 42.898438 "/>
<path style=" stroke:none;fill-rule:nonzero;fill:rgb(47.450981%,49.411765%,55.686277%);fill-opacity:1;" d="M 42.578125 42.179688 C 42.65625 42.226562 42.65625 42.226562 42.65625 42.226562 Z M 42.578125 42.179688 "/>
<path style=" stroke:none;fill-rule:nonzero;fill:rgb(47.058824%,49.411765%,56.470591%);fill-opacity:1;" d="M 42.578125 41.820312 C 42.65625 41.867188 42.65625 41.867188 42.65625 41.867188 Z M 42.578125 41.820312 "/>
<path style=" stroke:none;fill-rule:nonzero;fill:rgb(46.666667%,49.019608%,55.686277%);fill-opacity:1;" d="M 42.578125 40.742188 C 42.65625 40.789062 42.65625 40.789062 42.65625 40.789062 Z M 42.578125 40.742188 "/>
<path style=" stroke:none;fill-rule:nonzero;fill:rgb(46.666667%,49.019608%,55.29412%);fill-opacity:1;" d="M 42.578125 40.023438 C 42.65625 40.070312 42.65625 40.070312 42.65625 40.070312 Z M 42.578125 40.023438 "/>
<path style=" stroke:none;fill-rule:nonzero;fill:rgb(46.666667%,49.019608%,55.29412%);fill-opacity:1;" d="M 42.578125 39.664062 C 42.65625 39.710938 42.65625 39.710938 42.65625 39.710938 Z M 42.578125 39.664062 "/>
<path style=" stroke:none;fill-rule:nonzero;fill:rgb(47.450981%,49.803922%,55.686277%);fill-opacity:1;" d="M 37.03125 38.320312 C 37.109375 38.363281 37.109375 38.363281 37.109375 38.363281 Z M 37.03125 38.320312 "/>
<path style=" stroke:none;fill-rule:nonzero;fill:rgb(46.666667%,49.411765%,55.686277%);fill-opacity:1;" d="M 40.703125 37.960938 C 40.78125 38.003906 40.78125 38.003906 40.78125 38.003906 Z M 40.703125 37.960938 "/>
<path style=" stroke:none;fill-rule:nonzero;fill:rgb(46.666667%,48.627451%,55.686277%);fill-opacity:1;" d="M 42.578125 37.867188 C 42.65625 37.914062 42.65625 37.914062 42.65625 37.914062 Z M 42.578125 37.867188 "/>
<path style=" stroke:none;fill-rule:nonzero;fill:rgb(47.058824%,49.803922%,56.078434%);fill-opacity:1;" d="M 40.703125 37.242188 C 40.78125 37.285156 40.78125 37.285156 40.78125 37.285156 Z M 40.703125 37.242188 "/>
<path style=" stroke:none;fill-rule:nonzero;fill:rgb(49.803922%,51.372552%,57.647061%);fill-opacity:1;" d="M 37.03125 36.882812 C 37.109375 36.925781 37.109375 36.925781 37.109375 36.925781 Z M 37.03125 36.882812 "/>
<path style=" stroke:none;fill-rule:nonzero;fill:rgb(50.980395%,53.333336%,59.215689%);fill-opacity:1;" d="M 37.03125 36.164062 C 37.109375 36.207031 37.109375 36.207031 37.109375 36.207031 Z M 37.03125 36.164062 "/>
<path style=" stroke:none;fill-rule:nonzero;fill:rgb(52.549022%,54.11765%,60.000002%);fill-opacity:1;" d="M 37.03125 35.804688 C 37.109375 35.847656 37.109375 35.847656 37.109375 35.847656 Z M 37.03125 35.804688 "/>
<path style=" stroke:none;fill-rule:nonzero;fill:rgb(47.450981%,49.803922%,56.470591%);fill-opacity:1;" d="M 42.578125 35.710938 C 42.65625 35.757812 42.65625 35.757812 42.65625 35.757812 Z M 42.578125 35.710938 "/>
<path style=" stroke:none;fill-rule:nonzero;fill:rgb(47.843137%,49.803922%,56.862748%);fill-opacity:1;" d="M 42.578125 35.351562 C 42.65625 35.398438 42.65625 35.398438 42.65625 35.398438 Z M 42.578125 35.351562 "/>
<path style=" stroke:none;fill-rule:nonzero;fill:rgb(54.901963%,56.470591%,62.352943%);fill-opacity:1;" d="M 37.03125 35.085938 C 37.109375 35.128906 37.109375 35.128906 37.109375 35.128906 Z M 37.03125 35.085938 "/>
<path style=" stroke:none;fill-rule:nonzero;fill:rgb(48.627451%,50.980395%,56.862748%);fill-opacity:1;" d="M 42.578125 34.632812 C 42.65625 34.679688 42.65625 34.679688 42.65625 34.679688 Z M 42.578125 34.632812 "/>
<path style=" stroke:none;fill-rule:nonzero;fill:rgb(47.058824%,49.411765%,55.686277%);fill-opacity:1;" d="M 3.28125 34.589844 C 3.359375 34.632812 3.359375 34.632812 3.359375 34.632812 Z M 3.28125 34.589844 "/>
<path style=" stroke:none;fill-rule:nonzero;fill:rgb(57.647061%,59.215689%,64.705884%);fill-opacity:1;" d="M 37.03125 34.367188 C 37.109375 34.410156 37.109375 34.410156 37.109375 34.410156 Z M 37.03125 34.367188 "/>
<path style=" stroke:none;fill-rule:nonzero;fill:rgb(50.588238%,52.549022%,58.823532%);fill-opacity:1;" d="M 42.578125 33.195312 C 42.65625 33.242188 42.65625 33.242188 42.65625 33.242188 Z M 42.578125 33.195312 "/>
<path style=" stroke:none;fill-rule:nonzero;fill:rgb(92.54902%,93.725491%,95.294118%);fill-opacity:1;" d="M 31.953125 32.972656 C 32.03125 33.015625 32.03125 33.015625 32.03125 33.015625 Z M 31.953125 32.972656 "/>
<path style=" stroke:none;fill-rule:nonzero;fill:rgb(92.54902%,93.333334%,94.901961%);fill-opacity:1;" d="M 31.835938 32.972656 C 31.914062 33.015625 31.914062 33.015625 31.914062 33.015625 Z M 31.835938 32.972656 "/>
<path style=" stroke:none;fill-rule:nonzero;fill:rgb(50.980395%,53.333336%,59.607846%);fill-opacity:1;" d="M 42.578125 32.835938 C 42.65625 32.882812 42.65625 32.882812 42.65625 32.882812 Z M 42.578125 32.835938 "/>
<path style=" stroke:none;fill-rule:nonzero;fill:rgb(69.01961%,70.980394%,74.901962%);fill-opacity:1;" d="M 37.03125 32.210938 C 37.109375 32.253906 37.109375 32.253906 37.109375 32.253906 Z M 37.03125 32.210938 "/>
<path style=" stroke:none;fill-rule:nonzero;fill:rgb(52.156866%,54.11765%,60.392159%);fill-opacity:1;" d="M 42.578125 32.117188 C 42.65625 32.164062 42.65625 32.164062 42.65625 32.164062 Z M 42.578125 32.117188 "/>
<path style=" stroke:none;fill-rule:nonzero;fill:rgb(74.117649%,75.294119%,79.215688%);fill-opacity:1;" d="M 37.03125 31.492188 C 37.109375 31.535156 37.109375 31.535156 37.109375 31.535156 Z M 37.03125 31.492188 "/>
<path style=" stroke:none;fill-rule:nonzero;fill:rgb(54.11765%,55.686277%,61.960787%);fill-opacity:1;" d="M 42.578125 31.398438 C 42.65625 31.445312 42.65625 31.445312 42.65625 31.445312 Z M 42.578125 31.398438 "/>
<path style=" stroke:none;fill-rule:nonzero;fill:rgb(54.509807%,56.470591%,62.352943%);fill-opacity:1;" d="M 42.578125 31.039062 C 42.65625 31.085938 42.65625 31.085938 42.65625 31.085938 Z M 42.578125 31.039062 "/>
<path style=" stroke:none;fill-rule:nonzero;fill:rgb(55.686277%,58.039218%,63.921571%);fill-opacity:1;" d="M 42.578125 30.320312 C 42.65625 30.367188 42.65625 30.367188 42.65625 30.367188 Z M 42.578125 30.320312 "/>
<path style=" stroke:none;fill-rule:nonzero;fill:rgb(87.843138%,88.627452%,91.37255%);fill-opacity:1;" d="M 37.03125 30.054688 C 37.109375 30.097656 37.109375 30.097656 37.109375 30.097656 Z M 37.03125 30.054688 "/>
<path style=" stroke:none;fill-rule:nonzero;fill:rgb(57.254905%,58.823532%,64.705884%);fill-opacity:1;" d="M 42.578125 29.960938 C 42.65625 30.007812 42.65625 30.007812 42.65625 30.007812 Z M 42.578125 29.960938 "/>
<path style=" stroke:none;fill-rule:nonzero;fill:rgb(65.490198%,67.058825%,72.156864%);fill-opacity:1;" d="M 40.742188 29.695312 C 40.820312 29.738281 40.820312 29.738281 40.820312 29.738281 Z M 40.742188 29.695312 "/>
<path style=" stroke:none;fill-rule:nonzero;fill:rgb(96.470588%,97.254902%,97.647059%);fill-opacity:1;" d="M 22.96875 29.15625 C 23.046875 29.199219 23.046875 29.199219 23.046875 29.199219 Z M 22.96875 29.15625 "/>
<path style=" stroke:none;fill-rule:nonzero;fill:rgb(62.352943%,63.529414%,69.01961%);fill-opacity:1;" d="M 42.578125 27.804688 C 42.65625 27.851562 42.65625 27.851562 42.65625 27.851562 Z M 42.578125 27.804688 "/>
<path style=" stroke:none;fill-rule:nonzero;fill:rgb(63.137257%,64.313728%,69.411767%);fill-opacity:1;" d="M 42.578125 27.445312 C 42.65625 27.492188 42.65625 27.492188 42.65625 27.492188 Z M 42.578125 27.445312 "/>
<path style=" stroke:none;fill-rule:nonzero;fill:rgb(97.647059%,98.431373%,99.215686%);fill-opacity:1;" d="M 22.226562 25.246094 C 22.304688 25.289062 22.304688 25.289062 22.304688 25.289062 Z M 22.226562 25.246094 "/>
<path style=" stroke:none;fill-rule:nonzero;fill:rgb(99.215686%,99.215686%,99.607843%);fill-opacity:1;" d="M 23.789062 24.210938 C 23.867188 24.257812 23.867188 24.257812 23.867188 24.257812 Z M 23.789062 24.210938 "/>
<path style=" stroke:none;fill-rule:nonzero;fill:rgb(71.372551%,72.156864%,76.862746%);fill-opacity:1;" d="M 42.578125 23.851562 C 42.65625 23.898438 42.65625 23.898438 42.65625 23.898438 Z M 42.578125 23.851562 "/>
<path style=" stroke:none;fill-rule:nonzero;fill:rgb(98.431373%,98.823529%,99.607843%);fill-opacity:1;" d="M 37.734375 23.808594 C 37.8125 23.851562 37.8125 23.851562 37.8125 23.851562 Z M 37.734375 23.808594 "/>
<path style=" stroke:none;fill-rule:nonzero;fill:rgb(98.823529%,98.823529%,99.215686%);fill-opacity:1;" d="M 35.546875 23.808594 C 35.625 23.851562 35.625 23.851562 35.625 23.851562 Z M 35.546875 23.808594 "/>
<path style=" stroke:none;fill-rule:nonzero;fill:rgb(96.078432%,97.254902%,98.039216%);fill-opacity:1;" d="M 38.632812 23.671875 C 38.710938 23.71875 38.710938 23.71875 38.710938 23.71875 Z M 38.632812 23.671875 "/>
<path style=" stroke:none;fill-rule:nonzero;fill:rgb(96.078432%,96.470588%,98.039216%);fill-opacity:1;" d="M 38.984375 23.539062 C 39.0625 23.585938 39.0625 23.585938 39.0625 23.585938 Z M 38.984375 23.539062 "/>
<path style=" stroke:none;fill-rule:nonzero;fill:rgb(96.862745%,96.862745%,98.431373%);fill-opacity:1;" d="M 20.664062 23.492188 C 20.742188 23.539062 20.742188 23.539062 20.742188 23.539062 Z M 20.664062 23.492188 "/>
<path style=" stroke:none;fill-rule:nonzero;fill:rgb(95.294118%,96.078432%,96.470588%);fill-opacity:1;" d="M 39.882812 23.089844 C 39.960938 23.132812 39.960938 23.132812 39.960938 23.132812 Z M 39.882812 23.089844 "/>
<path style=" stroke:none;fill-rule:nonzero;fill:rgb(96.078432%,96.862745%,97.647059%);fill-opacity:1;" d="M 20.078125 19.855469 C 20.15625 19.898438 20.15625 19.898438 20.15625 19.898438 Z M 20.078125 19.855469 "/>
<path style=" stroke:none;fill-rule:nonzero;fill:rgb(99.607843%,99.215686%,99.607843%);fill-opacity:1;" d="M 23.867188 19.8125 C 23.945312 19.855469 23.945312 19.855469 23.945312 19.855469 Z M 23.867188 19.8125 "/>
<path style=" stroke:none;fill-rule:nonzero;fill:rgb(98.039216%,98.431373%,98.823529%);fill-opacity:1;" d="M 36.132812 19.765625 C 36.210938 19.8125 36.210938 19.8125 36.210938 19.8125 Z M 36.132812 19.765625 "/>
<path style=" stroke:none;fill-rule:nonzero;fill:rgb(98.039216%,98.039216%,98.823529%);fill-opacity:1;" d="M 21.40625 19.585938 C 21.484375 19.632812 21.484375 19.632812 21.484375 19.632812 Z M 21.40625 19.585938 "/>
<path style=" stroke:none;fill-rule:nonzero;fill:rgb(97.647059%,98.039216%,98.823529%);fill-opacity:1;" d="M 37.03125 18.554688 C 37.109375 18.597656 37.109375 18.597656 37.109375 18.597656 Z M 37.03125 18.554688 "/>
<path style=" stroke:none;fill-rule:nonzero;fill:rgb(98.039216%,98.039216%,98.431373%);fill-opacity:1;" d="M 36.875 18.28125 C 36.953125 18.328125 36.953125 18.328125 36.953125 18.328125 Z M 36.875 18.28125 "/>
<path style=" stroke:none;fill-rule:nonzero;fill:rgb(67.843139%,68.627453%,73.725492%);fill-opacity:1;" d="M 42.578125 17.382812 C 42.65625 17.429688 42.65625 17.429688 42.65625 17.429688 Z M 42.578125 17.382812 "/>
<path style=" stroke:none;fill-rule:nonzero;fill:rgb(98.823529%,98.823529%,99.215686%);fill-opacity:1;" d="M 34.453125 15.542969 C 34.53125 15.585938 34.53125 15.585938 34.53125 15.585938 Z M 34.453125 15.542969 "/>
<path style=" stroke:none;fill-rule:nonzero;fill:rgb(98.431373%,98.431373%,98.823529%);fill-opacity:1;" d="M 24.921875 15.140625 C 25 15.183594 25 15.183594 25 15.183594 Z M 24.921875 15.140625 "/>
<path style=" stroke:none;fill-rule:nonzero;fill:rgb(94.901961%,95.294118%,96.862745%);fill-opacity:1;" d="M 23.007812 14.0625 C 23.085938 14.105469 23.085938 14.105469 23.085938 14.105469 Z M 23.007812 14.0625 "/>
<path style=" stroke:none;fill-rule:nonzero;fill:rgb(94.117647%,94.117647%,96.078432%);fill-opacity:1;" d="M 37.109375 13.746094 C 37.1875 13.789062 37.1875 13.789062 37.1875 13.789062 Z M 37.109375 13.746094 "/>
<path style=" stroke:none;fill-rule:nonzero;fill:rgb(52.941179%,54.509807%,60.784316%);fill-opacity:1;" d="M 42.578125 10.554688 C 42.65625 10.601562 42.65625 10.601562 42.65625 10.601562 Z M 42.578125 10.554688 "/>
<path style=" stroke:none;fill-rule:nonzero;fill:rgb(50.196081%,52.549022%,58.823532%);fill-opacity:1;" d="M 42.578125 9.476562 C 42.65625 9.523438 42.65625 9.523438 42.65625 9.523438 Z M 42.578125 9.476562 "/>
<path style=" stroke:none;fill-rule:nonzero;fill:rgb(48.235294%,50.196081%,56.470591%);fill-opacity:1;" d="M 42.578125 8.039062 C 42.65625 8.085938 42.65625 8.085938 42.65625 8.085938 Z M 42.578125 8.039062 "/>
<path style=" stroke:none;fill-rule:nonzero;fill:rgb(52.941179%,54.901963%,60.392159%);fill-opacity:1;" d="M 37.03125 7.414062 C 37.109375 7.457031 37.109375 7.457031 37.109375 7.457031 Z M 37.03125 7.414062 "/>
<path style=" stroke:none;fill-rule:nonzero;fill:rgb(48.235294%,50.588238%,56.862748%);fill-opacity:1;" d="M 40.703125 7.054688 C 40.78125 7.097656 40.78125 7.097656 40.78125 7.097656 Z M 40.703125 7.054688 "/>
<path style=" stroke:none;fill-rule:nonzero;fill:rgb(47.058824%,49.411765%,55.686277%);fill-opacity:1;" d="M 37.03125 5.257812 C 37.109375 5.300781 37.109375 5.300781 37.109375 5.300781 Z M 37.03125 5.257812 "/>
<path style=" stroke:none;fill-rule:nonzero;fill:rgb(46.27451%,48.235294%,54.509807%);fill-opacity:1;" d="M 38.90625 4.539062 C 38.984375 4.582031 38.984375 4.582031 38.984375 4.582031 Z M 38.90625 4.539062 "/>
<path style=" stroke:none;fill-rule:nonzero;fill:rgb(45.882353%,47.843137%,54.11765%);fill-opacity:1;" d="M 42.578125 2.648438 C 42.65625 2.695312 42.65625 2.695312 42.65625 2.695312 Z M 42.578125 2.648438 "/>
<path style=" stroke:none;fill-rule:nonzero;fill:rgb(45.490196%,48.235294%,54.509807%);fill-opacity:1;" d="M 40.703125 2.023438 C 40.78125 2.066406 40.78125 2.066406 40.78125 2.066406 Z M 40.703125 2.023438 "/>
<path style=" stroke:none;fill-rule:nonzero;fill:rgb(45.882353%,47.843137%,54.509807%);fill-opacity:1;" d="M 42.578125 1.570312 C 42.65625 1.617188 42.65625 1.617188 42.65625 1.617188 Z M 42.578125 1.570312 "/>
<path style=" stroke:none;fill-rule:nonzero;fill:rgb(45.490196%,47.843137%,54.901963%);fill-opacity:1;" d="M 38.984375 1.570312 C 39.0625 1.617188 39.0625 1.617188 39.0625 1.617188 Z M 38.984375 1.570312 "/>
<path style=" stroke:none;fill-rule:nonzero;fill:rgb(46.27451%,47.843137%,54.901963%);fill-opacity:1;" d="M 42.578125 1.210938 C 42.65625 1.257812 42.65625 1.257812 42.65625 1.257812 Z M 42.578125 1.210938 "/>
</g>
</svg>
