<?xml version="1.0" encoding="UTF-8"?>
<svg xmlns="http://www.w3.org/2000/svg" xmlns:xlink="http://www.w3.org/1999/xlink" width="406px" height="351px" viewBox="0 0 406 351" version="1.1">
<g id="surface1">
<path style=" stroke:none;fill-rule:nonzero;fill:rgb(7.450981%,7.450981%,7.450981%);fill-opacity:1;" d="M 193.855469 43.089844 C 195.089844 42.945312 196.398438 42.910156 197.640625 42.890625 C 230.839844 42.453125 272.953125 45.871094 298.128906 77.273438 C 317.238281 101.109375 323.921875 140 324.078125 173.3125 C 324.277344 216.519531 320.082031 266.878906 295.707031 299.246094 C 273.53125 328.695312 239.054688 335.300781 208.699219 335.65625 C 207.714844 335.699219 206.730469 335.71875 205.742188 335.726562 C 180.503906 335.820312 139.425781 332.554688 120.898438 308.523438 C 117.695312 304.378906 115.046875 299.570312 113.058594 294.292969 C 106.472656 276.894531 104.902344 249.308594 104.898438 229.859375 C 102.046875 227.832031 88.390625 219.328125 87.203125 217.214844 C 86.964844 216.792969 86.835938 216.257812 86.914062 215.742188 C 87.035156 214.960938 87.453125 214.390625 87.902344 213.886719 C 89.46875 212.140625 91.492188 210.753906 93.234375 209.3125 C 96.808594 206.40625 100.335938 203.40625 103.816406 200.320312 C 101.878906 190.210938 100.707031 180.070312 99.355469 169.765625 C 95.210938 138.097656 92.511719 101.304688 110.550781 75.578125 C 114.980469 69.265625 121.433594 63.253906 127.511719 59.75 C 147.765625 48.082031 171.890625 44.199219 193.855469 43.089844 Z M 91.171875 215.929688 C 93.464844 217.535156 107.707031 226.507812 107.78125 227.910156 C 109.367188 257.558594 108.0625 296.042969 131.101562 313.648438 C 151.019531 328.867188 184.269531 332.378906 208.507812 331.703125 C 239.21875 330.117188 272.238281 324.628906 294.296875 293.691406 C 307.597656 275.5 314.96875 249.804688 317.929688 225.339844 C 323.691406 177.804688 323.488281 113.628906 294.238281 78.390625 C 270.664062 49.984375 228.128906 45.839844 197.332031 46.660156 C 172.292969 47.929688 132.339844 52.226562 114.222656 77.453125 C 94.640625 104.71875 100.191406 149.441406 104.425781 182.734375 C 104.792969 185.8125 107.738281 201.441406 106.535156 202.636719 C 101.769531 207.378906 96.148438 211.5 91.171875 215.929688 Z M 91.171875 215.929688 "/>
<path style=" stroke:none;fill-rule:nonzero;fill:rgb(7.450981%,7.450981%,7.450981%);fill-opacity:1;" d="M 310.082031 31.855469 C 311.015625 32.097656 311.425781 32.351562 312.027344 33.296875 C 312.085938 33.597656 312.253906 34.238281 312.160156 34.414062 C 310.808594 36.953125 301.019531 48.757812 299.683594 49.800781 C 298.425781 49.449219 297.664062 49.117188 297.703125 47.367188 C 298.5625 45.285156 308.519531 33.035156 310.082031 31.855469 Z M 310.082031 31.855469 "/>
<path style=" stroke:none;fill-rule:nonzero;fill:rgb(7.450981%,7.450981%,7.450981%);fill-opacity:1;" d="M 292.730469 19.160156 C 294.023438 19.136719 294.792969 19.199219 295.214844 20.839844 C 295.101562 21.664062 294.722656 23.691406 294.460938 24.417969 C 293.175781 27.960938 291.132812 39.816406 289.351562 42.199219 C 288.660156 42.234375 286.914062 41.609375 287.136719 40.632812 C 288.230469 35.855469 290.742188 22.757812 292.730469 19.160156 Z M 292.730469 19.160156 "/>
<path style=" stroke:none;fill-rule:nonzero;fill:rgb(7.450981%,7.450981%,7.450981%);fill-opacity:1;" d="M 321.722656 53.246094 C 322.710938 53.195312 323.058594 53.484375 323.535156 54.511719 C 323.601562 55.417969 323.644531 55.617188 323.324219 56.410156 C 322 57.808594 311.996094 60.890625 309.667969 61.65625 C 309.386719 61.667969 309.15625 61.679688 308.890625 61.535156 C 308.453125 61.292969 308.007812 60.832031 307.851562 60.234375 C 307.734375 59.804688 307.742188 59.601562 307.910156 59.199219 C 308.835938 57.027344 319.351562 54.292969 321.722656 53.246094 Z M 321.722656 53.246094 "/>
</g>
</svg>
