<?xml version="1.0" encoding="UTF-8"?>
<svg xmlns="http://www.w3.org/2000/svg" xmlns:xlink="http://www.w3.org/1999/xlink" width="353px" height="207px" viewBox="0 0 353 207" version="1.1">
<g id="surface1">
<path style=" stroke:none;fill-rule:nonzero;fill:rgb(98.431373%,98.431373%,98.431373%);fill-opacity:1;" d="M 76.574219 20.023438 C 76.746094 20.03125 76.917969 20.035156 77.09375 20.042969 C 81.632812 20.179688 86.152344 20.558594 90.667969 20.972656 C 91.195312 21.019531 91.726562 21.066406 92.253906 21.113281 C 97.5 21.585938 102.640625 22.460938 107.785156 23.449219 C 107.972656 23.484375 108.15625 23.519531 108.351562 23.558594 C 108.898438 23.660156 109.449219 23.769531 109.996094 23.878906 C 110.164062 23.910156 110.332031 23.941406 110.503906 23.976562 C 110.902344 24.058594 111.296875 24.15625 111.691406 24.257812 C 111.765625 24.390625 111.84375 24.523438 111.921875 24.664062 C 112.363281 24.714844 112.804688 24.765625 113.246094 24.804688 C 114.046875 24.898438 114.792969 25.117188 115.554688 25.34375 C 115.722656 25.390625 115.886719 25.441406 116.058594 25.488281 C 116.59375 25.644531 117.132812 25.804688 117.667969 25.964844 C 117.851562 26.019531 118.035156 26.074219 118.226562 26.128906 C 129.414062 29.445312 139.835938 34.34375 149.382812 40.429688 C 149.601562 40.570312 149.820312 40.707031 150.046875 40.851562 C 150.671875 41.25 151.289062 41.648438 151.910156 42.046875 C 152.097656 42.164062 152.097656 42.164062 152.285156 42.285156 C 152.671875 42.535156 153.058594 42.78125 153.445312 43.03125 C 153.679688 43.183594 153.914062 43.332031 154.152344 43.484375 C 154.324219 43.609375 154.492188 43.738281 154.667969 43.867188 C 154.667969 44 154.667969 44.132812 154.667969 44.269531 C 154.789062 44.316406 154.914062 44.363281 155.039062 44.410156 C 155.765625 44.761719 156.367188 45.222656 156.996094 45.699219 C 157.191406 45.84375 157.191406 45.84375 157.390625 45.996094 C 158.421875 46.773438 159.429688 47.570312 160.429688 48.378906 C 160.847656 48.730469 160.847656 48.730469 161.332031 48.921875 C 161.332031 49.054688 161.332031 49.1875 161.332031 49.324219 C 161.558594 49.390625 161.785156 49.457031 162.023438 49.527344 C 162.023438 49.660156 162.023438 49.792969 162.023438 49.929688 C 162.21875 50.003906 162.21875 50.003906 162.421875 50.082031 C 163.015625 50.371094 163.414062 50.695312 163.859375 51.144531 C 163.859375 51.277344 163.859375 51.410156 163.859375 51.546875 C 163.992188 51.597656 164.125 51.644531 164.257812 51.695312 C 165.929688 52.523438 167.167969 54.304688 168.359375 55.601562 C 168.746094 56.015625 169.140625 56.425781 169.546875 56.832031 C 177.097656 64.390625 182.835938 73.421875 186.136719 83.046875 C 186.183594 83.175781 186.230469 83.308594 186.277344 83.445312 C 187.035156 85.671875 187.035156 85.671875 187.183594 86.6875 C 187.222656 86.898438 187.261719 87.109375 187.300781 87.328125 C 187.71875 87.613281 187.71875 87.613281 188.21875 87.730469 C 188.449219 87.867188 188.675781 88 188.910156 88.136719 C 189.0625 88.203125 189.214844 88.269531 189.371094 88.339844 C 189.445312 88.207031 189.519531 88.070312 189.601562 87.933594 C 189.601562 88.132812 189.601562 88.335938 189.601562 88.539062 C 190.433594 88.675781 191.269531 88.808594 192.128906 88.945312 C 192.128906 89.078125 192.128906 89.210938 192.128906 89.347656 C 192.285156 89.371094 192.441406 89.394531 192.605469 89.417969 C 193.394531 89.574219 194.101562 89.820312 194.851562 90.089844 C 195.003906 90.144531 195.152344 90.195312 195.308594 90.253906 C 195.796875 90.425781 196.28125 90.601562 196.765625 90.777344 C 197.101562 90.898438 197.433594 91.015625 197.769531 91.136719 C 199.722656 91.835938 201.664062 92.554688 203.570312 93.355469 C 204.386719 93.691406 205.011719 93.875 205.917969 93.796875 C 205.839844 93.996094 205.765625 94.195312 205.6875 94.402344 C 205.855469 94.460938 206.023438 94.515625 206.195312 94.574219 C 211.792969 96.605469 217.125 99.90625 221.898438 103.144531 C 222.453125 103.53125 222.453125 103.53125 223.152344 103.703125 C 223.539062 104.035156 223.921875 104.375 224.300781 104.710938 C 224.851562 105.121094 225.417969 105.511719 225.984375 105.902344 C 227.074219 106.660156 228.15625 107.425781 229.191406 108.246094 C 229.75 108.679688 230.332031 109.097656 230.910156 109.511719 C 231.195312 109.765625 231.195312 109.765625 231.195312 110.171875 C 231.332031 110.222656 231.464844 110.277344 231.605469 110.332031 C 232.140625 110.585938 232.511719 110.863281 232.953125 111.234375 C 233.109375 111.367188 233.265625 111.496094 233.425781 111.628906 C 233.585938 111.765625 233.746094 111.902344 233.910156 112.039062 C 234.226562 112.308594 234.546875 112.574219 234.863281 112.839844 C 235.019531 112.96875 235.171875 113.097656 235.332031 113.234375 C 235.769531 113.585938 236.214844 113.921875 236.671875 114.257812 C 237.257812 114.691406 237.683594 115.117188 238.089844 115.691406 C 238.542969 116.265625 238.542969 116.265625 239.222656 116.585938 C 239.714844 116.652344 239.714844 116.652344 240.390625 116.640625 C 240.363281 116.851562 240.339844 117.0625 240.316406 117.277344 C 240.410156 118.273438 240.734375 118.496094 241.566406 119.152344 C 242.472656 119.890625 243.273438 120.621094 243.972656 121.519531 C 244.414062 122.027344 244.929688 122.457031 245.445312 122.90625 C 245.851562 123.3125 246.253906 123.71875 246.652344 124.132812 C 246.761719 124.246094 246.871094 124.355469 246.980469 124.472656 C 247.917969 125.453125 248.773438 126.476562 249.609375 127.523438 C 249.824219 127.738281 249.824219 127.738281 250.042969 127.960938 C 250.269531 127.960938 250.496094 127.960938 250.730469 127.960938 C 251.039062 128.023438 251.347656 128.089844 251.648438 128.160156 C 251.421875 128.769531 251.421875 128.769531 250.960938 128.96875 C 251.109375 129.144531 251.257812 129.320312 251.410156 129.5 C 254.214844 132.828125 256.816406 136.265625 259.324219 139.773438 C 259.667969 140.253906 260.011719 140.734375 260.359375 141.214844 C 261.304688 142.527344 262.214844 143.84375 263.046875 145.21875 C 263.394531 145.789062 263.769531 146.34375 264.148438 146.898438 C 264.90625 148.039062 265.582031 149.203125 266.242188 150.386719 C 266.699219 151.203125 267.167969 152.015625 267.636719 152.828125 C 269.089844 155.351562 270.507812 157.867188 271.71875 160.488281 C 272.078125 161.273438 272.480469 162.039062 272.894531 162.804688 C 273.824219 164.53125 274.667969 166.285156 275.511719 168.042969 C 275.902344 168.835938 276.300781 169.621094 276.699219 170.410156 C 276.699219 169.011719 276.699219 167.609375 276.699219 166.164062 C 276.851562 166.164062 277.003906 166.164062 277.160156 166.164062 C 277.121094 165.996094 277.085938 165.828125 277.046875 165.652344 C 276.921875 164.910156 276.90625 164.210938 276.910156 163.460938 C 276.910156 163.316406 276.914062 163.171875 276.914062 163.023438 C 276.914062 162.550781 276.921875 162.078125 276.925781 161.605469 C 276.929688 161.363281 276.929688 161.363281 276.929688 161.113281 C 276.9375 160.253906 276.949219 159.394531 276.960938 158.535156 C 276.972656 157.652344 276.976562 156.765625 276.984375 155.882812 C 276.988281 155.199219 276.996094 154.515625 277.007812 153.835938 C 277.011719 153.507812 277.011719 153.183594 277.011719 152.855469 C 277.015625 152.398438 277.023438 151.941406 277.03125 151.484375 C 277.035156 151.226562 277.035156 150.96875 277.039062 150.699219 C 277.210938 149.6875 277.699219 149.042969 278.609375 148.414062 C 279.964844 147.886719 281.074219 147.894531 282.441406 148.351562 C 283.238281 148.742188 283.546875 149.242188 283.824219 149.992188 C 284.113281 151.019531 284.050781 152.003906 283.949219 153.050781 C 283.792969 154.867188 283.769531 156.6875 283.742188 158.511719 C 283.738281 158.875 283.734375 159.242188 283.726562 159.605469 C 283.71875 160.363281 283.707031 161.125 283.695312 161.882812 C 283.683594 162.855469 283.667969 163.828125 283.652344 164.800781 C 283.644531 165.550781 283.632812 166.300781 283.621094 167.054688 C 283.617188 167.414062 283.613281 167.769531 283.605469 168.128906 C 283.597656 168.628906 283.59375 169.128906 283.585938 169.628906 C 283.582031 169.773438 283.582031 169.921875 283.578125 170.074219 C 283.570312 170.820312 283.628906 171.503906 283.824219 172.230469 C 283.84375 172.5 283.855469 172.769531 283.855469 173.039062 C 283.855469 173.167969 283.855469 173.296875 283.855469 173.429688 C 283.824219 173.847656 283.824219 173.847656 283.710938 174.316406 C 283.597656 174.839844 283.570312 175.304688 283.578125 175.835938 C 283.578125 176.023438 283.578125 176.210938 283.582031 176.40625 C 283.585938 176.707031 283.585938 176.707031 283.589844 177.015625 C 283.589844 177.445312 283.59375 177.875 283.597656 178.308594 C 283.601562 178.984375 283.609375 179.660156 283.617188 180.335938 C 283.625 180.988281 283.628906 181.644531 283.632812 182.296875 C 283.636719 182.496094 283.636719 182.695312 283.640625 182.902344 C 283.648438 184.410156 283.613281 186.195312 282.445312 187.390625 C 281.382812 188.0625 280.339844 188.339844 279.03125 188.273438 C 277.046875 187.976562 275.402344 186.292969 274.261719 184.929688 C 273.929688 184.507812 273.929688 184.507812 273.253906 184.15625 C 272.945312 183.84375 272.640625 183.53125 272.339844 183.214844 C 271.957031 182.828125 271.570312 182.453125 271.171875 182.078125 C 271.046875 181.960938 270.921875 181.84375 270.792969 181.722656 C 270.539062 181.484375 270.285156 181.25 270.027344 181.011719 C 269.117188 180.160156 269.117188 180.160156 269.117188 179.710938 C 268.976562 179.65625 268.839844 179.605469 268.699219 179.550781 C 268.167969 179.292969 267.917969 179.0625 267.550781 178.648438 C 266.949219 178 266.292969 177.480469 265.5625 176.949219 C 265.140625 176.625 264.832031 176.277344 264.519531 175.867188 C 263.855469 175.066406 263.207031 174.546875 262.222656 174.050781 C 261.996094 174.050781 261.765625 174.050781 261.53125 174.050781 C 261.609375 173.851562 261.683594 173.648438 261.761719 173.441406 C 261.601562 173.304688 261.445312 173.167969 261.28125 173.023438 C 260.808594 172.609375 260.351562 172.191406 259.894531 171.765625 C 259.640625 171.535156 259.386719 171.300781 259.132812 171.066406 C 259.007812 170.949219 258.882812 170.828125 258.753906 170.707031 C 257.957031 169.988281 257.441406 169.648438 256.246094 169.601562 C 256.238281 169.460938 256.230469 169.320312 256.222656 169.175781 C 255.921875 168.324219 255.300781 167.90625 254.550781 167.328125 C 254.40625 167.210938 254.257812 167.097656 254.109375 166.976562 C 253.082031 166.167969 252.023438 165.402344 250.949219 164.640625 C 250.082031 164.003906 249.25 163.339844 248.417969 162.667969 C 248.191406 162.484375 248.191406 162.484375 247.960938 162.300781 C 247.820312 162.183594 247.679688 162.066406 247.535156 161.949219 C 247.410156 161.847656 247.28125 161.742188 247.152344 161.636719 C 246.507812 161.003906 246.363281 160.609375 246.378906 159.746094 C 246.546875 158.800781 247.03125 157.996094 247.742188 157.269531 C 250.101562 156.582031 250.101562 156.582031 251.277344 156.828125 C 253.269531 157.75 254.9375 159.3125 256.578125 160.640625 C 257.074219 161.039062 257.574219 161.425781 258.085938 161.808594 C 258.964844 162.476562 259.78125 163.203125 260.597656 163.933594 C 261.203125 164.472656 261.820312 164.984375 262.480469 165.472656 C 263.378906 166.148438 264.148438 166.90625 264.929688 167.6875 C 265.398438 168.148438 265.882812 168.585938 266.386719 169.019531 C 267.125 169.660156 267.8125 170.324219 268.488281 171.011719 C 268.769531 171.300781 269.054688 171.585938 269.34375 171.867188 C 269.566406 172.085938 269.566406 172.085938 269.792969 172.304688 C 269.992188 172.503906 269.992188 172.503906 270.199219 172.703125 C 270.496094 173.039062 270.496094 173.039062 270.496094 173.441406 C 270.648438 173.441406 270.796875 173.441406 270.953125 173.441406 C 271.105469 173.578125 271.257812 173.710938 271.414062 173.847656 C 271.277344 173.527344 271.136719 173.207031 271 172.886719 C 270.921875 172.710938 270.84375 172.53125 270.765625 172.347656 C 270.40625 171.652344 269.957031 171.152344 269.347656 170.613281 C 269.347656 170.347656 269.347656 170.078125 269.347656 169.804688 C 269.105469 169.28125 268.851562 168.78125 268.570312 168.277344 C 268.449219 168.050781 268.449219 168.050781 268.320312 167.816406 C 267.621094 166.546875 266.875 165.300781 266.117188 164.054688 C 264.894531 162.027344 263.789062 159.953125 262.679688 157.878906 C 262.453125 157.878906 262.226562 157.878906 261.992188 157.878906 C 262.042969 157.765625 262.089844 157.65625 262.140625 157.539062 C 262.253906 156.890625 262.019531 156.574219 261.679688 155.992188 C 261.5 155.679688 261.5 155.679688 261.316406 155.363281 C 261.191406 155.144531 261.0625 154.929688 260.929688 154.707031 C 260.804688 154.496094 260.683594 154.28125 260.558594 154.0625 C 259.90625 152.941406 259.234375 151.835938 258.515625 150.75 C 258.316406 150.398438 258.316406 150.398438 258.316406 149.992188 C 258.011719 149.925781 257.707031 149.859375 257.394531 149.792969 C 257.546875 149.726562 257.699219 149.660156 257.855469 149.589844 C 257.742188 149.429688 257.628906 149.273438 257.511719 149.109375 C 257.164062 148.578125 257.164062 148.578125 257.164062 148.175781 C 256.9375 148.175781 256.710938 148.175781 256.476562 148.175781 C 256.445312 147.988281 256.410156 147.800781 256.375 147.605469 C 256.265625 146.960938 256.265625 146.960938 256.015625 146.355469 C 255.867188 146.289062 255.714844 146.222656 255.558594 146.152344 C 255.558594 145.953125 255.558594 145.753906 255.558594 145.546875 C 255.328125 145.480469 255.101562 145.414062 254.867188 145.34375 C 254.792969 145.210938 254.714844 145.078125 254.636719 144.941406 C 254.488281 144.875 254.335938 144.808594 254.179688 144.738281 C 254.179688 144.605469 254.179688 144.472656 254.179688 144.332031 C 254.027344 144.265625 253.875 144.199219 253.71875 144.132812 C 253.71875 143.863281 253.71875 143.597656 253.71875 143.324219 C 253.453125 142.851562 253.183594 142.417969 252.871094 141.972656 C 252.792969 141.851562 252.714844 141.730469 252.632812 141.609375 C 252.246094 141.042969 252.011719 140.734375 251.285156 140.527344 C 251.101562 140.515625 250.921875 140.503906 250.730469 140.492188 C 250.503906 140.425781 250.277344 140.359375 250.042969 140.289062 C 250.042969 139.824219 250.042969 139.355469 250.042969 138.875 C 250.191406 138.875 250.34375 138.875 250.5 138.875 C 249.003906 136.925781 247.460938 135.015625 245.84375 133.140625 C 244.066406 131.070312 244.066406 131.070312 244.066406 130.585938 C 243.914062 130.585938 243.761719 130.585938 243.605469 130.585938 C 243.308594 130.292969 243.308594 130.292969 243.003906 129.90625 C 242.851562 129.714844 242.851562 129.714844 242.691406 129.523438 C 242.457031 129.171875 242.457031 129.171875 242.457031 128.769531 C 242.304688 128.769531 242.15625 128.769531 241.996094 128.769531 C 241.699219 128.46875 241.699219 128.46875 241.335938 128.035156 C 239.550781 125.960938 237.558594 124.019531 235.5625 122.097656 C 235.457031 121.996094 235.355469 121.894531 235.246094 121.792969 C 233.636719 120.234375 231.984375 118.726562 230.277344 117.246094 C 230.074219 117.066406 229.871094 116.886719 229.664062 116.699219 C 229.148438 116.230469 229.148438 116.230469 228.582031 115.867188 C 228.0625 115.488281 227.6875 115.132812 227.261719 114.679688 C 226.445312 113.84375 225.53125 113.175781 224.546875 112.488281 C 223.921875 112.046875 223.3125 111.589844 222.703125 111.121094 C 219.738281 108.84375 216.546875 106.828125 213.269531 104.914062 C 213.085938 104.808594 212.902344 104.699219 212.714844 104.589844 C 209.332031 102.621094 205.84375 100.878906 202.238281 99.253906 C 201.992188 99.140625 201.742188 99.03125 201.484375 98.914062 C 197.203125 97.003906 192.777344 95.335938 188.21875 94 C 188.257812 94.140625 188.296875 94.285156 188.332031 94.433594 C 189.195312 98.671875 188.453125 103.78125 187.300781 107.945312 C 187.265625 108.082031 187.230469 108.21875 187.191406 108.359375 C 185.703125 113.859375 182.722656 118.589844 178.339844 122.703125 C 178.160156 122.875 177.980469 123.046875 177.796875 123.222656 C 171.1875 129.3125 161.679688 131.792969 152.351562 132.046875 C 145.175781 132.171875 138.375 130.816406 132.011719 127.90625 C 130.894531 127.410156 129.941406 127.101562 128.699219 126.949219 C 128.925781 126.816406 129.152344 126.683594 129.386719 126.542969 C 129.230469 126.449219 129.074219 126.355469 128.914062 126.253906 C 127.367188 125.285156 125.941406 124.257812 124.5625 123.109375 C 124.371094 122.953125 124.183594 122.800781 123.988281 122.644531 C 121.074219 120.203125 118.613281 117 117.4375 113.605469 C 117.285156 113.539062 117.132812 113.472656 116.976562 113.40625 C 115.507812 109.492188 115.25 105.042969 116.515625 101.074219 C 116.585938 100.863281 116.652344 100.652344 116.722656 100.433594 C 118.355469 96.128906 122.257812 92.339844 126.398438 89.753906 C 126.597656 89.628906 126.792969 89.503906 126.996094 89.375 C 130.941406 87.011719 135.398438 85.789062 139.960938 84.699219 C 141.019531 84.457031 141.019531 84.457031 142.027344 84.09375 C 153.53125 82.621094 165.351562 83.074219 176.675781 85.308594 C 176.9375 85.363281 177.199219 85.414062 177.46875 85.46875 C 177.703125 85.515625 177.9375 85.5625 178.179688 85.609375 C 178.84375 85.734375 178.84375 85.734375 179.71875 85.710938 C 179.71875 85.84375 179.71875 85.976562 179.71875 86.113281 C 179.867188 86.113281 180.019531 86.113281 180.175781 86.113281 C 178.894531 82.078125 177.171875 78.277344 175.164062 74.480469 C 175.085938 74.328125 175.003906 74.171875 174.921875 74.015625 C 174.398438 73.046875 173.773438 72.222656 173.054688 71.359375 C 172.890625 71.023438 172.738281 70.6875 172.59375 70.347656 C 172.441406 70.214844 172.289062 70.082031 172.132812 69.945312 C 171.894531 69.542969 171.664062 69.136719 171.445312 68.730469 C 171.292969 68.730469 171.140625 68.730469 170.984375 68.730469 C 170.972656 68.59375 170.957031 68.457031 170.945312 68.316406 C 170.679688 67.480469 170.140625 66.917969 169.535156 66.242188 C 169.28125 65.957031 169.03125 65.667969 168.78125 65.382812 C 168.652344 65.234375 168.523438 65.089844 168.390625 64.9375 C 168 64.488281 167.613281 64.03125 167.234375 63.574219 C 167.109375 63.429688 166.988281 63.285156 166.863281 63.132812 C 166.628906 62.851562 166.394531 62.570312 166.160156 62.289062 C 165.601562 61.628906 165.101562 61.113281 164.320312 60.644531 C 164.0625 60.253906 164.0625 60.253906 163.859375 59.835938 C 163.773438 59.6875 163.6875 59.535156 163.601562 59.382812 C 163.535156 59.265625 163.46875 59.148438 163.398438 59.027344 C 163.25 59.027344 163.097656 59.027344 162.941406 59.027344 C 162.617188 58.738281 162.617188 58.738281 162.238281 58.332031 C 161.429688 57.492188 160.5625 56.730469 159.660156 55.972656 C 159.265625 55.589844 159.265625 55.589844 159.265625 55.1875 C 159.113281 55.1875 158.960938 55.1875 158.804688 55.1875 C 158.40625 54.859375 158.03125 54.523438 157.65625 54.175781 C 157.394531 53.941406 157.136719 53.710938 156.878906 53.476562 C 156.738281 53.355469 156.601562 53.230469 156.457031 53.101562 C 154.9375 51.746094 153.382812 50.5 151.679688 49.324219 C 151.390625 49.117188 151.105469 48.910156 150.820312 48.703125 C 149 47.378906 147.148438 46.125 145.210938 44.9375 C 144.75 44.652344 144.292969 44.363281 143.835938 44.074219 C 141.890625 42.84375 139.914062 41.703125 137.84375 40.644531 C 137.316406 40.371094 136.796875 40.085938 136.28125 39.800781 C 130.628906 36.734375 123.527344 33.195312 117 31.851562 C 116.464844 31.726562 115.980469 31.550781 115.46875 31.363281 C 114.230469 30.921875 112.976562 30.578125 111.691406 30.257812 C 111.476562 30.203125 111.257812 30.148438 111.035156 30.089844 C 110.832031 30.039062 110.625 29.984375 110.414062 29.933594 C 110.226562 29.886719 110.042969 29.839844 109.851562 29.792969 C 109.378906 29.671875 109.378906 29.671875 108.933594 29.917969 C 108.933594 29.71875 108.933594 29.519531 108.933594 29.3125 C 108.789062 29.289062 108.640625 29.265625 108.492188 29.242188 C 107.015625 29.011719 105.546875 28.753906 104.082031 28.480469 C 101.671875 28.035156 99.261719 27.597656 96.839844 27.214844 C 96.632812 27.179688 96.429688 27.148438 96.21875 27.113281 C 94.777344 26.890625 93.386719 26.851562 91.925781 26.886719 C 91.925781 26.820312 91.925781 26.753906 91.925781 26.683594 C 91.167969 26.683594 90.410156 26.683594 89.628906 26.683594 C 89.628906 26.617188 89.628906 26.550781 89.628906 26.480469 C 88.667969 26.382812 87.703125 26.285156 86.742188 26.191406 C 86.476562 26.164062 86.207031 26.136719 85.933594 26.109375 C 83.339844 25.851562 80.753906 25.675781 78.144531 25.636719 C 77.84375 25.632812 77.542969 25.628906 77.230469 25.621094 C 76.769531 25.617188 76.308594 25.609375 75.84375 25.605469 C 74.003906 25.59375 72.570312 25.574219 71.015625 24.664062 C 70.433594 23.980469 70.269531 23.472656 70.339844 22.640625 C 70.507812 21.816406 70.835938 21.253906 71.472656 20.617188 C 73.046875 19.761719 74.789062 19.960938 76.574219 20.023438 Z M 127.03125 96.386719 C 124.09375 99.101562 122.308594 102.535156 122.175781 106.304688 C 122.34375 111.0625 124.65625 114.996094 128.238281 118.457031 C 128.398438 118.613281 128.554688 118.769531 128.71875 118.925781 C 129.890625 120.003906 131.210938 120.851562 132.605469 121.691406 C 132.789062 121.808594 132.96875 121.925781 133.160156 122.046875 C 137.789062 124.847656 143.785156 126.421875 149.382812 126.34375 C 149.84375 126.398438 150.304688 126.460938 150.761719 126.542969 C 150.761719 126.476562 150.761719 126.410156 150.761719 126.34375 C 151.140625 126.277344 151.519531 126.210938 151.910156 126.140625 C 151.910156 126.273438 151.910156 126.40625 151.910156 126.542969 C 152.089844 126.511719 152.269531 126.476562 152.457031 126.445312 C 153.109375 126.363281 153.628906 126.347656 154.28125 126.367188 C 161.335938 126.414062 168.320312 123.332031 173.304688 119.128906 C 174.691406 117.925781 175.953125 116.703125 176.960938 115.222656 C 177.113281 115.003906 177.265625 114.785156 177.421875 114.558594 C 178.421875 113.082031 179.277344 111.582031 179.945312 109.96875 C 180.09375 109.625 180.09375 109.625 180.238281 109.277344 C 182.113281 104.46875 182.132812 99.636719 182.070312 94.613281 C 182.070312 94.4375 182.066406 94.261719 182.066406 94.082031 C 182.054688 93.402344 182.03125 92.832031 181.785156 92.179688 C 181.152344 91.945312 180.542969 91.753906 179.890625 91.574219 C 179.609375 91.492188 179.609375 91.492188 179.324219 91.414062 C 177.785156 90.984375 176.242188 90.648438 174.660156 90.359375 C 174.523438 90.328125 174.382812 90.296875 174.238281 90.265625 C 173.207031 90.042969 172.160156 89.902344 171.113281 89.742188 C 170.875 89.703125 170.636719 89.664062 170.390625 89.628906 C 170.160156 89.589844 169.929688 89.554688 169.691406 89.519531 C 169.378906 89.46875 169.378906 89.46875 169.058594 89.421875 C 167.941406 89.289062 167.1875 89.339844 166.15625 89.753906 C 166.15625 89.621094 166.15625 89.488281 166.15625 89.347656 C 166.386719 89.28125 166.613281 89.214844 166.847656 89.148438 C 164.738281 88.917969 162.671875 88.703125 160.542969 88.742188 C 160.007812 88.742188 159.507812 88.707031 158.976562 88.640625 C 157.398438 88.460938 155.796875 88.527344 154.207031 88.539062 C 144.535156 88.539062 134.257812 90.410156 127.03125 96.386719 Z M 250.5 138.875 C 250.578125 139.074219 250.652344 139.277344 250.730469 139.480469 C 250.730469 139.28125 250.730469 139.082031 250.730469 138.875 C 250.65625 138.875 250.578125 138.875 250.5 138.875 Z M 256.707031 169.199219 C 256.78125 169.332031 256.859375 169.464844 256.9375 169.601562 C 257.085938 169.535156 257.238281 169.46875 257.394531 169.398438 C 257.167969 169.332031 256.941406 169.265625 256.707031 169.199219 Z M 276.699219 170.613281 C 276.929688 171.421875 276.929688 171.421875 276.929688 171.421875 Z M 276.699219 170.613281 "/>
<path style=" stroke:none;fill-rule:nonzero;fill:rgb(85.882354%,85.882354%,86.274511%);fill-opacity:1;" d="M 184.3125 78.835938 C 185.148438 79.574219 185.328125 80.679688 185.667969 81.65625 C 185.804688 82.050781 185.945312 82.449219 186.089844 82.84375 C 186.566406 84.191406 186.964844 85.503906 187.148438 86.910156 C 187.257812 87.359375 187.257812 87.359375 187.730469 87.5625 C 187.972656 87.648438 187.972656 87.648438 188.21875 87.734375 C 188.449219 87.867188 188.675781 88 188.910156 88.136719 C 189.0625 88.203125 189.214844 88.269531 189.371094 88.339844 C 189.445312 88.207031 189.519531 88.070312 189.601562 87.933594 C 189.601562 88.132812 189.601562 88.335938 189.601562 88.539062 C 190.433594 88.675781 191.269531 88.808594 192.128906 88.945312 C 192.128906 89.078125 192.128906 89.210938 192.128906 89.351562 C 192.285156 89.371094 192.441406 89.394531 192.605469 89.417969 C 193.390625 89.574219 194.089844 89.816406 194.835938 90.082031 C 194.984375 90.136719 195.136719 90.1875 195.289062 90.242188 C 195.773438 90.417969 196.253906 90.589844 196.738281 90.765625 C 196.984375 90.851562 196.984375 90.851562 197.234375 90.941406 C 199.292969 91.683594 201.34375 92.433594 203.375 93.226562 C 203.5625 93.300781 203.75 93.375 203.945312 93.449219 C 205.199219 93.949219 205.199219 93.949219 205.457031 94.402344 C 204.667969 94.285156 204.007812 94.109375 203.285156 93.808594 C 203.085938 93.730469 202.890625 93.648438 202.691406 93.566406 C 202.480469 93.480469 202.269531 93.394531 202.054688 93.304688 C 197.949219 91.640625 193.855469 90.109375 189.519531 88.972656 C 189.269531 88.902344 189.019531 88.835938 188.761719 88.765625 C 188.539062 88.707031 188.320312 88.648438 188.089844 88.589844 C 187.183594 88.183594 186.941406 87.59375 186.628906 86.769531 C 186.574219 86.570312 186.515625 86.371094 186.453125 86.164062 C 186.355469 85.832031 186.355469 85.832031 186.253906 85.488281 C 186.1875 85.257812 186.121094 85.027344 186.050781 84.789062 C 185.59375 83.222656 185.105469 81.683594 184.484375 80.160156 C 184.3125 79.648438 184.3125 79.648438 184.3125 78.835938 Z M 184.3125 78.835938 "/>
<path style=" stroke:none;fill-rule:nonzero;fill:rgb(87.843138%,87.843138%,88.235295%);fill-opacity:1;" d="M 283.136719 164.953125 C 283.210938 164.953125 283.285156 164.953125 283.367188 164.953125 C 283.371094 165.136719 283.375 165.320312 283.382812 165.511719 C 283.40625 166.199219 283.425781 166.886719 283.449219 167.574219 C 283.460938 167.871094 283.46875 168.167969 283.480469 168.464844 C 283.492188 168.894531 283.507812 169.320312 283.523438 169.75 C 283.535156 170.136719 283.535156 170.136719 283.546875 170.53125 C 283.589844 171.121094 283.679688 171.65625 283.824219 172.230469 C 283.84375 172.5 283.855469 172.769531 283.855469 173.039062 C 283.855469 173.234375 283.855469 173.234375 283.855469 173.429688 C 283.824219 173.847656 283.824219 173.847656 283.710938 174.316406 C 283.597656 174.839844 283.570312 175.304688 283.578125 175.835938 C 283.578125 176.023438 283.578125 176.210938 283.582031 176.40625 C 283.582031 176.605469 283.585938 176.808594 283.589844 177.015625 C 283.589844 177.445312 283.59375 177.875 283.597656 178.308594 C 283.601562 178.984375 283.609375 179.660156 283.617188 180.335938 C 283.625 180.988281 283.628906 181.644531 283.632812 182.296875 C 283.636719 182.496094 283.636719 182.695312 283.640625 182.902344 C 283.648438 184.410156 283.613281 186.195312 282.445312 187.390625 C 281.382812 188.0625 280.339844 188.339844 279.03125 188.273438 C 277.128906 187.988281 275.894531 186.539062 274.632812 185.371094 C 274.746094 185.171875 274.746094 185.171875 274.863281 184.964844 C 275.027344 185.121094 275.191406 185.273438 275.359375 185.429688 C 275.582031 185.632812 275.804688 185.835938 276.027344 186.039062 C 276.132812 186.140625 276.238281 186.242188 276.351562 186.347656 C 277.253906 187.160156 278.183594 187.738281 279.519531 187.832031 C 280.730469 187.65625 281.558594 187.402344 282.386719 186.59375 C 282.855469 185.917969 282.933594 185.28125 282.941406 184.496094 C 282.945312 184.324219 282.945312 184.152344 282.949219 183.972656 C 282.949219 183.785156 282.953125 183.597656 282.953125 183.402344 C 282.953125 183.203125 282.957031 183.003906 282.960938 182.800781 C 282.96875 182.140625 282.972656 181.484375 282.976562 180.824219 C 282.984375 180.367188 282.988281 179.910156 282.992188 179.457031 C 283.003906 178.253906 283.015625 177.050781 283.027344 175.851562 C 283.039062 174.625 283.050781 173.398438 283.066406 172.171875 C 283.089844 169.765625 283.113281 167.359375 283.136719 164.953125 Z M 283.136719 164.953125 "/>
<path style=" stroke:none;fill-rule:nonzero;fill:rgb(87.450981%,87.450981%,87.843138%);fill-opacity:1;" d="M 71.015625 24.257812 C 71.1875 24.355469 71.363281 24.453125 71.546875 24.554688 C 72.6875 24.972656 73.695312 24.953125 74.921875 24.964844 C 80.5 25.089844 86.066406 25.546875 91.609375 26.089844 C 91.871094 26.113281 91.871094 26.113281 92.136719 26.140625 C 92.625 26.1875 93.113281 26.234375 93.601562 26.285156 C 93.878906 26.3125 94.15625 26.34375 94.441406 26.371094 C 95.144531 26.480469 95.144531 26.480469 96.0625 26.886719 C 94.699219 26.886719 93.332031 26.886719 91.925781 26.886719 C 91.925781 26.820312 91.925781 26.753906 91.925781 26.683594 C 91.167969 26.683594 90.410156 26.683594 89.628906 26.683594 C 89.628906 26.617188 89.628906 26.550781 89.628906 26.480469 C 88.667969 26.382812 87.703125 26.285156 86.742188 26.191406 C 86.476562 26.164062 86.207031 26.136719 85.933594 26.109375 C 83.339844 25.851562 80.753906 25.675781 78.144531 25.636719 C 77.84375 25.632812 77.542969 25.628906 77.230469 25.621094 C 76.769531 25.617188 76.308594 25.609375 75.84375 25.605469 C 73.996094 25.59375 72.59375 25.550781 71.015625 24.664062 C 71.015625 24.527344 71.015625 24.394531 71.015625 24.257812 Z M 71.015625 24.257812 "/>
<path style=" stroke:none;fill-rule:nonzero;fill:rgb(83.529413%,83.529413%,83.92157%);fill-opacity:1;" d="M 277.851562 149.1875 C 277.851562 149.738281 277.800781 150.261719 277.738281 150.8125 C 277.621094 151.902344 277.582031 152.984375 277.578125 154.082031 C 277.574219 154.273438 277.574219 154.464844 277.570312 154.664062 C 277.566406 155.078125 277.5625 155.492188 277.558594 155.90625 C 277.554688 156.5625 277.550781 157.21875 277.542969 157.871094 C 277.527344 159.496094 277.511719 161.121094 277.5 162.746094 C 277.488281 164.121094 277.476562 165.5 277.460938 166.878906 C 277.453125 167.523438 277.449219 168.171875 277.445312 168.816406 C 277.441406 169.210938 277.4375 169.605469 277.433594 169.996094 C 277.433594 170.175781 277.429688 170.359375 277.429688 170.542969 C 277.417969 171.78125 277.417969 171.78125 277.160156 172.230469 C 277.007812 172.230469 276.855469 172.230469 276.699219 172.230469 C 276.699219 170.230469 276.699219 168.226562 276.699219 166.164062 C 276.851562 166.164062 277.003906 166.164062 277.160156 166.164062 C 277.121094 165.996094 277.085938 165.828125 277.046875 165.652344 C 276.921875 164.90625 276.90625 164.207031 276.914062 163.453125 C 276.917969 163.238281 276.917969 163.238281 276.917969 163.015625 C 276.921875 162.542969 276.925781 162.066406 276.933594 161.589844 C 276.9375 161.257812 276.941406 160.925781 276.945312 160.59375 C 276.953125 159.902344 276.964844 159.207031 276.972656 158.515625 C 276.984375 157.625 276.996094 156.738281 277 155.847656 C 277.007812 155.164062 277.015625 154.480469 277.027344 153.796875 C 277.03125 153.46875 277.035156 153.140625 277.039062 152.8125 C 277.039062 152.355469 277.046875 151.898438 277.058594 151.441406 C 277.058594 151.179688 277.0625 150.917969 277.066406 150.652344 C 277.164062 149.964844 277.316406 149.679688 277.851562 149.1875 Z M 277.851562 149.1875 "/>
<path style=" stroke:none;fill-rule:nonzero;fill:rgb(88.235295%,88.235295%,88.627452%);fill-opacity:1;" d="M 164.089844 124.726562 C 158.09375 126.828125 151.132812 127.519531 144.785156 126.34375 C 144.785156 126.277344 144.785156 126.210938 144.785156 126.140625 C 145.527344 126.132812 146.269531 126.132812 147.011719 126.128906 C 147.222656 126.125 147.429688 126.125 147.648438 126.121094 C 147.851562 126.121094 148.054688 126.121094 148.265625 126.121094 C 148.449219 126.121094 148.636719 126.117188 148.828125 126.117188 C 149.414062 126.140625 149.957031 126.230469 150.53125 126.34375 C 150.53125 126.277344 150.53125 126.210938 150.53125 126.140625 C 150.984375 126.140625 151.441406 126.140625 151.910156 126.140625 C 151.910156 126.273438 151.910156 126.40625 151.910156 126.546875 C 152.179688 126.445312 152.179688 126.445312 152.457031 126.34375 C 153.175781 126.167969 153.5625 126.128906 154.28125 126.152344 C 156.957031 126.195312 159.621094 125.558594 162.148438 124.835938 C 163.332031 124.503906 163.332031 124.503906 164.089844 124.726562 Z M 164.089844 124.726562 "/>
<path style=" stroke:none;fill-rule:nonzero;fill:rgb(87.450981%,87.450981%,87.450981%);fill-opacity:1;" d="M 282.992188 148.757812 C 284.128906 150.0625 284.105469 151.480469 283.953125 153.0625 C 283.800781 154.824219 283.746094 156.589844 283.695312 158.359375 C 283.6875 158.6875 283.675781 159.015625 283.664062 159.34375 C 283.640625 160.132812 283.617188 160.925781 283.59375 161.71875 C 283.519531 161.71875 283.445312 161.71875 283.367188 161.71875 C 283.367188 161.519531 283.367188 161.519531 283.367188 161.3125 C 283.378906 159.921875 283.386719 158.527344 283.390625 157.132812 C 283.394531 156.613281 283.394531 156.09375 283.398438 155.574219 C 283.40625 154.824219 283.40625 154.078125 283.410156 153.328125 C 283.414062 153.097656 283.414062 152.867188 283.417969 152.628906 C 283.464844 150.699219 283.464844 150.699219 282.546875 149.007812 C 281.523438 148.59375 280.476562 148.453125 279.375 148.703125 C 278.9375 148.847656 278.507812 149.015625 278.078125 149.1875 C 278.078125 149.050781 278.078125 148.917969 278.078125 148.78125 C 279.613281 147.789062 281.476562 147.703125 282.992188 148.757812 Z M 282.992188 148.757812 "/>
<path style=" stroke:none;fill-rule:nonzero;fill:rgb(86.274511%,86.274511%,86.666667%);fill-opacity:1;" d="M 250.960938 164.347656 C 251.863281 164.671875 252.503906 165.21875 253.203125 165.800781 C 253.449219 166.003906 253.695312 166.203125 253.941406 166.40625 C 254.0625 166.503906 254.183594 166.601562 254.304688 166.703125 C 254.726562 167.046875 255.152344 167.378906 255.585938 167.707031 C 257.246094 168.976562 258.871094 170.265625 260.402344 171.65625 C 260.859375 172.0625 260.859375 172.0625 261.53125 172.433594 C 261.53125 172.566406 261.53125 172.699219 261.53125 172.835938 C 260.863281 172.574219 260.414062 172.300781 259.917969 171.824219 C 259.792969 171.710938 259.667969 171.59375 259.539062 171.472656 C 259.277344 171.230469 259.019531 170.984375 258.765625 170.738281 C 257.964844 170.003906 257.457031 169.644531 256.246094 169.601562 C 256.238281 169.460938 256.234375 169.320312 256.226562 169.175781 C 255.917969 168.316406 255.269531 167.890625 254.507812 167.304688 C 254.363281 167.1875 254.21875 167.074219 254.066406 166.953125 C 253.140625 166.21875 252.203125 165.496094 251.25 164.785156 C 251.15625 164.707031 251.058594 164.628906 250.960938 164.546875 C 250.960938 164.480469 250.960938 164.414062 250.960938 164.347656 Z M 256.707031 169.199219 C 256.78125 169.332031 256.859375 169.464844 256.9375 169.601562 C 257.085938 169.535156 257.238281 169.46875 257.394531 169.398438 C 257.167969 169.332031 256.941406 169.265625 256.707031 169.199219 Z M 256.707031 169.199219 "/>
<path style=" stroke:none;fill-rule:nonzero;fill:rgb(83.529413%,83.92157%,84.705883%);fill-opacity:1;" d="M 231.195312 110.171875 C 231.898438 110.449219 232.398438 110.769531 232.953125 111.234375 C 233.1875 111.429688 233.1875 111.429688 233.425781 111.628906 C 233.585938 111.765625 233.746094 111.902344 233.910156 112.039062 C 234.226562 112.308594 234.546875 112.574219 234.863281 112.839844 C 235.019531 112.96875 235.171875 113.097656 235.332031 113.234375 C 235.769531 113.585938 236.214844 113.921875 236.671875 114.257812 C 237.257812 114.691406 237.683594 115.117188 238.089844 115.691406 C 238.542969 116.265625 238.542969 116.265625 239.222656 116.585938 C 239.714844 116.652344 239.714844 116.652344 240.390625 116.640625 C 240.3125 117.105469 240.238281 117.574219 240.160156 118.054688 C 239.125 117.328125 238.214844 116.542969 237.328125 115.679688 C 235.738281 114.128906 234.101562 112.632812 232.273438 111.296875 C 231.851562 110.953125 231.527344 110.582031 231.195312 110.171875 Z M 231.195312 110.171875 "/>
<path style=" stroke:none;fill-rule:nonzero;fill:rgb(86.274511%,86.274511%,86.666667%);fill-opacity:1;" d="M 253.066406 157.863281 C 254.722656 159.097656 254.722656 159.097656 255.328125 159.898438 C 254.230469 159.480469 253.398438 158.773438 252.492188 158.097656 C 251.417969 157.355469 250.734375 157.148438 249.351562 157.269531 C 248.519531 157.550781 247.886719 157.933594 247.296875 158.535156 C 246.875 159.503906 246.910156 160.527344 247.285156 161.515625 C 246.59375 161.113281 246.59375 161.113281 246.378906 160.378906 C 246.269531 159.375 246.714844 158.71875 247.285156 157.878906 C 247.351562 157.734375 247.417969 157.589844 247.488281 157.445312 C 247.742188 157.070312 247.742188 157.070312 248.167969 156.886719 C 250.191406 156.503906 251.457031 156.710938 253.066406 157.863281 Z M 253.066406 157.863281 "/>
<path style=" stroke:none;fill-rule:nonzero;fill:rgb(89.019608%,89.019608%,89.411765%);fill-opacity:1;" d="M 184.3125 78.835938 C 185.148438 79.574219 185.328125 80.679688 185.667969 81.65625 C 185.804688 82.050781 185.945312 82.449219 186.089844 82.84375 C 186.566406 84.191406 186.964844 85.503906 187.148438 86.910156 C 187.257812 87.359375 187.257812 87.359375 187.730469 87.5625 C 187.972656 87.648438 187.972656 87.648438 188.21875 87.734375 C 188.449219 87.867188 188.675781 88 188.910156 88.136719 C 189.0625 88.203125 189.214844 88.269531 189.371094 88.339844 C 189.445312 88.207031 189.519531 88.070312 189.601562 87.933594 C 189.601562 88.132812 189.601562 88.335938 189.601562 88.539062 C 189.269531 88.535156 188.9375 88.519531 188.609375 88.503906 C 188.425781 88.496094 188.242188 88.488281 188.050781 88.480469 C 187.53125 88.339844 187.53125 88.339844 187.179688 87.898438 C 186.835938 87.320312 186.636719 86.796875 186.453125 86.164062 C 186.355469 85.832031 186.355469 85.832031 186.253906 85.488281 C 186.1875 85.257812 186.121094 85.027344 186.050781 84.789062 C 185.59375 83.222656 185.105469 81.683594 184.484375 80.160156 C 184.3125 79.648438 184.3125 79.648438 184.3125 78.835938 Z M 184.3125 78.835938 "/>
<path style=" stroke:none;fill-rule:nonzero;fill:rgb(88.235295%,88.235295%,88.627452%);fill-opacity:1;" d="M 170.753906 84.5 C 172.9375 84.539062 174.957031 84.910156 177.070312 85.363281 C 177.386719 85.429688 177.386719 85.429688 177.707031 85.496094 C 177.894531 85.539062 178.082031 85.578125 178.277344 85.621094 C 178.859375 85.738281 178.859375 85.738281 179.71875 85.710938 C 179.71875 85.84375 179.71875 85.976562 179.71875 86.117188 C 179.867188 86.117188 180.019531 86.117188 180.175781 86.117188 C 180.175781 85.78125 180.175781 85.449219 180.175781 85.105469 C 180.578125 85.632812 180.726562 85.921875 180.867188 86.519531 C 179.285156 86.355469 177.75 86.03125 176.199219 85.722656 C 174.386719 85.363281 172.578125 85.011719 170.753906 84.699219 C 170.753906 84.632812 170.753906 84.566406 170.753906 84.5 Z M 170.753906 84.5 "/>
<path style=" stroke:none;fill-rule:nonzero;fill:rgb(88.627452%,88.627452%,89.019608%);fill-opacity:1;" d="M 267.738281 170.613281 C 268.773438 171.355469 269.691406 172.097656 270.496094 173.039062 C 270.496094 173.171875 270.496094 173.304688 270.496094 173.445312 C 270.648438 173.445312 270.796875 173.445312 270.957031 173.445312 C 271.105469 173.578125 271.257812 173.710938 271.414062 173.847656 C 271.335938 173.695312 271.253906 173.539062 271.171875 173.378906 C 270.957031 172.835938 270.957031 172.835938 271.183594 172.230469 C 271.421875 172.582031 271.65625 172.9375 271.890625 173.292969 C 272.019531 173.488281 272.148438 173.6875 272.285156 173.890625 C 272.5625 174.453125 272.5625 174.453125 272.492188 174.929688 C 272.4375 175.039062 272.386719 175.148438 272.335938 175.261719 C 271.464844 175.007812 271.246094 174.679688 270.683594 174.050781 C 269.847656 173.125 268.980469 172.242188 268.066406 171.375 C 267.738281 171.015625 267.738281 171.015625 267.738281 170.613281 Z M 267.738281 170.613281 "/>
<path style=" stroke:none;fill-rule:nonzero;fill:rgb(90.588236%,90.588236%,90.980393%);fill-opacity:1;" d="M 163.628906 88.742188 C 165.582031 88.6875 167.398438 88.839844 169.316406 89.148438 C 169.570312 89.1875 169.820312 89.222656 170.078125 89.265625 C 170.6875 89.359375 171.296875 89.453125 171.902344 89.550781 C 171.902344 89.617188 171.902344 89.683594 171.902344 89.753906 C 170.324219 89.808594 168.855469 89.605469 167.308594 89.351562 C 167.230469 89.484375 167.15625 89.617188 167.078125 89.753906 C 166.773438 89.753906 166.472656 89.753906 166.15625 89.753906 C 166.15625 89.621094 166.15625 89.488281 166.15625 89.351562 C 165.324219 89.214844 164.488281 89.082031 163.628906 88.945312 C 163.628906 88.878906 163.628906 88.8125 163.628906 88.742188 Z M 163.628906 88.742188 "/>
<path style=" stroke:none;fill-rule:nonzero;fill:rgb(87.058824%,87.843138%,87.843138%);fill-opacity:1;" d="M 152.140625 88.339844 C 153.378906 88.332031 154.617188 88.332031 155.855469 88.328125 C 156.277344 88.328125 156.695312 88.324219 157.117188 88.324219 C 157.722656 88.320312 158.332031 88.320312 158.941406 88.320312 C 159.125 88.316406 159.308594 88.316406 159.5 88.316406 C 160.742188 88.316406 161.941406 88.40625 163.171875 88.539062 C 163.171875 88.609375 163.171875 88.675781 163.171875 88.742188 C 159.980469 89.003906 159.980469 89.003906 158.476562 88.808594 C 157.625 88.714844 156.773438 88.675781 155.917969 88.628906 C 155.75 88.621094 155.582031 88.613281 155.410156 88.601562 C 155.007812 88.582031 154.609375 88.5625 154.207031 88.539062 C 154.132812 88.675781 154.054688 88.808594 153.976562 88.945312 C 153.902344 88.878906 153.828125 88.8125 153.75 88.742188 C 153.214844 88.667969 152.675781 88.601562 152.140625 88.539062 C 152.140625 88.472656 152.140625 88.40625 152.140625 88.339844 Z M 152.140625 88.339844 "/>
<path style=" stroke:none;fill-rule:nonzero;fill:rgb(90.196079%,90.196079%,90.196079%);fill-opacity:1;" d="M 249.582031 137.257812 C 250.75 138.164062 251.625 139.28125 252.339844 140.492188 C 252.265625 140.625 252.1875 140.761719 252.109375 140.898438 C 251.882812 140.765625 251.65625 140.628906 251.421875 140.492188 C 250.964844 140.414062 250.503906 140.34375 250.042969 140.289062 C 250.042969 139.824219 250.042969 139.355469 250.042969 138.875 C 250.191406 138.875 250.34375 138.875 250.5 138.875 C 250.273438 138.589844 250.273438 138.589844 250.042969 138.292969 C 249.582031 137.664062 249.582031 137.664062 249.582031 137.257812 Z M 250.5 138.875 C 250.578125 139.074219 250.652344 139.277344 250.730469 139.484375 C 250.730469 139.28125 250.730469 139.082031 250.730469 138.875 C 250.65625 138.875 250.578125 138.875 250.5 138.875 Z M 250.5 138.875 "/>
<path style=" stroke:none;fill-rule:nonzero;fill:rgb(90.588236%,90.588236%,90.588236%);fill-opacity:1;" d="M 276.699219 166.164062 C 276.851562 166.164062 277.003906 166.164062 277.160156 166.164062 C 277.351562 167.484375 277.414062 168.78125 277.417969 170.109375 C 277.417969 170.269531 277.421875 170.433594 277.421875 170.597656 C 277.417969 171.777344 277.417969 171.777344 277.160156 172.230469 C 277.007812 172.230469 276.855469 172.230469 276.699219 172.230469 C 276.699219 170.230469 276.699219 168.226562 276.699219 166.164062 Z M 276.699219 166.164062 "/>
<path style=" stroke:none;fill-rule:nonzero;fill:rgb(88.235295%,88.235295%,88.627452%);fill-opacity:1;" d="M 236.941406 115.023438 C 237.597656 115.257812 237.917969 115.480469 238.40625 115.945312 C 239.089844 116.503906 239.476562 116.582031 240.390625 116.640625 C 240.3125 117.105469 240.238281 117.574219 240.160156 118.054688 C 238.964844 117.195312 237.898438 116.292969 236.941406 115.226562 C 236.941406 115.15625 236.941406 115.089844 236.941406 115.023438 Z M 236.941406 115.023438 "/>
<path style=" stroke:none;fill-rule:nonzero;fill:rgb(90.196079%,90.196079%,90.196079%);fill-opacity:1;" d="M 250.273438 127.757812 C 250.726562 127.890625 251.179688 128.023438 251.648438 128.164062 C 251.421875 128.769531 251.421875 128.769531 250.960938 128.96875 C 250.960938 129.171875 250.960938 129.371094 250.960938 129.578125 C 250.582031 129.175781 250.203125 128.777344 249.8125 128.363281 C 250.042969 127.960938 250.042969 127.960938 250.273438 127.757812 Z M 250.273438 127.757812 "/>
<path style=" stroke:none;fill-rule:nonzero;fill:rgb(87.450981%,87.450981%,87.450981%);fill-opacity:1;" d="M 261.53125 172.835938 C 261.683594 172.835938 261.835938 172.835938 261.992188 172.835938 C 262.390625 173.191406 262.390625 173.191406 262.824219 173.644531 C 262.96875 173.796875 263.117188 173.945312 263.265625 174.101562 C 263.375 174.21875 263.488281 174.332031 263.601562 174.453125 C 262.878906 174.453125 262.617188 174.332031 261.992188 174.050781 C 261.839844 174.050781 261.6875 174.050781 261.53125 174.050781 C 261.609375 173.851562 261.683594 173.648438 261.761719 173.445312 C 261.6875 173.242188 261.609375 173.042969 261.53125 172.835938 Z M 261.53125 172.835938 "/>
<path style=" stroke:none;fill-rule:nonzero;fill:rgb(87.058824%,87.058824%,87.058824%);fill-opacity:1;" d="M 172.824219 70.347656 C 173.667969 71.011719 174.164062 71.683594 174.660156 72.570312 C 174.585938 72.769531 174.511719 72.972656 174.433594 73.179688 C 174.203125 72.898438 173.980469 72.613281 173.757812 72.332031 C 173.632812 72.175781 173.507812 72.015625 173.375 71.855469 C 173.042969 71.34375 172.914062 70.929688 172.824219 70.347656 Z M 172.824219 70.347656 "/>
<path style=" stroke:none;fill-rule:nonzero;fill:rgb(95.686275%,96.078432%,96.470588%);fill-opacity:1;" d="M 239.46875 126.34375 C 240.589844 127.304688 240.589844 127.304688 240.847656 127.757812 C 240.316406 127.691406 239.789062 127.625 239.242188 127.554688 C 239.316406 127.15625 239.390625 126.753906 239.46875 126.34375 Z M 239.46875 126.34375 "/>
<path style=" stroke:none;fill-rule:nonzero;fill:rgb(94.117647%,94.509804%,94.509804%);fill-opacity:1;" d="M 229.128906 106.734375 C 229.28125 106.800781 229.429688 106.867188 229.585938 106.9375 C 229.585938 107.203125 229.585938 107.46875 229.585938 107.746094 C 229.359375 107.8125 229.132812 107.878906 228.898438 107.945312 C 228.824219 107.679688 228.746094 107.414062 228.667969 107.140625 C 228.820312 107.140625 228.972656 107.140625 229.128906 107.140625 C 229.128906 107.003906 229.128906 106.871094 229.128906 106.734375 Z M 229.128906 106.734375 "/>
<path style=" stroke:none;fill-rule:nonzero;fill:rgb(96.470588%,96.470588%,96.862745%);fill-opacity:1;" d="M 245.214844 132.8125 C 245.367188 132.8125 245.519531 132.8125 245.675781 132.8125 C 245.75 133.078125 245.828125 133.34375 245.90625 133.621094 C 245.675781 133.71875 245.675781 133.71875 245.445312 133.820312 C 245.371094 133.488281 245.292969 133.15625 245.214844 132.8125 Z M 245.214844 132.8125 "/>
<path style=" stroke:none;fill-rule:nonzero;fill:rgb(98.039216%,98.039216%,98.431373%);fill-opacity:1;" d="M 258.316406 150.804688 C 258.773438 151.207031 258.773438 151.207031 258.773438 151.8125 C 258.625 151.8125 258.472656 151.8125 258.316406 151.8125 C 258.316406 151.480469 258.316406 151.144531 258.316406 150.804688 Z M 258.316406 150.804688 "/>
<path style=" stroke:none;fill-rule:nonzero;fill:rgb(97.254902%,97.647059%,97.254902%);fill-opacity:1;" d="M 256.246094 148.175781 C 256.550781 148.308594 256.851562 148.441406 257.164062 148.578125 C 256.9375 148.644531 256.710938 148.710938 256.476562 148.78125 C 256.324219 148.648438 256.171875 148.515625 256.015625 148.375 C 256.09375 148.308594 256.167969 148.242188 256.246094 148.175781 Z M 256.246094 148.175781 "/>
<path style=" stroke:none;fill-rule:nonzero;fill:rgb(96.078432%,96.078432%,96.078432%);fill-opacity:1;" d="M 172.132812 59.429688 C 172.589844 59.632812 172.589844 59.632812 173.054688 59.835938 C 172.976562 59.96875 172.902344 60.101562 172.824219 60.242188 C 172.59375 59.972656 172.367188 59.707031 172.132812 59.429688 Z M 172.132812 59.429688 "/>
<path style=" stroke:none;fill-rule:nonzero;fill:rgb(97.254902%,96.862745%,97.254902%);fill-opacity:1;" d="M 262.222656 143.523438 C 262.449219 143.726562 262.675781 143.925781 262.910156 144.132812 C 262.683594 144.230469 262.683594 144.230469 262.453125 144.335938 C 262.375 144.066406 262.300781 143.800781 262.222656 143.523438 Z M 262.222656 143.523438 "/>
<path style=" stroke:none;fill-rule:nonzero;fill:rgb(96.470588%,96.078432%,96.470588%);fill-opacity:1;" d="M 129.617188 87.328125 C 129.617188 87.527344 129.617188 87.726562 129.617188 87.933594 C 129.390625 88.035156 129.390625 88.035156 129.15625 88.136719 C 129.308594 87.871094 129.460938 87.601562 129.617188 87.328125 Z M 129.617188 87.328125 "/>
<path style=" stroke:none;fill-rule:nonzero;fill:rgb(96.078432%,95.686275%,96.078432%);fill-opacity:1;" d="M 272.105469 183.148438 C 272.332031 183.246094 272.332031 183.246094 272.5625 183.347656 C 272.488281 183.546875 272.414062 183.75 272.335938 183.953125 C 272.257812 183.6875 272.183594 183.421875 272.105469 183.148438 Z M 272.105469 183.148438 "/>
<path style=" stroke:none;fill-rule:nonzero;fill:rgb(98.431373%,98.039216%,98.431373%);fill-opacity:1;" d="M 273.253906 162.929688 C 273.480469 162.929688 273.707031 162.929688 273.941406 162.929688 C 273.941406 163.066406 273.941406 163.199219 273.941406 163.335938 C 273.714844 163.335938 273.488281 163.335938 273.253906 163.335938 C 273.253906 163.203125 273.253906 163.070312 273.253906 162.929688 Z M 273.253906 162.929688 "/>
<path style=" stroke:none;fill-rule:nonzero;fill:rgb(98.039216%,98.431373%,98.823529%);fill-opacity:1;" d="M 260.152344 153.835938 C 260.304688 154.101562 260.457031 154.367188 260.613281 154.644531 C 260.460938 154.644531 260.308594 154.644531 260.152344 154.644531 C 260.152344 154.375 260.152344 154.109375 260.152344 153.835938 Z M 260.152344 153.835938 "/>
<path style=" stroke:none;fill-rule:nonzero;fill:rgb(97.254902%,97.254902%,97.647059%);fill-opacity:1;" d="M 276.699219 152.421875 C 276.777344 152.421875 276.851562 152.421875 276.929688 152.421875 C 276.929688 152.753906 276.929688 153.085938 276.929688 153.429688 C 276.855469 153.429688 276.777344 153.429688 276.699219 153.429688 C 276.699219 153.097656 276.699219 152.761719 276.699219 152.421875 Z M 276.699219 152.421875 "/>
<path style=" stroke:none;fill-rule:nonzero;fill:rgb(96.862745%,96.470588%,96.862745%);fill-opacity:1;" d="M 276.699219 151.003906 C 276.777344 151.003906 276.851562 151.003906 276.929688 151.003906 C 276.929688 151.339844 276.929688 151.671875 276.929688 152.015625 C 276.855469 152.015625 276.777344 152.015625 276.699219 152.015625 C 276.699219 151.683594 276.699219 151.347656 276.699219 151.003906 Z M 276.699219 151.003906 "/>
<path style=" stroke:none;fill-rule:nonzero;fill:rgb(98.039216%,98.431373%,98.039216%);fill-opacity:1;" d="M 155.355469 88.742188 C 155.734375 88.742188 156.113281 88.742188 156.507812 88.742188 C 156.507812 88.808594 156.507812 88.875 156.507812 88.945312 C 156.125 88.945312 155.746094 88.945312 155.355469 88.945312 C 155.355469 88.878906 155.355469 88.8125 155.355469 88.742188 Z M 155.355469 88.742188 "/>
<path style=" stroke:none;fill-rule:nonzero;fill:rgb(96.470588%,96.470588%,96.862745%);fill-opacity:1;" d="M 134.671875 39.21875 C 134.824219 39.285156 134.976562 39.351562 135.132812 39.417969 C 134.90625 39.550781 134.679688 39.6875 134.445312 39.824219 C 134.519531 39.625 134.59375 39.421875 134.671875 39.21875 Z M 134.671875 39.21875 "/>
<path style=" stroke:none;fill-rule:nonzero;fill:rgb(95.294118%,95.686275%,95.686275%);fill-opacity:1;" d="M 113.53125 24.257812 C 113.679688 24.324219 113.832031 24.390625 113.988281 24.460938 C 113.6875 24.527344 113.382812 24.59375 113.070312 24.664062 C 113.222656 24.527344 113.375 24.394531 113.53125 24.257812 Z M 113.53125 24.257812 "/>
<path style=" stroke:none;fill-rule:nonzero;fill:rgb(96.078432%,96.078432%,96.470588%);fill-opacity:1;" d="M 262.222656 174.050781 C 262.296875 174.183594 262.375 174.316406 262.453125 174.453125 C 262.222656 174.386719 261.996094 174.320312 261.761719 174.25 C 261.914062 174.183594 262.066406 174.117188 262.222656 174.050781 Z M 262.222656 174.050781 "/>
<path style=" stroke:none;fill-rule:nonzero;fill:rgb(95.294118%,95.294118%,95.686275%);fill-opacity:1;" d="M 255.558594 168.792969 C 255.707031 168.925781 255.859375 169.0625 256.015625 169.199219 C 255.789062 169.296875 255.789062 169.296875 255.558594 169.398438 C 255.558594 169.199219 255.558594 169 255.558594 168.792969 Z M 255.558594 168.792969 "/>
<path style=" stroke:none;fill-rule:nonzero;fill:rgb(98.039216%,98.039216%,98.039216%);fill-opacity:1;" d="M 276.699219 157.472656 C 276.929688 158.28125 276.929688 158.28125 276.929688 158.28125 Z M 276.699219 157.472656 "/>
<path style=" stroke:none;fill-rule:nonzero;fill:rgb(98.039216%,98.039216%,98.431373%);fill-opacity:1;" d="M 276.699219 155.855469 C 276.929688 156.664062 276.929688 156.664062 276.929688 156.664062 Z M 276.699219 155.855469 "/>
<path style=" stroke:none;fill-rule:nonzero;fill:rgb(97.254902%,96.862745%,97.254902%);fill-opacity:1;" d="M 251.878906 141.101562 C 252.109375 141.398438 252.109375 141.398438 252.339844 141.707031 C 252.1875 141.707031 252.035156 141.707031 251.878906 141.707031 C 251.878906 141.507812 251.878906 141.304688 251.878906 141.101562 Z M 251.878906 141.101562 "/>
<path style=" stroke:none;fill-rule:nonzero;fill:rgb(97.254902%,97.254902%,96.862745%);fill-opacity:1;" d="M 258.546875 137.664062 C 258.773438 137.761719 258.773438 137.761719 259.003906 137.867188 C 258.929688 138 258.851562 138.132812 258.773438 138.269531 C 258.699219 138.070312 258.625 137.871094 258.546875 137.664062 Z M 258.546875 137.664062 "/>
<path style=" stroke:none;fill-rule:nonzero;fill:rgb(96.470588%,96.862745%,96.862745%);fill-opacity:1;" d="M 238.089844 124.929688 C 238.320312 125.027344 238.320312 125.027344 238.550781 125.128906 C 238.476562 125.261719 238.398438 125.398438 238.320312 125.535156 C 238.246094 125.335938 238.167969 125.132812 238.089844 124.929688 Z M 238.089844 124.929688 "/>
<path style=" stroke:none;fill-rule:nonzero;fill:rgb(97.254902%,97.254902%,97.647059%);fill-opacity:1;" d="M 110.542969 30.121094 C 110.769531 30.121094 110.996094 30.121094 111.230469 30.121094 C 111.15625 30.253906 111.082031 30.386719 111.003906 30.523438 C 110.851562 30.390625 110.699219 30.257812 110.542969 30.121094 Z M 110.542969 30.121094 "/>
<path style=" stroke:none;fill-rule:nonzero;fill:rgb(96.470588%,96.862745%,97.254902%);fill-opacity:1;" d="M 103.417969 28.503906 C 103.644531 28.503906 103.871094 28.503906 104.109375 28.503906 C 104.03125 28.636719 103.957031 28.769531 103.878906 28.90625 C 103.726562 28.773438 103.574219 28.640625 103.417969 28.503906 Z M 103.417969 28.503906 "/>
<path style=" stroke:none;fill-rule:nonzero;fill:rgb(96.470588%,96.078432%,96.470588%);fill-opacity:1;" d="M 78.136719 25.671875 C 79.058594 25.875 79.058594 25.875 79.058594 25.875 Z M 78.136719 25.671875 "/>
<path style=" stroke:none;fill-rule:nonzero;fill:rgb(96.470588%,96.470588%,97.254902%);fill-opacity:1;" d="M 265.210938 176.679688 C 265.359375 176.8125 265.511719 176.945312 265.667969 177.082031 C 265.519531 177.082031 265.367188 177.082031 265.210938 177.082031 C 265.210938 176.949219 265.210938 176.816406 265.210938 176.679688 Z M 265.210938 176.679688 "/>
<path style=" stroke:none;fill-rule:nonzero;fill:rgb(96.862745%,96.470588%,96.470588%);fill-opacity:1;" d="M 258.546875 170.816406 C 258.695312 170.949219 258.847656 171.082031 259.003906 171.21875 C 258.851562 171.21875 258.703125 171.21875 258.546875 171.21875 C 258.546875 171.085938 258.546875 170.953125 258.546875 170.816406 Z M 258.546875 170.816406 "/>
<path style=" stroke:none;fill-rule:nonzero;fill:rgb(98.039216%,97.647059%,98.039216%);fill-opacity:1;" d="M 267.277344 166.773438 C 267.429688 166.90625 267.582031 167.039062 267.738281 167.175781 C 267.585938 167.175781 267.433594 167.175781 267.277344 167.175781 C 267.277344 167.042969 267.277344 166.910156 267.277344 166.773438 Z M 267.277344 166.773438 "/>
<path style=" stroke:none;fill-rule:nonzero;fill:rgb(98.039216%,98.039216%,98.823529%);fill-opacity:1;" d="M 265.667969 163.941406 C 265.820312 164.074219 265.972656 164.210938 266.128906 164.347656 C 265.976562 164.347656 265.824219 164.347656 265.667969 164.347656 C 265.667969 164.214844 265.667969 164.078125 265.667969 163.941406 Z M 265.667969 163.941406 "/>
<path style=" stroke:none;fill-rule:nonzero;fill:rgb(97.254902%,97.647059%,98.039216%);fill-opacity:1;" d="M 265.898438 148.78125 C 265.976562 148.914062 266.050781 149.046875 266.128906 149.1875 C 265.976562 149.117188 265.824219 149.050781 265.667969 148.984375 C 265.746094 148.917969 265.820312 148.851562 265.898438 148.78125 Z M 265.898438 148.78125 "/>
<path style=" stroke:none;fill-rule:nonzero;fill:rgb(96.078432%,96.470588%,96.862745%);fill-opacity:1;" d="M 262.453125 142.71875 C 262.527344 142.851562 262.601562 142.984375 262.679688 143.121094 C 262.53125 143.054688 262.378906 142.988281 262.222656 142.917969 C 262.296875 142.851562 262.375 142.785156 262.453125 142.71875 Z M 262.453125 142.71875 "/>
<path style=" stroke:none;fill-rule:nonzero;fill:rgb(96.470588%,96.470588%,96.470588%);fill-opacity:1;" d="M 159.035156 131.597656 C 159.722656 131.800781 159.722656 131.800781 159.722656 131.800781 Z M 159.035156 131.597656 "/>
<path style=" stroke:none;fill-rule:nonzero;fill:rgb(99.215686%,98.823529%,99.215686%);fill-opacity:1;" d="M 160.640625 124.726562 C 160.792969 124.859375 160.945312 124.992188 161.101562 125.128906 C 160.949219 125.128906 160.800781 125.128906 160.640625 125.128906 C 160.640625 124.996094 160.640625 124.863281 160.640625 124.726562 Z M 160.640625 124.726562 "/>
<path style=" stroke:none;fill-rule:nonzero;fill:rgb(98.823529%,98.823529%,98.823529%);fill-opacity:1;" d="M 161.101562 124.726562 C 161.792969 124.929688 161.792969 124.929688 161.792969 124.929688 Z M 161.101562 124.726562 "/>
<path style=" stroke:none;fill-rule:nonzero;fill:rgb(96.078432%,96.078432%,96.078432%);fill-opacity:1;" d="M 240.390625 117.648438 C 240.539062 117.785156 240.691406 117.917969 240.847656 118.054688 C 240.699219 118.054688 240.546875 118.054688 240.390625 118.054688 C 240.390625 117.921875 240.390625 117.789062 240.390625 117.648438 Z M 240.390625 117.648438 "/>
<path style=" stroke:none;fill-rule:nonzero;fill:rgb(97.254902%,97.647059%,98.039216%);fill-opacity:1;" d="M 213.730469 105.523438 C 213.957031 105.621094 213.957031 105.621094 214.191406 105.722656 C 213.960938 105.824219 213.960938 105.824219 213.730469 105.925781 C 213.730469 105.792969 213.730469 105.660156 213.730469 105.523438 Z M 213.730469 105.523438 "/>
<path style=" stroke:none;fill-rule:nonzero;fill:rgb(97.647059%,98.039216%,98.039216%);fill-opacity:1;" d="M 211.433594 104.105469 C 211.582031 104.105469 211.734375 104.105469 211.890625 104.105469 C 211.816406 104.238281 211.742188 104.375 211.664062 104.511719 C 211.585938 104.378906 211.511719 104.242188 211.433594 104.105469 Z M 211.433594 104.105469 "/>
<path style=" stroke:none;fill-rule:nonzero;fill:rgb(98.039216%,98.431373%,98.823529%);fill-opacity:1;" d="M 129.386719 94.808594 C 129.464844 94.941406 129.539062 95.074219 129.617188 95.210938 C 129.464844 95.144531 129.3125 95.078125 129.15625 95.007812 C 129.234375 94.941406 129.308594 94.875 129.386719 94.808594 Z M 129.386719 94.808594 "/>
<path style=" stroke:none;fill-rule:nonzero;fill:rgb(99.215686%,99.215686%,99.215686%);fill-opacity:1;" d="M 188.679688 94.402344 C 189.371094 94.605469 189.371094 94.605469 189.371094 94.605469 Z M 188.679688 94.402344 "/>
<path style=" stroke:none;fill-rule:nonzero;fill:rgb(99.215686%,99.215686%,99.215686%);fill-opacity:1;" d="M 176.269531 90.96875 C 176.421875 90.96875 176.574219 90.96875 176.730469 90.96875 C 176.652344 91.101562 176.578125 91.234375 176.5 91.371094 C 176.425781 91.238281 176.347656 91.105469 176.269531 90.96875 Z M 176.269531 90.96875 "/>
<path style=" stroke:none;fill-rule:nonzero;fill:rgb(98.431373%,98.823529%,98.823529%);fill-opacity:1;" d="M 144.785156 89.550781 C 145.476562 89.753906 145.476562 89.753906 145.476562 89.753906 Z M 144.785156 89.550781 "/>
<path style=" stroke:none;fill-rule:nonzero;fill:rgb(98.431373%,98.039216%,98.431373%);fill-opacity:1;" d="M 172.824219 71.5625 C 173.050781 71.660156 173.050781 71.660156 173.28125 71.761719 C 173.054688 71.863281 173.054688 71.863281 172.824219 71.964844 C 172.824219 71.832031 172.824219 71.699219 172.824219 71.5625 Z M 172.824219 71.5625 "/>
<path style=" stroke:none;fill-rule:nonzero;fill:rgb(98.431373%,98.039216%,98.431373%);fill-opacity:1;" d="M 171.671875 69.539062 C 171.824219 69.671875 171.976562 69.804688 172.132812 69.945312 C 171.980469 69.945312 171.832031 69.945312 171.671875 69.945312 C 171.671875 69.808594 171.671875 69.675781 171.671875 69.539062 Z M 171.671875 69.539062 "/>
<path style=" stroke:none;fill-rule:nonzero;fill:rgb(98.039216%,98.823529%,98.823529%);fill-opacity:1;" d="M 171.214844 68.933594 C 171.367188 69.066406 171.515625 69.199219 171.671875 69.335938 C 171.523438 69.335938 171.371094 69.335938 171.214844 69.335938 C 171.214844 69.203125 171.214844 69.070312 171.214844 68.933594 Z M 171.214844 68.933594 "/>
<path style=" stroke:none;fill-rule:nonzero;fill:rgb(96.078432%,95.686275%,95.686275%);fill-opacity:1;" d="M 179.257812 68.730469 C 179.945312 68.933594 179.945312 68.933594 179.945312 68.933594 Z M 179.257812 68.730469 "/>
<path style=" stroke:none;fill-rule:nonzero;fill:rgb(97.647059%,98.039216%,97.647059%);fill-opacity:1;" d="M 161.792969 58.21875 C 162.019531 58.320312 162.019531 58.320312 162.25 58.421875 C 162.023438 58.519531 162.023438 58.519531 161.792969 58.625 C 161.792969 58.488281 161.792969 58.355469 161.792969 58.21875 Z M 161.792969 58.21875 "/>
<path style=" stroke:none;fill-rule:nonzero;fill:rgb(97.254902%,97.254902%,97.647059%);fill-opacity:1;" d="M 155.125 52.15625 C 155.277344 52.289062 155.429688 52.421875 155.585938 52.558594 C 155.433594 52.558594 155.285156 52.558594 155.125 52.558594 C 155.125 52.425781 155.125 52.292969 155.125 52.15625 Z M 155.125 52.15625 "/>
<path style=" stroke:none;fill-rule:nonzero;fill:rgb(97.647059%,97.647059%,97.647059%);fill-opacity:1;" d="M 154.4375 51.75 C 154.664062 51.851562 154.664062 51.851562 154.898438 51.953125 C 154.667969 52.050781 154.667969 52.050781 154.4375 52.15625 C 154.4375 52.019531 154.4375 51.886719 154.4375 51.75 Z M 154.4375 51.75 "/>
<path style=" stroke:none;fill-rule:nonzero;fill:rgb(95.686275%,95.686275%,95.686275%);fill-opacity:1;" d="M 153.289062 42.453125 C 153.976562 42.652344 153.976562 42.652344 153.976562 42.652344 Z M 153.289062 42.453125 "/>
<path style=" stroke:none;fill-rule:nonzero;fill:rgb(96.470588%,96.862745%,97.254902%);fill-opacity:1;" d="M 128.699219 36.386719 C 128.925781 36.488281 128.925781 36.488281 129.15625 36.589844 C 128.929688 36.6875 128.929688 36.6875 128.699219 36.789062 C 128.699219 36.65625 128.699219 36.523438 128.699219 36.386719 Z M 128.699219 36.386719 "/>
<path style=" stroke:none;fill-rule:nonzero;fill:rgb(96.862745%,96.862745%,97.254902%);fill-opacity:1;" d="M 109.394531 29.917969 C 110.082031 30.121094 110.082031 30.121094 110.082031 30.121094 Z M 109.394531 29.917969 "/>
<path style=" stroke:none;fill-rule:nonzero;fill:rgb(96.470588%,96.862745%,96.862745%);fill-opacity:1;" d="M 96.292969 27.289062 C 96.984375 27.492188 96.984375 27.492188 96.984375 27.492188 Z M 96.292969 27.289062 "/>
<path style=" stroke:none;fill-rule:nonzero;fill:rgb(97.647059%,98.039216%,98.431373%);fill-opacity:1;" d="M 88.019531 26.28125 C 88.171875 26.414062 88.324219 26.546875 88.480469 26.683594 C 88.328125 26.683594 88.175781 26.683594 88.019531 26.683594 C 88.019531 26.550781 88.019531 26.417969 88.019531 26.28125 Z M 88.019531 26.28125 "/>
<path style=" stroke:none;fill-rule:nonzero;fill:rgb(97.254902%,98.039216%,98.431373%);fill-opacity:1;" d="M 87.101562 26.28125 C 87.789062 26.480469 87.789062 26.480469 87.789062 26.480469 Z M 87.101562 26.28125 "/>
<path style=" stroke:none;fill-rule:nonzero;fill:rgb(94.901961%,95.294118%,95.294118%);fill-opacity:1;" d="M 109.394531 22.84375 C 109.621094 22.941406 109.621094 22.941406 109.851562 23.046875 C 109.625 23.144531 109.625 23.144531 109.394531 23.246094 C 109.394531 23.113281 109.394531 22.980469 109.394531 22.84375 Z M 109.394531 22.84375 "/>
<path style=" stroke:none;fill-rule:nonzero;fill:rgb(96.470588%,96.862745%,97.254902%);fill-opacity:1;" d="M 85.492188 20.214844 C 86.179688 20.417969 86.179688 20.417969 86.179688 20.417969 Z M 85.492188 20.214844 "/>
<path style=" stroke:none;fill-rule:nonzero;fill:rgb(48.627451%,48.627451%,49.411765%);fill-opacity:1;" d="M 217.867188 201.542969 C 218.328125 201.742188 218.328125 201.742188 218.328125 201.742188 Z M 217.867188 201.542969 "/>
<path style=" stroke:none;fill-rule:nonzero;fill:rgb(63.137257%,63.137257%,64.313728%);fill-opacity:1;" d="M 250.5 197.902344 C 250.960938 198.105469 250.960938 198.105469 250.960938 198.105469 Z M 250.5 197.902344 "/>
<path style=" stroke:none;fill-rule:nonzero;fill:rgb(70.19608%,70.19608%,71.372551%);fill-opacity:1;" d="M 250.5 188.199219 C 250.960938 188.402344 250.960938 188.402344 250.960938 188.402344 Z M 250.5 188.199219 "/>
<path style=" stroke:none;fill-rule:nonzero;fill:rgb(94.117647%,94.509804%,94.901961%);fill-opacity:1;" d="M 276.242188 187.1875 C 276.699219 187.390625 276.699219 187.390625 276.699219 187.390625 Z M 276.242188 187.1875 "/>
<path style=" stroke:none;fill-rule:nonzero;fill:rgb(54.509807%,54.509807%,55.29412%);fill-opacity:1;" d="M 217.867188 178.902344 C 218.328125 179.101562 218.328125 179.101562 218.328125 179.101562 Z M 217.867188 178.902344 "/>
<path style=" stroke:none;fill-rule:nonzero;fill:rgb(97.254902%,96.862745%,96.862745%);fill-opacity:1;" d="M 267.046875 178.496094 C 267.507812 178.699219 267.507812 178.699219 267.507812 178.699219 Z M 267.046875 178.496094 "/>
<path style=" stroke:none;fill-rule:nonzero;fill:rgb(96.862745%,96.862745%,96.862745%);fill-opacity:1;" d="M 257.855469 170.410156 C 258.316406 170.613281 258.316406 170.613281 258.316406 170.613281 Z M 257.855469 170.410156 "/>
<path style=" stroke:none;fill-rule:nonzero;fill:rgb(98.823529%,98.431373%,98.039216%);fill-opacity:1;" d="M 268.195312 168.792969 C 268.65625 168.996094 268.65625 168.996094 268.65625 168.996094 Z M 268.195312 168.792969 "/>
<path style=" stroke:none;fill-rule:nonzero;fill:rgb(98.431373%,98.039216%,99.215686%);fill-opacity:1;" d="M 261.992188 164.144531 C 262.453125 164.347656 262.453125 164.347656 262.453125 164.347656 Z M 261.992188 164.144531 "/>
<path style=" stroke:none;fill-rule:nonzero;fill:rgb(60.000002%,60.392159%,61.176473%);fill-opacity:1;" d="M 217.867188 162.730469 C 218.328125 162.929688 218.328125 162.929688 218.328125 162.929688 Z M 217.867188 162.730469 "/>
<path style=" stroke:none;fill-rule:nonzero;fill:rgb(98.039216%,98.039216%,98.431373%);fill-opacity:1;" d="M 271.644531 159.898438 C 272.105469 160.101562 272.105469 160.101562 272.105469 160.101562 Z M 271.644531 159.898438 "/>
<path style=" stroke:none;fill-rule:nonzero;fill:rgb(96.470588%,96.862745%,97.254902%);fill-opacity:1;" d="M 253.03125 157.675781 C 253.488281 157.878906 253.488281 157.878906 253.488281 157.878906 Z M 253.03125 157.675781 "/>
<path style=" stroke:none;fill-rule:nonzero;fill:rgb(98.431373%,98.823529%,98.823529%);fill-opacity:1;" d="M 269.578125 156.058594 C 270.035156 156.261719 270.035156 156.261719 270.035156 156.261719 Z M 269.578125 156.058594 "/>
<path style=" stroke:none;fill-rule:nonzero;fill:rgb(95.294118%,95.686275%,95.686275%);fill-opacity:1;" d="M 250.5 155.855469 C 250.960938 156.058594 250.960938 156.058594 250.960938 156.058594 Z M 250.5 155.855469 "/>
<path style=" stroke:none;fill-rule:nonzero;fill:rgb(93.333334%,93.333334%,94.117647%);fill-opacity:1;" d="M 279.6875 147.769531 C 280.148438 147.972656 280.148438 147.972656 280.148438 147.972656 Z M 279.6875 147.769531 "/>
<path style=" stroke:none;fill-rule:nonzero;fill:rgb(67.450982%,67.843139%,68.235296%);fill-opacity:1;" d="M 217.867188 144.941406 C 218.328125 145.140625 218.328125 145.140625 218.328125 145.140625 Z M 217.867188 144.941406 "/>
<path style=" stroke:none;fill-rule:nonzero;fill:rgb(69.803923%,69.803923%,70.588237%);fill-opacity:1;" d="M 217.867188 141.707031 C 218.328125 141.90625 218.328125 141.90625 218.328125 141.90625 Z M 217.867188 141.707031 "/>
<path style=" stroke:none;fill-rule:nonzero;fill:rgb(95.294118%,95.686275%,96.078432%);fill-opacity:1;" d="M 250.5 141.300781 C 250.960938 141.503906 250.960938 141.503906 250.960938 141.503906 Z M 250.5 141.300781 "/>
<path style=" stroke:none;fill-rule:nonzero;fill:rgb(74.509805%,74.901962%,75.294119%);fill-opacity:1;" d="M 217.867188 135.238281 C 218.328125 135.4375 218.328125 135.4375 218.328125 135.4375 Z M 217.867188 135.238281 "/>
<path style=" stroke:none;fill-rule:nonzero;fill:rgb(96.078432%,96.078432%,95.686275%);fill-opacity:1;" d="M 151.21875 132.203125 C 151.679688 132.40625 151.679688 132.40625 151.679688 132.40625 Z M 151.21875 132.203125 "/>
<path style=" stroke:none;fill-rule:nonzero;fill:rgb(96.470588%,96.470588%,96.470588%);fill-opacity:1;" d="M 136.28125 129.980469 C 136.742188 130.183594 136.742188 130.183594 136.742188 130.183594 Z M 136.28125 129.980469 "/>
<path style=" stroke:none;fill-rule:nonzero;fill:rgb(96.862745%,97.647059%,97.647059%);fill-opacity:1;" d="M 240.847656 128.96875 C 241.308594 129.171875 241.308594 129.171875 241.308594 129.171875 Z M 240.847656 128.96875 "/>
<path style=" stroke:none;fill-rule:nonzero;fill:rgb(97.647059%,97.647059%,97.647059%);fill-opacity:1;" d="M 241.308594 128.363281 C 241.769531 128.566406 241.769531 128.566406 241.769531 128.566406 Z M 241.308594 128.363281 "/>
<path style=" stroke:none;fill-rule:nonzero;fill:rgb(98.823529%,98.823529%,98.823529%);fill-opacity:1;" d="M 140.648438 124.726562 C 141.109375 124.929688 141.109375 124.929688 141.109375 124.929688 Z M 140.648438 124.726562 "/>
<path style=" stroke:none;fill-rule:nonzero;fill:rgb(95.294118%,95.686275%,96.078432%);fill-opacity:1;" d="M 125.25 124.117188 C 125.710938 124.320312 125.710938 124.320312 125.710938 124.320312 Z M 125.25 124.117188 "/>
<path style=" stroke:none;fill-rule:nonzero;fill:rgb(98.823529%,98.823529%,99.215686%);fill-opacity:1;" d="M 136.972656 123.3125 C 137.429688 123.511719 137.429688 123.511719 137.429688 123.511719 Z M 136.972656 123.3125 "/>
<path style=" stroke:none;fill-rule:nonzero;fill:rgb(96.862745%,97.647059%,97.254902%);fill-opacity:1;" d="M 232.117188 119.265625 C 232.574219 119.46875 232.574219 119.46875 232.574219 119.46875 Z M 232.117188 119.265625 "/>
<path style=" stroke:none;fill-rule:nonzero;fill:rgb(96.078432%,96.078432%,96.470588%);fill-opacity:1;" d="M 120.195312 119.265625 C 120.65625 119.46875 120.65625 119.46875 120.65625 119.46875 Z M 120.195312 119.265625 "/>
<path style=" stroke:none;fill-rule:nonzero;fill:rgb(96.470588%,96.862745%,97.254902%);fill-opacity:1;" d="M 226.601562 114.414062 C 227.058594 114.617188 227.058594 114.617188 227.058594 114.617188 Z M 226.601562 114.414062 "/>
<path style=" stroke:none;fill-rule:nonzero;fill:rgb(98.431373%,98.431373%,98.431373%);fill-opacity:1;" d="M 124.332031 111.789062 C 124.792969 111.992188 124.792969 111.992188 124.792969 111.992188 Z M 124.332031 111.789062 "/>
<path style=" stroke:none;fill-rule:nonzero;fill:rgb(96.078432%,96.862745%,96.862745%);fill-opacity:1;" d="M 232.574219 110.777344 C 233.035156 110.980469 233.035156 110.980469 233.035156 110.980469 Z M 232.574219 110.777344 "/>
<path style=" stroke:none;fill-rule:nonzero;fill:rgb(97.254902%,97.647059%,98.039216%);fill-opacity:1;" d="M 221.3125 110.574219 C 221.773438 110.777344 221.773438 110.777344 221.773438 110.777344 Z M 221.3125 110.574219 "/>
<path style=" stroke:none;fill-rule:nonzero;fill:rgb(71.372551%,71.372551%,72.549021%);fill-opacity:1;" d="M 250.5 107.339844 C 250.960938 107.542969 250.960938 107.542969 250.960938 107.542969 Z M 250.5 107.339844 "/>
<path style=" stroke:none;fill-rule:nonzero;fill:rgb(97.254902%,97.254902%,98.039216%);fill-opacity:1;" d="M 214.191406 106.328125 C 214.648438 106.53125 214.648438 106.53125 214.648438 106.53125 Z M 214.191406 106.328125 "/>
<path style=" stroke:none;fill-rule:nonzero;fill:rgb(97.254902%,97.254902%,97.647059%);fill-opacity:1;" d="M 212.121094 104.511719 C 212.582031 104.710938 212.582031 104.710938 212.582031 104.710938 Z M 212.121094 104.511719 "/>
<path style=" stroke:none;fill-rule:nonzero;fill:rgb(98.431373%,97.647059%,98.039216%);fill-opacity:1;" d="M 194.65625 96.425781 C 195.117188 96.625 195.117188 96.625 195.117188 96.625 Z M 194.65625 96.425781 "/>
<path style=" stroke:none;fill-rule:nonzero;fill:rgb(96.078432%,96.470588%,95.294118%);fill-opacity:1;" d="M 118.816406 95.820312 C 119.277344 96.019531 119.277344 96.019531 119.277344 96.019531 Z M 118.816406 95.820312 "/>
<path style=" stroke:none;fill-rule:nonzero;fill:rgb(98.039216%,98.823529%,98.823529%);fill-opacity:1;" d="M 191.4375 95.210938 C 191.898438 95.414062 191.898438 95.414062 191.898438 95.414062 Z M 191.4375 95.210938 "/>
<path style=" stroke:none;fill-rule:nonzero;fill:rgb(98.431373%,98.431373%,98.431373%);fill-opacity:1;" d="M 190.058594 94.808594 C 190.519531 95.007812 190.519531 95.007812 190.519531 95.007812 Z M 190.058594 94.808594 "/>
<path style=" stroke:none;fill-rule:nonzero;fill:rgb(99.215686%,98.823529%,98.431373%);fill-opacity:1;" d="M 189.371094 94.605469 C 189.828125 94.808594 189.828125 94.808594 189.828125 94.808594 Z M 189.371094 94.605469 "/>
<path style=" stroke:none;fill-rule:nonzero;fill:rgb(97.647059%,98.039216%,98.039216%);fill-opacity:1;" d="M 180.175781 91.976562 C 180.636719 92.179688 180.636719 92.179688 180.636719 92.179688 Z M 180.175781 91.976562 "/>
<path style=" stroke:none;fill-rule:nonzero;fill:rgb(98.431373%,98.431373%,99.215686%);fill-opacity:1;" d="M 172.824219 90.359375 C 173.28125 90.5625 173.28125 90.5625 173.28125 90.5625 Z M 172.824219 90.359375 "/>
<path style=" stroke:none;fill-rule:nonzero;fill:rgb(98.039216%,98.431373%,98.823529%);fill-opacity:1;" d="M 171.671875 90.15625 C 172.132812 90.359375 172.132812 90.359375 172.132812 90.359375 Z M 171.671875 90.15625 "/>
<path style=" stroke:none;fill-rule:nonzero;fill:rgb(98.039216%,98.039216%,98.431373%);fill-opacity:1;" d="M 170.753906 89.957031 C 171.214844 90.15625 171.214844 90.15625 171.214844 90.15625 Z M 170.753906 89.957031 "/>
<path style=" stroke:none;fill-rule:nonzero;fill:rgb(99.607843%,99.607843%,99.607843%);fill-opacity:1;" d="M 168.457031 89.753906 C 168.914062 89.957031 168.914062 89.957031 168.914062 89.957031 Z M 168.457031 89.753906 "/>
<path style=" stroke:none;fill-rule:nonzero;fill:rgb(52.549022%,52.941179%,54.11765%);fill-opacity:1;" d="M 250.5 89.550781 C 250.960938 89.753906 250.960938 89.753906 250.960938 89.753906 Z M 250.5 89.550781 "/>
<path style=" stroke:none;fill-rule:nonzero;fill:rgb(96.078432%,96.470588%,96.862745%);fill-opacity:1;" d="M 125.480469 89.351562 C 125.941406 89.550781 125.941406 89.550781 125.941406 89.550781 Z M 125.480469 89.351562 "/>
<path style=" stroke:none;fill-rule:nonzero;fill:rgb(98.823529%,98.431373%,98.823529%);fill-opacity:1;" d="M 179.257812 85.304688 C 179.71875 85.507812 179.71875 85.507812 179.71875 85.507812 Z M 179.257812 85.304688 "/>
<path style=" stroke:none;fill-rule:nonzero;fill:rgb(98.431373%,99.215686%,99.215686%);fill-opacity:1;" d="M 164.550781 83.285156 C 165.007812 83.488281 165.007812 83.488281 165.007812 83.488281 Z M 164.550781 83.285156 "/>
<path style=" stroke:none;fill-rule:nonzero;fill:rgb(47.450981%,47.450981%,47.843137%);fill-opacity:1;" d="M 250.5 83.082031 C 250.960938 83.285156 250.960938 83.285156 250.960938 83.285156 Z M 250.5 83.082031 "/>
<path style=" stroke:none;fill-rule:nonzero;fill:rgb(43.529412%,42.745098%,43.921569%);fill-opacity:1;" d="M 250.5 78.230469 C 250.960938 78.433594 250.960938 78.433594 250.960938 78.433594 Z M 250.5 78.230469 "/>
<path style=" stroke:none;fill-rule:nonzero;fill:rgb(40.000001%,40.000001%,40.784314%);fill-opacity:1;" d="M 250.5 73.378906 C 250.960938 73.582031 250.960938 73.582031 250.960938 73.582031 Z M 250.5 73.378906 "/>
<path style=" stroke:none;fill-rule:nonzero;fill:rgb(98.039216%,98.039216%,98.039216%);fill-opacity:1;" d="M 173.28125 72.367188 C 173.742188 72.570312 173.742188 72.570312 173.742188 72.570312 Z M 173.28125 72.367188 "/>
<path style=" stroke:none;fill-rule:nonzero;fill:rgb(98.039216%,98.823529%,98.431373%);fill-opacity:1;" d="M 172.824219 72.167969 C 173.28125 72.367188 173.28125 72.367188 173.28125 72.367188 Z M 172.824219 72.167969 "/>
<path style=" stroke:none;fill-rule:nonzero;fill:rgb(38.431373%,39.215687%,40.000001%);fill-opacity:1;" d="M 250.5 71.761719 C 250.960938 71.964844 250.960938 71.964844 250.960938 71.964844 Z M 250.5 71.761719 "/>
<path style=" stroke:none;fill-rule:nonzero;fill:rgb(98.431373%,97.647059%,98.431373%);fill-opacity:1;" d="M 171.902344 70.347656 C 172.363281 70.550781 172.363281 70.550781 172.363281 70.550781 Z M 171.902344 70.347656 "/>
<path style=" stroke:none;fill-rule:nonzero;fill:rgb(38.431373%,38.039216%,38.82353%);fill-opacity:1;" d="M 250.5 70.144531 C 250.960938 70.347656 250.960938 70.347656 250.960938 70.347656 Z M 250.5 70.144531 "/>
<path style=" stroke:none;fill-rule:nonzero;fill:rgb(98.039216%,98.039216%,98.039216%);fill-opacity:1;" d="M 168.226562 65.496094 C 168.6875 65.699219 168.6875 65.699219 168.6875 65.699219 Z M 168.226562 65.496094 "/>
<path style=" stroke:none;fill-rule:nonzero;fill:rgb(35.686275%,35.294119%,36.470589%);fill-opacity:1;" d="M 250.5 65.292969 C 250.960938 65.496094 250.960938 65.496094 250.960938 65.496094 Z M 250.5 65.292969 "/>
<path style=" stroke:none;fill-rule:nonzero;fill:rgb(34.901962%,34.509805%,35.294119%);fill-opacity:1;" d="M 250.5 63.675781 C 250.960938 63.878906 250.960938 63.878906 250.960938 63.878906 Z M 250.5 63.675781 "/>
<path style=" stroke:none;fill-rule:nonzero;fill:rgb(49.411765%,49.803922%,50.588238%);fill-opacity:1;" d="M 217.867188 62.464844 C 218.328125 62.664062 218.328125 62.664062 218.328125 62.664062 Z M 217.867188 62.464844 "/>
<path style=" stroke:none;fill-rule:nonzero;fill:rgb(97.647059%,98.039216%,97.254902%);fill-opacity:1;" d="M 164.550781 61.046875 C 165.007812 61.25 165.007812 61.25 165.007812 61.25 Z M 164.550781 61.046875 "/>
<path style=" stroke:none;fill-rule:nonzero;fill:rgb(32.549021%,32.549021%,33.333334%);fill-opacity:1;" d="M 250.5 58.824219 C 250.960938 59.027344 250.960938 59.027344 250.960938 59.027344 Z M 250.5 58.824219 "/>
<path style=" stroke:none;fill-rule:nonzero;fill:rgb(31.764707%,30.980393%,31.764707%);fill-opacity:1;" d="M 250.5 55.589844 C 250.960938 55.792969 250.960938 55.792969 250.960938 55.792969 Z M 250.5 55.589844 "/>
<path style=" stroke:none;fill-rule:nonzero;fill:rgb(29.019609%,29.019609%,30.19608%);fill-opacity:1;" d="M 250.5 50.738281 C 250.960938 50.941406 250.960938 50.941406 250.960938 50.941406 Z M 250.5 50.738281 "/>
<path style=" stroke:none;fill-rule:nonzero;fill:rgb(28.235295%,28.235295%,29.411766%);fill-opacity:1;" d="M 250.5 49.121094 C 250.960938 49.324219 250.960938 49.324219 250.960938 49.324219 Z M 250.5 49.121094 "/>
<path style=" stroke:none;fill-rule:nonzero;fill:rgb(97.647059%,98.039216%,98.431373%);fill-opacity:1;" d="M 150.992188 49.121094 C 151.449219 49.324219 151.449219 49.324219 151.449219 49.324219 Z M 150.992188 49.121094 "/>
<path style=" stroke:none;fill-rule:nonzero;fill:rgb(27.843139%,27.843139%,29.019609%);fill-opacity:1;" d="M 250.5 47.503906 C 250.960938 47.707031 250.960938 47.707031 250.960938 47.707031 Z M 250.5 47.503906 "/>
<path style=" stroke:none;fill-rule:nonzero;fill:rgb(95.294118%,96.078432%,96.078432%);fill-opacity:1;" d="M 155.585938 44.472656 C 156.046875 44.675781 156.046875 44.675781 156.046875 44.675781 Z M 155.585938 44.472656 "/>
<path style=" stroke:none;fill-rule:nonzero;fill:rgb(96.078432%,95.686275%,96.470588%);fill-opacity:1;" d="M 153.519531 42.855469 C 153.976562 43.058594 153.976562 43.058594 153.976562 43.058594 Z M 153.519531 42.855469 "/>
<path style=" stroke:none;fill-rule:nonzero;fill:rgb(25.882354%,26.274511%,27.058825%);fill-opacity:1;" d="M 250.5 42.652344 C 250.960938 42.855469 250.960938 42.855469 250.960938 42.855469 Z M 250.5 42.652344 "/>
<path style=" stroke:none;fill-rule:nonzero;fill:rgb(96.862745%,96.470588%,96.470588%);fill-opacity:1;" d="M 147.082031 38.8125 C 147.542969 39.015625 147.542969 39.015625 147.542969 39.015625 Z M 147.082031 38.8125 "/>
<path style=" stroke:none;fill-rule:nonzero;fill:rgb(94.509804%,94.117647%,94.901961%);fill-opacity:1;" d="M 146.394531 37.398438 C 146.851562 37.601562 146.851562 37.601562 146.851562 37.601562 Z M 146.394531 37.398438 "/>
<path style=" stroke:none;fill-rule:nonzero;fill:rgb(96.862745%,96.862745%,97.254902%);fill-opacity:1;" d="M 129.15625 36.589844 C 129.617188 36.789062 129.617188 36.789062 129.617188 36.789062 Z M 129.15625 36.589844 "/>
<path style=" stroke:none;fill-rule:nonzero;fill:rgb(23.921569%,23.921569%,24.705882%);fill-opacity:1;" d="M 250.5 36.183594 C 250.960938 36.386719 250.960938 36.386719 250.960938 36.386719 Z M 250.5 36.183594 "/>
<path style=" stroke:none;fill-rule:nonzero;fill:rgb(97.254902%,96.862745%,97.254902%);fill-opacity:1;" d="M 119.734375 32.949219 C 120.195312 33.152344 120.195312 33.152344 120.195312 33.152344 Z M 119.734375 32.949219 "/>
<path style=" stroke:none;fill-rule:nonzero;fill:rgb(96.078432%,96.862745%,96.862745%);fill-opacity:1;" d="M 117.667969 32.140625 C 118.125 32.34375 118.125 32.34375 118.125 32.34375 Z M 117.667969 32.140625 "/>
<path style=" stroke:none;fill-rule:nonzero;fill:rgb(97.254902%,97.254902%,97.254902%);fill-opacity:1;" d="M 105.714844 28.90625 C 106.175781 29.109375 106.175781 29.109375 106.175781 29.109375 Z M 105.714844 28.90625 "/>
<path style=" stroke:none;fill-rule:nonzero;fill:rgb(96.862745%,96.862745%,98.039216%);fill-opacity:1;" d="M 88.710938 26.480469 C 89.167969 26.683594 89.167969 26.683594 89.167969 26.683594 Z M 88.710938 26.480469 "/>
<path style=" stroke:none;fill-rule:nonzero;fill:rgb(92.54902%,93.333334%,92.941177%);fill-opacity:1;" d="M 74.691406 25.671875 C 75.152344 25.875 75.152344 25.875 75.152344 25.875 Z M 74.691406 25.671875 "/>
<path style=" stroke:none;fill-rule:nonzero;fill:rgb(96.078432%,96.078432%,96.470588%);fill-opacity:1;" d="M 113.757812 24.664062 C 114.21875 24.863281 114.21875 24.863281 114.21875 24.863281 Z M 113.757812 24.664062 "/>
<path style=" stroke:none;fill-rule:nonzero;fill:rgb(96.078432%,96.470588%,96.470588%);fill-opacity:1;" d="M 109.851562 23.652344 C 110.3125 23.851562 110.3125 23.851562 110.3125 23.851562 Z M 109.851562 23.652344 "/>
<path style=" stroke:none;fill-rule:nonzero;fill:rgb(94.901961%,95.686275%,96.078432%);fill-opacity:1;" d="M 107.785156 23.246094 C 108.246094 23.449219 108.246094 23.449219 108.246094 23.449219 Z M 107.785156 23.246094 "/>
<path style=" stroke:none;fill-rule:nonzero;fill:rgb(95.686275%,96.078432%,96.078432%);fill-opacity:1;" d="M 98.820312 21.628906 C 99.28125 21.832031 99.28125 21.832031 99.28125 21.832031 Z M 98.820312 21.628906 "/>
<path style=" stroke:none;fill-rule:nonzero;fill:rgb(95.686275%,96.862745%,96.078432%);fill-opacity:1;" d="M 82.273438 20.011719 C 82.734375 20.214844 82.734375 20.214844 82.734375 20.214844 Z M 82.273438 20.011719 "/>
<path style=" stroke:none;fill-rule:nonzero;fill:rgb(20.784314%,21.176471%,22.352941%);fill-opacity:1;" d="M 229.128906 18.394531 C 229.585938 18.597656 229.585938 18.597656 229.585938 18.597656 Z M 229.128906 18.394531 "/>
<path style=" stroke:none;fill-rule:nonzero;fill:rgb(18.431373%,18.82353%,19.215687%);fill-opacity:1;" d="M 250.5 11.925781 C 250.960938 12.128906 250.960938 12.128906 250.960938 12.128906 Z M 250.5 11.925781 "/>
<path style=" stroke:none;fill-rule:nonzero;fill:rgb(18.431373%,18.431373%,19.607843%);fill-opacity:1;" d="M 250.5 8.691406 C 250.960938 8.894531 250.960938 8.894531 250.960938 8.894531 Z M 250.5 8.691406 "/>
<path style=" stroke:none;fill-rule:nonzero;fill:rgb(18.431373%,18.039216%,19.215687%);fill-opacity:1;" d="M 250.5 7.074219 C 250.960938 7.277344 250.960938 7.277344 250.960938 7.277344 Z M 250.5 7.074219 "/>
<path style=" stroke:none;fill-rule:nonzero;fill:rgb(18.039216%,18.039216%,19.215687%);fill-opacity:1;" d="M 250.5 5.457031 C 250.960938 5.660156 250.960938 5.660156 250.960938 5.660156 Z M 250.5 5.457031 "/>
</g>
</svg>
