<?xml version="1.0" encoding="UTF-8"?>
<svg xmlns="http://www.w3.org/2000/svg" xmlns:xlink="http://www.w3.org/1999/xlink" width="259px" height="182px" viewBox="0 0 259 182" version="1.1">
<g id="surface1">
<path style=" stroke:none;fill-rule:nonzero;fill:rgb(15.686275%,9.411765%,99.215686%);fill-opacity:1;" d="M 133.175781 83.867188 C 133.800781 83.867188 134.425781 83.867188 135.050781 83.867188 C 136.105469 83.867188 137.15625 83.867188 138.207031 83.867188 C 139.269531 83.867188 140.328125 83.867188 141.386719 83.867188 C 147.316406 83.863281 153.246094 83.894531 159.175781 84.035156 C 162.011719 84.101562 164.84375 84.132812 167.675781 84.167969 C 168.503906 84.175781 169.328125 84.1875 170.15625 84.199219 C 170.804688 84.210938 171.453125 84.21875 172.101562 84.226562 C 172.40625 84.230469 172.710938 84.234375 173.015625 84.238281 C 173.4375 84.242188 173.855469 84.25 174.273438 84.253906 C 174.457031 84.253906 174.457031 84.253906 174.648438 84.257812 C 175.28125 84.277344 175.28125 84.277344 175.871094 84.066406 C 175.871094 84.1875 175.871094 84.304688 175.871094 84.421875 C 176.101562 84.421875 176.101562 84.421875 176.335938 84.421875 C 186.1875 84.398438 196.035156 84.476562 205.886719 84.714844 C 208.246094 84.769531 210.605469 84.796875 212.964844 84.773438 C 213.265625 84.769531 213.265625 84.769531 213.570312 84.769531 C 213.746094 84.765625 213.917969 84.765625 214.097656 84.761719 C 214.484375 84.777344 214.484375 84.777344 214.652344 84.957031 C 214.886719 84.988281 215.125 85.003906 215.359375 85.019531 C 215.507812 85.027344 215.660156 85.035156 215.816406 85.042969 C 215.980469 85.054688 216.144531 85.0625 216.316406 85.074219 C 216.667969 85.09375 217.019531 85.113281 217.371094 85.136719 C 217.925781 85.167969 218.476562 85.199219 219.03125 85.230469 C 220.921875 85.339844 222.800781 85.464844 224.679688 85.742188 C 224.816406 85.761719 224.953125 85.78125 225.097656 85.800781 C 226.355469 86 227.785156 86.257812 228.816406 87.089844 C 228.816406 87.207031 228.816406 87.324219 228.816406 87.445312 C 228.929688 87.445312 229.039062 87.445312 229.15625 87.445312 C 229.550781 88.097656 229.59375 88.640625 229.492188 89.398438 C 228.484375 90.511719 227.40625 90.796875 225.984375 90.84375 C 225.75 90.84375 225.515625 90.839844 225.28125 90.839844 C 225.152344 90.835938 225.027344 90.835938 224.898438 90.835938 C 223.707031 90.828125 222.523438 90.789062 221.335938 90.746094 C 218.300781 90.640625 215.265625 90.59375 212.230469 90.542969 C 212.105469 90.542969 211.980469 90.539062 211.851562 90.539062 C 209.03125 90.496094 206.207031 90.453125 203.386719 90.464844 C 201.042969 90.476562 198.703125 90.445312 196.363281 90.402344 C 185.285156 90.195312 174.210938 90.09375 163.128906 90.089844 C 162.40625 90.089844 161.679688 90.089844 160.957031 90.089844 C 153.671875 90.082031 146.414062 90.167969 139.140625 90.621094 C 138.484375 90.660156 137.832031 90.699219 137.179688 90.742188 C 137.050781 90.75 136.921875 90.757812 136.789062 90.765625 C 136.535156 90.78125 136.277344 90.796875 136.019531 90.808594 C 135.769531 90.824219 135.519531 90.839844 135.265625 90.855469 C 131.871094 91.0625 128.476562 91.210938 125.074219 91.324219 C 121.988281 91.421875 118.90625 91.53125 115.824219 91.710938 C 109.675781 92.0625 103.472656 92.050781 97.328125 91.621094 C 91.1875 91.195312 85.066406 91.347656 78.921875 91.535156 C 72.324219 91.734375 65.722656 91.796875 59.121094 91.855469 C 55.886719 91.882812 52.652344 91.925781 49.417969 91.96875 C 41.371094 92.085938 41.371094 92.085938 37.386719 92.097656 C 37.03125 92.097656 36.675781 92.101562 36.320312 92.101562 C 35.847656 92.105469 35.371094 92.105469 34.898438 92.105469 C 34.699219 92.109375 34.699219 92.109375 34.496094 92.109375 C 32.828125 92.105469 31.601562 91.765625 30.382812 90.511719 C 29.914062 89.773438 29.859375 89.394531 29.847656 88.511719 C 30.007812 87.878906 30.273438 87.398438 30.6875 86.910156 C 31.984375 86.140625 33.46875 85.816406 34.933594 85.65625 C 35.066406 85.640625 35.195312 85.628906 35.332031 85.613281 C 36.90625 85.445312 38.480469 85.375 40.058594 85.3125 C 40.226562 85.304688 40.398438 85.296875 40.574219 85.292969 C 45.996094 85.070312 51.425781 84.972656 56.851562 84.851562 C 58.847656 84.808594 60.847656 84.757812 62.847656 84.703125 C 66.773438 84.597656 70.703125 84.507812 74.628906 84.429688 C 75.699219 84.40625 76.769531 84.386719 77.839844 84.363281 C 83.160156 84.238281 88.449219 84.203125 93.761719 84.660156 C 94.085938 84.6875 94.085938 84.6875 94.417969 84.714844 C 94.609375 84.730469 94.796875 84.746094 94.992188 84.765625 C 95.472656 84.777344 95.894531 84.753906 96.371094 84.699219 C 97.503906 84.566406 98.636719 84.554688 99.773438 84.535156 C 100.019531 84.53125 100.265625 84.523438 100.511719 84.519531 C 101.039062 84.507812 101.566406 84.5 102.09375 84.488281 C 102.933594 84.472656 103.777344 84.457031 104.617188 84.441406 C 105.949219 84.414062 107.285156 84.386719 108.621094 84.363281 C 110.996094 84.316406 113.371094 84.269531 115.746094 84.222656 C 116.574219 84.203125 117.402344 84.1875 118.234375 84.171875 C 118.878906 84.160156 119.527344 84.148438 120.175781 84.132812 C 120.300781 84.132812 120.425781 84.128906 120.554688 84.128906 C 122.257812 84.09375 123.960938 84.039062 125.664062 83.972656 C 128.167969 83.878906 130.671875 83.863281 133.175781 83.867188 Z M 133.175781 83.867188 "/>
<path style=" stroke:none;fill-rule:nonzero;fill:rgb(22.352941%,14.509805%,96.470588%);fill-opacity:1;" d="M 192.902344 84.601562 C 197.175781 84.582031 201.445312 84.59375 205.71875 84.703125 C 208.132812 84.765625 210.546875 84.796875 212.964844 84.773438 C 213.265625 84.769531 213.265625 84.769531 213.570312 84.769531 C 213.746094 84.765625 213.917969 84.765625 214.097656 84.761719 C 214.484375 84.78125 214.484375 84.78125 214.652344 84.957031 C 215.050781 85 215.445312 85.03125 215.84375 85.058594 C 216.171875 85.078125 216.171875 85.078125 216.503906 85.101562 C 216.757812 85.117188 216.757812 85.117188 217.015625 85.132812 C 217.015625 85.195312 217.015625 85.253906 217.015625 85.3125 C 214.117188 85.332031 211.226562 85.277344 208.332031 85.195312 C 207.882812 85.183594 207.433594 85.171875 206.984375 85.160156 C 205.9375 85.132812 204.890625 85.105469 203.84375 85.074219 C 202.648438 85.042969 201.453125 85.011719 200.257812 84.976562 C 197.804688 84.914062 195.351562 84.847656 192.902344 84.78125 C 192.902344 84.71875 192.902344 84.660156 192.902344 84.601562 Z M 192.902344 84.601562 "/>
<path style=" stroke:none;fill-rule:nonzero;fill:rgb(24.705882%,16.470589%,96.862745%);fill-opacity:1;" d="M 214.484375 84.78125 C 214.539062 84.839844 214.59375 84.898438 214.652344 84.957031 C 215.050781 85 215.445312 85.03125 215.84375 85.058594 C 216.0625 85.070312 216.277344 85.085938 216.503906 85.101562 C 216.757812 85.117188 216.757812 85.117188 217.015625 85.132812 C 217.015625 85.195312 217.015625 85.253906 217.015625 85.3125 C 216.40625 85.316406 215.796875 85.320312 215.191406 85.324219 C 215.019531 85.324219 214.851562 85.328125 214.675781 85.328125 C 213.535156 85.332031 212.414062 85.265625 211.28125 85.132812 C 211.28125 85.074219 211.28125 85.015625 211.28125 84.957031 C 212.355469 84.824219 213.402344 84.742188 214.484375 84.78125 Z M 214.484375 84.78125 "/>
<path style=" stroke:none;fill-rule:nonzero;fill:rgb(23.921569%,16.470589%,95.686275%);fill-opacity:1;" d="M 163.222656 83.890625 C 163.503906 83.890625 163.78125 83.890625 164.066406 83.890625 C 164.066406 83.949219 164.066406 84.007812 164.066406 84.070312 C 163.789062 84.070312 163.511719 84.070312 163.222656 84.070312 C 163.222656 84.007812 163.222656 83.949219 163.222656 83.890625 Z M 163.222656 83.890625 "/>
<path style=" stroke:none;fill-rule:nonzero;fill:rgb(60.392159%,56.078434%,75.294119%);fill-opacity:1;" d="M 176.039062 174 C 176.148438 174.121094 176.261719 174.238281 176.375 174.359375 C 176.265625 174.359375 176.152344 174.359375 176.039062 174.359375 C 176.039062 174.238281 176.039062 174.121094 176.039062 174 Z M 176.039062 174 "/>
<path style=" stroke:none;fill-rule:nonzero;fill:rgb(43.921569%,38.82353%,56.470591%);fill-opacity:1;" d="M 159.851562 37.859375 C 160.019531 37.945312 160.019531 37.945312 160.1875 38.035156 C 160.023438 38.125 160.023438 38.125 159.851562 38.210938 C 159.851562 38.09375 159.851562 37.976562 159.851562 37.859375 Z M 159.851562 37.859375 "/>
<path style=" stroke:none;fill-rule:nonzero;fill:rgb(47.843137%,42.352942%,56.078434%);fill-opacity:1;" d="M 175.871094 13.6875 C 176.375 13.863281 176.375 13.863281 176.375 13.863281 Z M 175.871094 13.6875 "/>
<path style=" stroke:none;fill-rule:nonzero;fill:rgb(47.843137%,42.352942%,56.470591%);fill-opacity:1;" d="M 176.039062 9.421875 C 176.207031 9.507812 176.207031 9.507812 176.375 9.597656 C 176.210938 9.6875 176.210938 9.6875 176.039062 9.773438 C 176.039062 9.65625 176.039062 9.539062 176.039062 9.421875 Z M 176.039062 9.421875 "/>
<path style=" stroke:none;fill-rule:nonzero;fill:rgb(49.411765%,43.529412%,58.431375%);fill-opacity:1;" d="M 183.796875 7.640625 C 183.90625 7.640625 184.019531 7.640625 184.132812 7.640625 C 184.078125 7.761719 184.023438 7.878906 183.964844 8 C 183.910156 7.878906 183.851562 7.761719 183.796875 7.640625 Z M 183.796875 7.640625 "/>
<path style=" stroke:none;fill-rule:nonzero;fill:rgb(60.784316%,56.078434%,75.294119%);fill-opacity:1;" d="M 159.851562 181.46875 C 160.1875 181.644531 160.1875 181.644531 160.1875 181.644531 Z M 159.851562 181.46875 "/>
<path style=" stroke:none;fill-rule:nonzero;fill:rgb(60.392159%,56.470591%,75.294119%);fill-opacity:1;" d="M 159.851562 180.046875 C 160.1875 180.222656 160.1875 180.222656 160.1875 180.222656 Z M 159.851562 180.046875 "/>
<path style=" stroke:none;fill-rule:nonzero;fill:rgb(60.784316%,56.078434%,75.294119%);fill-opacity:1;" d="M 159.851562 177.203125 C 160.1875 177.378906 160.1875 177.378906 160.1875 177.378906 Z M 159.851562 177.203125 "/>
<path style=" stroke:none;fill-rule:nonzero;fill:rgb(59.607846%,55.29412%,74.509805%);fill-opacity:1;" d="M 159.851562 170.09375 C 160.1875 170.269531 160.1875 170.269531 160.1875 170.269531 Z M 159.851562 170.09375 "/>
<path style=" stroke:none;fill-rule:nonzero;fill:rgb(60.000002%,55.686277%,74.901962%);fill-opacity:1;" d="M 183.796875 169.734375 C 184.132812 169.914062 184.132812 169.914062 184.132812 169.914062 Z M 183.796875 169.734375 "/>
<path style=" stroke:none;fill-rule:nonzero;fill:rgb(58.039218%,54.11765%,72.549021%);fill-opacity:1;" d="M 159.851562 164.40625 C 160.1875 164.582031 160.1875 164.582031 160.1875 164.582031 Z M 159.851562 164.40625 "/>
<path style=" stroke:none;fill-rule:nonzero;fill:rgb(56.470591%,51.764709%,70.588237%);fill-opacity:1;" d="M 159.851562 157.296875 C 160.1875 157.472656 160.1875 157.472656 160.1875 157.472656 Z M 159.851562 157.296875 "/>
<path style=" stroke:none;fill-rule:nonzero;fill:rgb(55.29412%,51.372552%,69.411767%);fill-opacity:1;" d="M 176.039062 153.207031 C 176.375 153.382812 176.375 153.382812 176.375 153.382812 Z M 176.039062 153.207031 "/>
<path style=" stroke:none;fill-rule:nonzero;fill:rgb(54.901963%,50.196081%,69.01961%);fill-opacity:1;" d="M 159.851562 153.03125 C 160.1875 153.207031 160.1875 153.207031 160.1875 153.207031 Z M 159.851562 153.03125 "/>
<path style=" stroke:none;fill-rule:nonzero;fill:rgb(54.11765%,49.803922%,67.843139%);fill-opacity:1;" d="M 159.851562 151.609375 C 160.1875 151.785156 160.1875 151.785156 160.1875 151.785156 Z M 159.851562 151.609375 "/>
<path style=" stroke:none;fill-rule:nonzero;fill:rgb(54.11765%,50.196081%,68.627453%);fill-opacity:1;" d="M 175.703125 150.1875 C 176.039062 150.363281 176.039062 150.363281 176.039062 150.363281 Z M 175.703125 150.1875 "/>
<path style=" stroke:none;fill-rule:nonzero;fill:rgb(52.941179%,49.019608%,67.450982%);fill-opacity:1;" d="M 175.703125 147.34375 C 176.039062 147.519531 176.039062 147.519531 176.039062 147.519531 Z M 175.703125 147.34375 "/>
<path style=" stroke:none;fill-rule:nonzero;fill:rgb(52.156866%,47.450981%,65.490198%);fill-opacity:1;" d="M 168.113281 145.921875 C 168.453125 146.097656 168.453125 146.097656 168.453125 146.097656 Z M 168.113281 145.921875 "/>
<path style=" stroke:none;fill-rule:nonzero;fill:rgb(51.764709%,46.666667%,65.490198%);fill-opacity:1;" d="M 159.851562 145.921875 C 160.1875 146.097656 160.1875 146.097656 160.1875 146.097656 Z M 159.851562 145.921875 "/>
<path style=" stroke:none;fill-rule:nonzero;fill:rgb(50.196081%,45.490196%,63.921571%);fill-opacity:1;" d="M 159.851562 143.078125 C 160.1875 143.253906 160.1875 143.253906 160.1875 143.253906 Z M 159.851562 143.078125 "/>
<path style=" stroke:none;fill-rule:nonzero;fill:rgb(50.588238%,46.27451%,64.313728%);fill-opacity:1;" d="M 176.039062 141.832031 C 176.375 142.007812 176.375 142.007812 176.375 142.007812 Z M 176.039062 141.832031 "/>
<path style=" stroke:none;fill-rule:nonzero;fill:rgb(49.803922%,44.705883%,63.137257%);fill-opacity:1;" d="M 159.851562 141.65625 C 160.1875 141.832031 160.1875 141.832031 160.1875 141.832031 Z M 159.851562 141.65625 "/>
<path style=" stroke:none;fill-rule:nonzero;fill:rgb(50.980395%,45.882353%,65.098041%);fill-opacity:1;" d="M 183.796875 141.296875 C 184.132812 141.476562 184.132812 141.476562 184.132812 141.476562 Z M 183.796875 141.296875 "/>
<path style=" stroke:none;fill-rule:nonzero;fill:rgb(48.627451%,43.137255%,62.352943%);fill-opacity:1;" d="M 159.851562 138.8125 C 160.1875 138.988281 160.1875 138.988281 160.1875 138.988281 Z M 159.851562 138.8125 "/>
<path style=" stroke:none;fill-rule:nonzero;fill:rgb(46.666667%,41.960785%,60.784316%);fill-opacity:1;" d="M 159.851562 135.96875 C 160.1875 136.144531 160.1875 136.144531 160.1875 136.144531 Z M 159.851562 135.96875 "/>
<path style=" stroke:none;fill-rule:nonzero;fill:rgb(44.705883%,39.607844%,61.176473%);fill-opacity:1;" d="M 183.796875 129.921875 C 184.132812 130.101562 184.132812 130.101562 184.132812 130.101562 Z M 183.796875 129.921875 "/>
<path style=" stroke:none;fill-rule:nonzero;fill:rgb(42.352942%,37.64706%,58.823532%);fill-opacity:1;" d="M 159.851562 128.859375 C 160.1875 129.035156 160.1875 129.035156 160.1875 129.035156 Z M 159.851562 128.859375 "/>
<path style=" stroke:none;fill-rule:nonzero;fill:rgb(41.176471%,36.862746%,58.431375%);fill-opacity:1;" d="M 159.851562 127.4375 C 160.1875 127.613281 160.1875 127.613281 160.1875 127.613281 Z M 159.851562 127.4375 "/>
<path style=" stroke:none;fill-rule:nonzero;fill:rgb(42.745098%,37.64706%,60.392159%);fill-opacity:1;" d="M 183.796875 127.078125 C 184.132812 127.257812 184.132812 127.257812 184.132812 127.257812 Z M 183.796875 127.078125 "/>
<path style=" stroke:none;fill-rule:nonzero;fill:rgb(40.000001%,34.509805%,58.431375%);fill-opacity:1;" d="M 159.851562 124.59375 C 160.1875 124.769531 160.1875 124.769531 160.1875 124.769531 Z M 159.851562 124.59375 "/>
<path style=" stroke:none;fill-rule:nonzero;fill:rgb(41.176471%,36.078432%,60.392159%);fill-opacity:1;" d="M 183.796875 124.234375 C 184.132812 124.414062 184.132812 124.414062 184.132812 124.414062 Z M 183.796875 124.234375 "/>
<path style=" stroke:none;fill-rule:nonzero;fill:rgb(36.862746%,31.37255%,59.215689%);fill-opacity:1;" d="M 159.851562 118.90625 C 160.1875 119.082031 160.1875 119.082031 160.1875 119.082031 Z M 159.851562 118.90625 "/>
<path style=" stroke:none;fill-rule:nonzero;fill:rgb(38.039216%,32.156864%,61.176473%);fill-opacity:1;" d="M 183.796875 118.546875 C 184.132812 118.726562 184.132812 118.726562 184.132812 118.726562 Z M 183.796875 118.546875 "/>
<path style=" stroke:none;fill-rule:nonzero;fill:rgb(36.470589%,30.980393%,60.392159%);fill-opacity:1;" d="M 175.871094 117.484375 C 176.207031 117.660156 176.207031 117.660156 176.207031 117.660156 Z M 175.871094 117.484375 "/>
<path style=" stroke:none;fill-rule:nonzero;fill:rgb(35.686275%,30.588236%,59.215689%);fill-opacity:1;" d="M 159.851562 117.484375 C 160.1875 117.660156 160.1875 117.660156 160.1875 117.660156 Z M 159.851562 117.484375 "/>
<path style=" stroke:none;fill-rule:nonzero;fill:rgb(23.921569%,15.294118%,97.254902%);fill-opacity:1;" d="M 202.175781 90.46875 C 202.511719 90.644531 202.511719 90.644531 202.511719 90.644531 Z M 202.175781 90.46875 "/>
<path style=" stroke:none;fill-rule:nonzero;fill:rgb(27.058825%,20%,93.725491%);fill-opacity:1;" d="M 35.410156 85.3125 C 35.746094 85.492188 35.746094 85.492188 35.746094 85.492188 Z M 35.410156 85.3125 "/>
<path style=" stroke:none;fill-rule:nonzero;fill:rgb(39.215687%,34.509805%,61.960787%);fill-opacity:1;" d="M 159.851562 54.921875 C 160.1875 55.097656 160.1875 55.097656 160.1875 55.097656 Z M 159.851562 54.921875 "/>
<path style=" stroke:none;fill-rule:nonzero;fill:rgb(41.960785%,36.862746%,61.176473%);fill-opacity:1;" d="M 183.796875 51.71875 C 184.132812 51.898438 184.132812 51.898438 184.132812 51.898438 Z M 183.796875 51.71875 "/>
<path style=" stroke:none;fill-rule:nonzero;fill:rgb(44.313726%,38.82353%,59.607846%);fill-opacity:1;" d="M 183.796875 44.609375 C 184.132812 44.789062 184.132812 44.789062 184.132812 44.789062 Z M 183.796875 44.609375 "/>
<path style=" stroke:none;fill-rule:nonzero;fill:rgb(44.705883%,39.607844%,54.901963%);fill-opacity:1;" d="M 159.851562 29.328125 C 160.1875 29.503906 160.1875 29.503906 160.1875 29.503906 Z M 159.851562 29.328125 "/>
<path style=" stroke:none;fill-rule:nonzero;fill:rgb(46.666667%,41.960785%,56.862748%);fill-opacity:1;" d="M 175.703125 27.90625 C 176.039062 28.082031 176.039062 28.082031 176.039062 28.082031 Z M 175.703125 27.90625 "/>
<path style=" stroke:none;fill-rule:nonzero;fill:rgb(45.490196%,40.000001%,54.509807%);fill-opacity:1;" d="M 159.851562 26.484375 C 160.1875 26.660156 160.1875 26.660156 160.1875 26.660156 Z M 159.851562 26.484375 "/>
<path style=" stroke:none;fill-rule:nonzero;fill:rgb(45.490196%,40.392157%,54.509807%);fill-opacity:1;" d="M 159.851562 20.796875 C 160.1875 20.972656 160.1875 20.972656 160.1875 20.972656 Z M 159.851562 20.796875 "/>
<path style=" stroke:none;fill-rule:nonzero;fill:rgb(47.058824%,41.176471%,55.29412%);fill-opacity:1;" d="M 167.945312 17.953125 C 168.28125 18.128906 168.28125 18.128906 168.28125 18.128906 Z M 167.945312 17.953125 "/>
<path style=" stroke:none;fill-rule:nonzero;fill:rgb(45.882353%,40.392157%,54.11765%);fill-opacity:1;" d="M 159.851562 15.109375 C 160.1875 15.285156 160.1875 15.285156 160.1875 15.285156 Z M 159.851562 15.109375 "/>
<path style=" stroke:none;fill-rule:nonzero;fill:rgb(49.411765%,43.529412%,58.039218%);fill-opacity:1;" d="M 183.796875 10.484375 C 184.132812 10.664062 184.132812 10.664062 184.132812 10.664062 Z M 183.796875 10.484375 "/>
<path style=" stroke:none;fill-rule:nonzero;fill:rgb(46.27451%,40.784314%,54.509807%);fill-opacity:1;" d="M 159.851562 6.578125 C 160.1875 6.753906 160.1875 6.753906 160.1875 6.753906 Z M 159.851562 6.578125 "/>
<path style=" stroke:none;fill-rule:nonzero;fill:rgb(49.411765%,43.529412%,58.823532%);fill-opacity:1;" d="M 183.796875 6.21875 C 184.132812 6.398438 184.132812 6.398438 184.132812 6.398438 Z M 183.796875 6.21875 "/>
<path style=" stroke:none;fill-rule:nonzero;fill:rgb(47.450981%,41.960785%,56.470591%);fill-opacity:1;" d="M 168.28125 6.21875 C 168.621094 6.398438 168.621094 6.398438 168.621094 6.398438 Z M 168.28125 6.21875 "/>
<path style=" stroke:none;fill-rule:nonzero;fill:rgb(49.411765%,43.921569%,59.215689%);fill-opacity:1;" d="M 183.796875 4.796875 C 184.132812 4.976562 184.132812 4.976562 184.132812 4.976562 Z M 183.796875 4.796875 "/>
<path style=" stroke:none;fill-rule:nonzero;fill:rgb(46.666667%,41.176471%,54.509807%);fill-opacity:1;" d="M 159.851562 3.734375 C 160.1875 3.910156 160.1875 3.910156 160.1875 3.910156 Z M 159.851562 3.734375 "/>
<path style=" stroke:none;fill-rule:nonzero;fill:rgb(46.666667%,41.176471%,54.509807%);fill-opacity:1;" d="M 159.851562 2.3125 C 160.1875 2.488281 160.1875 2.488281 160.1875 2.488281 Z M 159.851562 2.3125 "/>
<path style=" stroke:none;fill-rule:nonzero;fill:rgb(49.803922%,43.921569%,59.215689%);fill-opacity:1;" d="M 183.796875 1.953125 C 184.132812 2.132812 184.132812 2.132812 184.132812 2.132812 Z M 183.796875 1.953125 "/>
<path style=" stroke:none;fill-rule:nonzero;fill:rgb(46.666667%,41.176471%,54.901963%);fill-opacity:1;" d="M 159.851562 0.890625 C 160.1875 1.066406 160.1875 1.066406 160.1875 1.066406 Z M 159.851562 0.890625 "/>
</g>
</svg>
