<?xml version="1.0" encoding="UTF-8"?>
<svg xmlns="http://www.w3.org/2000/svg" xmlns:xlink="http://www.w3.org/1999/xlink" width="241px" height="194px" viewBox="0 0 241 194" version="1.1">
<g id="surface1">
<path style=" stroke:none;fill-rule:nonzero;fill:rgb(99.607843%,99.607843%,99.607843%);fill-opacity:1;" d="M 196.929688 60.105469 C 197.058594 60.117188 197.183594 60.128906 197.3125 60.144531 C 203.742188 60.804688 210.039062 62.824219 215.109375 67.824219 C 215.265625 67.972656 215.421875 68.117188 215.582031 68.269531 C 216.46875 69.117188 217.234375 69.976562 217.9375 71.046875 C 218.054688 71.222656 218.175781 71.398438 218.300781 71.582031 C 222.214844 77.414062 223.539062 84.789062 222.953125 92.148438 C 222.5 97.332031 221.433594 102.359375 219.503906 107.039062 C 219.4375 107.207031 219.371094 107.375 219.300781 107.546875 C 218.265625 110.128906 217.085938 112.441406 215.613281 114.695312 C 215.414062 114.996094 215.414062 114.996094 215.269531 115.375 C 215.164062 115.375 215.0625 115.375 214.953125 115.375 C 214.910156 115.488281 214.871094 115.601562 214.824219 115.71875 C 214.644531 116.128906 214.453125 116.417969 214.191406 116.757812 C 214.101562 116.871094 214.011719 116.988281 213.917969 117.105469 C 213.777344 117.289062 213.777344 117.289062 213.628906 117.472656 C 213.480469 117.660156 213.480469 117.660156 213.332031 117.855469 C 213.035156 118.230469 212.742188 118.601562 212.445312 118.976562 C 212.363281 119.078125 212.285156 119.179688 212.203125 119.28125 C 203.332031 130.589844 188.261719 135.148438 176.085938 138.238281 C 175.46875 138.394531 174.851562 138.554688 174.234375 138.722656 C 160.164062 142.4375 160.164062 142.4375 156.742188 140.007812 C 156.375 139.515625 156.273438 139.355469 156.273438 138.679688 C 156.167969 138.617188 156.066406 138.554688 155.960938 138.492188 C 156.023438 138.21875 156.089844 137.945312 156.15625 137.671875 C 156.210938 137.445312 156.210938 137.445312 156.265625 137.214844 C 156.46875 136.6875 156.644531 136.503906 157.058594 136.21875 C 157.921875 135.921875 158.828125 135.777344 159.726562 135.835938 C 159.777344 135.710938 159.828125 135.585938 159.882812 135.460938 C 160.230469 135.398438 160.230469 135.398438 160.691406 135.371094 C 161.820312 135.277344 162.910156 135.054688 164.019531 134.808594 C 164.128906 134.785156 164.238281 134.757812 164.347656 134.734375 C 169.757812 133.53125 175.117188 132.023438 180.4375 130.34375 C 180.550781 130.308594 180.667969 130.269531 180.785156 130.234375 C 186.929688 128.296875 193.058594 126.101562 198.792969 122.765625 C 198.921875 122.691406 199.050781 122.617188 199.183594 122.542969 C 205.316406 119.011719 210.199219 114.144531 213.855469 107.230469 C 213.953125 107.046875 214.054688 106.863281 214.15625 106.671875 C 217.464844 100.175781 219.019531 91.035156 217.628906 83.527344 C 216.511719 78.324219 213.949219 74.011719 210.125 71.25 C 208.644531 70.21875 207.148438 69.347656 205.527344 68.703125 C 205.226562 68.582031 204.925781 68.457031 204.628906 68.332031 C 201.992188 67.246094 199.210938 66.730469 196.441406 66.5 C 196.289062 66.484375 196.136719 66.472656 195.976562 66.457031 C 190.964844 66.066406 182.8125 65.441406 178.238281 68.203125 C 178.003906 68.238281 177.765625 68.265625 177.527344 68.289062 C 167.71875 69.394531 157.566406 74.984375 148.601562 79.617188 C 147.878906 79.992188 147.152344 80.359375 146.429688 80.730469 C 143.839844 82.054688 141.25 83.390625 138.671875 84.746094 C 137.199219 85.519531 135.722656 86.269531 134.242188 87.015625 C 133.082031 87.601562 131.921875 88.191406 130.769531 88.796875 C 130.605469 88.882812 130.605469 88.882812 130.4375 88.972656 C 129.910156 89.25 129.382812 89.527344 128.859375 89.808594 C 128.578125 89.957031 128.578125 89.957031 128.292969 90.105469 C 128.128906 90.195312 127.964844 90.28125 127.792969 90.371094 C 127.402344 90.558594 127.402344 90.558594 127.089844 90.558594 C 127.132812 90.730469 127.171875 90.898438 127.214844 91.074219 C 129.328125 100.152344 126.832031 109.820312 123.164062 117.8125 C 121.882812 120.558594 120.492188 123.195312 118.84375 125.644531 C 118.546875 126.09375 118.261719 126.546875 117.972656 127.003906 C 117.402344 127.917969 116.8125 128.800781 116.179688 129.652344 C 115.972656 129.933594 115.777344 130.234375 115.585938 130.53125 C 115.5 130.660156 115.414062 130.785156 115.320312 130.914062 C 115.21875 130.914062 115.113281 130.914062 115.007812 130.914062 C 114.957031 131.066406 114.957031 131.066406 114.90625 131.222656 C 114.621094 131.824219 114.238281 132.277344 113.832031 132.761719 C 113.746094 132.867188 113.660156 132.96875 113.570312 133.078125 C 113.390625 133.296875 113.207031 133.519531 113.023438 133.738281 C 112.746094 134.066406 112.476562 134.398438 112.203125 134.730469 C 111.144531 136.007812 110.0625 137.183594 108.890625 138.300781 C 108.699219 138.488281 108.511719 138.679688 108.320312 138.871094 C 105.683594 141.503906 102.757812 143.652344 99.789062 145.6875 C 99.675781 145.769531 99.558594 145.847656 99.441406 145.929688 C 90.59375 151.941406 77.539062 157.171875 67.3125 154.023438 C 64.640625 153.09375 62.035156 151.285156 60.5625 148.34375 C 59.257812 145.347656 59.046875 142.039062 59.875 138.800781 C 60.542969 136.671875 61.441406 134.808594 62.570312 132.992188 C 62.914062 132.457031 62.914062 132.457031 63.140625 131.960938 C 63.78125 130.71875 64.6875 129.675781 65.515625 128.613281 C 65.625 128.476562 65.734375 128.335938 65.847656 128.191406 C 67.222656 126.4375 68.605469 124.703125 70.136719 123.144531 C 70.296875 122.972656 70.460938 122.804688 70.621094 122.632812 C 71.671875 121.53125 72.738281 120.464844 73.84375 119.445312 C 74.339844 119.007812 74.339844 119.007812 74.683594 118.40625 C 74.945312 118.230469 75.207031 118.050781 75.46875 117.875 C 76.019531 117.480469 76.515625 116.992188 77.019531 116.515625 C 82.015625 111.847656 87.40625 107.742188 92.882812 103.957031 C 93.539062 103.503906 94.195312 103.042969 94.847656 102.578125 C 94.953125 102.5 95.058594 102.425781 95.171875 102.347656 C 95.738281 101.941406 96.304688 101.53125 96.867188 101.121094 C 98.417969 99.996094 100.035156 99.003906 101.640625 98.007812 C 101.753906 97.9375 101.863281 97.871094 101.976562 97.800781 C 106.511719 94.984375 111.0625 92.21875 115.722656 89.710938 C 116.011719 89.554688 116.300781 89.394531 116.589844 89.238281 C 116.953125 89.042969 117.3125 88.847656 117.675781 88.65625 C 117.835938 88.566406 117.996094 88.480469 118.164062 88.390625 C 118.304688 88.316406 118.445312 88.238281 118.589844 88.160156 C 118.976562 87.875 119.085938 87.652344 119.246094 87.148438 C 117.53125 83.925781 114.25 81.964844 111.242188 81.085938 C 110.046875 80.78125 108.84375 80.535156 107.632812 80.328125 C 107.519531 80.308594 107.402344 80.289062 107.285156 80.265625 C 105.863281 80.058594 104.425781 80.101562 102.996094 80.101562 C 102.851562 80.101562 102.707031 80.101562 102.558594 80.105469 C 92.058594 80.132812 81.726562 83.414062 71.871094 87.582031 C 71.546875 87.714844 71.226562 87.851562 70.90625 87.984375 C 68.109375 89.152344 65.34375 90.402344 62.597656 91.734375 C 62.269531 91.894531 61.941406 92.050781 61.613281 92.210938 C 58.203125 93.855469 54.820312 95.570312 51.464844 97.378906 C 51.296875 97.46875 51.125 97.558594 50.953125 97.652344 C 50.496094 97.898438 50.039062 98.148438 49.582031 98.398438 C 49.457031 98.464844 49.332031 98.53125 49.203125 98.601562 C 48.0625 99.226562 46.949219 99.910156 45.828125 100.589844 C 45.308594 100.90625 44.785156 101.21875 44.261719 101.535156 C 39.523438 104.382812 34.804688 107.3125 30.28125 110.640625 C 30.15625 110.730469 30.03125 110.824219 29.90625 110.917969 C 27.699219 112.535156 25.546875 114.242188 23.398438 115.96875 C 23.269531 116.070312 23.140625 116.175781 23.011719 116.28125 C 21.265625 117.679688 19.554688 119.125 17.863281 120.613281 C 17.5 120.9375 17.132812 121.253906 16.765625 121.570312 C 15.242188 122.894531 13.734375 124.238281 12.238281 125.609375 C 12.113281 125.722656 11.984375 125.839844 11.855469 125.960938 C 10.050781 127.609375 8.253906 129.277344 6.46875 130.960938 C 6.105469 131.304688 5.738281 131.648438 5.371094 131.992188 C 4 133.277344 2.636719 134.566406 1.289062 135.886719 C 1.074219 136.097656 1.074219 136.097656 0.851562 136.3125 C 0.722656 136.4375 0.59375 136.566406 0.460938 136.695312 C 0.15625 136.976562 0.15625 136.976562 0 136.976562 C -0.0429688 135.652344 -0.0742188 134.332031 -0.09375 133.011719 C -0.101562 132.5625 -0.113281 132.113281 -0.128906 131.664062 C -0.25 127.929688 -0.25 127.929688 0.355469 126.894531 C 0.800781 126.507812 1.222656 126.246094 1.726562 125.984375 C 2.039062 125.726562 2.039062 125.726562 2.300781 125.457031 C 3.765625 124.082031 3.765625 124.082031 4.421875 123.523438 C 4.859375 123.167969 4.859375 123.167969 5.179688 122.765625 C 5.371094 122.605469 5.566406 122.445312 5.765625 122.292969 C 6.398438 121.789062 7.023438 121.261719 7.640625 120.730469 C 7.734375 120.648438 7.828125 120.566406 7.925781 120.480469 C 8.378906 120.085938 8.835938 119.691406 9.289062 119.296875 C 13.871094 115.328125 18.546875 111.515625 23.363281 107.96875 C 23.714844 107.710938 24.066406 107.445312 24.414062 107.175781 C 25.988281 105.972656 27.59375 104.84375 29.21875 103.738281 C 29.652344 103.441406 30.089844 103.140625 30.523438 102.84375 C 34.917969 99.820312 39.402344 97.058594 43.933594 94.347656 C 43.933594 94.222656 43.933594 94.097656 43.933594 93.96875 C 44.066406 93.949219 44.199219 93.929688 44.335938 93.910156 C 44.929688 93.765625 45.402344 93.523438 45.949219 93.210938 C 46.050781 93.15625 46.152344 93.097656 46.257812 93.039062 C 46.476562 92.917969 46.695312 92.792969 46.914062 92.667969 C 48.886719 91.554688 50.871094 90.503906 52.890625 89.535156 C 53.628906 89.179688 54.359375 88.820312 55.078125 88.414062 C 56.394531 87.683594 57.75 87.070312 59.101562 86.4375 C 59.246094 86.371094 59.390625 86.304688 59.539062 86.234375 C 60.386719 85.835938 61.234375 85.441406 62.085938 85.042969 C 62.398438 84.898438 62.710938 84.75 63.023438 84.605469 C 65.695312 83.351562 68.414062 82.253906 71.140625 81.179688 C 71.605469 81 72.066406 80.8125 72.527344 80.628906 C 76.589844 79 80.71875 77.71875 84.882812 76.539062 C 85.058594 76.488281 85.058594 76.488281 85.238281 76.4375 C 88.585938 75.496094 91.980469 74.878906 95.386719 74.320312 C 95.664062 74.273438 95.941406 74.226562 96.21875 74.179688 C 98.300781 73.839844 100.390625 73.855469 102.484375 73.851562 C 102.695312 73.851562 102.695312 73.851562 102.90625 73.851562 C 105.40625 73.851562 107.933594 73.867188 110.410156 74.324219 C 110.546875 74.347656 110.683594 74.375 110.824219 74.398438 C 114.566406 75.105469 118.164062 76.65625 121.128906 79.570312 C 121.332031 79.769531 121.332031 79.769531 121.542969 79.972656 C 122.875 81.339844 123.871094 82.988281 124.894531 84.6875 C 126.222656 84.078125 127.539062 83.441406 128.84375 82.765625 C 129.203125 82.582031 129.5625 82.398438 129.921875 82.214844 C 130.191406 82.074219 130.191406 82.074219 130.46875 81.933594 C 131.328125 81.492188 132.191406 81.050781 133.050781 80.613281 C 134.035156 80.109375 135.019531 79.609375 136 79.101562 C 138.273438 77.933594 140.554688 76.789062 142.839844 75.652344 C 142.992188 75.574219 143.144531 75.5 143.300781 75.421875 C 145.257812 74.441406 147.21875 73.476562 149.1875 72.53125 C 149.492188 72.386719 149.792969 72.242188 150.09375 72.097656 C 159.796875 67.429688 169.761719 63.117188 180.121094 61.195312 C 180.480469 61.125 180.839844 61.054688 181.199219 60.984375 C 184.070312 60.433594 186.9375 60.117188 189.839844 59.9375 C 189.960938 59.929688 190.082031 59.921875 190.203125 59.914062 C 192.457031 59.792969 194.683594 59.875 196.929688 60.105469 Z M 120.40625 94.140625 C 120.300781 94.199219 120.195312 94.257812 120.085938 94.316406 C 119.734375 94.511719 119.382812 94.707031 119.027344 94.902344 C 118.78125 95.042969 118.535156 95.179688 118.285156 95.316406 C 114.234375 97.566406 110.191406 99.847656 106.222656 102.304688 C 106.09375 102.382812 105.964844 102.460938 105.835938 102.542969 C 101.191406 105.425781 96.527344 108.472656 92.136719 111.882812 C 91.710938 112.214844 91.28125 112.542969 90.851562 112.871094 C 88.996094 114.296875 87.15625 115.742188 85.355469 117.273438 C 85.140625 117.453125 84.925781 117.632812 84.714844 117.8125 C 82.230469 119.90625 79.796875 122.066406 77.460938 124.398438 C 77.09375 124.757812 76.722656 125.113281 76.351562 125.464844 C 75.6875 126.105469 75.054688 126.78125 74.429688 127.472656 C 74.097656 127.835938 73.765625 128.191406 73.429688 128.542969 C 72.691406 129.324219 71.957031 130.109375 71.234375 130.914062 C 71.09375 131.066406 71.09375 131.066406 70.953125 131.222656 C 70.726562 131.46875 70.726562 131.46875 70.761719 131.859375 C 70.660156 131.859375 70.554688 131.859375 70.449219 131.859375 C 70.222656 132.113281 70.222656 132.113281 69.988281 132.464844 C 69.890625 132.601562 69.792969 132.742188 69.691406 132.882812 C 69.523438 133.128906 69.523438 133.128906 69.351562 133.375 C 69.21875 133.558594 69.085938 133.742188 68.949219 133.929688 C 65.90625 138.0625 65.90625 138.0625 64.75 143.207031 C 64.878906 144.246094 65.238281 145.066406 65.828125 145.832031 C 69.175781 148.773438 74.265625 147.949219 78.101562 147.230469 C 88.023438 145.316406 97.714844 140.074219 105.523438 132.425781 C 105.773438 132.179688 106.027344 131.9375 106.285156 131.695312 C 114.238281 124.199219 120.519531 112.664062 121.964844 100.527344 C 122.0625 99.574219 122.09375 98.632812 122.089844 97.675781 C 122.089844 97.535156 122.085938 97.398438 122.085938 97.253906 C 122.078125 95.394531 122.078125 95.394531 121.753906 93.589844 C 121.261719 93.589844 120.851562 93.894531 120.40625 94.140625 Z M 120.40625 94.140625 "/>
<path style=" stroke:none;fill-rule:nonzero;fill:rgb(95.294118%,96.078432%,96.078432%);fill-opacity:1;" d="M 156.273438 68.390625 C 156.324219 68.519531 156.378906 68.644531 156.429688 68.773438 C 156.535156 68.835938 156.636719 68.898438 156.742188 68.960938 C 156.484375 68.898438 156.226562 68.835938 155.960938 68.773438 C 156.0625 68.644531 156.167969 68.519531 156.273438 68.390625 Z M 156.273438 68.390625 "/>
<path style=" stroke:none;fill-rule:nonzero;fill:rgb(88.627452%,89.411765%,90.196079%);fill-opacity:1;" d="M 156.273438 140.007812 C 156.429688 140.007812 156.585938 140.007812 156.742188 140.007812 C 156.742188 140.132812 156.742188 140.257812 156.742188 140.382812 C 156.589844 140.320312 156.433594 140.257812 156.273438 140.195312 C 156.273438 140.132812 156.273438 140.070312 156.273438 140.007812 Z M 156.273438 140.007812 "/>
<path style=" stroke:none;fill-rule:nonzero;fill:rgb(95.686275%,96.078432%,96.078432%);fill-opacity:1;" d="M 167.882812 133.375 C 167.988281 133.5 168.089844 133.625 168.199219 133.753906 C 167.992188 133.691406 167.785156 133.628906 167.570312 133.5625 C 167.675781 133.5 167.777344 133.4375 167.882812 133.375 Z M 167.882812 133.375 "/>
<path style=" stroke:none;fill-rule:nonzero;fill:rgb(96.470588%,96.862745%,96.862745%);fill-opacity:1;" d="M 10.667969 117.273438 C 10.824219 117.554688 10.824219 117.554688 10.984375 117.839844 C 10.828125 117.933594 10.828125 117.933594 10.667969 118.03125 C 10.667969 117.777344 10.667969 117.527344 10.667969 117.273438 Z M 10.667969 117.273438 "/>
<path style=" stroke:none;fill-rule:nonzero;fill:rgb(96.078432%,97.254902%,96.862745%);fill-opacity:1;" d="M 12.867188 115.566406 C 13.019531 115.628906 13.175781 115.691406 13.335938 115.757812 C 13.179688 115.820312 13.027344 115.882812 12.867188 115.945312 C 12.867188 115.820312 12.867188 115.695312 12.867188 115.566406 Z M 12.867188 115.566406 "/>
<path style=" stroke:none;fill-rule:nonzero;fill:rgb(57.647061%,57.647061%,58.823532%);fill-opacity:1;" d="M 163.648438 102.492188 C 163.804688 102.492188 163.957031 102.492188 164.117188 102.492188 C 164.117188 102.621094 164.117188 102.746094 164.117188 102.875 C 163.964844 102.808594 163.808594 102.746094 163.648438 102.683594 C 163.648438 102.621094 163.648438 102.558594 163.648438 102.492188 Z M 163.648438 102.492188 "/>
<path style=" stroke:none;fill-rule:nonzero;fill:rgb(95.686275%,95.686275%,96.470588%);fill-opacity:1;" d="M 186.710938 59.679688 C 186.816406 59.804688 186.917969 59.929688 187.027344 60.054688 C 186.820312 59.992188 186.613281 59.929688 186.398438 59.867188 C 186.503906 59.804688 186.605469 59.742188 186.710938 59.679688 Z M 186.710938 59.679688 "/>
<path style=" stroke:none;fill-rule:nonzero;fill:rgb(98.823529%,98.823529%,99.215686%);fill-opacity:1;" d="M 99.632812 136.59375 C 99.789062 136.660156 99.941406 136.722656 100.101562 136.785156 C 99.949219 136.847656 99.792969 136.910156 99.632812 136.976562 C 99.632812 136.847656 99.632812 136.722656 99.632812 136.59375 Z M 99.632812 136.59375 "/>
<path style=" stroke:none;fill-rule:nonzero;fill:rgb(96.078432%,96.078432%,96.470588%);fill-opacity:1;" d="M 13.179688 124.851562 C 13.230469 124.976562 13.285156 125.101562 13.335938 125.226562 C 13.179688 125.164062 13.027344 125.101562 12.867188 125.039062 C 12.96875 124.976562 13.074219 124.914062 13.179688 124.851562 Z M 13.179688 124.851562 "/>
<path style=" stroke:none;fill-rule:nonzero;fill:rgb(96.078432%,96.470588%,96.862745%);fill-opacity:1;" d="M 21.964844 108.179688 C 22.125 108.9375 22.125 108.9375 22.125 108.9375 Z M 21.964844 108.179688 "/>
<path style=" stroke:none;fill-rule:nonzero;fill:rgb(67.843139%,67.843139%,69.01961%);fill-opacity:1;" d="M 156.585938 92.832031 C 156.640625 93.019531 156.691406 93.207031 156.742188 93.398438 C 156.640625 93.335938 156.535156 93.273438 156.429688 93.210938 C 156.480469 93.085938 156.535156 92.960938 156.585938 92.832031 Z M 156.585938 92.832031 "/>
<path style=" stroke:none;fill-rule:nonzero;fill:rgb(96.078432%,96.470588%,97.254902%);fill-opacity:1;" d="M 101.042969 73.507812 C 101.671875 73.695312 101.671875 73.695312 101.671875 73.695312 Z M 101.042969 73.507812 "/>
<path style=" stroke:none;fill-rule:nonzero;fill:rgb(95.686275%,96.078432%,96.078432%);fill-opacity:1;" d="M 190.164062 59.679688 C 190.792969 59.867188 190.792969 59.867188 190.792969 59.867188 Z M 190.164062 59.679688 "/>
<path style=" stroke:none;fill-rule:nonzero;fill:rgb(96.078432%,96.470588%,96.862745%);fill-opacity:1;" d="M 188.910156 59.679688 C 189.535156 59.867188 189.535156 59.867188 189.535156 59.867188 Z M 188.910156 59.679688 "/>
<path style=" stroke:none;fill-rule:nonzero;fill:rgb(49.019608%,49.411765%,50.196081%);fill-opacity:1;" d="M 148.742188 191.914062 C 148.898438 192.011719 148.898438 192.011719 149.054688 192.105469 C 148.902344 192.199219 148.902344 192.199219 148.742188 192.296875 C 148.742188 192.167969 148.742188 192.042969 148.742188 191.914062 Z M 148.742188 191.914062 "/>
<path style=" stroke:none;fill-rule:nonzero;fill:rgb(48.627451%,48.627451%,50.196081%);fill-opacity:1;" d="M 163.804688 185.476562 C 163.910156 185.601562 164.011719 185.726562 164.117188 185.851562 C 164.015625 185.851562 163.910156 185.851562 163.804688 185.851562 C 163.804688 185.726562 163.804688 185.601562 163.804688 185.476562 Z M 163.804688 185.476562 "/>
<path style=" stroke:none;fill-rule:nonzero;fill:rgb(48.627451%,49.019608%,49.803922%);fill-opacity:1;" d="M 148.742188 175.242188 C 148.898438 175.339844 148.898438 175.339844 149.054688 175.433594 C 148.902344 175.527344 148.902344 175.527344 148.742188 175.625 C 148.742188 175.496094 148.742188 175.371094 148.742188 175.242188 Z M 148.742188 175.242188 "/>
<path style=" stroke:none;fill-rule:nonzero;fill:rgb(50.980395%,50.588238%,51.372552%);fill-opacity:1;" d="M 148.742188 167.664062 C 148.898438 167.761719 148.898438 167.761719 149.054688 167.855469 C 148.902344 167.949219 148.902344 167.949219 148.742188 168.046875 C 148.742188 167.917969 148.742188 167.792969 148.742188 167.664062 Z M 148.742188 167.664062 "/>
<path style=" stroke:none;fill-rule:nonzero;fill:rgb(96.078432%,96.078432%,96.078432%);fill-opacity:1;" d="M 78.449219 154.40625 C 78.921875 154.59375 78.921875 154.59375 78.921875 154.59375 Z M 78.449219 154.40625 "/>
<path style=" stroke:none;fill-rule:nonzero;fill:rgb(97.647059%,98.039216%,98.431373%);fill-opacity:1;" d="M 76.726562 147.015625 C 77.195312 147.203125 77.195312 147.203125 77.195312 147.203125 Z M 76.726562 147.015625 "/>
<path style=" stroke:none;fill-rule:nonzero;fill:rgb(96.078432%,96.470588%,97.254902%);fill-opacity:1;" d="M 176.671875 138.300781 C 176.824219 138.394531 176.824219 138.394531 176.984375 138.492188 C 176.828125 138.585938 176.828125 138.585938 176.671875 138.679688 C 176.671875 138.554688 176.671875 138.429688 176.671875 138.300781 Z M 176.671875 138.300781 "/>
<path style=" stroke:none;fill-rule:nonzero;fill:rgb(95.294118%,96.078432%,96.470588%);fill-opacity:1;" d="M 171.335938 132.617188 C 171.804688 132.804688 171.804688 132.804688 171.804688 132.804688 Z M 171.335938 132.617188 "/>
<path style=" stroke:none;fill-rule:nonzero;fill:rgb(97.647059%,97.647059%,97.647059%);fill-opacity:1;" d="M 2.351562 124.660156 C 2.457031 124.785156 2.5625 124.910156 2.667969 125.039062 C 2.5625 125.039062 2.460938 125.039062 2.351562 125.039062 C 2.351562 124.914062 2.351562 124.789062 2.351562 124.660156 Z M 2.351562 124.660156 "/>
<path style=" stroke:none;fill-rule:nonzero;fill:rgb(58.431375%,58.431375%,59.215689%);fill-opacity:1;" d="M 163.804688 100.976562 C 163.910156 101.105469 164.011719 101.230469 164.117188 101.359375 C 164.015625 101.359375 163.910156 101.359375 163.804688 101.359375 C 163.804688 101.230469 163.804688 101.105469 163.804688 100.976562 Z M 163.804688 100.976562 "/>
<path style=" stroke:none;fill-rule:nonzero;fill:rgb(98.431373%,98.039216%,98.823529%);fill-opacity:1;" d="M 99.632812 80.140625 C 100.101562 80.328125 100.101562 80.328125 100.101562 80.328125 Z M 99.632812 80.140625 "/>
<path style=" stroke:none;fill-rule:nonzero;fill:rgb(96.078432%,96.470588%,96.470588%);fill-opacity:1;" d="M 98.21875 73.695312 C 98.691406 73.886719 98.691406 73.886719 98.691406 73.886719 Z M 98.21875 73.695312 "/>
<path style=" stroke:none;fill-rule:nonzero;fill:rgb(95.294118%,95.686275%,96.078432%);fill-opacity:1;" d="M 99.789062 73.320312 C 99.894531 73.445312 99.996094 73.570312 100.101562 73.695312 C 100 73.695312 99.894531 73.695312 99.789062 73.695312 C 99.789062 73.570312 99.789062 73.445312 99.789062 73.320312 Z M 99.789062 73.320312 "/>
<path style=" stroke:none;fill-rule:nonzero;fill:rgb(96.470588%,96.862745%,97.254902%);fill-opacity:1;" d="M 188.910156 66.5 C 189.378906 66.6875 189.378906 66.6875 189.378906 66.6875 Z M 188.910156 66.5 "/>
<path style=" stroke:none;fill-rule:nonzero;fill:rgb(95.294118%,95.686275%,95.686275%);fill-opacity:1;" d="M 170.707031 63.085938 C 170.863281 63.183594 170.863281 63.183594 171.023438 63.277344 C 170.867188 63.371094 170.867188 63.371094 170.707031 63.46875 C 170.707031 63.339844 170.707031 63.214844 170.707031 63.085938 Z M 170.707031 63.085938 "/>
<path style=" stroke:none;fill-rule:nonzero;fill:rgb(94.901961%,95.294118%,95.686275%);fill-opacity:1;" d="M 171.023438 62.710938 C 171.492188 62.898438 171.492188 62.898438 171.492188 62.898438 Z M 171.023438 62.710938 "/>
<path style=" stroke:none;fill-rule:nonzero;fill:rgb(96.470588%,96.470588%,97.254902%);fill-opacity:1;" d="M 188.28125 59.679688 C 188.75 59.867188 188.75 59.867188 188.75 59.867188 Z M 188.28125 59.679688 "/>
<path style=" stroke:none;fill-rule:nonzero;fill:rgb(49.411765%,49.019608%,49.803922%);fill-opacity:1;" d="M 148.742188 193.429688 C 149.054688 193.621094 149.054688 193.621094 149.054688 193.621094 Z M 148.742188 193.429688 "/>
<path style=" stroke:none;fill-rule:nonzero;fill:rgb(48.627451%,48.627451%,49.803922%);fill-opacity:1;" d="M 171.023438 190.023438 C 171.335938 190.210938 171.335938 190.210938 171.335938 190.210938 Z M 171.023438 190.023438 "/>
<path style=" stroke:none;fill-rule:nonzero;fill:rgb(47.843137%,48.627451%,49.803922%);fill-opacity:1;" d="M 170.867188 189.640625 C 171.179688 189.832031 171.179688 189.832031 171.179688 189.832031 Z M 170.867188 189.640625 "/>
<path style=" stroke:none;fill-rule:nonzero;fill:rgb(49.019608%,49.019608%,49.803922%);fill-opacity:1;" d="M 148.742188 188.882812 C 149.054688 189.074219 149.054688 189.074219 149.054688 189.074219 Z M 148.742188 188.882812 "/>
<path style=" stroke:none;fill-rule:nonzero;fill:rgb(48.235294%,48.627451%,49.019608%);fill-opacity:1;" d="M 171.023438 188.507812 C 171.335938 188.695312 171.335938 188.695312 171.335938 188.695312 Z M 171.023438 188.507812 "/>
<path style=" stroke:none;fill-rule:nonzero;fill:rgb(48.627451%,48.235294%,49.411765%);fill-opacity:1;" d="M 171.023438 186.992188 C 171.335938 187.179688 171.335938 187.179688 171.335938 187.179688 Z M 171.023438 186.992188 "/>
<path style=" stroke:none;fill-rule:nonzero;fill:rgb(49.411765%,49.019608%,50.196081%);fill-opacity:1;" d="M 163.492188 185.851562 C 163.804688 186.042969 163.804688 186.042969 163.804688 186.042969 Z M 163.492188 185.851562 "/>
<path style=" stroke:none;fill-rule:nonzero;fill:rgb(48.235294%,48.235294%,49.411765%);fill-opacity:1;" d="M 171.023438 185.476562 C 171.335938 185.664062 171.335938 185.664062 171.335938 185.664062 Z M 171.023438 185.476562 "/>
<path style=" stroke:none;fill-rule:nonzero;fill:rgb(48.235294%,48.235294%,49.411765%);fill-opacity:1;" d="M 171.023438 182.445312 C 171.335938 182.632812 171.335938 182.632812 171.335938 182.632812 Z M 171.023438 182.445312 "/>
<path style=" stroke:none;fill-rule:nonzero;fill:rgb(48.235294%,48.235294%,49.803922%);fill-opacity:1;" d="M 171.023438 180.929688 C 171.335938 181.117188 171.335938 181.117188 171.335938 181.117188 Z M 171.023438 180.929688 "/>
<path style=" stroke:none;fill-rule:nonzero;fill:rgb(48.627451%,48.627451%,49.803922%);fill-opacity:1;" d="M 171.023438 179.414062 C 171.335938 179.601562 171.335938 179.601562 171.335938 179.601562 Z M 171.023438 179.414062 "/>
<path style=" stroke:none;fill-rule:nonzero;fill:rgb(49.019608%,48.627451%,49.411765%);fill-opacity:1;" d="M 171.023438 177.898438 C 171.335938 178.085938 171.335938 178.085938 171.335938 178.085938 Z M 171.023438 177.898438 "/>
<path style=" stroke:none;fill-rule:nonzero;fill:rgb(49.019608%,49.019608%,50.196081%);fill-opacity:1;" d="M 171.023438 176.382812 C 171.335938 176.570312 171.335938 176.570312 171.335938 176.570312 Z M 171.023438 176.382812 "/>
<path style=" stroke:none;fill-rule:nonzero;fill:rgb(50.196081%,49.803922%,50.980395%);fill-opacity:1;" d="M 171.023438 173.351562 C 171.335938 173.539062 171.335938 173.539062 171.335938 173.539062 Z M 171.023438 173.351562 "/>
<path style=" stroke:none;fill-rule:nonzero;fill:rgb(50.196081%,50.196081%,51.372552%);fill-opacity:1;" d="M 171.023438 171.835938 C 171.335938 172.023438 171.335938 172.023438 171.335938 172.023438 Z M 171.023438 171.835938 "/>
<path style=" stroke:none;fill-rule:nonzero;fill:rgb(52.156866%,52.156866%,52.941179%);fill-opacity:1;" d="M 171.023438 168.804688 C 171.335938 168.992188 171.335938 168.992188 171.335938 168.992188 Z M 171.023438 168.804688 "/>
<path style=" stroke:none;fill-rule:nonzero;fill:rgb(52.941179%,53.333336%,54.11765%);fill-opacity:1;" d="M 171.023438 167.289062 C 171.335938 167.476562 171.335938 167.476562 171.335938 167.476562 Z M 171.023438 167.289062 "/>
<path style=" stroke:none;fill-rule:nonzero;fill:rgb(54.509807%,54.509807%,55.29412%);fill-opacity:1;" d="M 171.023438 165.773438 C 171.335938 165.960938 171.335938 165.960938 171.335938 165.960938 Z M 171.023438 165.773438 "/>
<path style=" stroke:none;fill-rule:nonzero;fill:rgb(55.686277%,55.29412%,56.862748%);fill-opacity:1;" d="M 171.023438 164.257812 C 171.335938 164.445312 171.335938 164.445312 171.335938 164.445312 Z M 171.023438 164.257812 "/>
<path style=" stroke:none;fill-rule:nonzero;fill:rgb(53.333336%,53.725493%,54.509807%);fill-opacity:1;" d="M 148.742188 161.601562 C 149.054688 161.792969 149.054688 161.792969 149.054688 161.792969 Z M 148.742188 161.601562 "/>
<path style=" stroke:none;fill-rule:nonzero;fill:rgb(60.000002%,59.607846%,61.176473%);fill-opacity:1;" d="M 171.023438 159.710938 C 171.335938 159.898438 171.335938 159.898438 171.335938 159.898438 Z M 171.023438 159.710938 "/>
<path style=" stroke:none;fill-rule:nonzero;fill:rgb(62.7451%,63.529414%,64.313728%);fill-opacity:1;" d="M 163.492188 157.054688 C 163.804688 157.246094 163.804688 157.246094 163.804688 157.246094 Z M 163.492188 157.054688 "/>
<path style=" stroke:none;fill-rule:nonzero;fill:rgb(60.784316%,61.176473%,62.352943%);fill-opacity:1;" d="M 148.742188 152.507812 C 149.054688 152.699219 149.054688 152.699219 149.054688 152.699219 Z M 148.742188 152.507812 "/>
<path style=" stroke:none;fill-rule:nonzero;fill:rgb(99.215686%,99.215686%,99.215686%);fill-opacity:1;" d="M 75 147.203125 C 75.3125 147.394531 75.3125 147.394531 75.3125 147.394531 Z M 75 147.203125 "/>
<path style=" stroke:none;fill-rule:nonzero;fill:rgb(82.352942%,82.352942%,83.137256%);fill-opacity:1;" d="M 171.023438 146.070312 C 171.335938 146.257812 171.335938 146.257812 171.335938 146.257812 Z M 171.023438 146.070312 "/>
<path style=" stroke:none;fill-rule:nonzero;fill:rgb(96.862745%,97.254902%,96.862745%);fill-opacity:1;" d="M 99.789062 145.6875 C 100.101562 145.878906 100.101562 145.878906 100.101562 145.878906 Z M 99.789062 145.6875 "/>
<path style=" stroke:none;fill-rule:nonzero;fill:rgb(98.039216%,98.431373%,98.431373%);fill-opacity:1;" d="M 88.492188 143.414062 C 88.804688 143.605469 88.804688 143.605469 88.804688 143.605469 Z M 88.492188 143.414062 "/>
<path style=" stroke:none;fill-rule:nonzero;fill:rgb(94.901961%,95.686275%,95.686275%);fill-opacity:1;" d="M 163.804688 140.574219 C 164.117188 140.765625 164.117188 140.765625 164.117188 140.765625 Z M 163.804688 140.574219 "/>
<path style=" stroke:none;fill-rule:nonzero;fill:rgb(95.294118%,96.470588%,96.470588%);fill-opacity:1;" d="M 163.175781 140.574219 C 163.492188 140.765625 163.492188 140.765625 163.492188 140.765625 Z M 163.175781 140.574219 "/>
<path style=" stroke:none;fill-rule:nonzero;fill:rgb(96.078432%,96.470588%,96.470588%);fill-opacity:1;" d="M 166.316406 140.195312 C 166.628906 140.382812 166.628906 140.382812 166.628906 140.382812 Z M 166.316406 140.195312 "/>
<path style=" stroke:none;fill-rule:nonzero;fill:rgb(95.686275%,96.470588%,96.470588%);fill-opacity:1;" d="M 167.882812 140.007812 C 168.199219 140.195312 168.199219 140.195312 168.199219 140.195312 Z M 167.882812 140.007812 "/>
<path style=" stroke:none;fill-rule:nonzero;fill:rgb(96.470588%,96.862745%,97.647059%);fill-opacity:1;" d="M 181.0625 136.976562 C 181.378906 137.164062 181.378906 137.164062 181.378906 137.164062 Z M 181.0625 136.976562 "/>
<path style=" stroke:none;fill-rule:nonzero;fill:rgb(70.588237%,71.372551%,71.764708%);fill-opacity:1;" d="M 148.742188 135.835938 C 149.054688 136.027344 149.054688 136.027344 149.054688 136.027344 Z M 148.742188 135.835938 "/>
<path style=" stroke:none;fill-rule:nonzero;fill:rgb(95.686275%,96.078432%,95.686275%);fill-opacity:1;" d="M 162.078125 134.890625 C 162.390625 135.078125 162.390625 135.078125 162.390625 135.078125 Z M 162.078125 134.890625 "/>
<path style=" stroke:none;fill-rule:nonzero;fill:rgb(94.901961%,96.078432%,95.686275%);fill-opacity:1;" d="M 163.804688 134.511719 C 164.117188 134.703125 164.117188 134.703125 164.117188 134.703125 Z M 163.804688 134.511719 "/>
<path style=" stroke:none;fill-rule:nonzero;fill:rgb(70.19608%,70.19608%,71.372551%);fill-opacity:1;" d="M 148.742188 132.804688 C 149.054688 132.996094 149.054688 132.996094 149.054688 132.996094 Z M 148.742188 132.804688 "/>
<path style=" stroke:none;fill-rule:nonzero;fill:rgb(95.686275%,96.078432%,96.078432%);fill-opacity:1;" d="M 171.023438 132.429688 C 171.335938 132.617188 171.335938 132.617188 171.335938 132.617188 Z M 171.023438 132.429688 "/>
<path style=" stroke:none;fill-rule:nonzero;fill:rgb(96.470588%,97.254902%,97.254902%);fill-opacity:1;" d="M 178.867188 130.53125 C 179.179688 130.722656 179.179688 130.722656 179.179688 130.722656 Z M 178.867188 130.53125 "/>
<path style=" stroke:none;fill-rule:nonzero;fill:rgb(96.470588%,97.254902%,97.647059%);fill-opacity:1;" d="M 182.164062 129.398438 C 182.476562 129.585938 182.476562 129.585938 182.476562 129.585938 Z M 182.164062 129.398438 "/>
<path style=" stroke:none;fill-rule:nonzero;fill:rgb(67.450982%,67.450982%,68.235296%);fill-opacity:1;" d="M 148.742188 126.742188 C 149.054688 126.933594 149.054688 126.933594 149.054688 126.933594 Z M 148.742188 126.742188 "/>
<path style=" stroke:none;fill-rule:nonzero;fill:rgb(96.862745%,96.862745%,97.254902%);fill-opacity:1;" d="M 190.164062 126.554688 C 190.476562 126.742188 190.476562 126.742188 190.476562 126.742188 Z M 190.164062 126.554688 "/>
<path style=" stroke:none;fill-rule:nonzero;fill:rgb(66.274512%,66.666669%,67.058825%);fill-opacity:1;" d="M 148.742188 125.226562 C 149.054688 125.417969 149.054688 125.417969 149.054688 125.417969 Z M 148.742188 125.226562 "/>
<path style=" stroke:none;fill-rule:nonzero;fill:rgb(75.686276%,75.686276%,76.47059%);fill-opacity:1;" d="M 171.023438 121.820312 C 171.335938 122.007812 171.335938 122.007812 171.335938 122.007812 Z M 171.023438 121.820312 "/>
<path style=" stroke:none;fill-rule:nonzero;fill:rgb(68.627453%,68.235296%,69.803923%);fill-opacity:1;" d="M 171.023438 117.273438 C 171.335938 117.460938 171.335938 117.460938 171.335938 117.460938 Z M 171.023438 117.273438 "/>
<path style=" stroke:none;fill-rule:nonzero;fill:rgb(66.666669%,66.274512%,67.058825%);fill-opacity:1;" d="M 171.023438 115.757812 C 171.335938 115.945312 171.335938 115.945312 171.335938 115.945312 Z M 171.023438 115.757812 "/>
<path style=" stroke:none;fill-rule:nonzero;fill:rgb(62.7451%,62.352943%,63.529414%);fill-opacity:1;" d="M 171.023438 112.726562 C 171.335938 112.914062 171.335938 112.914062 171.335938 112.914062 Z M 171.023438 112.726562 "/>
<path style=" stroke:none;fill-rule:nonzero;fill:rgb(98.431373%,98.823529%,98.431373%);fill-opacity:1;" d="M 117.988281 112.15625 C 118.304688 112.34375 118.304688 112.34375 118.304688 112.34375 Z M 117.988281 112.15625 "/>
<path style=" stroke:none;fill-rule:nonzero;fill:rgb(62.352943%,62.7451%,63.137257%);fill-opacity:1;" d="M 148.742188 111.585938 C 149.054688 111.777344 149.054688 111.777344 149.054688 111.777344 Z M 148.742188 111.585938 "/>
<path style=" stroke:none;fill-rule:nonzero;fill:rgb(97.254902%,97.254902%,98.039216%);fill-opacity:1;" d="M 211.1875 111.019531 C 211.503906 111.210938 211.503906 111.210938 211.503906 111.210938 Z M 211.1875 111.019531 "/>
<path style=" stroke:none;fill-rule:nonzero;fill:rgb(61.960787%,62.7451%,63.921571%);fill-opacity:1;" d="M 148.742188 110.070312 C 149.054688 110.261719 149.054688 110.261719 149.054688 110.261719 Z M 148.742188 110.070312 "/>
<path style=" stroke:none;fill-rule:nonzero;fill:rgb(59.215689%,58.823532%,60.000002%);fill-opacity:1;" d="M 171.023438 108.179688 C 171.335938 108.367188 171.335938 108.367188 171.335938 108.367188 Z M 171.023438 108.179688 "/>
<path style=" stroke:none;fill-rule:nonzero;fill:rgb(63.137257%,63.137257%,63.921571%);fill-opacity:1;" d="M 148.742188 107.039062 C 149.054688 107.230469 149.054688 107.230469 149.054688 107.230469 Z M 148.742188 107.039062 "/>
<path style=" stroke:none;fill-rule:nonzero;fill:rgb(58.039218%,58.039218%,59.215689%);fill-opacity:1;" d="M 171.023438 106.664062 C 171.335938 106.851562 171.335938 106.851562 171.335938 106.851562 Z M 171.023438 106.664062 "/>
<path style=" stroke:none;fill-rule:nonzero;fill:rgb(96.078432%,96.470588%,96.862745%);fill-opacity:1;" d="M 24.476562 106.664062 C 24.789062 106.851562 24.789062 106.851562 24.789062 106.851562 Z M 24.476562 106.664062 "/>
<path style=" stroke:none;fill-rule:nonzero;fill:rgb(63.529414%,63.921571%,64.705884%);fill-opacity:1;" d="M 148.742188 105.523438 C 149.054688 105.714844 149.054688 105.714844 149.054688 105.714844 Z M 148.742188 105.523438 "/>
<path style=" stroke:none;fill-rule:nonzero;fill:rgb(57.647061%,57.254905%,58.431375%);fill-opacity:1;" d="M 171.023438 105.148438 C 171.335938 105.335938 171.335938 105.335938 171.335938 105.335938 Z M 171.023438 105.148438 "/>
<path style=" stroke:none;fill-rule:nonzero;fill:rgb(98.039216%,98.431373%,98.431373%);fill-opacity:1;" d="M 90.6875 104.957031 C 91.003906 105.148438 91.003906 105.148438 91.003906 105.148438 Z M 90.6875 104.957031 "/>
<path style=" stroke:none;fill-rule:nonzero;fill:rgb(98.431373%,98.823529%,98.823529%);fill-opacity:1;" d="M 91.003906 104.765625 C 91.316406 104.957031 91.316406 104.957031 91.316406 104.957031 Z M 91.003906 104.765625 "/>
<path style=" stroke:none;fill-rule:nonzero;fill:rgb(57.647061%,57.254905%,58.431375%);fill-opacity:1;" d="M 171.023438 103.632812 C 171.335938 103.820312 171.335938 103.820312 171.335938 103.820312 Z M 171.023438 103.632812 "/>
<path style=" stroke:none;fill-rule:nonzero;fill:rgb(57.254905%,57.254905%,58.431375%);fill-opacity:1;" d="M 171.023438 102.117188 C 171.335938 102.304688 171.335938 102.304688 171.335938 102.304688 Z M 171.023438 102.117188 "/>
<path style=" stroke:none;fill-rule:nonzero;fill:rgb(57.254905%,57.254905%,58.823532%);fill-opacity:1;" d="M 171.023438 100.601562 C 171.335938 100.789062 171.335938 100.789062 171.335938 100.789062 Z M 171.023438 100.601562 "/>
<path style=" stroke:none;fill-rule:nonzero;fill:rgb(67.450982%,67.450982%,68.235296%);fill-opacity:1;" d="M 148.742188 99.460938 C 149.054688 99.652344 149.054688 99.652344 149.054688 99.652344 Z M 148.742188 99.460938 "/>
<path style=" stroke:none;fill-rule:nonzero;fill:rgb(59.607846%,60.392159%,61.176473%);fill-opacity:1;" d="M 163.492188 97.945312 C 163.804688 98.136719 163.804688 98.136719 163.804688 98.136719 Z M 163.492188 97.945312 "/>
<path style=" stroke:none;fill-rule:nonzero;fill:rgb(58.431375%,58.039218%,59.215689%);fill-opacity:1;" d="M 171.023438 97.570312 C 171.335938 97.757812 171.335938 97.757812 171.335938 97.757812 Z M 171.023438 97.570312 "/>
<path style=" stroke:none;fill-rule:nonzero;fill:rgb(70.19608%,70.19608%,71.372551%);fill-opacity:1;" d="M 148.742188 96.429688 C 149.054688 96.621094 149.054688 96.621094 149.054688 96.621094 Z M 148.742188 96.429688 "/>
<path style=" stroke:none;fill-rule:nonzero;fill:rgb(71.764708%,72.156864%,72.549021%);fill-opacity:1;" d="M 148.742188 94.914062 C 149.054688 95.105469 149.054688 95.105469 149.054688 95.105469 Z M 148.742188 94.914062 "/>
<path style=" stroke:none;fill-rule:nonzero;fill:rgb(60.784316%,60.392159%,61.176473%);fill-opacity:1;" d="M 171.023438 94.539062 C 171.335938 94.726562 171.335938 94.726562 171.335938 94.726562 Z M 171.023438 94.539062 "/>
<path style=" stroke:none;fill-rule:nonzero;fill:rgb(96.862745%,97.254902%,97.647059%);fill-opacity:1;" d="M 46.601562 92.453125 C 46.914062 92.640625 46.914062 92.640625 46.914062 92.640625 Z M 46.601562 92.453125 "/>
<path style=" stroke:none;fill-rule:nonzero;fill:rgb(66.666669%,66.666669%,67.450982%);fill-opacity:1;" d="M 171.023438 88.476562 C 171.335938 88.664062 171.335938 88.664062 171.335938 88.664062 Z M 171.023438 88.476562 "/>
<path style=" stroke:none;fill-rule:nonzero;fill:rgb(95.686275%,96.078432%,96.470588%);fill-opacity:1;" d="M 61.660156 84.875 C 61.976562 85.0625 61.976562 85.0625 61.976562 85.0625 Z M 61.660156 84.875 "/>
<path style=" stroke:none;fill-rule:nonzero;fill:rgb(72.549021%,72.941178%,74.117649%);fill-opacity:1;" d="M 171.023438 83.929688 C 171.335938 84.117188 171.335938 84.117188 171.335938 84.117188 Z M 171.023438 83.929688 "/>
<path style=" stroke:none;fill-rule:nonzero;fill:rgb(99.607843%,99.607843%,99.607843%);fill-opacity:1;" d="M 124.734375 83.929688 C 125.050781 84.117188 125.050781 84.117188 125.050781 84.117188 Z M 124.734375 83.929688 "/>
<path style=" stroke:none;fill-rule:nonzero;fill:rgb(97.647059%,97.254902%,97.647059%);fill-opacity:1;" d="M 131.011719 81.273438 C 131.328125 81.464844 131.328125 81.464844 131.328125 81.464844 Z M 131.011719 81.273438 "/>
<path style=" stroke:none;fill-rule:nonzero;fill:rgb(98.039216%,98.431373%,97.647059%);fill-opacity:1;" d="M 101.042969 80.140625 C 101.359375 80.328125 101.359375 80.328125 101.359375 80.328125 Z M 101.042969 80.140625 "/>
<path style=" stroke:none;fill-rule:nonzero;fill:rgb(82.745099%,82.745099%,83.137256%);fill-opacity:1;" d="M 171.023438 77.867188 C 171.335938 78.054688 171.335938 78.054688 171.335938 78.054688 Z M 171.023438 77.867188 "/>
<path style=" stroke:none;fill-rule:nonzero;fill:rgb(96.078432%,96.470588%,97.254902%);fill-opacity:1;" d="M 139.957031 76.726562 C 140.269531 76.917969 140.269531 76.917969 140.269531 76.917969 Z M 139.957031 76.726562 "/>
<path style=" stroke:none;fill-rule:nonzero;fill:rgb(96.078432%,96.470588%,96.862745%);fill-opacity:1;" d="M 158.625 74.835938 C 158.941406 75.023438 158.941406 75.023438 158.941406 75.023438 Z M 158.625 74.835938 "/>
<path style=" stroke:none;fill-rule:nonzero;fill:rgb(95.686275%,96.078432%,96.862745%);fill-opacity:1;" d="M 90.53125 74.835938 C 90.84375 75.023438 90.84375 75.023438 90.84375 75.023438 Z M 90.53125 74.835938 "/>
<path style=" stroke:none;fill-rule:nonzero;fill:rgb(96.078432%,96.078432%,96.862745%);fill-opacity:1;" d="M 146.074219 73.695312 C 146.390625 73.886719 146.390625 73.886719 146.390625 73.886719 Z M 146.074219 73.695312 "/>
<path style=" stroke:none;fill-rule:nonzero;fill:rgb(95.686275%,96.078432%,96.470588%);fill-opacity:1;" d="M 106.535156 73.695312 C 106.847656 73.886719 106.847656 73.886719 106.847656 73.886719 Z M 106.535156 73.695312 "/>
<path style=" stroke:none;fill-rule:nonzero;fill:rgb(96.078432%,96.470588%,96.862745%);fill-opacity:1;" d="M 104.808594 73.507812 C 105.125 73.695312 105.125 73.695312 105.125 73.695312 Z M 104.808594 73.507812 "/>
<path style=" stroke:none;fill-rule:nonzero;fill:rgb(95.686275%,96.470588%,96.862745%);fill-opacity:1;" d="M 103.554688 73.507812 C 103.867188 73.695312 103.867188 73.695312 103.867188 73.695312 Z M 103.554688 73.507812 "/>
<path style=" stroke:none;fill-rule:nonzero;fill:rgb(96.470588%,96.470588%,97.254902%);fill-opacity:1;" d="M 102.300781 73.507812 C 102.613281 73.695312 102.613281 73.695312 102.613281 73.695312 Z M 102.300781 73.507812 "/>
<path style=" stroke:none;fill-rule:nonzero;fill:rgb(90.980393%,90.588236%,91.37255%);fill-opacity:1;" d="M 171.023438 73.320312 C 171.335938 73.507812 171.335938 73.507812 171.335938 73.507812 Z M 171.023438 73.320312 "/>
<path style=" stroke:none;fill-rule:nonzero;fill:rgb(96.470588%,97.254902%,97.254902%);fill-opacity:1;" d="M 172.75 69.53125 C 173.0625 69.71875 173.0625 69.71875 173.0625 69.71875 Z M 172.75 69.53125 "/>
<path style=" stroke:none;fill-rule:nonzero;fill:rgb(95.686275%,96.470588%,97.647059%);fill-opacity:1;" d="M 178.710938 68.015625 C 179.023438 68.203125 179.023438 68.203125 179.023438 68.203125 Z M 178.710938 68.015625 "/>
<path style=" stroke:none;fill-rule:nonzero;fill:rgb(95.294118%,96.078432%,95.686275%);fill-opacity:1;" d="M 163.960938 65.550781 C 164.273438 65.742188 164.273438 65.742188 164.273438 65.742188 Z M 163.960938 65.550781 "/>
<path style=" stroke:none;fill-rule:nonzero;fill:rgb(95.686275%,96.470588%,96.470588%);fill-opacity:1;" d="M 169.609375 63.65625 C 169.921875 63.84375 169.921875 63.84375 169.921875 63.84375 Z M 169.609375 63.65625 "/>
<path style=" stroke:none;fill-rule:nonzero;fill:rgb(96.078432%,96.078432%,96.470588%);fill-opacity:1;" d="M 177.613281 61.382812 C 177.925781 61.570312 177.925781 61.570312 177.925781 61.570312 Z M 177.613281 61.382812 "/>
<path style=" stroke:none;fill-rule:nonzero;fill:rgb(95.686275%,96.078432%,96.078432%);fill-opacity:1;" d="M 203.03125 60.8125 C 203.34375 61.003906 203.34375 61.003906 203.34375 61.003906 Z M 203.03125 60.8125 "/>
<path style=" stroke:none;fill-rule:nonzero;fill:rgb(69.01961%,69.411767%,70.19608%);fill-opacity:1;" d="M 148.742188 58.539062 C 149.054688 58.730469 149.054688 58.730469 149.054688 58.730469 Z M 148.742188 58.539062 "/>
<path style=" stroke:none;fill-rule:nonzero;fill:rgb(72.549021%,71.764708%,72.941178%);fill-opacity:1;" d="M 171.023438 52.101562 C 171.335938 52.289062 171.335938 52.289062 171.335938 52.289062 Z M 171.023438 52.101562 "/>
<path style=" stroke:none;fill-rule:nonzero;fill:rgb(58.823532%,58.431375%,59.607846%);fill-opacity:1;" d="M 171.023438 44.523438 C 171.335938 44.710938 171.335938 44.710938 171.335938 44.710938 Z M 171.023438 44.523438 "/>
<path style=" stroke:none;fill-rule:nonzero;fill:rgb(51.372552%,51.764709%,52.941179%);fill-opacity:1;" d="M 171.023438 39.976562 C 171.335938 40.164062 171.335938 40.164062 171.335938 40.164062 Z M 171.023438 39.976562 "/>
<path style=" stroke:none;fill-rule:nonzero;fill:rgb(43.921569%,43.921569%,44.705883%);fill-opacity:1;" d="M 171.023438 33.914062 C 171.335938 34.101562 171.335938 34.101562 171.335938 34.101562 Z M 171.023438 33.914062 "/>
<path style=" stroke:none;fill-rule:nonzero;fill:rgb(41.176471%,40.784314%,41.960785%);fill-opacity:1;" d="M 171.023438 30.882812 C 171.335938 31.070312 171.335938 31.070312 171.335938 31.070312 Z M 171.023438 30.882812 "/>
<path style=" stroke:none;fill-rule:nonzero;fill:rgb(38.431373%,38.039216%,39.215687%);fill-opacity:1;" d="M 171.023438 27.851562 C 171.335938 28.039062 171.335938 28.039062 171.335938 28.039062 Z M 171.023438 27.851562 "/>
<path style=" stroke:none;fill-rule:nonzero;fill:rgb(37.254903%,37.64706%,38.431373%);fill-opacity:1;" d="M 171.023438 26.335938 C 171.335938 26.523438 171.335938 26.523438 171.335938 26.523438 Z M 171.023438 26.335938 "/>
<path style=" stroke:none;fill-rule:nonzero;fill:rgb(32.156864%,32.156864%,32.941177%);fill-opacity:1;" d="M 171.023438 15.726562 C 171.335938 15.914062 171.335938 15.914062 171.335938 15.914062 Z M 171.023438 15.726562 "/>
<path style=" stroke:none;fill-rule:nonzero;fill:rgb(30.980393%,30.588236%,31.37255%);fill-opacity:1;" d="M 171.023438 11.179688 C 171.335938 11.367188 171.335938 11.367188 171.335938 11.367188 Z M 171.023438 11.179688 "/>
<path style=" stroke:none;fill-rule:nonzero;fill:rgb(30.588236%,30.19608%,31.37255%);fill-opacity:1;" d="M 171.023438 8.148438 C 171.335938 8.335938 171.335938 8.335938 171.335938 8.335938 Z M 171.023438 8.148438 "/>
<path style=" stroke:none;fill-rule:nonzero;fill:rgb(30.588236%,29.803923%,30.980393%);fill-opacity:1;" d="M 171.023438 6.632812 C 171.335938 6.820312 171.335938 6.820312 171.335938 6.820312 Z M 171.023438 6.632812 "/>
<path style=" stroke:none;fill-rule:nonzero;fill:rgb(30.19608%,30.19608%,31.37255%);fill-opacity:1;" d="M 171.023438 5.117188 C 171.335938 5.304688 171.335938 5.304688 171.335938 5.304688 Z M 171.023438 5.117188 "/>
</g>
</svg>
