<?xml version="1.0" encoding="UTF-8"?>
<svg xmlns="http://www.w3.org/2000/svg" xmlns:xlink="http://www.w3.org/1999/xlink" width="265px" height="202px" viewBox="0 0 265 202" version="1.1">
<g id="surface1">
<path style=" stroke:none;fill-rule:nonzero;fill:rgb(99.607843%,99.607843%,99.607843%);fill-opacity:1;" d="M 128.875 35.507812 C 129.046875 35.574219 129.21875 35.636719 129.394531 35.703125 C 129.335938 35.835938 129.28125 35.964844 129.222656 36.101562 C 129.402344 36.140625 129.585938 36.179688 129.773438 36.222656 C 130.503906 36.46875 130.914062 36.933594 131.292969 37.679688 C 132.058594 39.554688 132.023438 41.644531 131.921875 43.667969 C 131.910156 43.957031 131.910156 43.957031 131.898438 44.25 C 131.878906 44.664062 131.859375 45.074219 131.839844 45.488281 C 131.808594 46.148438 131.78125 46.808594 131.75 47.46875 C 131.691406 48.875 131.625 50.277344 131.5625 51.683594 C 131.476562 53.523438 131.394531 55.367188 131.316406 57.207031 C 131.304688 57.425781 131.296875 57.648438 131.285156 57.875 C 131.148438 61.074219 131.050781 64.261719 131.121094 67.464844 C 131.007812 67.464844 130.890625 67.464844 130.773438 67.464844 C 130.832031 67.660156 130.886719 67.855469 130.945312 68.054688 C 130.949219 68.339844 130.941406 68.621094 130.925781 68.902344 C 130.917969 69.082031 130.910156 69.257812 130.902344 69.441406 C 130.890625 69.640625 130.882812 69.835938 130.871094 70.042969 C 130.765625 72.507812 130.757812 74.96875 130.765625 77.4375 C 130.765625 77.628906 130.765625 77.816406 130.765625 78.011719 C 130.765625 79.101562 130.769531 80.1875 130.773438 81.273438 C 130.820312 81.121094 130.867188 80.96875 130.917969 80.808594 C 131.144531 80.21875 131.4375 79.957031 131.878906 79.566406 C 132.347656 79.113281 132.695312 78.566406 133.0625 78.007812 C 133.136719 77.894531 133.210938 77.785156 133.289062 77.667969 C 133.574219 77.234375 133.847656 76.820312 134.050781 76.324219 C 134.308594 75.769531 134.695312 75.398438 135.085938 74.960938 C 135.398438 74.558594 135.703125 74.152344 136.003906 73.742188 C 136.085938 73.628906 136.171875 73.515625 136.253906 73.398438 C 136.859375 72.578125 137.445312 71.746094 138.03125 70.90625 C 138.964844 69.566406 139.921875 68.246094 140.890625 66.933594 C 140.96875 66.824219 141.050781 66.71875 141.132812 66.605469 C 141.675781 65.871094 142.230469 65.160156 142.808594 64.460938 C 143.074219 64.027344 143.132812 63.644531 143.195312 63.125 C 143.367188 63.058594 143.539062 62.996094 143.714844 62.929688 C 144.390625 62.390625 144.894531 61.742188 145.425781 61.03125 C 145.839844 60.488281 146.265625 59.957031 146.691406 59.425781 C 146.769531 59.328125 146.847656 59.226562 146.929688 59.125 C 147.359375 58.59375 147.789062 58.058594 148.21875 57.527344 C 148.308594 57.421875 148.394531 57.3125 148.484375 57.203125 C 148.652344 56.996094 148.820312 56.789062 148.988281 56.582031 C 149.417969 56.046875 149.417969 56.046875 149.753906 55.429688 C 149.867188 55.429688 149.980469 55.429688 150.097656 55.429688 C 150.15625 55.265625 150.15625 55.265625 150.214844 55.097656 C 150.507812 54.511719 150.878906 54.113281 151.304688 53.644531 C 151.769531 53.132812 152.15625 52.691406 152.511719 52.078125 C 152.625 52.078125 152.742188 52.078125 152.859375 52.078125 C 152.914062 51.882812 152.972656 51.6875 153.03125 51.484375 C 153.308594 51.148438 153.601562 50.820312 153.894531 50.5 C 154.082031 50.285156 154.265625 50.070312 154.453125 49.851562 C 155.011719 49.199219 155.574219 48.550781 156.140625 47.898438 C 156.378906 47.621094 156.621094 47.34375 156.859375 47.0625 C 158.210938 45.492188 159.519531 44.011719 161.140625 42.804688 C 161.308594 42.675781 161.480469 42.546875 161.65625 42.414062 C 162.777344 42.082031 163.898438 41.792969 165.003906 42.273438 C 165.753906 42.8125 166.328125 43.347656 166.832031 44.1875 C 166.777344 44.253906 166.71875 44.316406 166.660156 44.382812 C 166.914062 45.988281 166.914062 45.988281 167.683594 47.277344 C 167.925781 47.417969 168.167969 47.554688 168.414062 47.6875 C 169.007812 48.152344 169.105469 48.941406 169.25 49.710938 C 169.132812 49.710938 169.019531 49.710938 168.902344 49.710938 C 168.867188 49.90625 168.832031 50.105469 168.792969 50.308594 C 168.5625 51.234375 168.085938 51.863281 167.542969 52.582031 C 167.394531 52.789062 167.394531 52.789062 167.242188 52.996094 C 166.9375 53.417969 166.625 53.832031 166.316406 54.25 C 166.222656 54.375 166.128906 54.5 166.03125 54.628906 C 165.597656 55.210938 165.160156 55.789062 164.722656 56.371094 C 164.03125 57.292969 163.363281 58.234375 162.691406 59.179688 C 161.789062 60.453125 160.875 61.710938 159.945312 62.960938 C 159.445312 63.632812 158.953125 64.3125 158.464844 65 C 157.820312 65.90625 157.160156 66.800781 156.496094 67.695312 C 155.867188 68.542969 155.25 69.402344 154.632812 70.265625 C 154.207031 70.863281 153.769531 71.453125 153.332031 72.039062 C 152.628906 72.988281 151.9375 73.945312 151.25 74.910156 C 149.726562 77.0625 148.199219 79.214844 146.613281 81.308594 C 145.867188 82.296875 145.152344 83.308594 144.453125 84.339844 C 143.253906 86.097656 142.011719 87.816406 140.746094 89.511719 C 140.660156 89.625 140.578125 89.742188 140.488281 89.859375 C 140.257812 90.164062 140.027344 90.46875 139.796875 90.773438 C 139.398438 91.339844 139.054688 91.90625 138.710938 92.515625 C 138.769531 92.453125 138.824219 92.386719 138.882812 92.320312 C 139.054688 92.253906 139.226562 92.191406 139.402344 92.125 C 139.457031 92.253906 139.515625 92.382812 139.574219 92.515625 C 139.910156 92.488281 140.25 92.460938 140.585938 92.429688 C 140.773438 92.414062 140.964844 92.398438 141.15625 92.382812 C 141.636719 92.355469 141.636719 92.355469 141.988281 92.125 C 142.453125 92.15625 142.90625 92.242188 143.367188 92.320312 C 143.425781 92.191406 143.484375 92.058594 143.542969 91.925781 C 143.542969 92.054688 143.542969 92.1875 143.542969 92.320312 C 143.65625 92.296875 143.769531 92.273438 143.886719 92.25 C 145.476562 91.933594 147.066406 91.710938 148.667969 91.492188 C 148.964844 91.449219 149.261719 91.410156 149.558594 91.367188 C 150.34375 91.257812 151.132812 91.152344 151.917969 91.042969 C 152.40625 90.976562 152.890625 90.910156 153.378906 90.84375 C 157.496094 90.277344 161.617188 89.71875 165.742188 89.234375 C 165.890625 89.21875 166.035156 89.199219 166.1875 89.183594 C 166.453125 89.148438 166.71875 89.121094 166.984375 89.089844 C 167.621094 89.019531 167.621094 89.019531 168.210938 88.769531 C 168.472656 88.757812 168.730469 88.761719 168.988281 88.765625 C 169.882812 88.777344 170.761719 88.710938 171.652344 88.617188 C 171.984375 88.585938 172.316406 88.550781 172.648438 88.519531 C 172.824219 88.5 172.996094 88.484375 173.175781 88.464844 C 176.261719 88.15625 179.351562 87.875 182.445312 87.636719 C 182.6875 87.617188 182.6875 87.617188 182.933594 87.597656 C 183.390625 87.558594 183.847656 87.523438 184.304688 87.492188 C 184.4375 87.480469 184.570312 87.46875 184.707031 87.457031 C 186.351562 87.335938 187.816406 87.25 189.230469 88.363281 C 189.691406 89.105469 189.855469 89.824219 190.082031 90.691406 C 190.320312 91.40625 190.636719 91.9375 191.03125 92.554688 C 191.878906 93.964844 191.878906 93.964844 191.789062 94.976562 C 191.359375 96.878906 190.65625 99.351562 189.210938 100.53125 C 188.6875 100.835938 188.207031 100.988281 187.632812 101.136719 C 187.445312 101.183594 187.257812 101.234375 187.0625 101.285156 C 186.515625 101.390625 186.015625 101.414062 185.464844 101.394531 C 185.410156 101.523438 185.351562 101.65625 185.292969 101.789062 C 184.871094 101.894531 184.871094 101.894531 184.3125 101.972656 C 183.441406 102.113281 182.582031 102.277344 181.722656 102.480469 C 181.523438 102.527344 181.324219 102.574219 181.117188 102.621094 C 180.617188 102.734375 180.617188 102.734375 180.289062 103.171875 C 180.289062 103.039062 180.289062 102.910156 180.289062 102.773438 C 179.949219 102.84375 179.949219 102.84375 179.601562 102.972656 C 179.542969 103.101562 179.484375 103.234375 179.425781 103.367188 C 179.230469 103.308594 179.230469 103.308594 179.027344 103.25 C 178.148438 103.140625 177.355469 103.304688 176.484375 103.46875 C 176.296875 103.5 176.109375 103.535156 175.917969 103.570312 C 175.519531 103.640625 175.121094 103.710938 174.71875 103.785156 C 173.683594 103.972656 172.648438 104.15625 171.613281 104.339844 C 171.40625 104.375 171.203125 104.410156 170.992188 104.449219 C 169.09375 104.78125 167.195312 105.0625 165.285156 105.320312 C 164.988281 105.359375 164.988281 105.359375 164.679688 105.402344 C 164.511719 105.421875 164.34375 105.445312 164.167969 105.46875 C 163.742188 105.523438 163.742188 105.523438 163.398438 105.640625 C 162.875 105.777344 162.359375 105.785156 161.824219 105.808594 C 159.871094 105.925781 157.929688 106.175781 155.984375 106.417969 C 154.894531 106.554688 153.800781 106.6875 152.710938 106.820312 C 152.5 106.84375 152.285156 106.871094 152.066406 106.898438 C 150.375 107.105469 148.679688 107.300781 146.980469 107.484375 C 146.765625 107.507812 146.546875 107.53125 146.324219 107.558594 C 145.855469 107.605469 145.390625 107.65625 144.921875 107.707031 C 144.921875 107.835938 144.921875 107.96875 144.921875 108.101562 C 144.75 108.167969 144.582031 108.230469 144.40625 108.296875 C 144.347656 108.167969 144.289062 108.039062 144.230469 107.90625 C 142.878906 107.851562 141.597656 108.054688 140.265625 108.296875 C 140.394531 108.410156 140.394531 108.410156 140.53125 108.523438 C 140.945312 108.871094 141.359375 109.21875 141.773438 109.570312 C 141.996094 109.757812 141.996094 109.757812 142.222656 109.949219 C 142.890625 110.507812 143.550781 111.066406 144.207031 111.640625 C 144.304688 111.722656 144.398438 111.804688 144.496094 111.890625 C 144.746094 112.105469 144.992188 112.324219 145.242188 112.542969 C 145.585938 112.875 145.585938 112.875 145.957031 112.835938 C 146.246094 113.160156 146.535156 113.492188 146.820312 113.820312 C 147.167969 114.144531 147.519531 114.460938 147.875 114.773438 C 147.976562 114.859375 148.074219 114.945312 148.175781 115.03125 C 149.09375 115.828125 150.023438 116.605469 150.960938 117.375 C 151.195312 117.566406 151.425781 117.757812 151.660156 117.949219 C 152.71875 118.828125 153.78125 119.703125 154.839844 120.574219 C 155.097656 120.785156 155.351562 120.996094 155.609375 121.207031 C 155.789062 121.355469 155.789062 121.355469 155.972656 121.507812 C 156.621094 122.042969 157.273438 122.585938 157.914062 123.136719 C 159.90625 124.835938 161.9375 126.441406 164.007812 128.011719 C 164.164062 128.132812 164.320312 128.253906 164.484375 128.375 C 166.542969 129.945312 168.609375 131.480469 170.765625 132.871094 C 172.3125 133.882812 173.015625 135.050781 173.734375 136.902344 C 173.785156 137.035156 173.835938 137.164062 173.890625 137.300781 C 174.421875 138.851562 174.464844 140.582031 174.597656 142.226562 C 174.484375 142.226562 174.367188 142.226562 174.25 142.226562 C 174.246094 142.417969 174.238281 142.609375 174.230469 142.808594 C 174.097656 143.839844 173.582031 144.566406 173.042969 145.382812 C 172.929688 145.558594 172.816406 145.730469 172.699219 145.910156 C 171.359375 147.878906 171.359375 147.878906 170.414062 148.332031 C 169.199219 148.363281 167.996094 147.574219 166.9375 146.960938 C 166.804688 146.882812 166.671875 146.808594 166.535156 146.730469 C 166.261719 146.574219 165.984375 146.414062 165.710938 146.253906 C 165.292969 146.015625 164.875 145.777344 164.457031 145.539062 C 163.214844 144.828125 161.988281 144.109375 160.804688 143.269531 C 160.363281 142.957031 159.90625 142.667969 159.449219 142.382812 C 158.175781 141.585938 156.964844 140.714844 155.761719 139.78125 C 155.191406 139.335938 154.609375 138.90625 154.023438 138.480469 C 152.511719 137.375 151.039062 136.210938 149.582031 135.015625 C 149.25 134.746094 148.917969 134.476562 148.585938 134.207031 C 146.621094 132.613281 144.703125 130.949219 142.800781 129.253906 C 142.214844 128.730469 141.628906 128.207031 141.039062 127.695312 C 139.902344 126.71875 138.820312 125.695312 137.753906 124.621094 C 137.125 123.992188 136.484375 123.375 135.832031 122.773438 C 134.964844 121.972656 134.148438 121.117188 133.328125 120.253906 C 132.90625 119.804688 132.476562 119.355469 132.046875 118.914062 C 131.890625 118.75 131.890625 118.75 131.726562 118.585938 C 131.472656 118.320312 131.472656 118.320312 131.121094 118.359375 C 131.148438 118.460938 131.175781 118.566406 131.207031 118.671875 C 131.316406 119.277344 131.304688 119.839844 131.292969 120.460938 C 131.28125 122.011719 131.335938 123.558594 131.40625 125.105469 C 131.425781 125.605469 131.445312 126.101562 131.46875 126.601562 C 131.496094 127.328125 131.527344 128.050781 131.558594 128.777344 C 131.851562 135.820312 132.089844 142.863281 132.285156 149.910156 C 132.296875 150.316406 132.308594 150.726562 132.316406 151.132812 C 132.351562 152.28125 132.378906 153.429688 132.410156 154.574219 C 132.414062 154.75 132.421875 154.921875 132.425781 155.097656 C 132.570312 160.464844 132.570312 160.464844 132.15625 161.5625 C 131.820312 161.902344 131.472656 162.230469 131.121094 162.546875 C 130.882812 162.933594 130.652344 163.328125 130.429688 163.730469 C 130.03125 164.273438 129.675781 164.457031 129.085938 164.667969 C 128.929688 164.726562 128.769531 164.785156 128.605469 164.847656 C 128.4375 164.90625 128.273438 164.964844 128.101562 165.023438 C 127.773438 165.144531 127.441406 165.261719 127.113281 165.382812 C 126.96875 165.433594 126.824219 165.488281 126.671875 165.539062 C 126.25 165.699219 126.25 165.699219 125.773438 166.097656 C 124.988281 166.367188 124.441406 166.28125 123.707031 165.929688 C 122.777344 165.328125 122.128906 164.496094 121.804688 163.335938 C 121.691406 162.773438 121.605469 162.203125 121.523438 161.632812 C 121.5 161.484375 121.476562 161.332031 121.453125 161.179688 C 121.363281 160.574219 121.285156 160.003906 121.285156 159.390625 C 121.113281 159.324219 120.945312 159.261719 120.769531 159.195312 C 120.882812 159.195312 120.996094 159.195312 121.113281 159.195312 C 121.070312 159.082031 121.03125 158.972656 120.988281 158.855469 C 118.082031 150.527344 118.933594 139.746094 118.574219 130.9375 C 118.554688 130.507812 118.539062 130.078125 118.519531 129.648438 C 118.511719 129.4375 118.511719 129.4375 118.503906 129.222656 C 118.492188 128.941406 118.480469 128.660156 118.46875 128.382812 C 118.433594 127.558594 118.402344 126.734375 118.367188 125.910156 C 118.34375 125.28125 118.316406 124.652344 118.292969 124.023438 C 118.285156 123.796875 118.273438 123.566406 118.265625 123.332031 C 118.257812 123.121094 118.25 122.914062 118.238281 122.699219 C 118.226562 122.425781 118.226562 122.425781 118.21875 122.148438 C 118.203125 121.703125 118.203125 121.703125 118.007812 121.320312 C 118.121094 121.320312 118.234375 121.320312 118.351562 121.320312 C 118.238281 121.125 118.125 120.929688 118.007812 120.726562 C 116.804688 122.585938 115.605469 124.445312 114.429688 126.324219 C 113.601562 127.640625 112.75 128.929688 111.882812 130.210938 C 111.328125 131.027344 110.78125 131.851562 110.234375 132.671875 C 110.113281 132.855469 109.992188 133.035156 109.867188 133.222656 C 108.933594 134.625 108.007812 136.03125 107.085938 137.445312 C 106.0625 139.015625 105.027344 140.582031 103.980469 142.128906 C 103.882812 142.273438 103.785156 142.417969 103.683594 142.566406 C 102.246094 144.683594 100.789062 146.328125 98.796875 147.773438 C 97.90625 148.421875 97.019531 149.078125 96.136719 149.742188 C 96.023438 149.828125 95.910156 149.910156 95.796875 150 C 95.445312 150.261719 95.097656 150.523438 94.75 150.785156 C 91.4375 153.273438 91.4375 153.273438 89.816406 154.453125 C 89.398438 154.761719 89.03125 155.042969 88.679688 155.445312 C 88.308594 155.660156 87.933594 155.863281 87.558594 156.0625 C 87.355469 156.167969 87.15625 156.273438 86.949219 156.382812 C 86.4375 156.628906 86.4375 156.628906 86.089844 156.628906 C 86.035156 156.757812 85.976562 156.890625 85.917969 157.023438 C 85.085938 156.625 84.472656 156.152344 84.019531 155.25 C 83.855469 154.558594 83.789062 153.871094 83.730469 153.164062 C 83.628906 151.84375 83.628906 151.84375 83.316406 150.582031 C 83.078125 149.890625 83.042969 149.261719 83.15625 148.539062 C 83.398438 147.929688 83.722656 147.40625 84.0625 146.863281 C 84.15625 146.710938 84.25 146.558594 84.347656 146.398438 C 85.214844 144.976562 86.128906 143.589844 87.046875 142.210938 C 87.449219 141.605469 87.84375 140.992188 88.234375 140.378906 C 88.3125 140.257812 88.390625 140.140625 88.46875 140.015625 C 88.894531 139.351562 89.316406 138.6875 89.734375 138.019531 C 90.746094 136.410156 91.769531 134.816406 92.828125 133.25 C 93.75 131.875 94.648438 130.480469 95.542969 129.085938 C 96.320312 127.875 97.105469 126.679688 97.894531 125.480469 C 99.636719 123.007812 99.636719 123.007812 101.101562 120.332031 C 101.214844 120.332031 101.328125 120.332031 101.445312 120.332031 C 101.507812 120.175781 101.507812 120.175781 101.570312 120.015625 C 101.859375 119.398438 102.207031 118.839844 102.566406 118.273438 C 102.644531 118.152344 102.71875 118.03125 102.796875 117.90625 C 103.386719 116.96875 104.003906 116.054688 104.628906 115.144531 C 105.199219 114.300781 105.695312 113.421875 106.183594 112.519531 C 106.519531 111.917969 106.898438 111.394531 107.3125 110.863281 C 105.925781 110.84375 104.550781 110.898438 103.167969 110.984375 C 102.726562 111.011719 102.285156 111.039062 101.847656 111.0625 C 101.613281 111.078125 101.382812 111.089844 101.152344 111.105469 C 96.515625 111.378906 91.878906 111.585938 87.234375 111.648438 C 86.929688 111.652344 86.625 111.65625 86.320312 111.660156 C 83.265625 111.703125 80.207031 111.714844 77.152344 111.539062 C 76.808594 111.515625 76.464844 111.5 76.121094 111.484375 C 74.480469 111.367188 73.152344 110.964844 72.007812 109.554688 C 71.65625 109.0625 71.597656 108.960938 71.597656 108.296875 C 71.484375 108.234375 71.371094 108.167969 71.253906 108.101562 C 71.101562 107.742188 71.101562 107.742188 70.957031 107.277344 C 70.875 107.027344 70.875 107.027344 70.792969 106.769531 C 70.710938 106.507812 70.710938 106.507812 70.628906 106.238281 C 70.570312 106.066406 70.515625 105.890625 70.457031 105.710938 C 70.046875 104.410156 70.046875 104.410156 70.046875 103.960938 C 69.933594 103.894531 69.816406 103.828125 69.699219 103.761719 C 69.753906 102.054688 69.972656 101.152344 70.996094 99.867188 C 71.773438 99.175781 72.71875 99.144531 73.667969 99.027344 C 73.941406 98.992188 74.210938 98.957031 74.480469 98.925781 C 74.902344 98.871094 75.324219 98.820312 75.746094 98.769531 C 76.453125 98.703125 76.453125 98.703125 77.117188 98.4375 C 77.609375 98.429688 78.101562 98.4375 78.59375 98.449219 C 81.101562 98.472656 83.597656 98.261719 86.097656 98.0625 C 86.503906 98.027344 86.910156 97.996094 87.316406 97.964844 C 91.609375 97.625 95.890625 97.199219 100.171875 96.710938 C 100.304688 96.695312 100.441406 96.679688 100.578125 96.664062 C 101.460938 96.5625 102.347656 96.460938 103.230469 96.355469 C 103.5625 96.316406 103.5625 96.316406 103.902344 96.277344 C 104.871094 96.160156 105.832031 96.039062 106.792969 95.871094 C 106.707031 95.761719 106.621094 95.652344 106.53125 95.539062 C 106.417969 95.398438 106.304688 95.253906 106.191406 95.105469 C 106.078125 94.964844 105.964844 94.824219 105.851562 94.675781 C 105.585938 94.292969 105.585938 94.292969 105.585938 93.898438 C 105.472656 93.898438 105.359375 93.898438 105.242188 93.898438 C 105.023438 93.621094 105.023438 93.621094 104.753906 93.207031 C 104.183594 92.339844 103.589844 91.496094 102.988281 90.65625 C 101.757812 88.933594 100.5625 87.179688 99.375 85.414062 C 99.238281 85.214844 99.101562 85.011719 98.960938 84.804688 C 97.601562 82.757812 96.308594 80.648438 95.0625 78.511719 C 94.890625 78.445312 94.71875 78.382812 94.542969 78.3125 C 94.527344 78.175781 94.511719 78.035156 94.496094 77.890625 C 94.351562 77.226562 94.105469 76.777344 93.777344 76.207031 C 93.671875 76.019531 93.566406 75.832031 93.457031 75.636719 C 93.175781 75.152344 93.175781 75.152344 92.820312 74.765625 C 92.613281 74.375 92.410156 73.976562 92.214844 73.578125 C 92.15625 73.457031 92.09375 73.335938 92.03125 73.210938 C 91.835938 72.808594 91.636719 72.40625 91.4375 72 C 91.371094 71.863281 91.304688 71.726562 91.234375 71.585938 C 87.007812 63 87.007812 63 87.46875 60.953125 C 87.6875 60.375 87.6875 60.375 87.988281 59.96875 C 88.121094 59.941406 88.253906 59.910156 88.386719 59.882812 C 88.917969 59.753906 89.214844 59.527344 89.660156 59.179688 C 90.6875 58.457031 91.5625 58.234375 92.75 58.484375 C 95.40625 59.3125 97.160156 61.679688 98.859375 64.007812 C 99.449219 64.8125 100.070312 65.578125 100.703125 66.335938 C 101.273438 67.027344 101.273438 67.027344 101.273438 67.464844 C 101.386719 67.464844 101.5 67.464844 101.617188 67.464844 C 101.886719 67.820312 101.886719 67.820312 102.1875 68.289062 C 102.65625 68.992188 103.128906 69.617188 103.6875 70.226562 C 104.507812 71.148438 105.308594 72.070312 106.046875 73.078125 C 106.390625 73.535156 106.761719 73.949219 107.140625 74.367188 C 107.742188 75.042969 108.328125 75.71875 108.875 76.453125 C 109.5625 77.367188 110.3125 78.207031 111.066406 79.050781 C 111.574219 79.625 112.066406 80.207031 112.53125 80.828125 C 113.148438 81.640625 113.796875 82.402344 114.464844 83.160156 C 114.582031 83.292969 114.699219 83.425781 114.820312 83.5625 C 115.1875 83.984375 115.558594 84.40625 115.925781 84.824219 C 116.179688 85.113281 116.429688 85.398438 116.683594 85.6875 C 117.296875 86.386719 117.910156 87.085938 118.523438 87.78125 C 118.582031 87.589844 118.640625 87.394531 118.699219 87.191406 C 118.585938 87.125 118.46875 87.0625 118.351562 86.992188 C 118.410156 86.929688 118.464844 86.863281 118.523438 86.796875 C 118.550781 86.496094 118.5625 86.191406 118.570312 85.886719 C 118.574219 85.691406 118.578125 85.496094 118.585938 85.292969 C 118.59375 84.964844 118.59375 84.964844 118.597656 84.632812 C 118.613281 84.164062 118.625 83.691406 118.636719 83.222656 C 118.644531 82.972656 118.648438 82.722656 118.65625 82.460938 C 118.691406 81.132812 118.726562 79.800781 118.765625 78.46875 C 118.769531 78.332031 118.773438 78.195312 118.78125 78.054688 C 118.914062 73.480469 119.128906 68.914062 119.355469 64.34375 C 119.386719 63.761719 119.414062 63.175781 119.441406 62.589844 C 119.691406 57.078125 120.222656 51.617188 120.804688 46.140625 C 120.828125 45.929688 120.828125 45.929688 120.851562 45.710938 C 120.921875 45.039062 120.996094 44.363281 121.070312 43.691406 C 121.203125 42.4375 121.328125 41.1875 121.402344 39.929688 C 121.5625 38.53125 122.082031 37.367188 122.984375 36.414062 C 123.574219 35.914062 124.210938 35.527344 124.863281 35.144531 C 125.238281 34.953125 125.238281 34.953125 125.425781 34.71875 C 126.660156 34.394531 127.894531 34.515625 128.875 35.507812 Z M 118.179688 120.132812 C 118.351562 120.53125 118.351562 120.53125 118.351562 120.53125 Z M 118.179688 120.132812 "/>
<path style=" stroke:none;fill-rule:nonzero;fill:rgb(93.725491%,93.725491%,93.333334%);fill-opacity:1;" d="M 121.804688 38.46875 C 121.859375 38.46875 121.917969 38.46875 121.976562 38.46875 C 121.953125 38.875 121.925781 39.28125 121.902344 39.6875 C 121.886719 39.914062 121.871094 40.140625 121.859375 40.375 C 121.8125 40.9375 121.738281 41.46875 121.628906 42.015625 C 121.285156 41.625 121.285156 41.625 121.277344 41.144531 C 121.292969 40.957031 121.3125 40.769531 121.328125 40.574219 C 121.34375 40.390625 121.359375 40.203125 121.375 40.011719 C 121.457031 39.449219 121.601562 38.984375 121.804688 38.46875 Z M 121.285156 42.015625 C 121.34375 42.015625 121.398438 42.015625 121.457031 42.015625 C 121.484375 43.566406 121.421875 45.058594 121.242188 46.59375 C 121.199219 47.007812 121.152344 47.421875 121.109375 47.839844 C 121.082031 48.050781 121.058594 48.265625 121.035156 48.484375 C 120.632812 52.113281 120.261719 55.726562 120.078125 59.375 C 120.058594 59.75 120.039062 60.125 120.019531 60.5 C 120.003906 60.808594 120.003906 60.808594 119.988281 61.125 C 119.945312 62 119.898438 62.871094 119.851562 63.746094 C 119.820312 64.398438 119.789062 65.050781 119.757812 65.707031 C 119.738281 66.109375 119.714844 66.511719 119.695312 66.917969 C 119.6875 67.105469 119.679688 67.292969 119.667969 67.488281 C 119.660156 67.660156 119.652344 67.835938 119.640625 68.011719 C 119.632812 68.164062 119.628906 68.316406 119.621094 68.472656 C 119.558594 68.84375 119.558594 68.84375 119.214844 69.242188 C 119.402344 60.097656 120.269531 51.082031 121.285156 42.015625 Z M 121.285156 42.015625 "/>
<path style=" stroke:none;fill-rule:nonzero;fill:rgb(92.941177%,92.941177%,93.333334%);fill-opacity:1;" d="M 189.035156 88.238281 C 189.273438 88.511719 189.273438 88.511719 189.605469 88.96875 C 189.550781 89.160156 189.492188 89.355469 189.433594 89.558594 C 189.15625 89.117188 189.15625 89.117188 188.878906 88.671875 C 186.992188 86.84375 182.023438 88.148438 179.78125 88.324219 C 179.449219 88.351562 179.449219 88.351562 179.105469 88.378906 C 175.914062 88.628906 172.726562 88.921875 169.546875 89.316406 C 168.0625 89.5 166.601562 89.605469 165.109375 89.558594 C 165.109375 89.492188 165.109375 89.429688 165.109375 89.359375 C 165.300781 89.335938 165.496094 89.308594 165.699219 89.28125 C 165.953125 89.246094 166.210938 89.210938 166.464844 89.175781 C 166.59375 89.160156 166.722656 89.140625 166.855469 89.125 C 167.554688 89.039062 167.554688 89.039062 168.210938 88.769531 C 168.472656 88.757812 168.730469 88.761719 168.988281 88.765625 C 169.882812 88.777344 170.761719 88.710938 171.652344 88.617188 C 171.984375 88.585938 172.316406 88.550781 172.648438 88.519531 C 172.824219 88.5 172.996094 88.484375 173.175781 88.464844 C 176.261719 88.15625 179.351562 87.875 182.445312 87.636719 C 182.609375 87.621094 182.769531 87.609375 182.933594 87.597656 C 183.390625 87.558594 183.847656 87.523438 184.304688 87.492188 C 184.4375 87.480469 184.570312 87.46875 184.707031 87.457031 C 187.894531 87.222656 187.894531 87.222656 189.035156 88.238281 Z M 189.035156 88.238281 "/>
<path style=" stroke:none;fill-rule:nonzero;fill:rgb(94.117647%,94.117647%,93.725491%);fill-opacity:1;" d="M 157.171875 90.347656 C 157.257812 90.542969 157.257812 90.542969 157.34375 90.742188 C 155.988281 90.953125 154.632812 91.160156 153.277344 91.363281 C 152.480469 91.484375 151.683594 91.605469 150.886719 91.730469 C 146.726562 92.367188 142.546875 92.738281 138.367188 93.109375 C 138.367188 92.847656 138.367188 92.589844 138.367188 92.320312 C 138.480469 92.253906 138.59375 92.191406 138.710938 92.125 C 138.769531 92.1875 138.824219 92.253906 138.882812 92.320312 C 139.054688 92.253906 139.226562 92.191406 139.402344 92.125 C 139.457031 92.253906 139.515625 92.382812 139.574219 92.515625 C 139.910156 92.488281 140.25 92.460938 140.585938 92.429688 C 140.773438 92.414062 140.964844 92.398438 141.15625 92.382812 C 141.636719 92.355469 141.636719 92.355469 141.988281 92.125 C 142.453125 92.15625 142.90625 92.242188 143.367188 92.320312 C 143.425781 92.191406 143.484375 92.058594 143.542969 91.925781 C 143.542969 92.054688 143.542969 92.1875 143.542969 92.320312 C 143.660156 92.296875 143.777344 92.273438 143.898438 92.246094 C 145.375 91.957031 146.855469 91.742188 148.34375 91.542969 C 148.597656 91.507812 148.855469 91.472656 149.113281 91.4375 C 149.777344 91.347656 150.445312 91.257812 151.113281 91.167969 C 151.796875 91.074219 152.480469 90.980469 153.164062 90.890625 C 154.5 90.707031 155.835938 90.527344 157.171875 90.347656 Z M 157.171875 90.347656 "/>
<path style=" stroke:none;fill-rule:nonzero;fill:rgb(92.941177%,93.333334%,93.333334%);fill-opacity:1;" d="M 189.953125 99.027344 C 190.035156 99.222656 190.035156 99.222656 190.125 99.421875 C 189.410156 100.679688 188.464844 100.898438 187.253906 101.234375 C 186.652344 101.378906 186.085938 101.429688 185.464844 101.394531 C 185.410156 101.523438 185.351562 101.65625 185.292969 101.789062 C 184.871094 101.894531 184.871094 101.894531 184.3125 101.972656 C 183.441406 102.113281 182.582031 102.277344 181.722656 102.480469 C 181.523438 102.527344 181.324219 102.574219 181.117188 102.621094 C 180.617188 102.734375 180.617188 102.734375 180.289062 103.171875 C 180.289062 103.039062 180.289062 102.910156 180.289062 102.773438 C 179.949219 102.84375 179.949219 102.84375 179.601562 102.972656 C 179.542969 103.101562 179.484375 103.234375 179.425781 103.367188 C 179.289062 103.332031 179.148438 103.292969 179.007812 103.257812 C 178.257812 103.152344 177.582031 103.246094 176.839844 103.367188 C 176.894531 103.238281 176.953125 103.105469 177.011719 102.972656 C 177.4375 102.851562 177.855469 102.757812 178.285156 102.671875 C 178.417969 102.648438 178.550781 102.621094 178.6875 102.59375 C 178.972656 102.535156 179.257812 102.476562 179.542969 102.421875 C 180.289062 102.269531 181.039062 102.117188 181.785156 101.960938 C 181.9375 101.929688 182.085938 101.898438 182.242188 101.867188 C 183.636719 101.578125 185.027344 101.28125 186.414062 100.964844 C 186.617188 100.917969 186.824219 100.875 187.035156 100.828125 C 188.292969 100.535156 189.207031 100.300781 189.953125 99.027344 Z M 189.953125 99.027344 "/>
<path style=" stroke:none;fill-rule:nonzero;fill:rgb(93.725491%,93.725491%,93.333334%);fill-opacity:1;" d="M 130.773438 117.570312 C 131.519531 117.78125 131.6875 117.957031 132.199219 118.570312 C 132.320312 118.714844 132.441406 118.859375 132.566406 119.007812 C 132.660156 119.117188 132.75 119.230469 132.84375 119.34375 C 132.226562 119.34375 132.136719 119.214844 131.691406 118.753906 C 131.582031 118.644531 131.476562 118.535156 131.367188 118.421875 C 131.285156 118.335938 131.203125 118.25 131.121094 118.164062 C 131.171875 118.371094 131.171875 118.371094 131.226562 118.582031 C 131.304688 119.265625 131.167969 119.695312 130.945312 120.332031 C 130.890625 120.332031 130.832031 120.332031 130.773438 120.332031 C 130.773438 119.421875 130.773438 118.507812 130.773438 117.570312 Z M 130.773438 117.570312 "/>
<path style=" stroke:none;fill-rule:nonzero;fill:rgb(87.058824%,87.058824%,87.450981%);fill-opacity:1;" d="M 127.667969 34.71875 C 127.667969 34.785156 127.667969 34.847656 127.667969 34.914062 C 127.523438 34.933594 127.382812 34.949219 127.234375 34.96875 C 125.582031 35.203125 124.492188 35.746094 123.183594 36.890625 C 123.070312 36.824219 122.957031 36.757812 122.839844 36.691406 C 124.367188 35.332031 125.628906 34.207031 127.667969 34.71875 Z M 127.667969 34.71875 "/>
<path style=" stroke:none;fill-rule:nonzero;fill:rgb(95.294118%,95.686275%,95.294118%);fill-opacity:1;" d="M 180.980469 102.183594 C 181.035156 102.3125 181.09375 102.445312 181.152344 102.578125 C 180.632812 102.972656 180.632812 102.972656 180.289062 103.171875 C 180.289062 103.039062 180.289062 102.910156 180.289062 102.773438 C 179.949219 102.84375 179.949219 102.84375 179.597656 102.972656 C 179.542969 103.101562 179.484375 103.234375 179.425781 103.367188 C 179.289062 103.332031 179.148438 103.292969 179.007812 103.257812 C 178.257812 103.152344 177.582031 103.246094 176.839844 103.367188 C 176.894531 103.238281 176.953125 103.105469 177.011719 102.972656 C 177.394531 102.855469 177.394531 102.855469 177.898438 102.761719 C 178.074219 102.726562 178.253906 102.691406 178.4375 102.65625 C 178.625 102.625 178.8125 102.589844 179.007812 102.554688 C 179.289062 102.5 179.289062 102.5 179.578125 102.445312 C 180.042969 102.355469 180.511719 102.269531 180.980469 102.183594 Z M 180.980469 102.183594 "/>
<path style=" stroke:none;fill-rule:nonzero;fill:rgb(95.294118%,95.294118%,95.686275%);fill-opacity:1;" d="M 164.246094 105.140625 C 163.386719 105.796875 162.625 105.761719 161.613281 105.746094 C 161.484375 105.746094 161.355469 105.746094 161.222656 105.742188 C 160.910156 105.742188 160.59375 105.738281 160.277344 105.734375 C 160.277344 105.667969 160.277344 105.605469 160.277344 105.539062 C 161.609375 105.269531 162.890625 105.078125 164.246094 105.140625 Z M 164.246094 105.140625 "/>
<path style=" stroke:none;fill-rule:nonzero;fill:rgb(94.901961%,95.294118%,95.294118%);fill-opacity:1;" d="M 145.4375 107.3125 C 145.269531 107.441406 145.097656 107.574219 144.921875 107.707031 C 144.921875 107.835938 144.921875 107.96875 144.921875 108.101562 C 144.75 108.167969 144.582031 108.230469 144.40625 108.296875 C 144.347656 108.167969 144.289062 108.039062 144.230469 107.90625 C 143.746094 107.8125 143.746094 107.8125 143.1875 107.78125 C 142.898438 107.757812 142.898438 107.757812 142.609375 107.734375 C 142.460938 107.726562 142.3125 107.71875 142.160156 107.707031 C 142.160156 107.640625 142.160156 107.578125 142.160156 107.507812 C 143.261719 107.320312 144.328125 107.292969 145.4375 107.3125 Z M 145.4375 107.3125 "/>
<path style=" stroke:none;fill-rule:nonzero;fill:rgb(95.686275%,96.078432%,96.078432%);fill-opacity:1;" d="M 171.835938 132.757812 C 172.007812 132.824219 172.175781 132.890625 172.351562 132.957031 C 172.296875 133.21875 172.238281 133.476562 172.179688 133.746094 C 171.953125 133.550781 171.726562 133.355469 171.492188 133.15625 C 171.605469 133.15625 171.71875 133.15625 171.835938 133.15625 C 171.835938 133.023438 171.835938 132.894531 171.835938 132.757812 Z M 172.007812 132.957031 C 172.179688 133.351562 172.179688 133.351562 172.179688 133.351562 Z M 172.007812 132.957031 "/>
<path style=" stroke:none;fill-rule:nonzero;fill:rgb(92.54902%,93.333334%,93.333334%);fill-opacity:1;" d="M 188.570312 86.796875 C 188.683594 86.863281 188.796875 86.925781 188.914062 86.992188 C 188.859375 87.1875 188.800781 87.382812 188.742188 87.585938 C 188.515625 87.519531 188.289062 87.457031 188.054688 87.390625 C 188.222656 87.195312 188.394531 87 188.570312 86.796875 Z M 188.570312 86.796875 "/>
<path style=" stroke:none;fill-rule:nonzero;fill:rgb(91.37255%,91.764706%,91.764706%);fill-opacity:1;" d="M 172.179688 147.160156 C 172.238281 147.421875 172.292969 147.679688 172.351562 147.949219 C 172.183594 147.882812 172.011719 147.820312 171.835938 147.75 C 171.835938 147.621094 171.835938 147.492188 171.835938 147.359375 C 171.949219 147.292969 172.0625 147.226562 172.179688 147.160156 Z M 172.179688 147.160156 "/>
<path style=" stroke:none;fill-rule:nonzero;fill:rgb(98.431373%,98.431373%,98.431373%);fill-opacity:1;" d="M 101.445312 66.476562 C 101.617188 66.476562 101.785156 66.476562 101.960938 66.476562 C 102.019531 66.671875 102.078125 66.867188 102.136719 67.070312 C 101.90625 67.003906 101.679688 66.941406 101.445312 66.875 C 101.445312 66.742188 101.445312 66.613281 101.445312 66.476562 Z M 101.445312 66.476562 "/>
<path style=" stroke:none;fill-rule:nonzero;fill:rgb(96.862745%,96.862745%,96.862745%);fill-opacity:1;" d="M 166.316406 54.25 C 166.429688 54.507812 166.542969 54.769531 166.660156 55.039062 C 166.488281 55.132812 166.488281 55.132812 166.316406 55.234375 C 166.316406 54.910156 166.316406 54.582031 166.316406 54.25 Z M 166.316406 54.25 "/>
<path style=" stroke:none;fill-rule:nonzero;fill:rgb(94.901961%,94.901961%,95.294118%);fill-opacity:1;" d="M 174.597656 139.664062 C 174.765625 139.730469 174.9375 139.792969 175.113281 139.859375 C 175 139.859375 174.886719 139.859375 174.769531 139.859375 C 174.710938 140.054688 174.65625 140.25 174.597656 140.453125 C 174.597656 140.191406 174.597656 139.933594 174.597656 139.664062 Z M 174.597656 139.664062 "/>
<path style=" stroke:none;fill-rule:nonzero;fill:rgb(97.647059%,98.039216%,98.039216%);fill-opacity:1;" d="M 175.285156 103.761719 C 175.570312 103.761719 175.855469 103.761719 176.148438 103.761719 C 176.148438 103.828125 176.148438 103.890625 176.148438 103.960938 C 175.863281 103.960938 175.578125 103.960938 175.285156 103.960938 C 175.285156 103.894531 175.285156 103.828125 175.285156 103.761719 Z M 175.285156 103.761719 "/>
<path style=" stroke:none;fill-rule:nonzero;fill:rgb(96.862745%,96.470588%,97.254902%);fill-opacity:1;" d="M 183.914062 101.984375 C 184.140625 102.050781 184.367188 102.117188 184.601562 102.183594 C 184.433594 102.28125 184.433594 102.28125 184.257812 102.382812 C 184.144531 102.25 184.03125 102.121094 183.914062 101.984375 Z M 183.914062 101.984375 "/>
<path style=" stroke:none;fill-rule:nonzero;fill:rgb(99.215686%,99.215686%,99.607843%);fill-opacity:1;" d="M 102.652344 90.347656 C 102.710938 90.476562 102.765625 90.609375 102.824219 90.742188 C 102.597656 90.675781 102.371094 90.613281 102.136719 90.546875 C 102.304688 90.480469 102.476562 90.414062 102.652344 90.347656 Z M 102.652344 90.347656 "/>
<path style=" stroke:none;fill-rule:nonzero;fill:rgb(98.039216%,98.431373%,98.039216%);fill-opacity:1;" d="M 119.214844 149.328125 C 119.386719 150.117188 119.386719 150.117188 119.386719 150.117188 Z M 119.214844 149.328125 "/>
<path style=" stroke:none;fill-rule:nonzero;fill:rgb(96.862745%,97.254902%,97.254902%);fill-opacity:1;" d="M 167.695312 130 C 167.808594 130 167.921875 130 168.039062 130 C 168.039062 130.128906 168.039062 130.257812 168.039062 130.390625 C 167.925781 130.390625 167.8125 130.390625 167.695312 130.390625 C 167.695312 130.261719 167.695312 130.132812 167.695312 130 Z M 167.695312 130 "/>
<path style=" stroke:none;fill-rule:nonzero;fill:rgb(98.431373%,98.823529%,98.431373%);fill-opacity:1;" d="M 159.585938 123.289062 C 159.699219 123.421875 159.8125 123.550781 159.929688 123.6875 C 159.761719 123.621094 159.589844 123.554688 159.414062 123.488281 C 159.472656 123.421875 159.527344 123.359375 159.585938 123.289062 Z M 159.585938 123.289062 "/>
<path style=" stroke:none;fill-rule:nonzero;fill:rgb(98.823529%,99.215686%,98.823529%);fill-opacity:1;" d="M 98.167969 123.09375 C 98.28125 123.160156 98.394531 123.222656 98.511719 123.289062 C 98.339844 123.289062 98.171875 123.289062 97.996094 123.289062 C 98.050781 123.226562 98.109375 123.160156 98.167969 123.09375 Z M 98.167969 123.09375 "/>
<path style=" stroke:none;fill-rule:nonzero;fill:rgb(98.823529%,98.823529%,98.823529%);fill-opacity:1;" d="M 151.132812 107.117188 C 151.824219 107.3125 151.824219 107.3125 151.824219 107.3125 Z M 151.132812 107.117188 "/>
<path style=" stroke:none;fill-rule:nonzero;fill:rgb(98.039216%,98.431373%,98.431373%);fill-opacity:1;" d="M 167.003906 105.140625 C 167.695312 105.339844 167.695312 105.339844 167.695312 105.339844 Z M 167.003906 105.140625 "/>
<path style=" stroke:none;fill-rule:nonzero;fill:rgb(98.431373%,98.823529%,98.823529%);fill-opacity:1;" d="M 106.277344 95.28125 C 106.445312 95.570312 106.445312 95.570312 106.621094 95.871094 C 106.507812 95.871094 106.394531 95.871094 106.277344 95.871094 C 106.277344 95.675781 106.277344 95.480469 106.277344 95.28125 Z M 106.277344 95.28125 "/>
<path style=" stroke:none;fill-rule:nonzero;fill:rgb(93.333334%,93.725491%,94.117647%);fill-opacity:1;" d="M 187.882812 86.992188 C 187.996094 87.058594 188.109375 87.125 188.226562 87.191406 C 188.054688 87.191406 187.882812 87.191406 187.707031 87.191406 C 187.765625 87.125 187.820312 87.0625 187.882812 86.992188 Z M 187.882812 86.992188 "/>
<path style=" stroke:none;fill-rule:nonzero;fill:rgb(98.039216%,97.647059%,98.431373%);fill-opacity:1;" d="M 97.304688 82.65625 C 97.417969 82.785156 97.53125 82.914062 97.648438 83.046875 C 97.480469 82.984375 97.308594 82.917969 97.132812 82.851562 C 97.1875 82.785156 97.246094 82.722656 97.304688 82.65625 Z M 97.304688 82.65625 "/>
<path style=" stroke:none;fill-rule:nonzero;fill:rgb(93.725491%,94.117647%,94.509804%);fill-opacity:1;" d="M 87.125 63.320312 C 87.238281 63.320312 87.351562 63.320312 87.46875 63.320312 C 87.414062 63.515625 87.355469 63.710938 87.296875 63.914062 C 87.242188 63.71875 87.183594 63.523438 87.125 63.320312 Z M 87.125 63.320312 "/>
<path style=" stroke:none;fill-rule:nonzero;fill:rgb(99.215686%,99.607843%,98.823529%);fill-opacity:1;" d="M 143.886719 61.941406 C 144.058594 61.941406 144.226562 61.941406 144.40625 61.941406 C 144.347656 62.070312 144.289062 62.203125 144.230469 62.335938 C 144.117188 62.207031 144.003906 62.074219 143.886719 61.941406 Z M 143.886719 61.941406 "/>
<path style=" stroke:none;fill-rule:nonzero;fill:rgb(97.647059%,98.039216%,98.039216%);fill-opacity:1;" d="M 160.792969 61.742188 C 160.964844 61.839844 160.964844 61.839844 161.140625 61.941406 C 161.027344 62.070312 160.910156 62.203125 160.792969 62.335938 C 160.792969 62.140625 160.792969 61.945312 160.792969 61.742188 Z M 160.792969 61.742188 "/>
<path style=" stroke:none;fill-rule:nonzero;fill:rgb(50.980395%,51.764709%,51.764709%);fill-opacity:1;" d="M 163.554688 199.828125 C 163.726562 199.925781 163.726562 199.925781 163.898438 200.027344 C 163.730469 200.125 163.730469 200.125 163.554688 200.226562 C 163.554688 200.09375 163.554688 199.964844 163.554688 199.828125 Z M 163.554688 199.828125 "/>
<path style=" stroke:none;fill-rule:nonzero;fill:rgb(53.333336%,53.725493%,54.11765%);fill-opacity:1;" d="M 163.554688 182.46875 C 163.726562 182.566406 163.726562 182.566406 163.898438 182.667969 C 163.730469 182.765625 163.730469 182.765625 163.554688 182.867188 C 163.554688 182.734375 163.554688 182.605469 163.554688 182.46875 Z M 163.554688 182.46875 "/>
<path style=" stroke:none;fill-rule:nonzero;fill:rgb(57.254905%,57.254905%,57.647061%);fill-opacity:1;" d="M 163.554688 174.578125 C 163.726562 174.675781 163.726562 174.675781 163.898438 174.777344 C 163.730469 174.875 163.730469 174.875 163.554688 174.976562 C 163.554688 174.84375 163.554688 174.714844 163.554688 174.578125 Z M 163.554688 174.578125 "/>
<path style=" stroke:none;fill-rule:nonzero;fill:rgb(97.647059%,97.647059%,98.039216%);fill-opacity:1;" d="M 89.367188 137.890625 C 89.539062 137.984375 89.539062 137.984375 89.714844 138.085938 C 89.542969 138.183594 89.542969 138.183594 89.367188 138.28125 C 89.367188 138.152344 89.367188 138.023438 89.367188 137.890625 Z M 89.367188 137.890625 "/>
<path style=" stroke:none;fill-rule:nonzero;fill:rgb(98.039216%,98.431373%,98.823529%);fill-opacity:1;" d="M 146.300781 133.546875 C 146.472656 133.644531 146.472656 133.644531 146.648438 133.746094 C 146.476562 133.84375 146.476562 133.84375 146.300781 133.945312 C 146.300781 133.8125 146.300781 133.683594 146.300781 133.546875 Z M 146.300781 133.546875 "/>
<path style=" stroke:none;fill-rule:nonzero;fill:rgb(99.215686%,99.215686%,98.823529%);fill-opacity:1;" d="M 112.832031 129.800781 C 113.003906 129.898438 113.003906 129.898438 113.175781 130 C 113.007812 130.09375 113.007812 130.09375 112.832031 130.195312 C 112.832031 130.066406 112.832031 129.933594 112.832031 129.800781 Z M 112.832031 129.800781 "/>
<path style=" stroke:none;fill-rule:nonzero;fill:rgb(98.039216%,98.431373%,98.431373%);fill-opacity:1;" d="M 97.304688 125.265625 C 97.417969 125.394531 97.53125 125.523438 97.648438 125.65625 C 97.535156 125.65625 97.421875 125.65625 97.304688 125.65625 C 97.304688 125.527344 97.304688 125.398438 97.304688 125.265625 Z M 97.304688 125.265625 "/>
<path style=" stroke:none;fill-rule:nonzero;fill:rgb(98.823529%,98.431373%,98.431373%);fill-opacity:1;" d="M 101.445312 119.148438 C 101.617188 119.246094 101.617188 119.246094 101.789062 119.34375 C 101.621094 119.441406 101.621094 119.441406 101.445312 119.542969 C 101.445312 119.414062 101.445312 119.28125 101.445312 119.148438 Z M 101.445312 119.148438 "/>
<path style=" stroke:none;fill-rule:nonzero;fill:rgb(95.686275%,96.078432%,96.078432%);fill-opacity:1;" d="M 180.117188 103.761719 C 180.289062 103.859375 180.289062 103.859375 180.460938 103.960938 C 180.292969 104.054688 180.292969 104.054688 180.117188 104.15625 C 180.117188 104.027344 180.117188 103.894531 180.117188 103.761719 Z M 180.117188 103.761719 "/>
<path style=" stroke:none;fill-rule:nonzero;fill:rgb(95.294118%,94.901961%,95.294118%);fill-opacity:1;" d="M 72.804688 98.828125 C 73.324219 99.027344 73.324219 99.027344 73.324219 99.027344 Z M 72.804688 98.828125 "/>
<path style=" stroke:none;fill-rule:nonzero;fill:rgb(98.823529%,99.607843%,99.215686%);fill-opacity:1;" d="M 102.136719 89.953125 C 102.304688 90.050781 102.304688 90.050781 102.480469 90.148438 C 102.308594 90.246094 102.308594 90.246094 102.136719 90.347656 C 102.136719 90.21875 102.136719 90.085938 102.136719 89.953125 Z M 102.136719 89.953125 "/>
<path style=" stroke:none;fill-rule:nonzero;fill:rgb(98.823529%,98.823529%,98.823529%);fill-opacity:1;" d="M 101.617188 88.96875 C 101.675781 89.097656 101.730469 89.226562 101.789062 89.359375 C 101.675781 89.296875 101.5625 89.230469 101.445312 89.164062 C 101.503906 89.097656 101.558594 89.035156 101.617188 88.96875 Z M 101.617188 88.96875 "/>
<path style=" stroke:none;fill-rule:nonzero;fill:rgb(98.823529%,99.215686%,99.215686%);fill-opacity:1;" d="M 166.488281 88.769531 C 167.003906 88.96875 167.003906 88.96875 167.003906 88.96875 Z M 166.488281 88.769531 "/>
<path style=" stroke:none;fill-rule:nonzero;fill:rgb(97.254902%,97.647059%,97.647059%);fill-opacity:1;" d="M 180.117188 87.390625 C 180.230469 87.519531 180.34375 87.648438 180.460938 87.78125 C 180.347656 87.78125 180.234375 87.78125 180.117188 87.78125 C 180.117188 87.652344 180.117188 87.523438 180.117188 87.390625 Z M 180.117188 87.390625 "/>
<path style=" stroke:none;fill-rule:nonzero;fill:rgb(97.254902%,97.254902%,97.254902%);fill-opacity:1;" d="M 179.425781 87.585938 C 179.945312 87.78125 179.945312 87.78125 179.945312 87.78125 Z M 179.425781 87.585938 "/>
<path style=" stroke:none;fill-rule:nonzero;fill:rgb(99.607843%,99.607843%,99.607843%);fill-opacity:1;" d="M 116.800781 85.414062 C 116.914062 85.546875 117.027344 85.675781 117.144531 85.8125 C 117.03125 85.8125 116.917969 85.8125 116.800781 85.8125 C 116.800781 85.679688 116.800781 85.550781 116.800781 85.414062 Z M 116.800781 85.414062 "/>
<path style=" stroke:none;fill-rule:nonzero;fill:rgb(99.607843%,99.215686%,99.607843%);fill-opacity:1;" d="M 131.121094 79.695312 C 131.234375 79.824219 131.347656 79.957031 131.464844 80.089844 C 131.351562 80.089844 131.238281 80.089844 131.121094 80.089844 C 131.121094 79.960938 131.121094 79.828125 131.121094 79.695312 Z M 131.121094 79.695312 "/>
<path style=" stroke:none;fill-rule:nonzero;fill:rgb(98.823529%,98.431373%,98.431373%);fill-opacity:1;" d="M 134.570312 74.960938 C 134.742188 75.058594 134.742188 75.058594 134.914062 75.15625 C 134.746094 75.253906 134.746094 75.253906 134.570312 75.355469 C 134.570312 75.226562 134.570312 75.09375 134.570312 74.960938 Z M 134.570312 74.960938 "/>
<path style=" stroke:none;fill-rule:nonzero;fill:rgb(97.647059%,97.254902%,97.647059%);fill-opacity:1;" d="M 101.789062 67.664062 C 101.902344 67.664062 102.019531 67.664062 102.136719 67.664062 C 102.078125 67.792969 102.023438 67.921875 101.960938 68.054688 C 101.90625 67.925781 101.847656 67.796875 101.789062 67.664062 Z M 101.789062 67.664062 "/>
<path style=" stroke:none;fill-rule:nonzero;fill:rgb(99.215686%,98.823529%,98.823529%);fill-opacity:1;" d="M 141.472656 65.492188 C 141.640625 65.589844 141.640625 65.589844 141.816406 65.6875 C 141.644531 65.785156 141.644531 65.785156 141.472656 65.886719 C 141.472656 65.757812 141.472656 65.625 141.472656 65.492188 Z M 141.472656 65.492188 "/>
<path style=" stroke:none;fill-rule:nonzero;fill:rgb(98.431373%,98.039216%,97.647059%);fill-opacity:1;" d="M 142.507812 64.109375 C 142.675781 64.207031 142.675781 64.207031 142.851562 64.308594 C 142.679688 64.40625 142.679688 64.40625 142.507812 64.507812 C 142.507812 64.375 142.507812 64.246094 142.507812 64.109375 Z M 142.507812 64.109375 "/>
<path style=" stroke:none;fill-rule:nonzero;fill:rgb(98.039216%,98.431373%,98.039216%);fill-opacity:1;" d="M 159.757812 63.320312 C 159.816406 63.453125 159.871094 63.582031 159.929688 63.71875 C 159.816406 63.652344 159.703125 63.585938 159.585938 63.519531 C 159.644531 63.453125 159.699219 63.390625 159.757812 63.320312 Z M 159.757812 63.320312 "/>
<path style=" stroke:none;fill-rule:nonzero;fill:rgb(98.823529%,98.823529%,98.823529%);fill-opacity:1;" d="M 144.921875 60.953125 C 145.09375 61.050781 145.09375 61.050781 145.265625 61.152344 C 145.097656 61.25 145.097656 61.25 144.921875 61.351562 C 144.921875 61.21875 144.921875 61.089844 144.921875 60.953125 Z M 144.921875 60.953125 "/>
<path style=" stroke:none;fill-rule:nonzero;fill:rgb(98.431373%,98.823529%,98.823529%);fill-opacity:1;" d="M 146.648438 58.785156 C 146.816406 58.882812 146.816406 58.882812 146.992188 58.984375 C 146.820312 59.078125 146.820312 59.078125 146.648438 59.179688 C 146.648438 59.050781 146.648438 58.917969 146.648438 58.785156 Z M 146.648438 58.785156 "/>
<path style=" stroke:none;fill-rule:nonzero;fill:rgb(94.901961%,95.294118%,94.901961%);fill-opacity:1;" d="M 167.695312 52.671875 C 167.808594 52.671875 167.921875 52.671875 168.039062 52.671875 C 167.984375 52.800781 167.925781 52.929688 167.867188 53.0625 C 167.8125 52.933594 167.753906 52.804688 167.695312 52.671875 Z M 167.695312 52.671875 "/>
<path style=" stroke:none;fill-rule:nonzero;fill:rgb(96.470588%,96.470588%,96.862745%);fill-opacity:1;" d="M 156.136719 47.34375 C 156.308594 47.441406 156.308594 47.441406 156.480469 47.539062 C 156.308594 47.636719 156.308594 47.636719 156.136719 47.738281 C 156.136719 47.609375 156.136719 47.476562 156.136719 47.34375 Z M 156.136719 47.34375 "/>
<path style=" stroke:none;fill-rule:nonzero;fill:rgb(96.078432%,96.078432%,96.078432%);fill-opacity:1;" d="M 156.652344 46.359375 C 156.765625 46.488281 156.882812 46.617188 157 46.75 C 156.886719 46.75 156.769531 46.75 156.652344 46.75 C 156.652344 46.621094 156.652344 46.492188 156.652344 46.359375 Z M 156.652344 46.359375 "/>
<path style=" stroke:none;fill-rule:nonzero;fill:rgb(95.686275%,95.686275%,96.078432%);fill-opacity:1;" d="M 157.171875 45.960938 C 157.6875 46.160156 157.6875 46.160156 157.6875 46.160156 Z M 157.171875 45.960938 "/>
<path style=" stroke:none;fill-rule:nonzero;fill:rgb(92.941177%,93.333334%,93.333334%);fill-opacity:1;" d="M 159.414062 43.59375 C 159.585938 43.691406 159.585938 43.691406 159.757812 43.792969 C 159.589844 43.890625 159.589844 43.890625 159.414062 43.992188 C 159.414062 43.859375 159.414062 43.730469 159.414062 43.59375 Z M 159.414062 43.59375 "/>
<path style=" stroke:none;fill-rule:nonzero;fill:rgb(90.980393%,90.980393%,90.980393%);fill-opacity:1;" d="M 163.382812 41.820312 C 163.898438 42.015625 163.898438 42.015625 163.898438 42.015625 Z M 163.382812 41.820312 "/>
<path style=" stroke:none;fill-rule:nonzero;fill:rgb(48.235294%,48.627451%,49.019608%);fill-opacity:1;" d="M 163.554688 7.296875 C 163.726562 7.394531 163.726562 7.394531 163.898438 7.496094 C 163.730469 7.59375 163.730469 7.59375 163.554688 7.695312 C 163.554688 7.5625 163.554688 7.433594 163.554688 7.296875 Z M 163.554688 7.296875 "/>
<path style=" stroke:none;fill-rule:nonzero;fill:rgb(47.843137%,48.235294%,48.627451%);fill-opacity:1;" d="M 163.554688 4.140625 C 163.726562 4.238281 163.726562 4.238281 163.898438 4.339844 C 163.730469 4.4375 163.730469 4.4375 163.554688 4.539062 C 163.554688 4.40625 163.554688 4.277344 163.554688 4.140625 Z M 163.554688 4.140625 "/>
<path style=" stroke:none;fill-rule:nonzero;fill:rgb(47.843137%,48.235294%,48.627451%);fill-opacity:1;" d="M 163.554688 2.5625 C 163.726562 2.660156 163.726562 2.660156 163.898438 2.761719 C 163.730469 2.859375 163.730469 2.859375 163.554688 2.960938 C 163.554688 2.828125 163.554688 2.699219 163.554688 2.5625 Z M 163.554688 2.5625 "/>
<path style=" stroke:none;fill-rule:nonzero;fill:rgb(51.372552%,51.372552%,51.764709%);fill-opacity:1;" d="M 163.554688 201.40625 C 163.898438 201.605469 163.898438 201.605469 163.898438 201.605469 Z M 163.554688 201.40625 "/>
<path style=" stroke:none;fill-rule:nonzero;fill:rgb(48.235294%,48.235294%,48.627451%);fill-opacity:1;" d="M 188.054688 197.859375 C 188.398438 198.054688 188.398438 198.054688 188.398438 198.054688 Z M 188.054688 197.859375 "/>
<path style=" stroke:none;fill-rule:nonzero;fill:rgb(51.372552%,51.372552%,52.156866%);fill-opacity:1;" d="M 163.554688 196.671875 C 163.898438 196.871094 163.898438 196.871094 163.898438 196.871094 Z M 163.554688 196.671875 "/>
<path style=" stroke:none;fill-rule:nonzero;fill:rgb(47.843137%,48.235294%,48.235294%);fill-opacity:1;" d="M 188.054688 196.28125 C 188.398438 196.476562 188.398438 196.476562 188.398438 196.476562 Z M 188.054688 196.28125 "/>
<path style=" stroke:none;fill-rule:nonzero;fill:rgb(48.235294%,48.235294%,48.627451%);fill-opacity:1;" d="M 188.054688 194.703125 C 188.398438 194.898438 188.398438 194.898438 188.398438 194.898438 Z M 188.054688 194.703125 "/>
<path style=" stroke:none;fill-rule:nonzero;fill:rgb(47.843137%,47.843137%,48.627451%);fill-opacity:1;" d="M 188.054688 193.125 C 188.398438 193.320312 188.398438 193.320312 188.398438 193.320312 Z M 188.054688 193.125 "/>
<path style=" stroke:none;fill-rule:nonzero;fill:rgb(48.235294%,48.235294%,48.627451%);fill-opacity:1;" d="M 188.054688 189.96875 C 188.398438 190.164062 188.398438 190.164062 188.398438 190.164062 Z M 188.054688 189.96875 "/>
<path style=" stroke:none;fill-rule:nonzero;fill:rgb(49.411765%,50.196081%,50.588238%);fill-opacity:1;" d="M 179.773438 188.78125 C 180.117188 188.980469 180.117188 188.980469 180.117188 188.980469 Z M 179.773438 188.78125 "/>
<path style=" stroke:none;fill-rule:nonzero;fill:rgb(48.235294%,48.235294%,49.019608%);fill-opacity:1;" d="M 188.054688 188.390625 C 188.398438 188.585938 188.398438 188.585938 188.398438 188.585938 Z M 188.054688 188.390625 "/>
<path style=" stroke:none;fill-rule:nonzero;fill:rgb(48.627451%,48.627451%,49.019608%);fill-opacity:1;" d="M 188.054688 185.234375 C 188.398438 185.429688 188.398438 185.429688 188.398438 185.429688 Z M 188.054688 185.234375 "/>
<path style=" stroke:none;fill-rule:nonzero;fill:rgb(48.627451%,49.019608%,49.803922%);fill-opacity:1;" d="M 188.054688 183.65625 C 188.398438 183.851562 188.398438 183.851562 188.398438 183.851562 Z M 188.054688 183.65625 "/>
<path style=" stroke:none;fill-rule:nonzero;fill:rgb(49.411765%,49.803922%,50.588238%);fill-opacity:1;" d="M 188.054688 178.921875 C 188.398438 179.117188 188.398438 179.117188 188.398438 179.117188 Z M 188.054688 178.921875 "/>
<path style=" stroke:none;fill-rule:nonzero;fill:rgb(50.588238%,50.980395%,51.372552%);fill-opacity:1;" d="M 188.054688 175.765625 C 188.398438 175.960938 188.398438 175.960938 188.398438 175.960938 Z M 188.054688 175.765625 "/>
<path style=" stroke:none;fill-rule:nonzero;fill:rgb(50.980395%,51.764709%,52.156866%);fill-opacity:1;" d="M 188.054688 174.1875 C 188.398438 174.382812 188.398438 174.382812 188.398438 174.382812 Z M 188.054688 174.1875 "/>
<path style=" stroke:none;fill-rule:nonzero;fill:rgb(61.176473%,61.56863%,61.960787%);fill-opacity:1;" d="M 163.554688 168.265625 C 163.898438 168.464844 163.898438 168.464844 163.898438 168.464844 Z M 163.554688 168.265625 "/>
<path style=" stroke:none;fill-rule:nonzero;fill:rgb(54.901963%,54.901963%,55.686277%);fill-opacity:1;" d="M 188.054688 166.296875 C 188.398438 166.492188 188.398438 166.492188 188.398438 166.492188 Z M 188.054688 166.296875 "/>
<path style=" stroke:none;fill-rule:nonzero;fill:rgb(60.000002%,60.784316%,61.176473%);fill-opacity:1;" d="M 179.773438 163.53125 C 180.117188 163.730469 180.117188 163.730469 180.117188 163.730469 Z M 179.773438 163.53125 "/>
<path style=" stroke:none;fill-rule:nonzero;fill:rgb(71.372551%,71.764708%,72.549021%);fill-opacity:1;" d="M 163.554688 158.796875 C 163.898438 158.996094 163.898438 158.996094 163.898438 158.996094 Z M 163.554688 158.796875 "/>
<path style=" stroke:none;fill-rule:nonzero;fill:rgb(74.117649%,73.725492%,74.509805%);fill-opacity:1;" d="M 163.554688 157.21875 C 163.898438 157.417969 163.898438 157.417969 163.898438 157.417969 Z M 163.554688 157.21875 "/>
<path style=" stroke:none;fill-rule:nonzero;fill:rgb(61.176473%,61.176473%,61.960787%);fill-opacity:1;" d="M 188.054688 156.828125 C 188.398438 157.023438 188.398438 157.023438 188.398438 157.023438 Z M 188.054688 156.828125 "/>
<path style=" stroke:none;fill-rule:nonzero;fill:rgb(61.960787%,61.960787%,63.137257%);fill-opacity:1;" d="M 188.054688 155.25 C 188.398438 155.445312 188.398438 155.445312 188.398438 155.445312 Z M 188.054688 155.25 "/>
<path style=" stroke:none;fill-rule:nonzero;fill:rgb(64.313728%,64.705884%,65.098041%);fill-opacity:1;" d="M 188.054688 152.09375 C 188.398438 152.289062 188.398438 152.289062 188.398438 152.289062 Z M 188.054688 152.09375 "/>
<path style=" stroke:none;fill-rule:nonzero;fill:rgb(94.901961%,95.686275%,96.078432%);fill-opacity:1;" d="M 167.179688 147.359375 C 167.523438 147.554688 167.523438 147.554688 167.523438 147.554688 Z M 167.179688 147.359375 "/>
<path style=" stroke:none;fill-rule:nonzero;fill:rgb(95.686275%,96.078432%,96.470588%);fill-opacity:1;" d="M 163.726562 145.382812 C 164.070312 145.582031 164.070312 145.582031 164.070312 145.582031 Z M 163.726562 145.382812 "/>
<path style=" stroke:none;fill-rule:nonzero;fill:rgb(97.254902%,97.254902%,96.862745%);fill-opacity:1;" d="M 85.398438 144.003906 C 85.746094 144.203125 85.746094 144.203125 85.746094 144.203125 Z M 85.398438 144.003906 "/>
<path style=" stroke:none;fill-rule:nonzero;fill:rgb(93.725491%,94.117647%,94.117647%);fill-opacity:1;" d="M 174.421875 142.625 C 174.769531 142.820312 174.769531 142.820312 174.769531 142.820312 Z M 174.421875 142.625 "/>
<path style=" stroke:none;fill-rule:nonzero;fill:rgb(70.19608%,70.588237%,70.980394%);fill-opacity:1;" d="M 188.054688 141.046875 C 188.398438 141.242188 188.398438 141.242188 188.398438 141.242188 Z M 188.054688 141.046875 "/>
<path style=" stroke:none;fill-rule:nonzero;fill:rgb(70.980394%,70.980394%,71.764708%);fill-opacity:1;" d="M 188.054688 137.890625 C 188.398438 138.085938 188.398438 138.085938 188.398438 138.085938 Z M 188.054688 137.890625 "/>
<path style=" stroke:none;fill-rule:nonzero;fill:rgb(70.980394%,71.372551%,71.764708%);fill-opacity:1;" d="M 188.054688 136.3125 C 188.398438 136.507812 188.398438 136.507812 188.398438 136.507812 Z M 188.054688 136.3125 "/>
<path style=" stroke:none;fill-rule:nonzero;fill:rgb(70.980394%,71.764708%,72.156864%);fill-opacity:1;" d="M 188.054688 133.15625 C 188.398438 133.351562 188.398438 133.351562 188.398438 133.351562 Z M 188.054688 133.15625 "/>
<path style=" stroke:none;fill-rule:nonzero;fill:rgb(98.431373%,98.823529%,98.431373%);fill-opacity:1;" d="M 146.820312 133.15625 C 147.164062 133.351562 147.164062 133.351562 147.164062 133.351562 Z M 146.820312 133.15625 "/>
<path style=" stroke:none;fill-rule:nonzero;fill:rgb(71.764708%,71.764708%,72.549021%);fill-opacity:1;" d="M 188.054688 131.578125 C 188.398438 131.773438 188.398438 131.773438 188.398438 131.773438 Z M 188.054688 131.578125 "/>
<path style=" stroke:none;fill-rule:nonzero;fill:rgb(71.764708%,72.156864%,72.941178%);fill-opacity:1;" d="M 188.054688 126.84375 C 188.398438 127.039062 188.398438 127.039062 188.398438 127.039062 Z M 188.054688 126.84375 "/>
<path style=" stroke:none;fill-rule:nonzero;fill:rgb(97.254902%,97.647059%,97.254902%);fill-opacity:1;" d="M 163.726562 126.445312 C 164.070312 126.644531 164.070312 126.644531 164.070312 126.644531 Z M 163.726562 126.445312 "/>
<path style=" stroke:none;fill-rule:nonzero;fill:rgb(99.607843%,99.215686%,99.607843%);fill-opacity:1;" d="M 98.339844 123.488281 C 98.683594 123.6875 98.683594 123.6875 98.683594 123.6875 Z M 98.339844 123.488281 "/>
<path style=" stroke:none;fill-rule:nonzero;fill:rgb(73.333335%,73.333335%,74.117649%);fill-opacity:1;" d="M 188.054688 122.109375 C 188.398438 122.304688 188.398438 122.304688 188.398438 122.304688 Z M 188.054688 122.109375 "/>
<path style=" stroke:none;fill-rule:nonzero;fill:rgb(99.607843%,99.607843%,99.607843%);fill-opacity:1;" d="M 99.71875 121.910156 C 100.066406 122.109375 100.066406 122.109375 100.066406 122.109375 Z M 99.71875 121.910156 "/>
<path style=" stroke:none;fill-rule:nonzero;fill:rgb(73.725492%,74.117649%,74.509805%);fill-opacity:1;" d="M 188.054688 120.53125 C 188.398438 120.726562 188.398438 120.726562 188.398438 120.726562 Z M 188.054688 120.53125 "/>
<path style=" stroke:none;fill-rule:nonzero;fill:rgb(99.607843%,99.607843%,99.607843%);fill-opacity:1;" d="M 102.824219 116.976562 C 103.171875 117.175781 103.171875 117.175781 103.171875 117.175781 Z M 102.824219 116.976562 "/>
<path style=" stroke:none;fill-rule:nonzero;fill:rgb(98.039216%,97.647059%,97.647059%);fill-opacity:1;" d="M 84.882812 111.851562 C 85.226562 112.046875 85.226562 112.046875 85.226562 112.046875 Z M 84.882812 111.851562 "/>
<path style=" stroke:none;fill-rule:nonzero;fill:rgb(98.431373%,98.823529%,98.823529%);fill-opacity:1;" d="M 93.855469 111.652344 C 94.199219 111.851562 94.199219 111.851562 94.199219 111.851562 Z M 93.855469 111.652344 "/>
<path style=" stroke:none;fill-rule:nonzero;fill:rgb(96.078432%,97.647059%,97.647059%);fill-opacity:1;" d="M 77.808594 111.652344 C 78.152344 111.851562 78.152344 111.851562 78.152344 111.851562 Z M 77.808594 111.652344 "/>
<path style=" stroke:none;fill-rule:nonzero;fill:rgb(99.215686%,99.607843%,99.607843%);fill-opacity:1;" d="M 100.066406 111.257812 C 100.410156 111.453125 100.410156 111.453125 100.410156 111.453125 Z M 100.066406 111.257812 "/>
<path style=" stroke:none;fill-rule:nonzero;fill:rgb(100%,100%,99.607843%);fill-opacity:1;" d="M 106.449219 111.0625 C 106.792969 111.257812 106.792969 111.257812 106.792969 111.257812 Z M 106.449219 111.0625 "/>
<path style=" stroke:none;fill-rule:nonzero;fill:rgb(98.823529%,99.215686%,98.823529%);fill-opacity:1;" d="M 103.171875 111.0625 C 103.515625 111.257812 103.515625 111.257812 103.515625 111.257812 Z M 103.171875 111.0625 "/>
<path style=" stroke:none;fill-rule:nonzero;fill:rgb(100%,100%,100%);fill-opacity:1;" d="M 141.472656 108.101562 C 141.816406 108.296875 141.816406 108.296875 141.816406 108.296875 Z M 141.472656 108.101562 "/>
<path style=" stroke:none;fill-rule:nonzero;fill:rgb(99.215686%,99.607843%,99.215686%);fill-opacity:1;" d="M 143.367188 107.90625 C 143.714844 108.101562 143.714844 108.101562 143.714844 108.101562 Z M 143.367188 107.90625 "/>
<path style=" stroke:none;fill-rule:nonzero;fill:rgb(99.607843%,99.607843%,99.607843%);fill-opacity:1;" d="M 156.652344 106.523438 C 157 106.71875 157 106.71875 157 106.71875 Z M 156.652344 106.523438 "/>
<path style=" stroke:none;fill-rule:nonzero;fill:rgb(99.607843%,99.215686%,99.607843%);fill-opacity:1;" d="M 156.136719 106.523438 C 156.480469 106.71875 156.480469 106.71875 156.480469 106.71875 Z M 156.136719 106.523438 "/>
<path style=" stroke:none;fill-rule:nonzero;fill:rgb(98.823529%,99.215686%,98.823529%);fill-opacity:1;" d="M 159.242188 106.128906 C 159.585938 106.328125 159.585938 106.328125 159.585938 106.328125 Z M 159.242188 106.128906 "/>
<path style=" stroke:none;fill-rule:nonzero;fill:rgb(98.823529%,98.823529%,98.823529%);fill-opacity:1;" d="M 164.246094 105.539062 C 164.589844 105.734375 164.589844 105.734375 164.589844 105.734375 Z M 164.246094 105.539062 "/>
<path style=" stroke:none;fill-rule:nonzero;fill:rgb(98.431373%,98.039216%,98.431373%);fill-opacity:1;" d="M 163.726562 105.539062 C 164.070312 105.734375 164.070312 105.734375 164.070312 105.734375 Z M 163.726562 105.539062 "/>
<path style=" stroke:none;fill-rule:nonzero;fill:rgb(87.843138%,88.235295%,88.627452%);fill-opacity:1;" d="M 188.054688 104.75 C 188.398438 104.945312 188.398438 104.945312 188.398438 104.945312 Z M 188.054688 104.75 "/>
<path style=" stroke:none;fill-rule:nonzero;fill:rgb(98.039216%,98.431373%,98.431373%);fill-opacity:1;" d="M 170.800781 104.550781 C 171.144531 104.75 171.144531 104.75 171.144531 104.75 Z M 170.800781 104.550781 "/>
<path style=" stroke:none;fill-rule:nonzero;fill:rgb(98.039216%,98.431373%,98.431373%);fill-opacity:1;" d="M 174.597656 103.960938 C 174.941406 104.15625 174.941406 104.15625 174.941406 104.15625 Z M 174.597656 103.960938 "/>
<path style=" stroke:none;fill-rule:nonzero;fill:rgb(97.647059%,98.431373%,98.823529%);fill-opacity:1;" d="M 177.355469 103.367188 C 177.703125 103.5625 177.703125 103.5625 177.703125 103.5625 Z M 177.355469 103.367188 "/>
<path style=" stroke:none;fill-rule:nonzero;fill:rgb(93.333334%,93.333334%,93.725491%);fill-opacity:1;" d="M 188.054688 101.59375 C 188.398438 101.789062 188.398438 101.789062 188.398438 101.789062 Z M 188.054688 101.59375 "/>
<path style=" stroke:none;fill-rule:nonzero;fill:rgb(98.039216%,98.431373%,98.431373%);fill-opacity:1;" d="M 84.367188 97.84375 C 84.710938 98.039062 84.710938 98.039062 84.710938 98.039062 Z M 84.367188 97.84375 "/>
<path style=" stroke:none;fill-rule:nonzero;fill:rgb(99.607843%,99.215686%,98.823529%);fill-opacity:1;" d="M 103.6875 92.125 C 104.03125 92.320312 104.03125 92.320312 104.03125 92.320312 Z M 103.6875 92.125 "/>
<path style=" stroke:none;fill-rule:nonzero;fill:rgb(99.215686%,99.215686%,99.215686%);fill-opacity:1;" d="M 162 89.359375 C 162.347656 89.558594 162.347656 89.558594 162.347656 89.558594 Z M 162 89.359375 "/>
<path style=" stroke:none;fill-rule:nonzero;fill:rgb(98.823529%,98.039216%,98.823529%);fill-opacity:1;" d="M 101.273438 88.769531 C 101.617188 88.96875 101.617188 88.96875 101.617188 88.96875 Z M 101.273438 88.769531 "/>
<path style=" stroke:none;fill-rule:nonzero;fill:rgb(93.333334%,93.725491%,94.509804%);fill-opacity:1;" d="M 188.398438 87.585938 C 188.742188 87.78125 188.742188 87.78125 188.742188 87.78125 Z M 188.398438 87.585938 "/>
<path style=" stroke:none;fill-rule:nonzero;fill:rgb(97.254902%,97.647059%,97.647059%);fill-opacity:1;" d="M 178.738281 87.585938 C 179.082031 87.78125 179.082031 87.78125 179.082031 87.78125 Z M 178.738281 87.585938 "/>
<path style=" stroke:none;fill-rule:nonzero;fill:rgb(96.078432%,96.078432%,96.862745%);fill-opacity:1;" d="M 184.601562 87.191406 C 184.949219 87.390625 184.949219 87.390625 184.949219 87.390625 Z M 184.601562 87.191406 "/>
<path style=" stroke:none;fill-rule:nonzero;fill:rgb(99.607843%,99.215686%,99.607843%);fill-opacity:1;" d="M 130.945312 79.300781 C 131.292969 79.5 131.292969 79.5 131.292969 79.5 Z M 130.945312 79.300781 "/>
<path style=" stroke:none;fill-rule:nonzero;fill:rgb(75.686276%,75.294119%,76.078433%);fill-opacity:1;" d="M 188.054688 76.34375 C 188.398438 76.539062 188.398438 76.539062 188.398438 76.539062 Z M 188.054688 76.34375 "/>
<path style=" stroke:none;fill-rule:nonzero;fill:rgb(99.607843%,99.215686%,98.823529%);fill-opacity:1;" d="M 109.726562 75.945312 C 110.070312 76.144531 110.070312 76.144531 110.070312 76.144531 Z M 109.726562 75.945312 "/>
<path style=" stroke:none;fill-rule:nonzero;fill:rgb(98.431373%,98.431373%,98.431373%);fill-opacity:1;" d="M 135.261719 72.59375 C 135.605469 72.789062 135.605469 72.789062 135.605469 72.789062 Z M 135.261719 72.59375 "/>
<path style=" stroke:none;fill-rule:nonzero;fill:rgb(69.803923%,70.588237%,70.980394%);fill-opacity:1;" d="M 188.054688 70.03125 C 188.398438 70.226562 188.398438 70.226562 188.398438 70.226562 Z M 188.054688 70.03125 "/>
<path style=" stroke:none;fill-rule:nonzero;fill:rgb(98.823529%,98.431373%,98.823529%);fill-opacity:1;" d="M 103 68.054688 C 103.34375 68.253906 103.34375 68.253906 103.34375 68.253906 Z M 103 68.054688 "/>
<path style=" stroke:none;fill-rule:nonzero;fill:rgb(96.078432%,95.686275%,96.078432%);fill-opacity:1;" d="M 88.332031 66.476562 C 88.679688 66.675781 88.679688 66.675781 88.679688 66.675781 Z M 88.332031 66.476562 "/>
<path style=" stroke:none;fill-rule:nonzero;fill:rgb(98.823529%,98.039216%,98.039216%);fill-opacity:1;" d="M 100.410156 65.6875 C 100.753906 65.886719 100.753906 65.886719 100.753906 65.886719 Z M 100.410156 65.6875 "/>
<path style=" stroke:none;fill-rule:nonzero;fill:rgb(98.039216%,98.431373%,98.431373%);fill-opacity:1;" d="M 159.414062 63.914062 C 159.757812 64.109375 159.757812 64.109375 159.757812 64.109375 Z M 159.414062 63.914062 "/>
<path style=" stroke:none;fill-rule:nonzero;fill:rgb(99.607843%,99.607843%,99.215686%);fill-opacity:1;" d="M 143.542969 62.140625 C 143.886719 62.335938 143.886719 62.335938 143.886719 62.335938 Z M 143.542969 62.140625 "/>
<path style=" stroke:none;fill-rule:nonzero;fill:rgb(98.823529%,99.215686%,98.823529%);fill-opacity:1;" d="M 145.4375 60.363281 C 145.785156 60.5625 145.785156 60.5625 145.785156 60.5625 Z M 145.4375 60.363281 "/>
<path style=" stroke:none;fill-rule:nonzero;fill:rgb(92.54902%,93.333334%,92.941177%);fill-opacity:1;" d="M 88.851562 59.375 C 89.195312 59.574219 89.195312 59.574219 89.195312 59.574219 Z M 88.851562 59.375 "/>
<path style=" stroke:none;fill-rule:nonzero;fill:rgb(64.705884%,63.921571%,64.705884%);fill-opacity:1;" d="M 188.054688 54.25 C 188.398438 54.445312 188.398438 54.445312 188.398438 54.445312 Z M 188.054688 54.25 "/>
<path style=" stroke:none;fill-rule:nonzero;fill:rgb(98.039216%,98.431373%,97.647059%);fill-opacity:1;" d="M 151.648438 52.671875 C 151.996094 52.867188 151.996094 52.867188 151.996094 52.867188 Z M 151.648438 52.671875 "/>
<path style=" stroke:none;fill-rule:nonzero;fill:rgb(92.54902%,93.333334%,93.333334%);fill-opacity:1;" d="M 168.902344 50.304688 C 169.25 50.5 169.25 50.5 169.25 50.5 Z M 168.902344 50.304688 "/>
<path style=" stroke:none;fill-rule:nonzero;fill:rgb(61.960787%,61.960787%,62.7451%);fill-opacity:1;" d="M 188.054688 46.359375 C 188.398438 46.554688 188.398438 46.554688 188.398438 46.554688 Z M 188.054688 46.359375 "/>
<path style=" stroke:none;fill-rule:nonzero;fill:rgb(92.54902%,92.54902%,92.54902%);fill-opacity:1;" d="M 159.757812 43.003906 C 160.105469 43.203125 160.105469 43.203125 160.105469 43.203125 Z M 159.757812 43.003906 "/>
<path style=" stroke:none;fill-rule:nonzero;fill:rgb(59.607846%,60.000002%,60.392159%);fill-opacity:1;" d="M 188.054688 41.625 C 188.398438 41.820312 188.398438 41.820312 188.398438 41.820312 Z M 188.054688 41.625 "/>
<path style=" stroke:none;fill-rule:nonzero;fill:rgb(56.078434%,56.078434%,56.862748%);fill-opacity:1;" d="M 188.054688 35.3125 C 188.398438 35.507812 188.398438 35.507812 188.398438 35.507812 Z M 188.054688 35.3125 "/>
<path style=" stroke:none;fill-rule:nonzero;fill:rgb(68.235296%,68.627453%,69.01961%);fill-opacity:1;" d="M 163.554688 32.546875 C 163.898438 32.746094 163.898438 32.746094 163.898438 32.746094 Z M 163.554688 32.546875 "/>
<path style=" stroke:none;fill-rule:nonzero;fill:rgb(51.764709%,52.156866%,52.549022%);fill-opacity:1;" d="M 188.054688 27.421875 C 188.398438 27.617188 188.398438 27.617188 188.398438 27.617188 Z M 188.054688 27.421875 "/>
<path style=" stroke:none;fill-rule:nonzero;fill:rgb(56.470591%,56.862748%,57.254905%);fill-opacity:1;" d="M 163.554688 23.078125 C 163.898438 23.277344 163.898438 23.277344 163.898438 23.277344 Z M 163.554688 23.078125 "/>
<path style=" stroke:none;fill-rule:nonzero;fill:rgb(47.450981%,47.843137%,48.235294%);fill-opacity:1;" d="M 188.054688 16.375 C 188.398438 16.570312 188.398438 16.570312 188.398438 16.570312 Z M 188.054688 16.375 "/>
<path style=" stroke:none;fill-rule:nonzero;fill:rgb(46.666667%,46.666667%,47.058824%);fill-opacity:1;" d="M 188.054688 11.640625 C 188.398438 11.835938 188.398438 11.835938 188.398438 11.835938 Z M 188.054688 11.640625 "/>
<path style=" stroke:none;fill-rule:nonzero;fill:rgb(46.666667%,46.666667%,47.058824%);fill-opacity:1;" d="M 188.054688 10.0625 C 188.398438 10.257812 188.398438 10.257812 188.398438 10.257812 Z M 188.054688 10.0625 "/>
<path style=" stroke:none;fill-rule:nonzero;fill:rgb(46.27451%,46.27451%,47.058824%);fill-opacity:1;" d="M 188.054688 8.484375 C 188.398438 8.679688 188.398438 8.679688 188.398438 8.679688 Z M 188.054688 8.484375 "/>
<path style=" stroke:none;fill-rule:nonzero;fill:rgb(46.27451%,46.27451%,46.666667%);fill-opacity:1;" d="M 188.054688 6.90625 C 188.398438 7.101562 188.398438 7.101562 188.398438 7.101562 Z M 188.054688 6.90625 "/>
<path style=" stroke:none;fill-rule:nonzero;fill:rgb(46.27451%,46.27451%,47.058824%);fill-opacity:1;" d="M 188.054688 5.328125 C 188.398438 5.523438 188.398438 5.523438 188.398438 5.523438 Z M 188.054688 5.328125 "/>
<path style=" stroke:none;fill-rule:nonzero;fill:rgb(46.27451%,45.882353%,47.058824%);fill-opacity:1;" d="M 188.054688 2.171875 C 188.398438 2.367188 188.398438 2.367188 188.398438 2.367188 Z M 188.054688 2.171875 "/>
</g>
</svg>
