<?xml version="1.0" encoding="UTF-8"?>
<svg xmlns="http://www.w3.org/2000/svg" xmlns:xlink="http://www.w3.org/1999/xlink" width="204px" height="134px" viewBox="0 0 204 134" version="1.1">
<g id="surface1">
<path style=" stroke:none;fill-rule:nonzero;fill:rgb(98.823529%,98.823529%,99.215686%);fill-opacity:1;" d="M 115.464844 27.359375 C 116.050781 27.6875 116.488281 28.03125 116.742188 28.65625 C 116.957031 29.835938 116.34375 30.789062 115.78125 31.78125 C 115.722656 31.882812 115.664062 31.984375 115.609375 32.085938 C 114.859375 33.394531 114.0625 34.679688 113.277344 35.964844 C 111.914062 38.15625 111.914062 38.15625 110.699219 40.421875 C 110.429688 40.96875 110.140625 41.503906 109.851562 42.039062 C 109.679688 42.363281 109.507812 42.6875 109.332031 43.011719 C 109.234375 43.199219 109.132812 43.386719 109.03125 43.574219 C 106.796875 47.761719 105.34375 52.269531 103.992188 56.792969 C 103.949219 56.9375 103.949219 56.9375 103.90625 57.085938 C 103.816406 57.378906 103.730469 57.675781 103.640625 57.96875 C 103.59375 58.121094 103.59375 58.121094 103.550781 58.277344 C 103.476562 58.523438 103.402344 58.769531 103.328125 59.015625 C 104.675781 58.953125 106.023438 58.890625 107.371094 58.828125 C 108 58.796875 108.625 58.765625 109.25 58.738281 C 110.585938 58.675781 111.921875 58.609375 113.253906 58.546875 C 113.871094 58.515625 114.492188 58.488281 115.109375 58.457031 C 115.71875 58.429688 116.332031 58.402344 116.941406 58.371094 C 117.171875 58.359375 117.402344 58.347656 117.632812 58.339844 C 117.945312 58.324219 118.261719 58.308594 118.578125 58.292969 C 118.671875 58.289062 118.765625 58.285156 118.859375 58.28125 C 119.34375 58.257812 119.34375 58.257812 119.796875 58.101562 C 120.046875 58.097656 120.046875 58.097656 120.347656 58.117188 C 120.453125 58.125 120.558594 58.128906 120.671875 58.136719 C 120.78125 58.144531 120.894531 58.152344 121.007812 58.160156 C 121.121094 58.164062 121.234375 58.171875 121.351562 58.179688 C 121.628906 58.195312 121.910156 58.214844 122.1875 58.234375 C 122.230469 58.144531 122.273438 58.058594 122.320312 57.96875 C 124.117188 57.96875 125.914062 57.96875 127.765625 57.96875 C 127.808594 57.882812 127.851562 57.796875 127.898438 57.710938 C 128.871094 57.699219 129.847656 57.699219 130.820312 57.710938 C 130.96875 57.710938 130.96875 57.710938 131.125 57.710938 C 132.152344 57.726562 132.957031 57.796875 133.742188 58.492188 C 134.464844 59.246094 134.589844 59.984375 134.671875 60.980469 C 134.585938 60.980469 134.496094 60.980469 134.40625 60.980469 C 134.398438 61.070312 134.390625 61.160156 134.382812 61.25 C 134.210938 61.855469 133.875 62.390625 133.328125 62.722656 C 133.246094 62.753906 133.164062 62.78125 133.078125 62.8125 C 132.945312 62.898438 132.816406 62.984375 132.679688 63.074219 C 132.679688 63.203125 132.679688 63.332031 132.679688 63.464844 C 132.546875 63.421875 132.417969 63.378906 132.28125 63.335938 C 132.28125 63.25 132.28125 63.164062 132.28125 63.074219 C 132.160156 63.09375 132.035156 63.113281 131.910156 63.132812 C 130.738281 63.300781 129.617188 63.367188 128.429688 63.335938 C 128.429688 63.464844 128.429688 63.59375 128.429688 63.726562 C 128.296875 63.726562 128.167969 63.726562 128.03125 63.726562 C 128.03125 63.640625 128.03125 63.554688 128.03125 63.464844 C 127.925781 63.476562 127.816406 63.484375 127.707031 63.492188 C 126.695312 63.570312 125.683594 63.644531 124.675781 63.722656 C 124.15625 63.761719 123.636719 63.800781 123.117188 63.839844 C 122.617188 63.878906 122.113281 63.917969 121.613281 63.957031 C 121.421875 63.96875 121.230469 63.984375 121.039062 64 C 120.773438 64.019531 120.503906 64.039062 120.234375 64.0625 C 120.082031 64.074219 119.929688 64.085938 119.773438 64.097656 C 119.515625 64.113281 119.257812 64.121094 119 64.121094 C 119 64.207031 119 64.292969 119 64.382812 C 118.691406 64.382812 118.378906 64.382812 118.070312 64.382812 C 118.027344 64.296875 117.984375 64.210938 117.9375 64.121094 C 117.851562 64.164062 117.761719 64.207031 117.671875 64.25 C 116.566406 64.382812 115.460938 64.402344 114.351562 64.382812 C 114.351562 64.511719 114.351562 64.640625 114.351562 64.773438 C 114.265625 64.730469 114.175781 64.6875 114.085938 64.644531 C 113.886719 64.640625 113.691406 64.644531 113.492188 64.65625 C 113.375 64.660156 113.257812 64.667969 113.136719 64.671875 C 113.015625 64.679688 112.890625 64.6875 112.765625 64.695312 C 112.644531 64.699219 112.523438 64.703125 112.394531 64.710938 C 111.703125 64.746094 111.703125 64.746094 111.03125 64.90625 C 110.804688 64.910156 110.578125 64.90625 110.351562 64.898438 C 109.417969 64.890625 108.5 64.957031 107.570312 65.027344 C 107.421875 65.039062 107.277344 65.050781 107.125 65.0625 C 106.28125 65.128906 106.28125 65.128906 105.453125 65.296875 C 106.492188 66.585938 107.546875 67.859375 108.628906 69.113281 C 109.015625 69.5625 109.394531 70.011719 109.769531 70.46875 C 110.332031 71.148438 110.90625 71.820312 111.484375 72.492188 C 111.597656 72.621094 111.710938 72.753906 111.828125 72.890625 C 111.921875 72.996094 111.921875 72.996094 112.019531 73.105469 C 112.492188 73.644531 112.492188 73.644531 112.492188 73.9375 C 112.578125 73.9375 112.667969 73.9375 112.757812 73.9375 C 112.949219 74.144531 112.949219 74.144531 113.1875 74.449219 C 113.691406 75.085938 114.207031 75.710938 114.726562 76.332031 C 114.804688 76.425781 114.882812 76.523438 114.96875 76.621094 C 115.339844 77.070312 115.714844 77.511719 116.101562 77.949219 C 117.199219 79.195312 118.003906 80.230469 117.984375 81.933594 C 117.898438 82.648438 117.578125 83.203125 117.050781 83.699219 C 116.386719 84.195312 115.75 84.4375 114.90625 84.414062 C 113.351562 84.203125 112.359375 82.648438 111.429688 81.523438 C 111.335938 81.414062 111.242188 81.300781 111.148438 81.183594 C 110.886719 80.863281 110.625 80.539062 110.367188 80.21875 C 110.179688 79.984375 109.988281 79.75 109.800781 79.519531 C 109.070312 78.625 108.347656 77.722656 107.628906 76.816406 C 107.097656 76.140625 107.097656 76.140625 106.515625 75.507812 C 106.390625 75.347656 106.269531 75.191406 106.148438 75.03125 C 106.078125 74.9375 106.007812 74.84375 105.933594 74.746094 C 105.863281 74.652344 105.792969 74.554688 105.71875 74.460938 C 105.589844 74.289062 105.460938 74.121094 105.335938 73.953125 C 105.136719 73.691406 104.9375 73.429688 104.738281 73.167969 C 104.429688 72.765625 104.125 72.363281 103.816406 71.964844 C 102.808594 70.644531 101.832031 69.304688 100.859375 67.964844 C 100.796875 67.878906 100.738281 67.796875 100.675781 67.714844 C 100.632812 67.652344 100.585938 67.589844 100.539062 67.523438 C 100.246094 68.984375 99.953125 70.445312 99.660156 71.902344 C 99.523438 72.582031 99.386719 73.261719 99.25 73.9375 C 97.792969 81.15625 97.792969 81.15625 96.410156 88.390625 C 96.320312 88.878906 96.230469 89.367188 96.140625 89.855469 C 96.078125 90.179688 96.019531 90.503906 95.960938 90.824219 C 95.914062 91.058594 95.914062 91.058594 95.871094 91.296875 C 95.734375 92.03125 95.605469 92.769531 95.480469 93.507812 C 95.460938 93.644531 95.4375 93.777344 95.414062 93.917969 C 95.371094 94.167969 95.332031 94.414062 95.292969 94.664062 C 95.125 95.6875 94.839844 96.910156 94.03125 97.621094 C 93.257812 98.019531 92.507812 98.210938 91.640625 98.273438 C 91.683594 98.1875 91.726562 98.101562 91.773438 98.011719 C 91.660156 97.96875 91.542969 97.921875 91.425781 97.875 C 90.628906 97.425781 90.199219 96.890625 89.929688 96.027344 C 89.742188 95.25 89.742188 94.488281 89.78125 93.695312 C 89.867188 93.695312 89.957031 93.695312 90.046875 93.695312 C 90.054688 93.605469 90.0625 93.515625 90.070312 93.421875 C 90.140625 92.640625 90.222656 91.859375 90.3125 91.078125 C 90.398438 91.078125 90.488281 91.078125 90.578125 91.078125 C 90.597656 90.824219 90.597656 90.824219 90.617188 90.566406 C 90.722656 89.535156 90.9375 88.519531 91.140625 87.503906 C 91.175781 87.335938 91.175781 87.335938 91.210938 87.167969 C 91.53125 85.546875 91.871094 83.929688 92.222656 82.316406 C 92.242188 82.226562 92.261719 82.136719 92.28125 82.046875 C 92.476562 81.148438 92.671875 80.25 92.871094 79.351562 C 92.925781 79.097656 92.984375 78.839844 93.039062 78.582031 C 93.109375 78.265625 93.179688 77.949219 93.25 77.636719 C 93.421875 76.839844 93.558594 76.054688 93.632812 75.242188 C 93.71875 75.242188 93.808594 75.242188 93.898438 75.242188 C 93.910156 75.171875 93.921875 75.101562 93.933594 75.027344 C 94.164062 73.671875 94.507812 72.34375 94.835938 71.007812 C 94.929688 70.632812 95.019531 70.257812 95.109375 69.878906 C 95.167969 69.648438 95.222656 69.417969 95.28125 69.183594 C 95.40625 68.675781 95.527344 68.167969 95.625 67.65625 C 95.558594 67.707031 95.492188 67.757812 95.425781 67.8125 C 94.949219 68.183594 94.472656 68.546875 93.964844 68.878906 C 93.886719 68.929688 93.808594 68.984375 93.726562 69.035156 C 93.570312 69.140625 93.414062 69.242188 93.257812 69.339844 C 93.066406 69.46875 92.882812 69.605469 92.703125 69.75 C 92.703125 69.878906 92.703125 70.007812 92.703125 70.140625 C 92.613281 70.148438 92.523438 70.15625 92.429688 70.164062 C 91.890625 70.3125 91.53125 70.601562 91.09375 70.933594 C 90.914062 71.066406 90.734375 71.199219 90.558594 71.332031 C 90.472656 71.394531 90.382812 71.460938 90.292969 71.527344 C 89.964844 71.773438 89.628906 72.011719 89.292969 72.25 C 89.121094 72.375 89.121094 72.375 88.945312 72.5 C 88.679688 72.691406 88.410156 72.878906 88.140625 73.070312 C 87.992188 73.175781 87.847656 73.28125 87.699219 73.386719 C 87.496094 73.53125 87.496094 73.53125 87.289062 73.675781 C 87.191406 73.761719 87.09375 73.847656 86.992188 73.9375 C 86.992188 74.066406 86.992188 74.195312 86.992188 74.328125 C 86.816406 74.328125 86.640625 74.328125 86.460938 74.328125 C 86.09375 74.644531 86.09375 74.644531 85.796875 74.984375 C 85.839844 75.113281 85.882812 75.242188 85.929688 75.375 C 85.753906 75.289062 85.578125 75.203125 85.398438 75.113281 C 85.316406 75.179688 85.238281 75.242188 85.152344 75.3125 C 84.578125 75.773438 84.003906 76.238281 83.429688 76.699219 C 81.023438 78.574219 81.023438 78.574219 78.757812 80.609375 C 78.550781 80.785156 78.34375 80.960938 78.136719 81.132812 C 77.890625 81.339844 77.648438 81.546875 77.40625 81.757812 C 77.253906 81.886719 77.101562 82.015625 76.949219 82.148438 C 76.875 82.210938 76.800781 82.273438 76.726562 82.339844 C 75.984375 82.96875 75.414062 83.160156 74.449219 83.136719 C 73.703125 83.046875 73.210938 82.714844 72.65625 82.230469 C 72.25 81.574219 72.175781 80.964844 72.289062 80.207031 C 72.546875 79.347656 73.222656 78.746094 73.84375 78.125 C 73.910156 78.054688 73.976562 77.988281 74.042969 77.917969 C 74.878906 77.0625 75.734375 76.261719 76.679688 75.523438 C 77.171875 75.132812 77.632812 74.707031 78.09375 74.28125 C 78.359375 74.066406 78.359375 74.066406 78.625 74.066406 C 78.625 73.980469 78.625 73.894531 78.625 73.804688 C 78.890625 73.582031 79.160156 73.375 79.4375 73.167969 C 80.125 72.648438 80.792969 72.113281 81.445312 71.554688 C 82.242188 70.875 83.054688 70.222656 83.886719 69.582031 C 84.121094 69.402344 84.355469 69.21875 84.59375 69.035156 C 84.671875 68.976562 84.75 68.914062 84.832031 68.851562 C 86.085938 67.90625 86.085938 67.90625 87.257812 66.867188 C 87.558594 66.667969 87.867188 66.476562 88.175781 66.285156 C 88.484375 66.085938 88.484375 66.085938 88.71875 65.691406 C 88.71875 65.605469 88.71875 65.519531 88.71875 65.429688 C 88.0625 65.429688 87.402344 65.429688 86.726562 65.429688 C 86.683594 65.515625 86.640625 65.601562 86.59375 65.691406 C 86.507812 65.648438 86.417969 65.605469 86.328125 65.5625 C 86.285156 65.648438 86.242188 65.734375 86.195312 65.820312 C 86.195312 65.734375 86.195312 65.648438 86.195312 65.5625 C 85.492188 65.5625 84.792969 65.5625 84.070312 65.5625 C 84.027344 65.648438 83.984375 65.734375 83.9375 65.820312 C 83.894531 65.777344 83.851562 65.734375 83.804688 65.691406 C 83.625 65.679688 83.449219 65.675781 83.269531 65.679688 C 83.109375 65.679688 83.109375 65.679688 82.941406 65.679688 C 82.832031 65.679688 82.71875 65.683594 82.601562 65.683594 C 82.488281 65.683594 82.375 65.683594 82.257812 65.683594 C 81.976562 65.6875 81.695312 65.6875 81.414062 65.691406 C 81.371094 65.777344 81.328125 65.863281 81.28125 65.953125 C 81.203125 65.953125 81.121094 65.953125 81.039062 65.949219 C 78.675781 65.933594 76.316406 65.996094 73.953125 66.085938 C 72.632812 66.132812 71.3125 66.175781 69.992188 66.214844 C 69.777344 66.222656 69.777344 66.222656 69.558594 66.230469 C 69.160156 66.242188 68.761719 66.25 68.367188 66.253906 C 68.253906 66.257812 68.140625 66.261719 68.023438 66.265625 C 67.109375 66.277344 66.15625 66.09375 65.484375 65.441406 C 65.054688 64.921875 64.761719 64.402344 64.679688 63.726562 C 64.820312 62.925781 65.148438 62.324219 65.742188 61.765625 C 66.171875 61.601562 66.171875 61.601562 66.539062 61.503906 C 66.582031 61.417969 66.625 61.332031 66.671875 61.242188 C 66.996094 61.195312 66.996094 61.195312 67.441406 61.175781 C 67.609375 61.164062 67.777344 61.15625 67.953125 61.144531 C 68.046875 61.140625 68.140625 61.136719 68.238281 61.128906 C 68.757812 61.097656 69.277344 61.046875 69.796875 61 C 70.03125 60.980469 70.269531 60.960938 70.503906 60.9375 C 70.625 60.925781 70.746094 60.917969 70.875 60.90625 C 74.355469 60.597656 77.84375 60.359375 81.332031 60.136719 C 82.554688 60.054688 83.773438 59.976562 84.996094 59.894531 C 85.414062 59.867188 85.835938 59.839844 86.257812 59.8125 C 86.511719 59.796875 86.769531 59.78125 87.027344 59.761719 C 87.140625 59.753906 87.253906 59.746094 87.371094 59.742188 C 88.003906 59.699219 88.632812 59.640625 89.261719 59.566406 C 89.613281 59.53125 89.960938 59.539062 90.3125 59.539062 C 90.207031 59.40625 90.105469 59.269531 89.996094 59.128906 C 89.855469 58.945312 89.714844 58.761719 89.574219 58.574219 C 89.5 58.480469 89.429688 58.386719 89.351562 58.289062 C 88.875 57.660156 88.417969 57.023438 87.988281 56.363281 C 87.753906 56.101562 87.605469 56.054688 87.257812 56.007812 C 87.242188 55.90625 87.226562 55.800781 87.207031 55.695312 C 87.152344 55.335938 87.152344 55.335938 86.859375 55.09375 C 86.773438 55.136719 86.683594 55.179688 86.59375 55.222656 C 86.519531 54.949219 86.460938 54.71875 86.460938 54.4375 C 86.375 54.277344 86.28125 54.121094 86.183594 53.96875 C 86.125 53.875 86.066406 53.785156 86.007812 53.6875 C 85.945312 53.59375 85.886719 53.496094 85.820312 53.398438 C 85.761719 53.304688 85.703125 53.207031 85.640625 53.109375 C 85.246094 52.484375 85.246094 52.484375 84.734375 51.953125 C 84.648438 51.953125 84.558594 51.953125 84.46875 51.953125 C 84.378906 51.625 84.335938 51.378906 84.335938 51.035156 C 84.203125 50.949219 84.074219 50.863281 83.9375 50.773438 C 83.855469 50.453125 83.855469 50.453125 83.804688 50.117188 C 83.761719 49.988281 83.71875 49.859375 83.671875 49.726562 C 83.402344 49.628906 83.402344 49.628906 83.140625 49.59375 C 83.140625 49.421875 83.140625 49.25 83.140625 49.070312 C 82.910156 48.5 82.910156 48.5 82.453125 48.105469 C 82.371094 48.082031 82.292969 48.054688 82.210938 48.023438 C 82.253906 47.894531 82.296875 47.765625 82.34375 47.632812 C 82.230469 47.277344 82.230469 47.277344 82.054688 46.898438 C 81.992188 46.757812 81.929688 46.617188 81.867188 46.472656 C 81.753906 46.226562 81.644531 45.984375 81.53125 45.738281 C 80.371094 43.21875 80.371094 43.21875 80.871094 41.902344 C 81.179688 41.28125 81.597656 40.84375 82.167969 40.453125 C 83.097656 40.140625 84.089844 40.03125 85 40.4375 C 85.917969 41.0625 86.390625 41.828125 86.882812 42.800781 C 87.035156 43.082031 87.183594 43.363281 87.335938 43.644531 C 87.410156 43.785156 87.484375 43.925781 87.5625 44.074219 C 88.601562 45.996094 89.785156 47.820312 91.058594 49.597656 C 91.222656 49.832031 91.386719 50.0625 91.546875 50.296875 C 91.628906 50.417969 91.714844 50.535156 91.796875 50.660156 C 91.867188 50.757812 91.933594 50.855469 92.003906 50.953125 C 92.160156 51.183594 92.160156 51.183594 92.4375 51.296875 C 92.558594 51.511719 92.683594 51.730469 92.804688 51.945312 C 93.105469 52.433594 93.484375 52.863281 93.855469 53.300781 C 93.941406 53.398438 94.023438 53.496094 94.109375 53.597656 C 94.640625 54.226562 95.183594 54.835938 95.746094 55.441406 C 96.160156 55.898438 96.546875 56.375 96.933594 56.851562 C 97.378906 57.375 97.847656 57.839844 98.414062 58.234375 C 98.4375 58.082031 98.464844 57.933594 98.488281 57.777344 C 99.675781 50.914062 102.398438 43.761719 105.6875 37.632812 C 105.878906 37.269531 105.984375 37.054688 105.984375 36.640625 C 106.039062 36.585938 106.09375 36.535156 106.148438 36.480469 C 106.496094 36.136719 106.699219 35.71875 106.929688 35.300781 C 107.039062 35.109375 107.144531 34.917969 107.253906 34.726562 C 107.335938 34.582031 107.335938 34.582031 107.417969 34.433594 C 112.265625 25.941406 112.265625 25.941406 115.464844 27.359375 Z M 115.464844 27.359375 "/>
<path style=" stroke:none;fill-rule:nonzero;fill:rgb(87.058824%,87.843138%,89.019608%);fill-opacity:1;" d="M 104.125 55.351562 C 104.296875 55.832031 104.214844 56.136719 104.066406 56.613281 C 104.023438 56.753906 103.984375 56.894531 103.9375 57.039062 C 103.894531 57.183594 103.847656 57.332031 103.800781 57.480469 C 103.757812 57.628906 103.710938 57.773438 103.664062 57.925781 C 103.554688 58.289062 103.441406 58.652344 103.328125 59.015625 C 104.675781 58.953125 106.023438 58.890625 107.371094 58.828125 C 108 58.796875 108.625 58.765625 109.25 58.738281 C 110.585938 58.675781 111.921875 58.609375 113.253906 58.546875 C 113.871094 58.515625 114.492188 58.488281 115.109375 58.457031 C 115.71875 58.429688 116.332031 58.402344 116.941406 58.371094 C 117.171875 58.359375 117.402344 58.347656 117.632812 58.339844 C 117.945312 58.324219 118.261719 58.308594 118.578125 58.292969 C 118.671875 58.289062 118.765625 58.285156 118.859375 58.28125 C 119.34375 58.257812 119.34375 58.257812 119.796875 58.101562 C 120.046875 58.097656 120.046875 58.097656 120.347656 58.117188 C 120.453125 58.125 120.558594 58.128906 120.671875 58.136719 C 120.78125 58.144531 120.894531 58.152344 121.007812 58.160156 C 121.121094 58.164062 121.234375 58.171875 121.351562 58.179688 C 121.628906 58.195312 121.910156 58.214844 122.1875 58.234375 C 122.230469 58.144531 122.273438 58.058594 122.320312 57.96875 C 124.117188 57.96875 125.914062 57.96875 127.765625 57.96875 C 127.808594 57.882812 127.851562 57.796875 127.898438 57.710938 C 131.683594 57.675781 131.683594 57.675781 132.679688 57.839844 C 132.8125 57.96875 132.8125 57.96875 132.945312 58.101562 C 132.867188 58.101562 132.789062 58.097656 132.707031 58.097656 C 130.113281 58.0625 127.535156 58.179688 124.945312 58.320312 C 124.019531 58.371094 123.09375 58.417969 122.167969 58.464844 C 121.929688 58.476562 121.695312 58.488281 121.457031 58.5 C 118.972656 58.628906 116.488281 58.734375 114.003906 58.835938 C 113.242188 58.867188 112.484375 58.898438 111.722656 58.929688 C 111.636719 58.933594 111.546875 58.9375 111.453125 58.941406 C 109.707031 59.015625 107.960938 59.101562 106.214844 59.207031 C 105.160156 59.265625 104.117188 59.292969 103.0625 59.28125 C 103.253906 58.390625 103.484375 57.523438 103.742188 56.652344 C 103.78125 56.527344 103.816406 56.402344 103.855469 56.273438 C 103.945312 55.964844 104.035156 55.660156 104.125 55.351562 Z M 104.125 55.351562 "/>
<path style=" stroke:none;fill-rule:nonzero;fill:rgb(88.235295%,88.627452%,90.196079%);fill-opacity:1;" d="M 105.453125 38.078125 C 105.621094 38.582031 105.519531 38.683594 105.285156 39.148438 C 105.21875 39.285156 105.148438 39.425781 105.078125 39.570312 C 104.964844 39.800781 104.964844 39.800781 104.847656 40.035156 C 102.054688 45.777344 99.421875 52.40625 98.679688 58.757812 C 98.171875 58.550781 97.847656 58.238281 97.484375 57.839844 C 97.484375 57.753906 97.484375 57.667969 97.484375 57.578125 C 97.75 57.578125 97.75 57.578125 98.097656 57.90625 C 98.203125 58.011719 98.308594 58.121094 98.414062 58.234375 C 98.4375 58.082031 98.464844 57.933594 98.488281 57.777344 C 99.65625 51.042969 102.308594 44.144531 105.453125 38.078125 Z M 105.453125 38.078125 "/>
<path style=" stroke:none;fill-rule:nonzero;fill:rgb(90.980393%,91.37255%,92.54902%);fill-opacity:1;" d="M 104.125 55.351562 C 104.296875 55.832031 104.214844 56.136719 104.066406 56.613281 C 104.023438 56.753906 103.984375 56.894531 103.9375 57.039062 C 103.894531 57.183594 103.847656 57.332031 103.800781 57.480469 C 103.757812 57.628906 103.710938 57.773438 103.664062 57.925781 C 103.554688 58.289062 103.441406 58.652344 103.328125 59.015625 C 103.464844 59.011719 103.597656 59.003906 103.738281 58.996094 C 105.015625 58.9375 106.292969 58.875 107.570312 58.8125 C 108.226562 58.78125 108.886719 58.75 109.542969 58.71875 C 110.175781 58.6875 110.8125 58.65625 111.445312 58.625 C 111.6875 58.613281 111.929688 58.601562 112.167969 58.589844 C 113.339844 58.535156 114.507812 58.476562 115.679688 58.492188 C 115.679688 58.582031 115.679688 58.667969 115.679688 58.757812 C 114.289062 58.824219 112.898438 58.894531 111.507812 58.960938 C 110.863281 58.992188 110.21875 59.023438 109.574219 59.054688 C 108.949219 59.085938 108.324219 59.117188 107.699219 59.148438 C 107.460938 59.160156 107.226562 59.171875 106.988281 59.183594 C 105.679688 59.246094 104.375 59.296875 103.0625 59.28125 C 103.253906 58.390625 103.484375 57.523438 103.742188 56.652344 C 103.78125 56.527344 103.816406 56.402344 103.855469 56.273438 C 103.945312 55.964844 104.035156 55.660156 104.125 55.351562 Z M 104.125 55.351562 "/>
<path style=" stroke:none;fill-rule:nonzero;fill:rgb(88.627452%,89.019608%,90.588236%);fill-opacity:1;" d="M 127.5 63.335938 C 127.5 63.378906 127.5 63.421875 127.5 63.46875 C 125.585938 63.667969 123.675781 63.816406 121.757812 63.941406 C 121.488281 63.957031 121.21875 63.976562 120.949219 63.996094 C 120.296875 64.035156 119.648438 64.078125 119 64.121094 C 119 64.207031 119 64.292969 119 64.382812 C 118.691406 64.382812 118.378906 64.382812 118.070312 64.382812 C 118.027344 64.296875 117.984375 64.210938 117.9375 64.121094 C 117.675781 64.121094 117.410156 64.121094 117.140625 64.121094 C 117.140625 64.078125 117.140625 64.035156 117.140625 63.992188 C 118.085938 63.917969 119.035156 63.847656 119.980469 63.773438 C 120.304688 63.75 120.625 63.726562 120.945312 63.699219 C 126.066406 63.308594 126.066406 63.308594 127.5 63.335938 Z M 127.5 63.335938 "/>
<path style=" stroke:none;fill-rule:nonzero;fill:rgb(89.803922%,89.803922%,90.980393%);fill-opacity:1;" d="M 89.914062 58.757812 C 90 58.757812 90.089844 58.757812 90.179688 58.757812 C 90.710938 59.464844 90.710938 59.464844 90.710938 59.804688 C 89.710938 59.878906 88.707031 59.953125 87.707031 60.027344 C 87.367188 60.050781 87.027344 60.078125 86.6875 60.101562 C 83.066406 60.375 83.066406 60.375 81.28125 60.328125 C 81.28125 60.28125 81.28125 60.238281 81.28125 60.195312 C 81.367188 60.1875 81.453125 60.183594 81.539062 60.175781 C 82.433594 60.109375 83.328125 60.042969 84.222656 59.980469 C 84.554688 59.953125 84.890625 59.929688 85.222656 59.90625 C 85.703125 59.871094 86.183594 59.835938 86.664062 59.800781 C 86.8125 59.789062 86.960938 59.777344 87.113281 59.765625 C 87.742188 59.71875 88.371094 59.667969 88.996094 59.597656 C 89.445312 59.550781 89.863281 59.539062 90.3125 59.539062 C 90.246094 59.460938 90.179688 59.378906 90.113281 59.296875 C 89.914062 59.015625 89.914062 59.015625 89.914062 58.757812 Z M 89.914062 58.757812 "/>
<path style=" stroke:none;fill-rule:nonzero;fill:rgb(91.37255%,91.764706%,93.333334%);fill-opacity:1;" d="M 115.148438 64.25 C 115.148438 64.296875 115.148438 64.339844 115.148438 64.382812 C 114.886719 64.382812 114.621094 64.382812 114.351562 64.382812 C 114.351562 64.511719 114.351562 64.640625 114.351562 64.773438 C 114.265625 64.730469 114.175781 64.6875 114.085938 64.644531 C 113.886719 64.640625 113.691406 64.644531 113.492188 64.65625 C 113.375 64.660156 113.257812 64.667969 113.136719 64.671875 C 113.015625 64.679688 112.890625 64.6875 112.765625 64.695312 C 112.582031 64.703125 112.582031 64.703125 112.394531 64.710938 C 111.703125 64.746094 111.703125 64.746094 111.03125 64.90625 C 110.777344 64.917969 110.519531 64.921875 110.265625 64.917969 C 110.117188 64.917969 109.96875 64.917969 109.816406 64.917969 C 109.660156 64.917969 109.507812 64.914062 109.347656 64.914062 C 109.191406 64.914062 109.03125 64.914062 108.871094 64.914062 C 108.484375 64.910156 108.097656 64.910156 107.710938 64.90625 C 107.710938 64.863281 107.710938 64.820312 107.710938 64.773438 C 112.828125 64.171875 112.828125 64.171875 115.148438 64.25 Z M 115.148438 64.25 "/>
<path style=" stroke:none;fill-rule:nonzero;fill:rgb(86.666667%,87.450981%,89.019608%);fill-opacity:1;" d="M 133.875 61.765625 C 133.875 62.179688 133.839844 62.34375 133.609375 62.679688 C 133.351562 62.761719 133.351562 62.761719 133.078125 62.8125 C 132.945312 62.898438 132.816406 62.984375 132.679688 63.074219 C 132.679688 63.203125 132.679688 63.332031 132.679688 63.46875 C 132.546875 63.421875 132.417969 63.378906 132.28125 63.335938 C 132.28125 63.25 132.28125 63.164062 132.28125 63.074219 C 132.167969 63.09375 132.050781 63.113281 131.933594 63.132812 C 130.539062 63.339844 129.175781 63.363281 127.765625 63.335938 C 127.765625 63.292969 127.765625 63.25 127.765625 63.203125 C 127.863281 63.199219 127.960938 63.191406 128.0625 63.183594 C 128.511719 63.15625 128.960938 63.121094 129.410156 63.089844 C 129.5625 63.082031 129.714844 63.070312 129.875 63.058594 C 131.960938 62.929688 131.960938 62.929688 133.734375 61.929688 C 133.804688 61.847656 133.804688 61.847656 133.875 61.765625 Z M 133.875 61.765625 "/>
<path style=" stroke:none;fill-rule:nonzero;fill:rgb(92.156863%,92.54902%,93.725491%);fill-opacity:1;" d="M 99.34375 54.046875 C 99.429688 54.132812 99.519531 54.21875 99.609375 54.304688 C 99.570312 54.632812 99.570312 54.632812 99.464844 55.039062 C 99.410156 55.261719 99.410156 55.261719 99.355469 55.488281 C 99.296875 55.722656 99.296875 55.722656 99.234375 55.957031 C 98.886719 57.34375 98.886719 57.34375 98.679688 58.757812 C 98.171875 58.550781 97.847656 58.238281 97.484375 57.839844 C 97.484375 57.753906 97.484375 57.667969 97.484375 57.578125 C 97.75 57.578125 97.75 57.578125 98.097656 57.90625 C 98.203125 58.011719 98.308594 58.121094 98.414062 58.234375 C 98.429688 58.15625 98.441406 58.082031 98.457031 58.003906 C 98.972656 55.226562 98.972656 55.226562 99.34375 54.046875 Z M 99.34375 54.046875 "/>
<path style=" stroke:none;fill-rule:nonzero;fill:rgb(91.37255%,91.37255%,92.54902%);fill-opacity:1;" d="M 100.40625 67 C 100.890625 67.160156 100.933594 67.28125 101.171875 67.710938 C 101.230469 67.816406 101.289062 67.921875 101.351562 68.03125 C 101.390625 68.121094 101.429688 68.214844 101.46875 68.308594 C 101.425781 68.394531 101.382812 68.480469 101.335938 68.570312 C 101.074219 68.226562 100.808594 67.878906 100.539062 67.523438 C 100.363281 68.300781 100.1875 69.078125 100.007812 69.878906 C 99.964844 69.878906 99.921875 69.878906 99.875 69.878906 C 100.140625 67.261719 100.140625 67.261719 100.40625 67 Z M 100.40625 67 "/>
<path style=" stroke:none;fill-rule:nonzero;fill:rgb(92.54902%,92.941177%,94.117647%);fill-opacity:1;" d="M 89.914062 58.757812 C 90 58.757812 90.089844 58.757812 90.179688 58.757812 C 90.710938 59.464844 90.710938 59.464844 90.710938 59.804688 C 90.414062 59.832031 90.113281 59.859375 89.8125 59.882812 C 89.648438 59.898438 89.480469 59.914062 89.308594 59.929688 C 88.875 59.933594 88.675781 59.90625 88.320312 59.671875 C 88.511719 59.648438 88.703125 59.628906 88.894531 59.605469 C 89 59.59375 89.105469 59.582031 89.214844 59.570312 C 89.582031 59.535156 89.945312 59.539062 90.3125 59.539062 C 90.214844 59.417969 90.214844 59.417969 90.113281 59.296875 C 89.914062 59.015625 89.914062 59.015625 89.914062 58.757812 Z M 89.914062 58.757812 "/>
<path style=" stroke:none;fill-rule:nonzero;fill:rgb(90.980393%,90.980393%,92.156863%);fill-opacity:1;" d="M 89.25 65.167969 C 89.335938 65.253906 89.425781 65.339844 89.515625 65.429688 C 89.253906 65.515625 88.988281 65.601562 88.71875 65.691406 C 88.71875 65.605469 88.71875 65.519531 88.71875 65.429688 C 87.929688 65.429688 87.140625 65.429688 86.328125 65.429688 C 86.328125 65.386719 86.328125 65.34375 86.328125 65.296875 C 88.539062 65.128906 88.539062 65.128906 89.25 65.167969 Z M 89.25 65.167969 "/>
<path style=" stroke:none;fill-rule:nonzero;fill:rgb(92.54902%,92.941177%,94.117647%);fill-opacity:1;" d="M 105.1875 64.90625 C 105.890625 64.90625 106.589844 64.90625 107.3125 64.90625 C 107.3125 64.949219 107.3125 64.992188 107.3125 65.039062 C 106.699219 65.125 106.085938 65.210938 105.453125 65.296875 C 105.453125 65.429688 105.453125 65.558594 105.453125 65.691406 C 105.320312 65.5625 105.191406 65.433594 105.054688 65.296875 C 105.097656 65.167969 105.140625 65.039062 105.1875 64.90625 Z M 105.1875 64.90625 "/>
<path style=" stroke:none;fill-rule:nonzero;fill:rgb(91.37255%,91.764706%,93.333334%);fill-opacity:1;" d="M 119.398438 63.992188 C 119.265625 64.035156 119.136719 64.078125 119 64.121094 C 119 64.207031 119 64.292969 119 64.382812 C 118.691406 64.382812 118.378906 64.382812 118.070312 64.382812 C 118.027344 64.296875 117.984375 64.210938 117.9375 64.121094 C 117.675781 64.121094 117.410156 64.121094 117.140625 64.121094 C 117.140625 64.078125 117.140625 64.035156 117.140625 63.992188 C 117.925781 63.890625 118.617188 63.839844 119.398438 63.992188 Z M 119.398438 63.992188 "/>
<path style=" stroke:none;fill-rule:nonzero;fill:rgb(80.784315%,81.176472%,83.92157%);fill-opacity:1;" d="M 93.367188 97.621094 C 93.453125 97.664062 93.542969 97.707031 93.632812 97.75 C 92.953125 98.074219 92.390625 98.210938 91.640625 98.273438 C 91.683594 98.144531 91.726562 98.015625 91.773438 97.882812 C 91.914062 97.871094 91.914062 97.871094 92.054688 97.859375 C 92.175781 97.847656 92.296875 97.835938 92.421875 97.824219 C 92.542969 97.816406 92.660156 97.804688 92.785156 97.792969 C 93.101562 97.769531 93.101562 97.769531 93.367188 97.621094 Z M 93.367188 97.621094 "/>
<path style=" stroke:none;fill-rule:nonzero;fill:rgb(94.901961%,94.901961%,96.078432%);fill-opacity:1;" d="M 85.132812 65.296875 C 85.324219 65.296875 85.515625 65.292969 85.707031 65.289062 C 85.863281 65.289062 85.863281 65.289062 86.027344 65.285156 C 86.328125 65.296875 86.328125 65.296875 86.726562 65.429688 C 86.683594 65.515625 86.640625 65.601562 86.59375 65.691406 C 86.507812 65.648438 86.417969 65.605469 86.328125 65.5625 C 86.285156 65.648438 86.242188 65.734375 86.195312 65.820312 C 86.195312 65.734375 86.195312 65.648438 86.195312 65.5625 C 86.070312 65.566406 85.941406 65.570312 85.8125 65.578125 C 85.398438 65.5625 85.398438 65.5625 85.132812 65.296875 Z M 85.132812 65.296875 "/>
<path style=" stroke:none;fill-rule:nonzero;fill:rgb(94.117647%,94.117647%,95.294118%);fill-opacity:1;" d="M 85.796875 74.460938 C 85.882812 74.503906 85.972656 74.546875 86.0625 74.589844 C 85.929688 74.785156 85.929688 74.785156 85.796875 74.984375 C 85.839844 75.113281 85.882812 75.242188 85.929688 75.375 C 85.851562 75.332031 85.769531 75.289062 85.6875 75.242188 C 85.390625 75.085938 85.390625 75.085938 85 75.113281 C 85.261719 74.898438 85.527344 74.679688 85.796875 74.460938 Z M 85.796875 74.460938 "/>
<path style=" stroke:none;fill-rule:nonzero;fill:rgb(96.470588%,96.862745%,97.647059%);fill-opacity:1;" d="M 110.765625 80.871094 C 110.898438 81 111.027344 81.128906 111.164062 81.265625 C 111.121094 81.351562 111.078125 81.4375 111.03125 81.523438 C 110.765625 81.394531 110.765625 81.394531 110.632812 81 C 110.675781 80.957031 110.71875 80.914062 110.765625 80.871094 Z M 110.765625 80.871094 "/>
<path style=" stroke:none;fill-rule:nonzero;fill:rgb(97.647059%,98.039216%,98.823529%);fill-opacity:1;" d="M 111.164062 71.320312 C 111.25 71.320312 111.339844 71.320312 111.429688 71.320312 C 111.34375 71.535156 111.253906 71.75 111.164062 71.972656 C 111.121094 71.886719 111.078125 71.800781 111.03125 71.710938 C 111.074219 71.582031 111.117188 71.453125 111.164062 71.320312 Z M 111.164062 71.320312 "/>
<path style=" stroke:none;fill-rule:nonzero;fill:rgb(94.117647%,94.509804%,95.686275%);fill-opacity:1;" d="M 128.695312 63.46875 C 129.003906 63.46875 129.308594 63.46875 129.625 63.46875 C 129.492188 63.554688 129.363281 63.640625 129.226562 63.726562 C 129.050781 63.640625 128.875 63.554688 128.695312 63.46875 Z M 128.695312 63.46875 "/>
<path style=" stroke:none;fill-rule:nonzero;fill:rgb(95.294118%,95.686275%,96.470588%);fill-opacity:1;" d="M 110.101562 42.136719 C 110.234375 42.136719 110.363281 42.136719 110.5 42.136719 C 110.457031 42.308594 110.414062 42.480469 110.367188 42.660156 C 110.28125 42.617188 110.191406 42.574219 110.101562 42.53125 C 110.101562 42.398438 110.101562 42.269531 110.101562 42.136719 Z M 110.101562 42.136719 "/>
<path style=" stroke:none;fill-rule:nonzero;fill:rgb(95.294118%,95.686275%,96.862745%);fill-opacity:1;" d="M 125.375 63.726562 C 125.683594 63.726562 125.988281 63.726562 126.304688 63.726562 C 126.304688 63.773438 126.304688 63.816406 126.304688 63.859375 C 125.996094 63.859375 125.691406 63.859375 125.375 63.859375 C 125.375 63.816406 125.375 63.773438 125.375 63.726562 Z M 125.375 63.726562 "/>
<path style=" stroke:none;fill-rule:nonzero;fill:rgb(95.686275%,96.862745%,97.254902%);fill-opacity:1;" d="M 122.851562 57.710938 C 122.984375 57.796875 123.113281 57.882812 123.25 57.96875 C 122.988281 57.96875 122.722656 57.96875 122.453125 57.96875 C 122.585938 57.882812 122.714844 57.796875 122.851562 57.710938 Z M 122.851562 57.710938 "/>
<path style=" stroke:none;fill-rule:nonzero;fill:rgb(98.039216%,98.039216%,98.431373%);fill-opacity:1;" d="M 110.101562 70.402344 C 110.234375 70.402344 110.363281 70.402344 110.5 70.402344 C 110.5 70.488281 110.5 70.574219 110.5 70.664062 C 110.367188 70.664062 110.238281 70.664062 110.101562 70.664062 C 110.101562 70.578125 110.101562 70.492188 110.101562 70.402344 Z M 110.101562 70.402344 "/>
<path style=" stroke:none;fill-rule:nonzero;fill:rgb(89.803922%,90.588236%,92.54902%);fill-opacity:1;" d="M 64.945312 64.90625 C 65.03125 65.078125 65.121094 65.25 65.210938 65.429688 C 65.078125 65.300781 64.949219 65.171875 64.8125 65.039062 C 64.855469 64.992188 64.898438 64.949219 64.945312 64.90625 Z M 64.945312 64.90625 "/>
<path style=" stroke:none;fill-rule:nonzero;fill:rgb(98.431373%,98.823529%,99.607843%);fill-opacity:1;" d="M 89.648438 58.886719 C 89.78125 59.015625 89.910156 59.144531 90.046875 59.28125 C 89.871094 59.191406 89.695312 59.105469 89.515625 59.015625 C 89.558594 58.972656 89.601562 58.929688 89.648438 58.886719 Z M 89.648438 58.886719 "/>
<path style=" stroke:none;fill-rule:nonzero;fill:rgb(98.039216%,98.039216%,98.823529%);fill-opacity:1;" d="M 104.789062 54.4375 C 104.832031 54.609375 104.875 54.78125 104.921875 54.960938 C 104.835938 54.960938 104.746094 54.960938 104.65625 54.960938 C 104.699219 54.789062 104.742188 54.617188 104.789062 54.4375 Z M 104.789062 54.4375 "/>
<path style=" stroke:none;fill-rule:nonzero;fill:rgb(96.862745%,97.254902%,98.039216%);fill-opacity:1;" d="M 79.554688 79.824219 C 79.554688 79.953125 79.554688 80.082031 79.554688 80.21875 C 79.46875 80.171875 79.378906 80.128906 79.289062 80.085938 C 79.375 80 79.464844 79.914062 79.554688 79.824219 Z M 79.554688 79.824219 "/>
<path style=" stroke:none;fill-rule:nonzero;fill:rgb(97.647059%,98.039216%,98.823529%);fill-opacity:1;" d="M 104.257812 72.757812 C 104.390625 72.886719 104.519531 73.015625 104.65625 73.148438 C 104.523438 73.105469 104.394531 73.0625 104.257812 73.019531 C 104.257812 72.933594 104.257812 72.847656 104.257812 72.757812 Z M 104.257812 72.757812 "/>
<path style=" stroke:none;fill-rule:nonzero;fill:rgb(93.725491%,94.901961%,96.078432%);fill-opacity:1;" d="M 67.734375 66.34375 C 67.953125 66.34375 68.171875 66.34375 68.398438 66.34375 C 68.398438 66.390625 68.398438 66.433594 68.398438 66.476562 C 68.179688 66.476562 67.960938 66.476562 67.734375 66.476562 C 67.734375 66.433594 67.734375 66.390625 67.734375 66.34375 Z M 67.734375 66.34375 "/>
<path style=" stroke:none;fill-rule:nonzero;fill:rgb(96.862745%,97.254902%,98.039216%);fill-opacity:1;" d="M 118.734375 57.96875 C 118.820312 58.015625 118.910156 58.058594 119 58.101562 C 118.824219 58.144531 118.648438 58.1875 118.46875 58.234375 C 118.554688 58.144531 118.644531 58.058594 118.734375 57.96875 Z M 118.734375 57.96875 "/>
<path style=" stroke:none;fill-rule:nonzero;fill:rgb(98.431373%,98.823529%,99.215686%);fill-opacity:1;" d="M 99.34375 73.804688 C 99.476562 74.328125 99.476562 74.328125 99.476562 74.328125 Z M 99.34375 73.804688 "/>
<path style=" stroke:none;fill-rule:nonzero;fill:rgb(98.039216%,98.431373%,98.823529%);fill-opacity:1;" d="M 102.398438 70.273438 C 102.53125 70.335938 102.53125 70.335938 102.664062 70.402344 C 102.621094 70.488281 102.578125 70.574219 102.53125 70.664062 C 102.488281 70.535156 102.445312 70.40625 102.398438 70.273438 Z M 102.398438 70.273438 "/>
<path style=" stroke:none;fill-rule:nonzero;fill:rgb(89.803922%,90.588236%,92.941177%);fill-opacity:1;" d="M 65.210938 65.429688 C 65.296875 65.429688 65.386719 65.429688 65.476562 65.429688 C 65.476562 65.515625 65.476562 65.601562 65.476562 65.691406 C 65.390625 65.691406 65.300781 65.691406 65.210938 65.691406 C 65.210938 65.605469 65.210938 65.519531 65.210938 65.429688 Z M 65.210938 65.429688 "/>
<path style=" stroke:none;fill-rule:nonzero;fill:rgb(97.647059%,98.039216%,98.823529%);fill-opacity:1;" d="M 114.882812 64.515625 C 115.414062 64.644531 115.414062 64.644531 115.414062 64.644531 Z M 114.882812 64.515625 "/>
<path style=" stroke:none;fill-rule:nonzero;fill:rgb(93.333334%,93.725491%,95.294118%);fill-opacity:1;" d="M 131.085938 63.335938 C 131.617188 63.46875 131.617188 63.46875 131.617188 63.46875 Z M 131.085938 63.335938 "/>
<path style=" stroke:none;fill-rule:nonzero;fill:rgb(98.823529%,98.823529%,99.215686%);fill-opacity:1;" d="M 104.390625 58.757812 C 104.921875 58.886719 104.921875 58.886719 104.921875 58.886719 Z M 104.390625 58.757812 "/>
<path style=" stroke:none;fill-rule:nonzero;fill:rgb(95.294118%,96.470588%,96.862745%);fill-opacity:1;" d="M 86.726562 42.007812 C 86.8125 42.09375 86.902344 42.179688 86.992188 42.265625 C 86.859375 42.332031 86.859375 42.332031 86.726562 42.398438 C 86.726562 42.269531 86.726562 42.140625 86.726562 42.007812 Z M 86.726562 42.007812 "/>
<path style=" stroke:none;fill-rule:nonzero;fill:rgb(94.901961%,95.294118%,96.470588%);fill-opacity:1;" d="M 113.289062 35.855469 C 113.375 35.941406 113.464844 36.027344 113.554688 36.117188 C 113.421875 36.183594 113.421875 36.183594 113.289062 36.25 C 113.289062 36.117188 113.289062 35.988281 113.289062 35.855469 Z M 113.289062 35.855469 "/>
<path style=" stroke:none;fill-rule:nonzero;fill:rgb(46.666667%,49.019608%,54.509807%);fill-opacity:1;" d="M 125.90625 132.5625 C 126.039062 132.625 126.039062 132.625 126.171875 132.691406 C 126.039062 132.757812 126.039062 132.757812 125.90625 132.820312 C 125.90625 132.734375 125.90625 132.648438 125.90625 132.5625 Z M 125.90625 132.5625 "/>
<path style=" stroke:none;fill-rule:nonzero;fill:rgb(46.27451%,48.235294%,53.725493%);fill-opacity:1;" d="M 125.90625 115.8125 C 126.039062 115.875 126.039062 115.875 126.171875 115.941406 C 126.039062 116.007812 126.039062 116.007812 125.90625 116.070312 C 125.90625 115.984375 125.90625 115.898438 125.90625 115.8125 Z M 125.90625 115.8125 "/>
<path style=" stroke:none;fill-rule:nonzero;fill:rgb(45.882353%,48.627451%,53.725493%);fill-opacity:1;" d="M 138.65625 112.800781 C 138.789062 112.867188 138.789062 112.867188 138.921875 112.929688 C 138.789062 112.996094 138.789062 112.996094 138.65625 113.0625 C 138.65625 112.976562 138.65625 112.890625 138.65625 112.800781 Z M 138.65625 112.800781 "/>
<path style=" stroke:none;fill-rule:nonzero;fill:rgb(46.666667%,49.019608%,54.11765%);fill-opacity:1;" d="M 125.90625 105.34375 C 126.039062 105.40625 126.039062 105.40625 126.171875 105.472656 C 126.039062 105.539062 126.039062 105.539062 125.90625 105.601562 C 125.90625 105.515625 125.90625 105.429688 125.90625 105.34375 Z M 125.90625 105.34375 "/>
<path style=" stroke:none;fill-rule:nonzero;fill:rgb(89.411765%,89.803922%,92.156863%);fill-opacity:1;" d="M 73.578125 83.09375 C 73.976562 83.226562 73.976562 83.226562 73.976562 83.226562 Z M 73.578125 83.09375 "/>
<path style=" stroke:none;fill-rule:nonzero;fill:rgb(94.901961%,95.686275%,96.470588%);fill-opacity:1;" d="M 76.898438 82.179688 C 76.941406 82.265625 76.984375 82.351562 77.03125 82.441406 C 76.945312 82.398438 76.855469 82.355469 76.765625 82.3125 C 76.808594 82.265625 76.851562 82.222656 76.898438 82.179688 Z M 76.898438 82.179688 "/>
<path style=" stroke:none;fill-rule:nonzero;fill:rgb(97.647059%,98.039216%,98.431373%);fill-opacity:1;" d="M 109.171875 78.90625 C 109.214844 78.996094 109.257812 79.082031 109.304688 79.171875 C 109.21875 79.125 109.128906 79.082031 109.039062 79.039062 C 109.082031 78.996094 109.125 78.953125 109.171875 78.90625 Z M 109.171875 78.90625 "/>
<path style=" stroke:none;fill-rule:nonzero;fill:rgb(95.686275%,96.078432%,97.254902%);fill-opacity:1;" d="M 74.640625 76.683594 C 74.773438 76.75 74.773438 76.75 74.90625 76.8125 C 74.773438 76.878906 74.773438 76.878906 74.640625 76.945312 C 74.640625 76.859375 74.640625 76.773438 74.640625 76.683594 Z M 74.640625 76.683594 "/>
<path style=" stroke:none;fill-rule:nonzero;fill:rgb(99.215686%,99.215686%,99.607843%);fill-opacity:1;" d="M 86.328125 67.261719 C 86.460938 67.328125 86.460938 67.328125 86.59375 67.390625 C 86.460938 67.457031 86.460938 67.457031 86.328125 67.523438 C 86.328125 67.4375 86.328125 67.351562 86.328125 67.261719 Z M 86.328125 67.261719 "/>
<path style=" stroke:none;fill-rule:nonzero;fill:rgb(97.647059%,97.647059%,98.431373%);fill-opacity:1;" d="M 112.09375 64.773438 C 112.492188 64.90625 112.492188 64.90625 112.492188 64.90625 Z M 112.09375 64.773438 "/>
<path style=" stroke:none;fill-rule:nonzero;fill:rgb(98.039216%,98.431373%,98.823529%);fill-opacity:1;" d="M 113.15625 64.644531 C 113.554688 64.773438 113.554688 64.773438 113.554688 64.773438 Z M 113.15625 64.644531 "/>
<path style=" stroke:none;fill-rule:nonzero;fill:rgb(97.254902%,97.647059%,98.039216%);fill-opacity:1;" d="M 116.34375 64.382812 C 116.742188 64.515625 116.742188 64.515625 116.742188 64.515625 Z M 116.34375 64.382812 "/>
<path style=" stroke:none;fill-rule:nonzero;fill:rgb(96.078432%,96.862745%,97.647059%);fill-opacity:1;" d="M 70.125 60.71875 C 70.523438 60.851562 70.523438 60.851562 70.523438 60.851562 Z M 70.125 60.71875 "/>
<path style=" stroke:none;fill-rule:nonzero;fill:rgb(97.254902%,97.647059%,98.431373%);fill-opacity:1;" d="M 75.703125 60.328125 C 76.101562 60.457031 76.101562 60.457031 76.101562 60.457031 Z M 75.703125 60.328125 "/>
<path style=" stroke:none;fill-rule:nonzero;fill:rgb(90.196079%,90.980393%,92.941177%);fill-opacity:1;" d="M 134.007812 58.625 C 134.09375 58.625 134.183594 58.625 134.273438 58.625 C 134.230469 58.710938 134.1875 58.796875 134.140625 58.886719 C 134.097656 58.800781 134.054688 58.714844 134.007812 58.625 Z M 134.007812 58.625 "/>
<path style=" stroke:none;fill-rule:nonzero;fill:rgb(97.647059%,98.823529%,99.215686%);fill-opacity:1;" d="M 89.25 58.363281 C 89.335938 58.449219 89.425781 58.535156 89.515625 58.625 C 89.429688 58.625 89.339844 58.625 89.25 58.625 C 89.25 58.539062 89.25 58.453125 89.25 58.363281 Z M 89.25 58.363281 "/>
<path style=" stroke:none;fill-rule:nonzero;fill:rgb(98.039216%,98.431373%,99.215686%);fill-opacity:1;" d="M 89.78125 47.632812 C 89.867188 47.632812 89.957031 47.632812 90.046875 47.632812 C 90.003906 47.71875 89.960938 47.804688 89.914062 47.894531 C 89.871094 47.808594 89.828125 47.722656 89.78125 47.632812 Z M 89.78125 47.632812 "/>
<path style=" stroke:none;fill-rule:nonzero;fill:rgb(94.901961%,94.901961%,96.470588%);fill-opacity:1;" d="M 81.148438 45.277344 C 81.191406 45.363281 81.234375 45.449219 81.28125 45.539062 C 81.195312 45.496094 81.105469 45.453125 81.015625 45.40625 C 81.058594 45.363281 81.101562 45.320312 81.148438 45.277344 Z M 81.148438 45.277344 "/>
<path style=" stroke:none;fill-rule:nonzero;fill:rgb(96.078432%,96.078432%,97.254902%);fill-opacity:1;" d="M 86.859375 42.398438 C 86.945312 42.484375 87.035156 42.570312 87.125 42.660156 C 87.039062 42.660156 86.949219 42.660156 86.859375 42.660156 C 86.859375 42.574219 86.859375 42.488281 86.859375 42.398438 Z M 86.859375 42.398438 "/>
<path style=" stroke:none;fill-rule:nonzero;fill:rgb(47.058824%,48.627451%,54.11765%);fill-opacity:1;" d="M 125.90625 133.609375 C 126.171875 133.738281 126.171875 133.738281 126.171875 133.738281 Z M 125.90625 133.609375 "/>
<path style=" stroke:none;fill-rule:nonzero;fill:rgb(47.058824%,49.019608%,54.901963%);fill-opacity:1;" d="M 144.765625 131.25 C 145.03125 131.382812 145.03125 131.382812 145.03125 131.382812 Z M 144.765625 131.25 "/>
<path style=" stroke:none;fill-rule:nonzero;fill:rgb(46.666667%,48.627451%,54.509807%);fill-opacity:1;" d="M 125.90625 130.46875 C 126.171875 130.597656 126.171875 130.597656 126.171875 130.597656 Z M 125.90625 130.46875 "/>
<path style=" stroke:none;fill-rule:nonzero;fill:rgb(47.058824%,49.019608%,54.901963%);fill-opacity:1;" d="M 144.765625 129.15625 C 145.03125 129.289062 145.03125 129.289062 145.03125 129.289062 Z M 144.765625 129.15625 "/>
<path style=" stroke:none;fill-rule:nonzero;fill:rgb(47.058824%,49.019608%,54.901963%);fill-opacity:1;" d="M 138.390625 128.375 C 138.65625 128.503906 138.65625 128.503906 138.65625 128.503906 Z M 138.390625 128.375 "/>
<path style=" stroke:none;fill-rule:nonzero;fill:rgb(46.666667%,48.627451%,54.901963%);fill-opacity:1;" d="M 144.765625 128.109375 C 145.03125 128.242188 145.03125 128.242188 145.03125 128.242188 Z M 144.765625 128.109375 "/>
<path style=" stroke:none;fill-rule:nonzero;fill:rgb(46.666667%,49.019608%,54.509807%);fill-opacity:1;" d="M 144.765625 126.015625 C 145.03125 126.148438 145.03125 126.148438 145.03125 126.148438 Z M 144.765625 126.015625 "/>
<path style=" stroke:none;fill-rule:nonzero;fill:rgb(46.666667%,49.411765%,54.901963%);fill-opacity:1;" d="M 138.390625 125.234375 C 138.65625 125.363281 138.65625 125.363281 138.65625 125.363281 Z M 138.390625 125.234375 "/>
<path style=" stroke:none;fill-rule:nonzero;fill:rgb(46.666667%,48.627451%,54.901963%);fill-opacity:1;" d="M 144.765625 124.96875 C 145.03125 125.101562 145.03125 125.101562 145.03125 125.101562 Z M 144.765625 124.96875 "/>
<path style=" stroke:none;fill-rule:nonzero;fill:rgb(46.666667%,48.627451%,54.11765%);fill-opacity:1;" d="M 144.765625 122.875 C 145.03125 123.007812 145.03125 123.007812 145.03125 123.007812 Z M 144.765625 122.875 "/>
<path style=" stroke:none;fill-rule:nonzero;fill:rgb(46.666667%,48.627451%,54.901963%);fill-opacity:1;" d="M 144.765625 121.828125 C 145.03125 121.960938 145.03125 121.960938 145.03125 121.960938 Z M 144.765625 121.828125 "/>
<path style=" stroke:none;fill-rule:nonzero;fill:rgb(46.27451%,48.235294%,54.509807%);fill-opacity:1;" d="M 144.765625 118.6875 C 145.03125 118.820312 145.03125 118.820312 145.03125 118.820312 Z M 144.765625 118.6875 "/>
<path style=" stroke:none;fill-rule:nonzero;fill:rgb(45.882353%,48.627451%,54.11765%);fill-opacity:1;" d="M 144.765625 116.59375 C 145.03125 116.726562 145.03125 116.726562 145.03125 116.726562 Z M 144.765625 116.59375 "/>
<path style=" stroke:none;fill-rule:nonzero;fill:rgb(45.882353%,48.235294%,54.11765%);fill-opacity:1;" d="M 144.765625 115.546875 C 145.03125 115.679688 145.03125 115.679688 145.03125 115.679688 Z M 144.765625 115.546875 "/>
<path style=" stroke:none;fill-rule:nonzero;fill:rgb(45.882353%,48.627451%,54.11765%);fill-opacity:1;" d="M 132.546875 115.546875 C 132.8125 115.679688 132.8125 115.679688 132.8125 115.679688 Z M 132.546875 115.546875 "/>
<path style=" stroke:none;fill-rule:nonzero;fill:rgb(45.882353%,48.235294%,53.333336%);fill-opacity:1;" d="M 125.90625 111.625 C 126.171875 111.753906 126.171875 111.753906 126.171875 111.753906 Z M 125.90625 111.625 "/>
<path style=" stroke:none;fill-rule:nonzero;fill:rgb(45.882353%,48.627451%,54.11765%);fill-opacity:1;" d="M 138.390625 110.578125 C 138.65625 110.707031 138.65625 110.707031 138.65625 110.707031 Z M 138.390625 110.578125 "/>
<path style=" stroke:none;fill-rule:nonzero;fill:rgb(46.27451%,48.235294%,54.11765%);fill-opacity:1;" d="M 144.765625 110.3125 C 145.03125 110.445312 145.03125 110.445312 145.03125 110.445312 Z M 144.765625 110.3125 "/>
<path style=" stroke:none;fill-rule:nonzero;fill:rgb(45.882353%,48.627451%,54.11765%);fill-opacity:1;" d="M 138.390625 108.484375 C 138.65625 108.613281 138.65625 108.613281 138.65625 108.613281 Z M 138.390625 108.484375 "/>
<path style=" stroke:none;fill-rule:nonzero;fill:rgb(46.27451%,48.627451%,54.509807%);fill-opacity:1;" d="M 144.765625 104.03125 C 145.03125 104.164062 145.03125 104.164062 145.03125 104.164062 Z M 144.765625 104.03125 "/>
<path style=" stroke:none;fill-rule:nonzero;fill:rgb(46.27451%,48.235294%,54.509807%);fill-opacity:1;" d="M 144.765625 102.984375 C 145.03125 103.117188 145.03125 103.117188 145.03125 103.117188 Z M 144.765625 102.984375 "/>
<path style=" stroke:none;fill-rule:nonzero;fill:rgb(46.666667%,49.019608%,54.509807%);fill-opacity:1;" d="M 144.765625 100.890625 C 145.03125 101.023438 145.03125 101.023438 145.03125 101.023438 Z M 144.765625 100.890625 "/>
<path style=" stroke:none;fill-rule:nonzero;fill:rgb(46.666667%,49.019608%,54.509807%);fill-opacity:1;" d="M 11.15625 100.761719 C 11.421875 100.890625 11.421875 100.890625 11.421875 100.890625 Z M 11.15625 100.761719 "/>
<path style=" stroke:none;fill-rule:nonzero;fill:rgb(87.058824%,87.843138%,89.803922%);fill-opacity:1;" d="M 92.96875 98.144531 C 93.234375 98.273438 93.234375 98.273438 93.234375 98.273438 Z M 92.96875 98.144531 "/>
<path style=" stroke:none;fill-rule:nonzero;fill:rgb(87.450981%,88.235295%,90.588236%);fill-opacity:1;" d="M 91.375 98.015625 C 91.640625 98.144531 91.640625 98.144531 91.640625 98.144531 Z M 91.375 98.015625 "/>
<path style=" stroke:none;fill-rule:nonzero;fill:rgb(47.058824%,49.411765%,55.29412%);fill-opacity:1;" d="M 144.765625 96.703125 C 145.03125 96.835938 145.03125 96.835938 145.03125 96.835938 Z M 144.765625 96.703125 "/>
<path style=" stroke:none;fill-rule:nonzero;fill:rgb(47.058824%,49.411765%,55.29412%);fill-opacity:1;" d="M 144.765625 95.65625 C 145.03125 95.789062 145.03125 95.789062 145.03125 95.789062 Z M 144.765625 95.65625 "/>
<path style=" stroke:none;fill-rule:nonzero;fill:rgb(52.941179%,55.29412%,60.000002%);fill-opacity:1;" d="M 125.90625 93.828125 C 126.171875 93.957031 126.171875 93.957031 126.171875 93.957031 Z M 125.90625 93.828125 "/>
<path style=" stroke:none;fill-rule:nonzero;fill:rgb(47.450981%,49.411765%,55.29412%);fill-opacity:1;" d="M 144.765625 93.5625 C 145.03125 93.695312 145.03125 93.695312 145.03125 93.695312 Z M 144.765625 93.5625 "/>
<path style=" stroke:none;fill-rule:nonzero;fill:rgb(47.843137%,50.196081%,56.078434%);fill-opacity:1;" d="M 144.765625 91.46875 C 145.03125 91.601562 145.03125 91.601562 145.03125 91.601562 Z M 144.765625 91.46875 "/>
<path style=" stroke:none;fill-rule:nonzero;fill:rgb(48.235294%,50.588238%,55.686277%);fill-opacity:1;" d="M 144.765625 90.421875 C 145.03125 90.554688 145.03125 90.554688 145.03125 90.554688 Z M 144.765625 90.421875 "/>
<path style=" stroke:none;fill-rule:nonzero;fill:rgb(48.235294%,50.588238%,56.470591%);fill-opacity:1;" d="M 144.765625 88.328125 C 145.03125 88.460938 145.03125 88.460938 145.03125 88.460938 Z M 144.765625 88.328125 "/>
<path style=" stroke:none;fill-rule:nonzero;fill:rgb(60.392159%,61.960787%,66.274512%);fill-opacity:1;" d="M 125.90625 87.546875 C 126.171875 87.675781 126.171875 87.675781 126.171875 87.675781 Z M 125.90625 87.546875 "/>
<path style=" stroke:none;fill-rule:nonzero;fill:rgb(49.019608%,50.980395%,56.862748%);fill-opacity:1;" d="M 144.765625 87.28125 C 145.03125 87.414062 145.03125 87.414062 145.03125 87.414062 Z M 144.765625 87.28125 "/>
<path style=" stroke:none;fill-rule:nonzero;fill:rgb(49.019608%,51.372552%,56.862748%);fill-opacity:1;" d="M 144.765625 86.234375 C 145.03125 86.367188 145.03125 86.367188 145.03125 86.367188 Z M 144.765625 86.234375 "/>
<path style=" stroke:none;fill-rule:nonzero;fill:rgb(49.803922%,51.764709%,57.254905%);fill-opacity:1;" d="M 144.765625 84.140625 C 145.03125 84.273438 145.03125 84.273438 145.03125 84.273438 Z M 144.765625 84.140625 "/>
<path style=" stroke:none;fill-rule:nonzero;fill:rgb(88.235295%,89.411765%,90.980393%);fill-opacity:1;" d="M 116.34375 84.140625 C 116.609375 84.273438 116.609375 84.273438 116.609375 84.273438 Z M 116.34375 84.140625 "/>
<path style=" stroke:none;fill-rule:nonzero;fill:rgb(50.980395%,52.549022%,58.431375%);fill-opacity:1;" d="M 144.765625 81 C 145.03125 81.132812 145.03125 81.132812 145.03125 81.132812 Z M 144.765625 81 "/>
<path style=" stroke:none;fill-rule:nonzero;fill:rgb(96.470588%,96.470588%,98.431373%);fill-opacity:1;" d="M 109.835938 80.347656 C 110.101562 80.476562 110.101562 80.476562 110.101562 80.476562 Z M 109.835938 80.347656 "/>
<path style=" stroke:none;fill-rule:nonzero;fill:rgb(51.372552%,53.333336%,58.431375%);fill-opacity:1;" d="M 144.765625 79.953125 C 145.03125 80.085938 145.03125 80.085938 145.03125 80.085938 Z M 144.765625 79.953125 "/>
<path style=" stroke:none;fill-rule:nonzero;fill:rgb(94.901961%,95.686275%,96.470588%);fill-opacity:1;" d="M 116.34375 78.125 C 116.609375 78.253906 116.609375 78.253906 116.609375 78.253906 Z M 116.34375 78.125 "/>
<path style=" stroke:none;fill-rule:nonzero;fill:rgb(52.156866%,54.11765%,59.215689%);fill-opacity:1;" d="M 144.765625 77.859375 C 145.03125 77.992188 145.03125 77.992188 145.03125 77.992188 Z M 144.765625 77.859375 "/>
<path style=" stroke:none;fill-rule:nonzero;fill:rgb(96.078432%,96.470588%,98.039216%);fill-opacity:1;" d="M 76.5 75.375 C 76.765625 75.507812 76.765625 75.507812 76.765625 75.507812 Z M 76.5 75.375 "/>
<path style=" stroke:none;fill-rule:nonzero;fill:rgb(96.862745%,97.254902%,98.431373%);fill-opacity:1;" d="M 77.03125 74.851562 C 77.296875 74.984375 77.296875 74.984375 77.296875 74.984375 Z M 77.03125 74.851562 "/>
<path style=" stroke:none;fill-rule:nonzero;fill:rgb(97.254902%,97.647059%,98.431373%);fill-opacity:1;" d="M 113.289062 74.460938 C 113.554688 74.589844 113.554688 74.589844 113.554688 74.589844 Z M 113.289062 74.460938 "/>
<path style=" stroke:none;fill-rule:nonzero;fill:rgb(98.039216%,97.647059%,98.823529%);fill-opacity:1;" d="M 105.453125 74.460938 C 105.71875 74.589844 105.71875 74.589844 105.71875 74.589844 Z M 105.453125 74.460938 "/>
<path style=" stroke:none;fill-rule:nonzero;fill:rgb(98.823529%,99.215686%,99.607843%);fill-opacity:1;" d="M 93.5 74.328125 C 93.765625 74.460938 93.765625 74.460938 93.765625 74.460938 Z M 93.5 74.328125 "/>
<path style=" stroke:none;fill-rule:nonzero;fill:rgb(54.509807%,56.470591%,61.176473%);fill-opacity:1;" d="M 144.765625 73.671875 C 145.03125 73.804688 145.03125 73.804688 145.03125 73.804688 Z M 144.765625 73.671875 "/>
<path style=" stroke:none;fill-rule:nonzero;fill:rgb(98.039216%,98.039216%,99.215686%);fill-opacity:1;" d="M 87.390625 73.671875 C 87.65625 73.804688 87.65625 73.804688 87.65625 73.804688 Z M 87.390625 73.671875 "/>
<path style=" stroke:none;fill-rule:nonzero;fill:rgb(55.29412%,56.862748%,61.960787%);fill-opacity:1;" d="M 144.765625 72.625 C 145.03125 72.757812 145.03125 72.757812 145.03125 72.757812 Z M 144.765625 72.625 "/>
<path style=" stroke:none;fill-rule:nonzero;fill:rgb(97.647059%,98.039216%,99.215686%);fill-opacity:1;" d="M 82.742188 70.140625 C 83.007812 70.273438 83.007812 70.273438 83.007812 70.273438 Z M 82.742188 70.140625 "/>
<path style=" stroke:none;fill-rule:nonzero;fill:rgb(98.039216%,98.039216%,98.823529%);fill-opacity:1;" d="M 92.703125 69.75 C 92.96875 69.878906 92.96875 69.878906 92.96875 69.878906 Z M 92.703125 69.75 "/>
<path style=" stroke:none;fill-rule:nonzero;fill:rgb(57.254905%,58.823532%,64.313728%);fill-opacity:1;" d="M 144.765625 69.484375 C 145.03125 69.617188 145.03125 69.617188 145.03125 69.617188 Z M 144.765625 69.484375 "/>
<path style=" stroke:none;fill-rule:nonzero;fill:rgb(99.215686%,99.607843%,100%);fill-opacity:1;" d="M 87.390625 66.34375 C 87.65625 66.476562 87.65625 66.476562 87.65625 66.476562 Z M 87.390625 66.34375 "/>
<path style=" stroke:none;fill-rule:nonzero;fill:rgb(94.901961%,95.686275%,96.862745%);fill-opacity:1;" d="M 69.859375 66.34375 C 70.125 66.476562 70.125 66.476562 70.125 66.476562 Z M 69.859375 66.34375 "/>
<path style=" stroke:none;fill-rule:nonzero;fill:rgb(96.078432%,96.862745%,97.647059%);fill-opacity:1;" d="M 70.921875 66.214844 C 71.1875 66.34375 71.1875 66.34375 71.1875 66.34375 Z M 70.921875 66.214844 "/>
<path style=" stroke:none;fill-rule:nonzero;fill:rgb(98.039216%,98.431373%,99.215686%);fill-opacity:1;" d="M 85.53125 65.691406 C 85.796875 65.820312 85.796875 65.820312 85.796875 65.820312 Z M 85.53125 65.691406 "/>
<path style=" stroke:none;fill-rule:nonzero;fill:rgb(98.823529%,98.431373%,99.215686%);fill-opacity:1;" d="M 86.859375 65.5625 C 87.125 65.691406 87.125 65.691406 87.125 65.691406 Z M 86.859375 65.5625 "/>
<path style=" stroke:none;fill-rule:nonzero;fill:rgb(98.823529%,99.215686%,99.607843%);fill-opacity:1;" d="M 105.984375 65.296875 C 106.25 65.429688 106.25 65.429688 106.25 65.429688 Z M 105.984375 65.296875 "/>
<path style=" stroke:none;fill-rule:nonzero;fill:rgb(96.078432%,96.470588%,97.254902%);fill-opacity:1;" d="M 124.976562 63.726562 C 125.242188 63.859375 125.242188 63.859375 125.242188 63.859375 Z M 124.976562 63.726562 "/>
<path style=" stroke:none;fill-rule:nonzero;fill:rgb(94.901961%,96.078432%,96.470588%);fill-opacity:1;" d="M 127.367188 63.597656 C 127.632812 63.726562 127.632812 63.726562 127.632812 63.726562 Z M 127.367188 63.597656 "/>
<path style=" stroke:none;fill-rule:nonzero;fill:rgb(93.333334%,94.509804%,96.078432%);fill-opacity:1;" d="M 67.601562 60.980469 C 67.867188 61.109375 67.867188 61.109375 67.867188 61.109375 Z M 67.601562 60.980469 "/>
<path style=" stroke:none;fill-rule:nonzero;fill:rgb(94.509804%,94.901961%,96.078432%);fill-opacity:1;" d="M 68.664062 60.851562 C 68.929688 60.980469 68.929688 60.980469 68.929688 60.980469 Z M 68.664062 60.851562 "/>
<path style=" stroke:none;fill-rule:nonzero;fill:rgb(89.803922%,90.980393%,92.54902%);fill-opacity:1;" d="M 134.40625 59.148438 C 134.671875 59.28125 134.671875 59.28125 134.671875 59.28125 Z M 134.40625 59.148438 "/>
<path style=" stroke:none;fill-rule:nonzero;fill:rgb(97.254902%,97.647059%,98.431373%);fill-opacity:1;" d="M 117.40625 58.101562 C 117.671875 58.234375 117.671875 58.234375 117.671875 58.234375 Z M 117.40625 58.101562 "/>
<path style=" stroke:none;fill-rule:nonzero;fill:rgb(96.470588%,97.254902%,98.039216%);fill-opacity:1;" d="M 123.648438 57.839844 C 123.914062 57.96875 123.914062 57.96875 123.914062 57.96875 Z M 123.648438 57.839844 "/>
<path style=" stroke:none;fill-rule:nonzero;fill:rgb(95.686275%,96.862745%,97.647059%);fill-opacity:1;" d="M 126.703125 57.710938 C 126.96875 57.839844 126.96875 57.839844 126.96875 57.839844 Z M 126.703125 57.710938 "/>
<path style=" stroke:none;fill-rule:nonzero;fill:rgb(95.294118%,96.078432%,96.862745%);fill-opacity:1;" d="M 126.039062 57.710938 C 126.304688 57.839844 126.304688 57.839844 126.304688 57.839844 Z M 126.039062 57.710938 "/>
<path style=" stroke:none;fill-rule:nonzero;fill:rgb(94.509804%,95.686275%,96.470588%);fill-opacity:1;" d="M 130.289062 57.578125 C 130.554688 57.710938 130.554688 57.710938 130.554688 57.710938 Z M 130.289062 57.578125 "/>
<path style=" stroke:none;fill-rule:nonzero;fill:rgb(95.294118%,96.470588%,96.862745%);fill-opacity:1;" d="M 129.757812 57.578125 C 130.023438 57.710938 130.023438 57.710938 130.023438 57.710938 Z M 129.757812 57.578125 "/>
<path style=" stroke:none;fill-rule:nonzero;fill:rgb(97.647059%,98.431373%,99.215686%);fill-opacity:1;" d="M 96.289062 56.007812 C 96.554688 56.140625 96.554688 56.140625 96.554688 56.140625 Z M 96.289062 56.007812 "/>
<path style=" stroke:none;fill-rule:nonzero;fill:rgb(58.431375%,59.215689%,64.705884%);fill-opacity:1;" d="M 144.765625 50.640625 C 145.03125 50.773438 145.03125 50.773438 145.03125 50.773438 Z M 144.765625 50.640625 "/>
<path style=" stroke:none;fill-rule:nonzero;fill:rgb(98.823529%,98.823529%,99.215686%);fill-opacity:1;" d="M 92.039062 50.382812 C 92.304688 50.511719 92.304688 50.511719 92.304688 50.511719 Z M 92.039062 50.382812 "/>
<path style=" stroke:none;fill-rule:nonzero;fill:rgb(55.29412%,57.254905%,62.352943%);fill-opacity:1;" d="M 144.765625 46.453125 C 145.03125 46.585938 145.03125 46.585938 145.03125 46.585938 Z M 144.765625 46.453125 "/>
<path style=" stroke:none;fill-rule:nonzero;fill:rgb(92.54902%,92.54902%,94.117647%);fill-opacity:1;" d="M 81.148438 40.960938 C 81.414062 41.089844 81.414062 41.089844 81.414062 41.089844 Z M 81.148438 40.960938 "/>
<path style=" stroke:none;fill-rule:nonzero;fill:rgb(91.764706%,91.764706%,93.725491%);fill-opacity:1;" d="M 84.203125 39.914062 C 84.46875 40.042969 84.46875 40.042969 84.46875 40.042969 Z M 84.203125 39.914062 "/>
<path style=" stroke:none;fill-rule:nonzero;fill:rgb(95.294118%,95.294118%,96.470588%);fill-opacity:1;" d="M 113.289062 36.378906 C 113.554688 36.507812 113.554688 36.507812 113.554688 36.507812 Z M 113.289062 36.378906 "/>
<path style=" stroke:none;fill-rule:nonzero;fill:rgb(52.156866%,52.941179%,58.823532%);fill-opacity:1;" d="M 144.765625 35.984375 C 145.03125 36.117188 145.03125 36.117188 145.03125 36.117188 Z M 144.765625 35.984375 "/>
<path style=" stroke:none;fill-rule:nonzero;fill:rgb(95.686275%,95.294118%,96.078432%);fill-opacity:1;" d="M 113.554688 35.460938 C 113.820312 35.59375 113.820312 35.59375 113.820312 35.59375 Z M 113.554688 35.460938 "/>
<path style=" stroke:none;fill-rule:nonzero;fill:rgb(50.588238%,52.156866%,57.647061%);fill-opacity:1;" d="M 144.765625 30.75 C 145.03125 30.882812 145.03125 30.882812 145.03125 30.882812 Z M 144.765625 30.75 "/>
<path style=" stroke:none;fill-rule:nonzero;fill:rgb(49.411765%,51.764709%,57.254905%);fill-opacity:1;" d="M 144.765625 27.609375 C 145.03125 27.742188 145.03125 27.742188 145.03125 27.742188 Z M 144.765625 27.609375 "/>
<path style=" stroke:none;fill-rule:nonzero;fill:rgb(92.156863%,92.54902%,94.117647%);fill-opacity:1;" d="M 111.960938 27.351562 C 112.226562 27.480469 112.226562 27.480469 112.226562 27.480469 Z M 111.960938 27.351562 "/>
<path style=" stroke:none;fill-rule:nonzero;fill:rgb(48.627451%,50.196081%,56.078434%);fill-opacity:1;" d="M 144.765625 23.421875 C 145.03125 23.554688 145.03125 23.554688 145.03125 23.554688 Z M 144.765625 23.421875 "/>
<path style=" stroke:none;fill-rule:nonzero;fill:rgb(47.843137%,49.803922%,55.29412%);fill-opacity:1;" d="M 132.28125 13.21875 C 132.546875 13.347656 132.546875 13.347656 132.546875 13.347656 Z M 132.28125 13.21875 "/>
<path style=" stroke:none;fill-rule:nonzero;fill:rgb(46.666667%,48.627451%,54.11765%);fill-opacity:1;" d="M 144.765625 7.71875 C 145.03125 7.851562 145.03125 7.851562 145.03125 7.851562 Z M 144.765625 7.71875 "/>
<path style=" stroke:none;fill-rule:nonzero;fill:rgb(46.27451%,49.019608%,54.509807%);fill-opacity:1;" d="M 138.390625 5.890625 C 138.65625 6.019531 138.65625 6.019531 138.65625 6.019531 Z M 138.390625 5.890625 "/>
<path style=" stroke:none;fill-rule:nonzero;fill:rgb(46.666667%,48.235294%,54.509807%);fill-opacity:1;" d="M 144.765625 5.625 C 145.03125 5.757812 145.03125 5.757812 145.03125 5.757812 Z M 144.765625 5.625 "/>
<path style=" stroke:none;fill-rule:nonzero;fill:rgb(46.666667%,48.235294%,54.11765%);fill-opacity:1;" d="M 144.765625 4.578125 C 145.03125 4.710938 145.03125 4.710938 145.03125 4.710938 Z M 144.765625 4.578125 "/>
<path style=" stroke:none;fill-rule:nonzero;fill:rgb(46.666667%,48.235294%,54.509807%);fill-opacity:1;" d="M 144.765625 3.53125 C 145.03125 3.664062 145.03125 3.664062 145.03125 3.664062 Z M 144.765625 3.53125 "/>
<path style=" stroke:none;fill-rule:nonzero;fill:rgb(46.666667%,48.627451%,54.11765%);fill-opacity:1;" d="M 125.90625 2.75 C 126.171875 2.878906 126.171875 2.878906 126.171875 2.878906 Z M 125.90625 2.75 "/>
</g>
</svg>
