<?xml version="1.0" encoding="UTF-8"?>
<svg xmlns="http://www.w3.org/2000/svg" xmlns:xlink="http://www.w3.org/1999/xlink" width="100%" height="100%" viewBox="0 0 403 241" version="1.1">
<g id="surface1">
<path style=" stroke:none;fill-rule:nonzero;fill:rgb(7.450981%,18.039216%,99.607843%);fill-opacity:1;" d="M 273.914062 48.71875 C 274.324219 48.773438 274.734375 48.832031 275.140625 48.890625 C 276.386719 49.015625 277.648438 48.96875 278.898438 48.953125 C 278.898438 49.109375 278.898438 49.265625 278.898438 49.421875 C 279.238281 49.410156 279.238281 49.410156 279.585938 49.398438 C 286.53125 49.265625 293.445312 50.507812 299.976562 52.566406 C 300.183594 52.628906 300.386719 52.691406 300.597656 52.757812 C 300.992188 52.886719 301.382812 53.027344 301.769531 53.179688 C 303.558594 53.84375 304.984375 53.53125 306.824219 53.128906 C 316.519531 51.148438 325.925781 52.714844 334.34375 57.453125 C 334.492188 57.539062 334.644531 57.625 334.800781 57.710938 C 335.546875 58.152344 335.546875 58.152344 336.359375 58.367188 C 336.660156 58.699219 336.957031 59.03125 337.253906 59.371094 C 337.746094 59.851562 338.28125 60.214844 338.867188 60.601562 C 339.847656 61.265625 340.449219 61.882812 341.082031 62.839844 C 341.320312 63.121094 341.558594 63.398438 341.800781 63.675781 C 345.984375 68.636719 347.988281 74.054688 347.902344 80.238281 C 347.894531 80.722656 347.890625 81.207031 347.886719 81.6875 C 347.882812 81.898438 347.878906 82.109375 347.875 82.328125 C 347.863281 82.855469 347.863281 82.855469 348.164062 83.3125 C 348.433594 83.347656 348.699219 83.382812 348.972656 83.417969 C 350.078125 83.558594 350.996094 83.863281 352 84.269531 C 352.183594 84.34375 352.367188 84.417969 352.554688 84.492188 C 355.882812 85.863281 358.59375 87.714844 361.28125 89.90625 C 361.460938 90.042969 361.636719 90.183594 361.820312 90.328125 C 367.515625 95.058594 370.328125 102.199219 370.710938 109.003906 C 370.789062 113.328125 370.078125 117.257812 368.105469 121.207031 C 368.023438 121.382812 367.9375 121.558594 367.851562 121.738281 C 366.171875 125.042969 363.40625 127.730469 360.234375 129.914062 C 360.039062 130.046875 359.84375 130.183594 359.640625 130.320312 C 358.097656 131.3125 355.878906 132.503906 353.9375 132.503906 C 353.992188 132.699219 354.042969 132.894531 354.101562 133.097656 C 354.507812 134.625 354.890625 136.113281 354.984375 137.679688 C 355 137.898438 355.015625 138.117188 355.027344 138.339844 C 355.238281 144.953125 352.347656 151.015625 347.378906 155.804688 C 346.941406 156.195312 346.503906 156.589844 346.066406 156.980469 C 345.921875 157.121094 345.78125 157.261719 345.636719 157.40625 C 341.785156 161.15625 336.085938 163.839844 330.847656 165.6875 C 330.59375 165.777344 330.339844 165.867188 330.078125 165.960938 C 325.855469 167.441406 321.605469 168.699219 317.203125 169.6875 C 316.902344 169.757812 316.601562 169.824219 316.289062 169.894531 C 302.84375 172.875 288.296875 174.699219 274.4375 174.394531 C 274.4375 174.628906 274.4375 174.863281 274.4375 175.101562 C 274.179688 175.023438 273.917969 174.945312 273.652344 174.867188 C 272.867188 174.835938 272.085938 174.824219 271.296875 174.816406 C 270.9375 174.8125 270.9375 174.8125 270.570312 174.8125 C 269.773438 174.804688 268.976562 174.796875 268.179688 174.792969 C 267.628906 174.785156 267.078125 174.78125 266.523438 174.777344 C 265.070312 174.765625 263.617188 174.753906 262.164062 174.742188 C 260.683594 174.730469 259.199219 174.714844 257.71875 174.703125 C 254.808594 174.675781 251.898438 174.652344 248.988281 174.632812 C 248.988281 174.476562 248.988281 174.320312 248.988281 174.160156 C 248.792969 174.167969 248.59375 174.171875 248.390625 174.179688 C 245.382812 174.234375 242.445312 173.910156 239.460938 173.585938 C 238.941406 173.53125 238.421875 173.476562 237.902344 173.421875 C 236.949219 173.320312 235.996094 173.21875 235.039062 173.117188 C 234.828125 173.097656 234.617188 173.074219 234.398438 173.050781 C 233.976562 173.007812 233.554688 172.953125 233.136719 172.898438 C 231.90625 172.742188 231.070312 172.734375 229.902344 173.191406 C 229.636719 173.289062 229.371094 173.390625 229.097656 173.492188 C 228.820312 173.601562 228.546875 173.710938 228.261719 173.820312 C 227.679688 174.039062 227.101562 174.257812 226.519531 174.476562 C 226.097656 174.636719 226.097656 174.636719 225.664062 174.800781 C 224.371094 175.277344 223.058594 175.6875 221.734375 176.089844 C 220.792969 176.378906 220.792969 176.378906 219.886719 176.753906 C 219.300781 177 218.789062 177.105469 218.148438 177.203125 C 216.652344 177.457031 215.199219 177.820312 213.734375 178.191406 C 192.273438 183.457031 169.746094 185.59375 135.25 180.542969 C 135.082031 180.503906 134.914062 180.464844 134.742188 180.425781 C 132.726562 179.945312 130.847656 179.375 128.953125 178.601562 C 126.496094 177.625 124.207031 177.992188 121.609375 178.320312 C 117.261719 178.816406 112.8125 178.074219 108.613281 177.101562 C 108.253906 177.019531 107.894531 176.941406 107.535156 176.867188 C 106.605469 176.667969 105.78125 176.460938 104.949219 176.042969 C 104.644531 175.910156 104.339844 175.777344 104.027344 175.644531 C 97.730469 172.886719 92.261719 169.140625 89.207031 163.335938 C 89.019531 162.648438 89.019531 162.648438 88.945312 162.15625 C 88.753906 162.132812 88.5625 162.109375 88.367188 162.085938 C 85.28125 161.675781 82.679688 160.777344 79.941406 159.496094 C 79.742188 159.402344 79.542969 159.3125 79.335938 159.214844 C 78.242188 158.703125 77.304688 158.15625 76.351562 157.449219 C 76.089844 157.371094 75.832031 157.292969 75.5625 157.214844 C 75.113281 156.832031 74.679688 156.4375 74.25 156.039062 C 73.976562 155.800781 73.699219 155.5625 73.421875 155.328125 C 70.546875 152.847656 67.957031 150.183594 66.378906 146.859375 C 66.207031 146.859375 66.035156 146.859375 65.855469 146.859375 C 65.832031 146.652344 65.8125 146.441406 65.789062 146.226562 C 65.609375 145.082031 65.1875 144.007812 64.800781 142.90625 C 62.570312 136.382812 63.6875 129.324219 67.160156 123.324219 C 69.605469 119.289062 73.300781 115.398438 77.660156 112.96875 C 77.835938 112.96875 78.007812 112.96875 78.1875 112.96875 C 78.035156 112.753906 77.882812 112.539062 77.726562 112.320312 C 73.304688 105.996094 72.019531 99.054688 73.78125 91.753906 C 74.648438 88.46875 76.230469 85.570312 78.449219 82.84375 C 78.601562 82.648438 78.753906 82.453125 78.914062 82.25 C 79.679688 81.292969 79.679688 81.292969 80.023438 80.960938 C 80.195312 80.960938 80.367188 80.960938 80.546875 80.960938 C 80.617188 80.824219 80.683594 80.683594 80.757812 80.542969 C 85.507812 72.667969 100.863281 68.90625 109.628906 66.558594 C 115.734375 64.941406 121.96875 63.757812 128.214844 62.675781 C 129.335938 62.492188 129.335938 62.492188 130.398438 62.132812 C 130.808594 62.097656 131.21875 62.070312 131.628906 62.050781 C 133.207031 61.941406 134.761719 61.753906 136.324219 61.546875 C 136.582031 61.511719 136.835938 61.480469 137.101562 61.445312 C 137.640625 61.371094 138.183594 61.300781 138.722656 61.230469 C 149.09375 59.855469 159.515625 58.671875 170.015625 58.835938 C 170.101562 58.683594 170.1875 58.527344 170.277344 58.367188 C 173.214844 58.363281 176.152344 58.359375 179.089844 58.355469 C 180.453125 58.355469 181.816406 58.351562 183.183594 58.347656 C 184.496094 58.347656 185.8125 58.34375 187.125 58.34375 C 187.628906 58.34375 188.132812 58.34375 188.636719 58.34375 C 189.335938 58.339844 190.039062 58.339844 190.742188 58.339844 C 190.949219 58.339844 191.160156 58.339844 191.378906 58.339844 C 192.8125 58.339844 192.8125 58.339844 193.105469 58.601562 C 193.785156 58.648438 194.460938 58.679688 195.140625 58.703125 C 195.582031 58.71875 196.019531 58.738281 196.460938 58.753906 C 196.691406 58.761719 196.925781 58.773438 197.167969 58.78125 C 200.898438 58.921875 204.628906 59.097656 208.355469 59.367188 C 208.761719 59.398438 209.164062 59.425781 209.570312 59.453125 C 211.550781 59.589844 213.496094 59.746094 215.449219 60.082031 C 219.882812 60.8125 222.464844 59.933594 226.390625 58.039062 C 238.324219 52.53125 255.222656 49.1875 268.667969 49.1875 C 269.507812 49.160156 270.351562 49.121094 271.191406 49.085938 C 271.539062 49.070312 271.539062 49.070312 271.894531 49.058594 C 272.117188 49.046875 272.335938 49.039062 272.5625 49.027344 C 272.765625 49.019531 272.96875 49.011719 273.175781 49 C 273.65625 48.996094 273.65625 48.996094 273.914062 48.71875 Z M 273.914062 48.71875 "/>
<path style=" stroke:none;fill-rule:nonzero;fill:rgb(13.333334%,20%,99.215686%);fill-opacity:1;" d="M 170.015625 58.367188 C 172.988281 58.363281 175.957031 58.359375 178.929688 58.355469 C 180.308594 58.355469 181.691406 58.351562 183.070312 58.347656 C 184.398438 58.347656 185.730469 58.34375 187.0625 58.34375 C 187.570312 58.34375 188.078125 58.34375 188.585938 58.34375 C 189.296875 58.339844 190.007812 58.339844 190.714844 58.339844 C 191.035156 58.339844 191.035156 58.339844 191.359375 58.339844 C 192.8125 58.339844 192.8125 58.339844 193.105469 58.601562 C 193.554688 58.632812 194.011719 58.652344 194.464844 58.660156 C 194.886719 58.671875 194.886719 58.671875 195.316406 58.683594 C 195.910156 58.699219 196.5 58.710938 197.089844 58.722656 C 198.957031 58.777344 200.726562 58.957031 202.550781 59.308594 C 202.550781 59.386719 202.550781 59.464844 202.550781 59.542969 C 199.308594 59.570312 196.078125 59.539062 192.839844 59.441406 C 187.457031 59.289062 182.078125 59.28125 176.691406 59.292969 C 175.488281 59.292969 174.285156 59.296875 173.078125 59.296875 C 170.746094 59.300781 168.414062 59.304688 166.078125 59.308594 C 166.078125 59.230469 166.078125 59.152344 166.078125 59.074219 C 167.378906 59.074219 168.675781 59.074219 170.015625 59.074219 C 170.015625 58.839844 170.015625 58.605469 170.015625 58.367188 Z M 170.015625 58.367188 "/>
<path style=" stroke:none;fill-rule:nonzero;fill:rgb(12.156863%,17.647059%,99.215686%);fill-opacity:1;" d="M 347.117188 76.019531 C 347.8125 76.957031 347.933594 77.566406 347.917969 78.667969 C 347.917969 78.90625 347.914062 79.148438 347.914062 79.394531 C 347.910156 79.644531 347.90625 79.894531 347.902344 80.152344 C 347.894531 80.648438 347.890625 81.144531 347.886719 81.636719 C 347.882812 81.859375 347.878906 82.078125 347.875 82.304688 C 347.863281 82.851562 347.863281 82.851562 348.164062 83.3125 C 348.773438 83.410156 349.386719 83.488281 350 83.550781 C 349.296875 83.960938 348.984375 84.023438 348.132812 83.945312 C 347.378906 83.785156 347.378906 83.785156 346.851562 83.550781 C 346.871094 83.242188 346.890625 82.9375 346.910156 82.621094 C 347.042969 80.417969 347.160156 78.226562 347.117188 76.019531 Z M 347.117188 76.019531 "/>
<path style=" stroke:none;fill-rule:nonzero;fill:rgb(15.294118%,23.529412%,99.215686%);fill-opacity:1;" d="M 153.222656 59.78125 C 153.222656 59.855469 153.222656 59.933594 153.222656 60.015625 C 152.792969 60.09375 152.359375 60.171875 151.914062 60.25 C 151.914062 60.328125 151.914062 60.40625 151.914062 60.484375 C 148.035156 61.023438 144.289062 61.289062 140.367188 61.191406 C 140.367188 61.113281 140.367188 61.035156 140.367188 60.957031 C 141.820312 60.785156 143.269531 60.621094 144.722656 60.453125 C 145.214844 60.398438 145.707031 60.339844 146.199219 60.28125 C 146.914062 60.199219 147.625 60.117188 148.335938 60.035156 C 148.664062 60 148.664062 60 148.996094 59.957031 C 150.414062 59.800781 151.792969 59.757812 153.222656 59.78125 Z M 153.222656 59.78125 "/>
<path style=" stroke:none;fill-rule:nonzero;fill:rgb(23.529412%,30.588236%,97.647059%);fill-opacity:1;" d="M 64.542969 129.445312 C 64.628906 129.445312 64.714844 129.445312 64.804688 129.445312 C 65.136719 131.222656 65.136719 131.222656 64.808594 131.714844 C 64.429688 132.503906 64.476562 133.265625 64.492188 134.109375 C 64.492188 134.375 64.492188 134.375 64.492188 134.644531 C 64.496094 135.207031 64.503906 135.765625 64.511719 136.328125 C 64.511719 136.707031 64.515625 137.089844 64.515625 137.472656 C 64.523438 138.402344 64.53125 139.335938 64.542969 140.269531 C 64.714844 140.269531 64.890625 140.269531 65.066406 140.269531 C 65.0625 140.492188 65.058594 140.714844 65.050781 140.945312 C 65.007812 141.660156 65.007812 141.660156 65.328125 142.152344 C 65.085938 142.652344 65.085938 142.652344 64.804688 143.09375 C 64.679688 142.628906 64.550781 142.164062 64.429688 141.695312 C 64.359375 141.4375 64.289062 141.175781 64.214844 140.910156 C 63.355469 137.09375 63.554688 133.214844 64.542969 129.445312 Z M 64.542969 129.445312 "/>
<path style=" stroke:none;fill-rule:nonzero;fill:rgb(29.803923%,38.82353%,98.431373%);fill-opacity:1;" d="M 273.914062 48.71875 C 274.324219 48.773438 274.734375 48.832031 275.140625 48.890625 C 276.386719 49.015625 277.648438 48.96875 278.898438 48.953125 C 278.898438 49.109375 278.898438 49.265625 278.898438 49.421875 C 280.285156 49.421875 281.667969 49.421875 283.097656 49.421875 C 283.097656 49.5 283.097656 49.578125 283.097656 49.660156 C 277.210938 49.660156 271.320312 49.660156 265.257812 49.660156 C 265.257812 49.582031 265.257812 49.503906 265.257812 49.421875 C 265.675781 49.382812 266.097656 49.34375 266.519531 49.304688 C 266.753906 49.285156 266.988281 49.261719 267.230469 49.238281 C 267.878906 49.1875 267.878906 49.1875 268.667969 49.1875 C 269.507812 49.160156 270.351562 49.121094 271.191406 49.085938 C 271.539062 49.070312 271.539062 49.070312 271.894531 49.058594 C 272.117188 49.046875 272.335938 49.039062 272.5625 49.027344 C 272.867188 49.015625 272.867188 49.015625 273.175781 49 C 273.65625 48.996094 273.65625 48.996094 273.914062 48.71875 Z M 273.914062 48.71875 "/>
<path style=" stroke:none;fill-rule:nonzero;fill:rgb(14.901961%,20%,98.431373%);fill-opacity:1;" d="M 66.378906 145.683594 C 67.140625 146.46875 67.53125 147.335938 67.964844 148.289062 C 68.175781 148.78125 68.175781 148.78125 68.742188 148.976562 C 69.007812 149.390625 69.277344 149.804688 69.527344 150.226562 C 69.792969 150.664062 69.792969 150.664062 70.316406 151.09375 C 70.214844 151.597656 70.214844 151.597656 70.054688 152.039062 C 68.597656 150.378906 67.332031 148.800781 66.378906 146.859375 C 66.207031 146.859375 66.035156 146.859375 65.855469 146.859375 C 66.085938 145.949219 66.085938 145.949219 66.378906 145.683594 Z M 66.378906 145.683594 "/>
<path style=" stroke:none;fill-rule:nonzero;fill:rgb(21.176471%,28.235295%,99.215686%);fill-opacity:1;" d="M 124.101562 177.925781 C 124.101562 178.003906 124.101562 178.082031 124.101562 178.160156 C 120.769531 178.472656 117.460938 178.507812 114.132812 178.160156 C 114.132812 178.082031 114.132812 178.003906 114.132812 177.925781 C 117.449219 177.542969 120.773438 177.773438 124.101562 177.925781 Z M 124.101562 177.925781 "/>
<path style=" stroke:none;fill-rule:nonzero;fill:rgb(8.627451%,12.54902%,98.431373%);fill-opacity:1;" d="M 128.296875 177.691406 C 128.296875 177.769531 128.296875 177.847656 128.296875 177.925781 C 125.441406 177.925781 122.585938 177.925781 119.640625 177.925781 C 119.640625 177.847656 119.640625 177.769531 119.640625 177.691406 C 119.871094 177.671875 119.871094 177.671875 120.105469 177.652344 C 120.804688 177.589844 121.5 177.53125 122.199219 177.46875 C 122.441406 177.449219 122.683594 177.429688 122.929688 177.40625 C 123.164062 177.386719 123.398438 177.367188 123.636719 177.34375 C 123.851562 177.328125 124.066406 177.308594 124.289062 177.289062 C 124.886719 177.230469 124.886719 177.230469 125.449219 177.089844 C 126.492188 176.863281 127.398438 177.242188 128.296875 177.691406 Z M 128.296875 177.691406 "/>
<path style=" stroke:none;fill-rule:nonzero;fill:rgb(14.117648%,19.607843%,98.431373%);fill-opacity:1;" d="M 97.601562 172.042969 C 98.898438 172.171875 99.828125 172.707031 100.914062 173.308594 C 101.089844 173.402344 101.265625 173.496094 101.445312 173.59375 C 102.269531 174.042969 102.96875 174.46875 103.636719 175.101562 C 103.375 175.21875 103.375 175.21875 103.109375 175.335938 C 102.40625 175.03125 101.738281 174.714844 101.0625 174.367188 C 100.875 174.273438 100.6875 174.179688 100.496094 174.085938 C 99.355469 173.507812 98.480469 172.910156 97.601562 172.042969 Z M 97.601562 172.042969 "/>
<path style=" stroke:none;fill-rule:nonzero;fill:rgb(11.764706%,17.254902%,98.823529%);fill-opacity:1;" d="M 204.125 180.042969 C 201.917969 181.113281 199.484375 181.046875 197.039062 180.984375 C 197.039062 180.90625 197.039062 180.828125 197.039062 180.75 C 197.875 180.582031 198.710938 180.421875 199.546875 180.265625 C 199.785156 180.21875 200.019531 180.171875 200.261719 180.121094 C 201.648438 179.863281 202.734375 179.773438 204.125 180.042969 Z M 204.125 180.042969 "/>
<path style=" stroke:none;fill-rule:nonzero;fill:rgb(14.117648%,19.607843%,99.215686%);fill-opacity:1;" d="M 368.105469 119.792969 C 368.277344 119.792969 368.449219 119.792969 368.628906 119.792969 C 367.996094 121.6875 366.9375 123.320312 365.742188 124.972656 C 365.65625 124.660156 365.570312 124.351562 365.480469 124.03125 C 365.652344 124.03125 365.828125 124.03125 366.007812 124.03125 C 366.03125 123.867188 366.058594 123.703125 366.085938 123.535156 C 366.296875 122.742188 366.644531 122.105469 367.054688 121.382812 C 367.265625 121.007812 367.265625 121.007812 367.480469 120.628906 C 367.84375 120.03125 367.84375 120.03125 368.105469 119.792969 Z M 368.105469 119.792969 "/>
<path style=" stroke:none;fill-rule:nonzero;fill:rgb(12.156863%,17.254902%,98.039216%);fill-opacity:1;" d="M 92.878906 167.570312 C 94.167969 168.539062 95.378906 169.546875 96.550781 170.628906 C 96.464844 170.863281 96.378906 171.097656 96.289062 171.335938 C 95.820312 170.960938 95.347656 170.582031 94.878906 170.203125 C 94.746094 170.097656 94.613281 169.992188 94.476562 169.882812 C 93.84375 169.371094 93.355469 168.914062 92.878906 168.277344 C 92.878906 168.042969 92.878906 167.808594 92.878906 167.570312 Z M 92.878906 167.570312 "/>
<path style=" stroke:none;fill-rule:nonzero;fill:rgb(13.725491%,20.392157%,99.215686%);fill-opacity:1;" d="M 213.570312 177.691406 C 213.308594 177.808594 213.308594 177.808594 213.042969 177.925781 C 213.042969 178.082031 213.042969 178.238281 213.042969 178.398438 C 212.546875 178.515625 212.050781 178.632812 211.550781 178.75 C 211.273438 178.816406 211 178.878906 210.710938 178.949219 C 209.972656 179.089844 209.335938 179.132812 208.585938 179.101562 C 209.230469 178.234375 209.527344 178.230469 210.632812 178 C 210.90625 177.941406 211.179688 177.882812 211.457031 177.820312 C 212.183594 177.703125 212.832031 177.664062 213.570312 177.691406 Z M 213.570312 177.691406 "/>
<path style=" stroke:none;fill-rule:nonzero;fill:rgb(16.078432%,21.960784%,98.823529%);fill-opacity:1;" d="M 66.378906 124.734375 C 66.679688 125.101562 66.679688 125.101562 66.90625 125.679688 C 66.75 126.28125 66.574219 126.796875 66.332031 127.371094 C 66.273438 127.519531 66.214844 127.671875 66.152344 127.828125 C 65.976562 128.261719 65.976562 128.261719 65.59375 128.972656 C 65.332031 129.050781 65.074219 129.128906 64.804688 129.207031 C 65.144531 127.628906 65.671875 126.214844 66.378906 124.734375 Z M 66.378906 124.734375 "/>
<path style=" stroke:none;fill-rule:nonzero;fill:rgb(13.725491%,19.215687%,98.431373%);fill-opacity:1;" d="M 74.511719 105.90625 C 74.6875 105.90625 74.859375 105.90625 75.039062 105.90625 C 75.039062 106.21875 75.039062 106.53125 75.039062 106.851562 C 75.210938 106.851562 75.382812 106.851562 75.5625 106.851562 C 75.789062 107.265625 76.011719 107.683594 76.234375 108.101562 C 76.359375 108.332031 76.484375 108.5625 76.613281 108.804688 C 76.875 109.4375 76.875 109.4375 76.613281 110.144531 C 75.820312 109.542969 75.507812 108.878906 75.121094 108.027344 C 75.003906 107.777344 74.890625 107.53125 74.773438 107.277344 C 74.511719 106.613281 74.511719 106.613281 74.511719 105.90625 Z M 74.511719 105.90625 "/>
<path style=" stroke:none;fill-rule:nonzero;fill:rgb(15.294118%,20.392157%,98.823529%);fill-opacity:1;" d="M 343.703125 66.605469 C 344.390625 67.15625 344.773438 67.71875 345.179688 68.457031 C 345.292969 68.65625 345.402344 68.855469 345.519531 69.058594 C 345.800781 69.65625 345.949219 70.203125 346.066406 70.839844 C 344.859375 69.910156 344.191406 68.910156 343.703125 67.546875 C 343.703125 67.234375 343.703125 66.925781 343.703125 66.605469 Z M 343.703125 66.605469 "/>
<path style=" stroke:none;fill-rule:nonzero;fill:rgb(21.176471%,29.803923%,99.607843%);fill-opacity:1;" d="M 138.53125 61.425781 C 138.273438 61.777344 138.273438 61.777344 138.007812 62.132812 C 136.011719 62.460938 133.992188 62.390625 131.972656 62.367188 C 131.972656 62.289062 131.972656 62.210938 131.972656 62.132812 C 132.769531 62.015625 133.566406 61.894531 134.367188 61.78125 C 134.703125 61.730469 134.703125 61.730469 135.046875 61.679688 C 136.222656 61.507812 137.335938 61.382812 138.53125 61.425781 Z M 138.53125 61.425781 "/>
<path style=" stroke:none;fill-rule:nonzero;fill:rgb(14.901961%,20.784314%,99.607843%);fill-opacity:1;" d="M 327.023438 166.601562 C 327.160156 166.6875 327.296875 166.773438 327.4375 166.863281 C 326.84375 167.066406 326.246094 167.269531 325.648438 167.46875 C 325.480469 167.527344 325.3125 167.582031 325.140625 167.644531 C 323.851562 168.066406 323.851562 168.066406 322.976562 167.804688 C 322.976562 167.648438 322.976562 167.496094 322.976562 167.335938 C 323.523438 167.164062 324.070312 167 324.617188 166.835938 C 324.921875 166.742188 325.226562 166.648438 325.539062 166.554688 C 326.386719 166.394531 326.386719 166.394531 327.023438 166.601562 Z M 327.023438 166.601562 "/>
<path style=" stroke:none;fill-rule:nonzero;fill:rgb(13.333334%,18.431373%,98.823529%);fill-opacity:1;" d="M 366.792969 97.199219 C 366.964844 97.199219 367.140625 97.199219 367.316406 97.199219 C 367.589844 97.695312 367.855469 98.191406 368.121094 98.6875 C 368.34375 99.097656 368.34375 99.097656 368.574219 99.523438 C 368.890625 100.257812 368.890625 100.257812 368.628906 100.964844 C 367.914062 100.40625 367.609375 99.871094 367.269531 99.082031 C 367.179688 98.878906 367.089844 98.675781 366.996094 98.464844 C 366.792969 97.90625 366.792969 97.90625 366.792969 97.199219 Z M 366.792969 97.199219 "/>
<path style=" stroke:none;fill-rule:nonzero;fill:rgb(19.607843%,28.627452%,99.215686%);fill-opacity:1;" d="M 146.402344 60.484375 C 146.144531 60.835938 146.144531 60.835938 145.878906 61.191406 C 145.3125 61.273438 145.3125 61.273438 144.621094 61.261719 C 144.375 61.257812 144.128906 61.253906 143.871094 61.253906 C 143.613281 61.246094 143.355469 61.242188 143.089844 61.234375 C 142.699219 61.230469 142.699219 61.230469 142.300781 61.226562 C 141.65625 61.21875 141.011719 61.207031 140.367188 61.191406 C 140.367188 61.113281 140.367188 61.035156 140.367188 60.957031 C 144.5 60.414062 144.5 60.414062 146.402344 60.484375 Z M 146.402344 60.484375 "/>
<path style=" stroke:none;fill-rule:nonzero;fill:rgb(19.607843%,26.666668%,98.823529%);fill-opacity:1;" d="M 262.371094 49.894531 C 262.109375 49.972656 261.851562 50.050781 261.582031 50.128906 C 261.582031 50.285156 261.582031 50.441406 261.582031 50.601562 C 259.921875 50.8125 258.519531 50.8125 256.859375 50.601562 C 256.859375 50.523438 256.859375 50.445312 256.859375 50.367188 C 257.433594 50.285156 258.007812 50.207031 258.582031 50.128906 C 258.902344 50.085938 259.222656 50.042969 259.550781 49.996094 C 260.5 49.898438 261.414062 49.875 262.371094 49.894531 Z M 262.371094 49.894531 "/>
<path style=" stroke:none;fill-rule:nonzero;fill:rgb(19.607843%,26.666668%,99.215686%);fill-opacity:1;" d="M 256.597656 50.601562 C 256.597656 50.832031 256.597656 51.066406 256.597656 51.304688 C 256.347656 51.300781 256.101562 51.296875 255.84375 51.292969 C 255.046875 51.253906 255.046875 51.253906 254.5 51.542969 C 254.058594 51.476562 253.621094 51.398438 253.1875 51.304688 C 253.1875 51.460938 253.1875 51.617188 253.1875 51.777344 C 252.582031 51.699219 251.976562 51.621094 251.351562 51.542969 C 252.164062 51.132812 252.90625 50.949219 253.828125 50.804688 C 254.191406 50.746094 254.191406 50.746094 254.5625 50.6875 C 255.25 50.605469 255.902344 50.585938 256.597656 50.601562 Z M 256.597656 50.601562 "/>
<path style=" stroke:none;fill-rule:nonzero;fill:rgb(18.039216%,22.745098%,98.431373%);fill-opacity:1;" d="M 109.144531 176.984375 C 109.742188 176.972656 110.335938 176.960938 110.933594 176.953125 C 111.265625 176.949219 111.597656 176.945312 111.9375 176.9375 C 112.820312 176.984375 112.820312 176.984375 113.605469 177.453125 C 113.691406 177.609375 113.777344 177.765625 113.867188 177.925781 C 112.226562 177.824219 110.710938 177.6875 109.144531 177.21875 C 109.144531 177.140625 109.144531 177.0625 109.144531 176.984375 Z M 109.144531 176.984375 "/>
<path style=" stroke:none;fill-rule:nonzero;fill:rgb(7.843138%,12.156863%,98.823529%);fill-opacity:1;" d="M 305.398438 171.335938 C 305.050781 171.414062 304.707031 171.492188 304.347656 171.570312 C 304.347656 171.726562 304.347656 171.882812 304.347656 172.042969 C 303.050781 172.042969 301.75 172.042969 300.414062 172.042969 C 302.046875 171.308594 303.609375 171.308594 305.398438 171.335938 Z M 305.398438 171.335938 "/>
<path style=" stroke:none;fill-rule:nonzero;fill:rgb(23.137255%,30.980393%,99.215686%);fill-opacity:1;" d="M 213.570312 60.015625 C 215.703125 59.949219 217.761719 60.207031 219.867188 60.484375 C 219.867188 60.5625 219.867188 60.640625 219.867188 60.71875 C 218.222656 60.71875 216.574219 60.71875 214.882812 60.71875 C 214.882812 60.644531 214.882812 60.566406 214.882812 60.484375 C 214.449219 60.40625 214.015625 60.328125 213.570312 60.25 C 213.570312 60.171875 213.570312 60.09375 213.570312 60.015625 Z M 213.570312 60.015625 "/>
<path style=" stroke:none;fill-rule:nonzero;fill:rgb(18.039216%,25.098041%,99.215686%);fill-opacity:1;" d="M 135.53125 179.898438 C 136.261719 180.152344 136.683594 180.28125 137.480469 180.28125 C 137.480469 180.433594 137.480469 180.589844 137.480469 180.75 C 137.65625 180.828125 137.828125 180.90625 138.007812 180.984375 C 136.402344 180.742188 134.835938 180.476562 133.285156 180.042969 C 134.167969 179.542969 134.566406 179.554688 135.53125 179.898438 Z M 135.53125 179.898438 "/>
<path style=" stroke:none;fill-rule:nonzero;fill:rgb(18.039216%,22.745098%,99.215686%);fill-opacity:1;" d="M 129.347656 178.632812 C 130.710938 178.582031 131.742188 178.726562 133.023438 179.101562 C 133.023438 179.335938 133.023438 179.570312 133.023438 179.808594 C 131.753906 179.574219 130.535156 179.347656 129.347656 178.867188 C 129.347656 178.789062 129.347656 178.710938 129.347656 178.632812 Z M 129.347656 178.632812 "/>
<path style=" stroke:none;fill-rule:nonzero;fill:rgb(9.803922%,14.509805%,98.823529%);fill-opacity:1;" d="M 363.90625 125.914062 C 363.992188 126.144531 364.078125 126.378906 364.167969 126.617188 C 363.53125 127.5 362.859375 128.042969 361.808594 128.5 C 361.546875 128.5 361.289062 128.5 361.019531 128.5 C 361.019531 128.347656 361.019531 128.191406 361.019531 128.03125 C 361.296875 127.886719 361.296875 127.886719 361.578125 127.738281 C 362.515625 127.226562 363.152344 126.621094 363.90625 125.914062 Z M 363.90625 125.914062 "/>
<path style=" stroke:none;fill-rule:nonzero;fill:rgb(6.666667%,9.803922%,98.823529%);fill-opacity:1;" d="M 368.890625 102.140625 C 369.679688 102.613281 369.679688 102.613281 369.792969 103.054688 C 369.800781 103.230469 369.804688 103.40625 369.8125 103.585938 C 369.824219 103.777344 369.832031 103.964844 369.839844 104.160156 C 369.847656 104.359375 369.851562 104.558594 369.859375 104.761719 C 369.867188 104.960938 369.878906 105.160156 369.886719 105.367188 C 369.910156 105.859375 369.925781 106.355469 369.941406 106.851562 C 369.855469 106.851562 369.769531 106.851562 369.679688 106.851562 C 369.546875 106.285156 369.414062 105.722656 369.285156 105.15625 C 369.230469 104.921875 369.230469 104.921875 369.171875 104.675781 C 368.976562 103.820312 368.847656 103.019531 368.890625 102.140625 Z M 368.890625 102.140625 "/>
<path style=" stroke:none;fill-rule:nonzero;fill:rgb(7.843138%,12.54902%,98.823529%);fill-opacity:1;" d="M 206.484375 179.335938 C 206.140625 179.414062 205.792969 179.492188 205.4375 179.574219 C 205.4375 179.730469 205.4375 179.882812 205.4375 180.042969 C 204.65625 180.042969 203.878906 180.042969 203.074219 180.042969 C 203.074219 179.886719 203.074219 179.734375 203.074219 179.574219 C 203.445312 179.488281 203.816406 179.40625 204.1875 179.324219 C 204.394531 179.277344 204.601562 179.230469 204.816406 179.183594 C 205.460938 179.097656 205.871094 179.15625 206.484375 179.335938 Z M 206.484375 179.335938 "/>
<path style=" stroke:none;fill-rule:nonzero;fill:rgb(15.686275%,22.745098%,99.215686%);fill-opacity:1;" d="M 321.140625 168.511719 C 320.300781 168.9375 319.53125 169.105469 318.582031 169.246094 C 318.324219 169.285156 318.066406 169.324219 317.800781 169.367188 C 317.601562 169.394531 317.40625 169.421875 317.203125 169.453125 C 317.292969 169.21875 317.378906 168.988281 317.46875 168.746094 C 318.8125 168.339844 319.738281 168.199219 321.140625 168.511719 Z M 321.140625 168.511719 "/>
<path style=" stroke:none;fill-rule:nonzero;fill:rgb(19.215687%,25.882354%,99.215686%);fill-opacity:1;" d="M 354.199219 142.859375 C 354.285156 142.859375 354.371094 142.859375 354.460938 142.859375 C 354.335938 144.167969 354.121094 145.371094 353.675781 146.625 C 353.21875 146 353.148438 145.707031 353.214844 144.945312 C 353.414062 144.269531 353.414062 144.269531 353.9375 143.800781 C 354.105469 143.3125 354.105469 143.3125 354.199219 142.859375 Z M 354.199219 142.859375 "/>
<path style=" stroke:none;fill-rule:nonzero;fill:rgb(14.509805%,20%,99.215686%);fill-opacity:1;" d="M 359.445312 88.960938 C 360.390625 89.09375 360.757812 89.375 361.347656 90.035156 C 361.554688 90.261719 361.554688 90.261719 361.761719 90.492188 C 361.863281 90.609375 361.964844 90.726562 362.070312 90.84375 C 360.804688 90.75 360.257812 90.285156 359.445312 89.433594 C 359.445312 89.277344 359.445312 89.121094 359.445312 88.960938 Z M 359.445312 88.960938 "/>
<path style=" stroke:none;fill-rule:nonzero;fill:rgb(15.686275%,22.745098%,99.607843%);fill-opacity:1;" d="M 346.851562 82.84375 C 347.285156 82.84375 347.71875 82.84375 348.164062 82.84375 C 348.164062 83 348.164062 83.15625 348.164062 83.3125 C 348.769531 83.390625 349.375 83.46875 350 83.550781 C 349.296875 83.960938 348.984375 84.023438 348.132812 83.945312 C 347.378906 83.785156 347.378906 83.785156 346.851562 83.550781 C 346.851562 83.316406 346.851562 83.082031 346.851562 82.84375 Z M 346.851562 82.84375 "/>
<path style=" stroke:none;fill-rule:nonzero;fill:rgb(22.745098%,30.19608%,99.215686%);fill-opacity:1;" d="M 144.566406 182.164062 C 145.25 182.144531 145.933594 182.128906 146.617188 182.117188 C 146.808594 182.113281 147.003906 182.105469 147.203125 182.101562 C 148.644531 182.082031 148.644531 182.082031 149.292969 182.519531 C 149.417969 182.691406 149.417969 182.691406 149.550781 182.867188 C 149.015625 182.835938 148.480469 182.800781 147.945312 182.765625 C 147.644531 182.746094 147.347656 182.726562 147.039062 182.707031 C 146.203125 182.636719 145.390625 182.53125 144.566406 182.398438 C 144.566406 182.320312 144.566406 182.242188 144.566406 182.164062 Z M 144.566406 182.164062 "/>
<path style=" stroke:none;fill-rule:nonzero;fill:rgb(21.568628%,27.843139%,98.431373%);fill-opacity:1;" d="M 153.75 182.632812 C 153.835938 182.867188 153.921875 183.097656 154.011719 183.339844 C 152.625 183.261719 151.242188 183.183594 149.8125 183.101562 C 149.8125 183.027344 149.8125 182.949219 149.8125 182.867188 C 150.222656 182.828125 150.632812 182.789062 151.042969 182.75 C 151.269531 182.730469 151.5 182.707031 151.734375 182.683594 C 152.410156 182.636719 153.070312 182.625 153.75 182.632812 Z M 153.75 182.632812 "/>
<path style=" stroke:none;fill-rule:nonzero;fill:rgb(15.294118%,22.745098%,98.823529%);fill-opacity:1;" d="M 86.058594 76.019531 C 86.230469 76.097656 86.402344 76.175781 86.582031 76.253906 C 85.246094 77.832031 85.246094 77.832031 84.253906 78.121094 C 84.070312 78.125 83.886719 78.132812 83.695312 78.136719 C 84.398438 77.296875 85.121094 76.648438 86.058594 76.019531 Z M 86.058594 76.019531 "/>
<path style=" stroke:none;fill-rule:nonzero;fill:rgb(17.254902%,24.705882%,99.215686%);fill-opacity:1;" d="M 92.09375 72.722656 C 92.265625 72.800781 92.4375 72.878906 92.617188 72.960938 C 91.703125 73.984375 90.851562 74.121094 89.46875 74.371094 C 90.203125 73.597656 91.09375 73.179688 92.09375 72.722656 Z M 92.09375 72.722656 "/>
<path style=" stroke:none;fill-rule:nonzero;fill:rgb(10.196079%,14.509805%,99.215686%);fill-opacity:1;" d="M 341.867188 64.484375 C 342.933594 64.804688 343.171875 65.265625 343.703125 66.132812 C 343.601562 66.652344 343.601562 66.652344 343.441406 67.074219 C 343.179688 66.734375 342.917969 66.390625 342.65625 66.046875 C 342.507812 65.855469 342.363281 65.664062 342.210938 65.464844 C 341.867188 64.957031 341.867188 64.957031 341.867188 64.484375 Z M 341.867188 64.484375 "/>
<path style=" stroke:none;fill-rule:nonzero;fill:rgb(15.686275%,21.176471%,99.215686%);fill-opacity:1;" d="M 332.160156 56.484375 C 333.238281 56.824219 334.109375 57.3125 335.046875 57.898438 C 334.785156 58.011719 334.785156 58.011719 334.523438 58.132812 C 333.484375 57.792969 332.601562 57.5 331.898438 56.71875 C 331.984375 56.640625 332.070312 56.5625 332.160156 56.484375 Z M 332.160156 56.484375 "/>
<path style=" stroke:none;fill-rule:nonzero;fill:rgb(10.196079%,14.509805%,98.823529%);fill-opacity:1;" d="M 349.738281 152.039062 C 349.824219 152.191406 349.910156 152.347656 350 152.507812 C 349.433594 153.796875 349.433594 153.796875 348.640625 154.242188 C 348.484375 154.292969 348.328125 154.339844 348.164062 154.390625 C 348.273438 153.253906 348.8125 152.785156 349.738281 152.039062 Z M 349.738281 152.039062 "/>
<path style=" stroke:none;fill-rule:nonzero;fill:rgb(16.862746%,23.137255%,98.823529%);fill-opacity:1;" d="M 100.75 173.925781 C 102.5625 174.148438 102.5625 174.148438 103.375 174.632812 C 103.460938 174.863281 103.546875 175.097656 103.636719 175.335938 C 102.574219 175.050781 101.671875 174.71875 100.75 174.160156 C 100.75 174.082031 100.75 174.003906 100.75 173.925781 Z M 100.75 173.925781 "/>
<path style=" stroke:none;fill-rule:nonzero;fill:rgb(18.82353%,26.666668%,99.607843%);fill-opacity:1;" d="M 237.183594 172.511719 C 237.355469 172.746094 237.527344 172.980469 237.707031 173.21875 C 236.355469 173.238281 235.105469 173.183594 233.773438 172.984375 C 233.773438 172.90625 233.773438 172.828125 233.773438 172.75 C 236.390625 172.429688 236.390625 172.429688 237.183594 172.511719 Z M 237.183594 172.511719 "/>
<path style=" stroke:none;fill-rule:nonzero;fill:rgb(17.254902%,22.352941%,99.215686%);fill-opacity:1;" d="M 317.203125 169.453125 C 317.203125 169.53125 317.203125 169.609375 317.203125 169.6875 C 314.992188 170.226562 314.992188 170.226562 313.792969 170.160156 C 313.878906 169.925781 313.96875 169.691406 314.054688 169.453125 C 315.171875 169.179688 316.074219 169.273438 317.203125 169.453125 Z M 317.203125 169.453125 "/>
<path style=" stroke:none;fill-rule:nonzero;fill:rgb(17.254902%,23.137255%,99.215686%);fill-opacity:1;" d="M 340.292969 161.214844 C 339.125 161.914062 339.125 161.914062 337.933594 162.628906 C 337.757812 162.550781 337.585938 162.472656 337.40625 162.390625 C 337.40625 162.238281 337.40625 162.082031 337.40625 161.921875 C 337.753906 161.921875 338.101562 161.921875 338.457031 161.921875 C 338.542969 161.6875 338.628906 161.457031 338.71875 161.214844 C 339.242188 160.980469 339.242188 160.980469 340.292969 161.214844 Z M 340.292969 161.214844 "/>
<path style=" stroke:none;fill-rule:nonzero;fill:rgb(16.078432%,23.137255%,98.431373%);fill-opacity:1;" d="M 81.335938 79.785156 C 81.421875 80.015625 81.507812 80.25 81.597656 80.492188 C 81.230469 81.023438 80.757812 81.4375 80.285156 81.902344 C 80.027344 81.824219 79.765625 81.746094 79.5 81.667969 C 79.671875 81.433594 79.84375 81.199219 80.023438 80.960938 C 80.195312 80.960938 80.367188 80.960938 80.546875 80.960938 C 80.628906 80.808594 80.710938 80.660156 80.792969 80.503906 C 81.070312 80.019531 81.070312 80.019531 81.335938 79.785156 Z M 81.335938 79.785156 "/>
<path style=" stroke:none;fill-rule:nonzero;fill:rgb(22.352941%,31.37255%,99.215686%);fill-opacity:1;" d="M 130.136719 62.601562 C 130.136719 62.835938 130.136719 63.070312 130.136719 63.308594 C 128.835938 63.308594 127.539062 63.308594 126.199219 63.308594 C 127.527344 62.714844 128.660156 62.566406 130.136719 62.601562 Z M 130.136719 62.601562 "/>
<path style=" stroke:none;fill-rule:nonzero;fill:rgb(17.647059%,24.705882%,98.823529%);fill-opacity:1;" d="M 174.476562 183.101562 C 175.429688 183.179688 176.378906 183.257812 177.363281 183.339844 C 176.835938 183.808594 176.835938 183.808594 176.210938 183.855469 C 175.976562 183.851562 175.738281 183.84375 175.492188 183.839844 C 175.132812 183.832031 175.132812 183.832031 174.769531 183.824219 C 174.585938 183.820312 174.402344 183.816406 174.214844 183.808594 C 174.300781 183.578125 174.386719 183.34375 174.476562 183.101562 Z M 174.476562 183.101562 "/>
<path style=" stroke:none;fill-rule:nonzero;fill:rgb(17.254902%,23.921569%,99.215686%);fill-opacity:1;" d="M 332.160156 164.980469 C 331.542969 165.535156 331.121094 165.625 330.289062 165.835938 C 329.933594 165.925781 329.933594 165.925781 329.566406 166.019531 C 329.382812 166.066406 329.199219 166.109375 329.011719 166.15625 C 329.273438 165.453125 329.273438 165.453125 329.699219 165.171875 C 330.535156 164.917969 331.285156 164.953125 332.160156 164.980469 Z M 332.160156 164.980469 "/>
<path style=" stroke:none;fill-rule:nonzero;fill:rgb(13.725491%,19.215687%,99.215686%);fill-opacity:1;" d="M 346.328125 156.273438 C 346.414062 156.429688 346.5 156.585938 346.589844 156.742188 C 345.898438 157.289062 345.207031 157.832031 344.492188 158.390625 C 344.40625 158.160156 344.320312 157.925781 344.230469 157.6875 C 345.441406 156.539062 345.441406 156.539062 346.328125 156.273438 Z M 346.328125 156.273438 "/>
<path style=" stroke:none;fill-rule:nonzero;fill:rgb(19.215687%,25.098041%,99.215686%);fill-opacity:1;" d="M 208.585938 179.101562 C 207.789062 179.578125 207.484375 179.648438 206.566406 179.71875 C 206.355469 179.738281 206.144531 179.753906 205.925781 179.773438 C 205.761719 179.785156 205.601562 179.796875 205.4375 179.808594 C 206.441406 178.820312 207.160156 178.847656 208.585938 179.101562 Z M 208.585938 179.101562 "/>
<path style=" stroke:none;fill-rule:nonzero;fill:rgb(17.647059%,23.921569%,98.823529%);fill-opacity:1;" d="M 89.730469 161.921875 C 89.925781 162.480469 89.925781 162.480469 89.992188 163.097656 C 89.734375 163.449219 89.734375 163.449219 89.46875 163.804688 C 89.398438 163.539062 89.328125 163.269531 89.253906 162.996094 C 89.152344 162.71875 89.050781 162.441406 88.945312 162.15625 C 88.683594 162.078125 88.425781 162 88.15625 161.921875 C 89.140625 161.65625 89.140625 161.65625 89.730469 161.921875 Z M 89.730469 161.921875 "/>
<path style=" stroke:none;fill-rule:nonzero;fill:rgb(19.215687%,26.666668%,99.215686%);fill-opacity:1;" d="M 109.410156 67.074219 C 108.976562 67.152344 108.542969 67.230469 108.097656 67.3125 C 108.097656 67.464844 108.097656 67.621094 108.097656 67.78125 C 107.472656 67.929688 107.472656 67.929688 106.785156 68.015625 C 106.613281 67.859375 106.4375 67.707031 106.261719 67.546875 C 106.636719 67.421875 107.011719 67.296875 107.390625 67.179688 C 107.707031 67.074219 107.707031 67.074219 108.027344 66.972656 C 108.621094 66.839844 108.621094 66.839844 109.410156 67.074219 Z M 109.410156 67.074219 "/>
<path style=" stroke:none;fill-rule:nonzero;fill:rgb(16.078432%,22.352941%,98.431373%);fill-opacity:1;" d="M 350.527344 150.625 C 350.785156 150.625 351.046875 150.625 351.3125 150.625 C 350.964844 151.472656 350.535156 152.214844 350 152.976562 C 349.738281 152.507812 349.738281 152.507812 349.886719 152.050781 C 349.960938 151.878906 350.039062 151.710938 350.117188 151.535156 C 350.191406 151.367188 350.265625 151.195312 350.34375 151.019531 C 350.40625 150.890625 350.464844 150.757812 350.527344 150.625 Z M 350.527344 150.625 "/>
<path style=" stroke:none;fill-rule:nonzero;fill:rgb(22.352941%,29.803923%,99.607843%);fill-opacity:1;" d="M 292.28125 50.835938 C 292.699219 50.863281 293.121094 50.894531 293.542969 50.925781 C 293.777344 50.941406 294.011719 50.957031 294.253906 50.972656 C 294.902344 51.070312 294.902344 51.070312 295.691406 51.542969 C 295.222656 51.5625 294.75 51.574219 294.28125 51.585938 C 293.886719 51.597656 293.886719 51.597656 293.488281 51.609375 C 293.261719 51.589844 293.035156 51.566406 292.804688 51.542969 C 292.632812 51.308594 292.457031 51.074219 292.28125 50.835938 Z M 292.28125 50.835938 "/>
<path style=" stroke:none;fill-rule:nonzero;fill:rgb(18.431373%,25.098041%,99.215686%);fill-opacity:1;" d="M 80.285156 159.332031 C 80.675781 159.394531 81.0625 159.457031 81.449219 159.523438 C 81.773438 159.578125 81.773438 159.578125 82.105469 159.632812 C 82.371094 159.71875 82.371094 159.71875 82.648438 159.804688 C 82.734375 160.035156 82.820312 160.269531 82.910156 160.507812 C 81.792969 160.507812 81.234375 160.082031 80.285156 159.570312 C 80.285156 159.492188 80.285156 159.414062 80.285156 159.332031 Z M 80.285156 159.332031 "/>
<path style=" stroke:none;fill-rule:nonzero;fill:rgb(21.568628%,29.019609%,99.607843%);fill-opacity:1;" d="M 246.367188 52.484375 C 246.105469 52.601562 246.105469 52.601562 245.839844 52.71875 C 245.753906 52.875 245.667969 53.03125 245.578125 53.1875 C 245.320312 53.113281 245.058594 53.035156 244.792969 52.953125 C 244.792969 53.109375 244.792969 53.265625 244.792969 53.425781 C 244.011719 53.308594 244.011719 53.308594 243.21875 53.1875 C 244.304688 52.683594 245.136719 52.453125 246.367188 52.484375 Z M 246.367188 52.484375 "/>
<path style=" stroke:none;fill-rule:nonzero;fill:rgb(22.352941%,29.803923%,99.215686%);fill-opacity:1;" d="M 285.984375 49.894531 C 287.25 49.875 288.40625 49.90625 289.65625 50.128906 C 289.65625 50.207031 289.65625 50.285156 289.65625 50.367188 C 288.789062 50.441406 287.925781 50.519531 287.03125 50.601562 C 287.03125 50.445312 287.03125 50.289062 287.03125 50.128906 C 286.6875 50.050781 286.339844 49.972656 285.984375 49.894531 Z M 285.984375 49.894531 "/>
<path style=" stroke:none;fill-rule:nonzero;fill:rgb(14.509805%,21.960784%,99.215686%);fill-opacity:1;" d="M 204.125 180.042969 C 203.359375 180.511719 203.042969 180.511719 202.089844 180.425781 C 201.808594 180.378906 201.527344 180.328125 201.238281 180.28125 C 202.226562 179.675781 202.988281 179.847656 204.125 180.042969 Z M 204.125 180.042969 "/>
<path style=" stroke:none;fill-rule:nonzero;fill:rgb(14.509805%,20.784314%,99.215686%);fill-opacity:1;" d="M 226.164062 173.453125 C 226.855469 173.53125 227.546875 173.609375 228.261719 173.6875 C 227.589844 174.292969 227.085938 174.289062 226.164062 174.394531 C 226.164062 174.085938 226.164062 173.773438 226.164062 173.453125 Z M 226.164062 173.453125 "/>
<path style=" stroke:none;fill-rule:nonzero;fill:rgb(21.960784%,27.843139%,98.039216%);fill-opacity:1;" d="M 74.511719 105.90625 C 74.6875 105.90625 74.859375 105.90625 75.039062 105.90625 C 75.039062 106.21875 75.039062 106.53125 75.039062 106.851562 C 75.210938 106.851562 75.382812 106.851562 75.5625 106.851562 C 75.648438 107.082031 75.734375 107.316406 75.824219 107.554688 C 75.566406 107.90625 75.566406 107.90625 75.300781 108.261719 C 74.511719 106.703125 74.511719 106.703125 74.511719 105.90625 Z M 74.511719 105.90625 "/>
<path style=" stroke:none;fill-rule:nonzero;fill:rgb(12.941177%,21.176471%,99.607843%);fill-opacity:1;" d="M 222.226562 60.015625 C 221.964844 60.71875 221.964844 60.71875 221.339844 61.03125 C 221.113281 61.082031 220.886719 61.136719 220.652344 61.191406 C 220.394531 61.035156 220.132812 60.878906 219.867188 60.71875 C 221.636719 60.015625 221.636719 60.015625 222.226562 60.015625 Z M 222.226562 60.015625 "/>
<path style=" stroke:none;fill-rule:nonzero;fill:rgb(14.509805%,21.176471%,98.823529%);fill-opacity:1;" d="M 106.523438 176.277344 C 108.261719 176.25 108.261719 176.25 109.144531 176.515625 C 109.144531 176.667969 109.144531 176.824219 109.144531 176.984375 C 107.40625 176.808594 107.40625 176.808594 106.523438 176.277344 Z M 106.523438 176.277344 "/>
<path style=" stroke:none;fill-rule:nonzero;fill:rgb(18.431373%,25.882354%,99.215686%);fill-opacity:1;" d="M 85.007812 161.214844 C 85.785156 161.214844 86.566406 161.214844 87.367188 161.214844 C 87.457031 161.449219 87.542969 161.683594 87.632812 161.921875 C 86.765625 161.765625 85.898438 161.609375 85.007812 161.453125 C 85.007812 161.375 85.007812 161.296875 85.007812 161.214844 Z M 85.007812 161.214844 "/>
<path style=" stroke:none;fill-rule:nonzero;fill:rgb(16.470589%,21.176471%,99.215686%);fill-opacity:1;" d="M 83.433594 160.039062 C 83.605469 160.039062 83.78125 160.039062 83.957031 160.039062 C 83.957031 160.195312 83.957031 160.351562 83.957031 160.507812 C 84.304688 160.585938 84.652344 160.664062 85.007812 160.746094 C 85.007812 160.902344 85.007812 161.054688 85.007812 161.214844 C 84.121094 161.085938 83.675781 160.96875 82.910156 160.507812 C 83.082031 160.507812 83.253906 160.507812 83.433594 160.507812 C 83.433594 160.355469 83.433594 160.199219 83.433594 160.039062 Z M 83.433594 160.039062 "/>
<path style=" stroke:none;fill-rule:nonzero;fill:rgb(17.647059%,23.921569%,98.431373%);fill-opacity:1;" d="M 73.464844 116.027344 C 73.550781 116.261719 73.636719 116.496094 73.726562 116.734375 C 73.378906 117.046875 73.035156 117.355469 72.675781 117.675781 C 72.503906 117.519531 72.332031 117.363281 72.152344 117.203125 C 72.585938 116.816406 73.015625 116.429688 73.464844 116.027344 Z M 73.464844 116.027344 "/>
<path style=" stroke:none;fill-rule:nonzero;fill:rgb(15.294118%,22.352941%,99.215686%);fill-opacity:1;" d="M 88.679688 74.84375 C 88.417969 75.546875 88.417969 75.546875 87.632812 76.019531 C 87.058594 75.929688 87.058594 75.929688 86.582031 75.78125 C 88.089844 74.84375 88.089844 74.84375 88.679688 74.84375 Z M 88.679688 74.84375 "/>
<path style=" stroke:none;fill-rule:nonzero;fill:rgb(16.862746%,22.745098%,98.431373%);fill-opacity:1;" d="M 75.300781 156.507812 C 75.921875 156.566406 75.921875 156.566406 76.613281 156.742188 C 76.957031 157.230469 76.957031 157.230469 77.136719 157.6875 C 76.367188 157.496094 76.367188 157.496094 75.5625 157.214844 C 75.476562 156.980469 75.390625 156.75 75.300781 156.507812 Z M 75.300781 156.507812 "/>
<path style=" stroke:none;fill-rule:nonzero;fill:rgb(22.745098%,29.019609%,98.823529%);fill-opacity:1;" d="M 63.230469 136.03125 C 63.316406 136.03125 63.402344 136.03125 63.492188 136.03125 C 63.492188 136.5 63.492188 136.964844 63.492188 137.445312 C 63.40625 137.445312 63.320312 137.445312 63.230469 137.445312 C 63.230469 136.980469 63.230469 136.511719 63.230469 136.03125 Z M 63.230469 136.03125 "/>
<path style=" stroke:none;fill-rule:nonzero;fill:rgb(18.431373%,24.705882%,98.039216%);fill-opacity:1;" d="M 241.117188 173.925781 C 242.167969 174.160156 242.167969 174.160156 242.167969 174.160156 Z M 241.117188 173.925781 "/>
<path style=" stroke:none;fill-rule:nonzero;fill:rgb(20.392157%,27.058825%,98.039216%);fill-opacity:1;" d="M 248.726562 51.070312 C 249.117188 51.304688 249.117188 51.304688 249.515625 51.542969 C 249.253906 51.542969 248.996094 51.542969 248.726562 51.542969 C 248.726562 51.386719 248.726562 51.230469 248.726562 51.070312 Z M 248.726562 51.070312 "/>
<path style=" stroke:none;fill-rule:nonzero;fill:rgb(40.392157%,32.549021%,47.450981%);fill-opacity:1;" d="M 285.984375 10.121094 C 286.242188 10.199219 286.503906 10.277344 286.769531 10.355469 C 286.511719 10.355469 286.25 10.355469 285.984375 10.355469 C 285.984375 10.277344 285.984375 10.199219 285.984375 10.121094 Z M 285.984375 10.121094 "/>
<path style=" stroke:none;fill-rule:nonzero;fill:rgb(42.745098%,34.901962%,54.11765%);fill-opacity:1;" d="M 248.726562 238.410156 C 248.984375 238.527344 248.984375 238.527344 249.25 238.648438 C 248.992188 238.761719 248.992188 238.761719 248.726562 238.882812 C 248.726562 238.726562 248.726562 238.570312 248.726562 238.410156 Z M 248.726562 238.410156 "/>
<path style=" stroke:none;fill-rule:nonzero;fill:rgb(39.607844%,32.941177%,59.607846%);fill-opacity:1;" d="M 248.726562 217.699219 C 248.984375 217.816406 248.984375 217.816406 249.25 217.9375 C 248.992188 218.050781 248.992188 218.050781 248.726562 218.171875 C 248.726562 218.015625 248.726562 217.859375 248.726562 217.699219 Z M 248.726562 217.699219 "/>
<path style=" stroke:none;fill-rule:nonzero;fill:rgb(18.431373%,24.705882%,98.823529%);fill-opacity:1;" d="M 143.515625 182.398438 C 144.304688 182.632812 144.304688 182.632812 144.304688 182.632812 Z M 143.515625 182.398438 "/>
<path style=" stroke:none;fill-rule:nonzero;fill:rgb(16.862746%,24.705882%,97.647059%);fill-opacity:1;" d="M 267.617188 174.867188 C 268.40625 175.101562 268.40625 175.101562 268.40625 175.101562 Z M 267.617188 174.867188 "/>
<path style=" stroke:none;fill-rule:nonzero;fill:rgb(15.686275%,24.705882%,99.215686%);fill-opacity:1;" d="M 265.519531 174.867188 C 266.304688 175.101562 266.304688 175.101562 266.304688 175.101562 Z M 265.519531 174.867188 "/>
<path style=" stroke:none;fill-rule:nonzero;fill:rgb(17.647059%,25.490198%,98.823529%);fill-opacity:1;" d="M 250.5625 174.632812 C 251.351562 174.867188 251.351562 174.867188 251.351562 174.867188 Z M 250.5625 174.632812 "/>
<path style=" stroke:none;fill-rule:nonzero;fill:rgb(19.215687%,25.098041%,98.823529%);fill-opacity:1;" d="M 242.429688 174.160156 C 242.601562 174.160156 242.777344 174.160156 242.953125 174.160156 C 242.867188 174.316406 242.78125 174.472656 242.691406 174.632812 C 242.605469 174.476562 242.519531 174.320312 242.429688 174.160156 Z M 242.429688 174.160156 "/>
<path style=" stroke:none;fill-rule:nonzero;fill:rgb(46.27451%,38.039216%,49.411765%);fill-opacity:1;" d="M 22.300781 67.074219 C 22.472656 67.074219 22.648438 67.074219 22.828125 67.074219 C 22.738281 67.230469 22.652344 67.386719 22.5625 67.546875 C 22.476562 67.390625 22.390625 67.234375 22.300781 67.074219 Z M 22.300781 67.074219 "/>
<path style=" stroke:none;fill-rule:nonzero;fill:rgb(38.82353%,32.941177%,58.431375%);fill-opacity:1;" d="M 261.058594 23.769531 C 261.84375 24.007812 261.84375 24.007812 261.84375 24.007812 Z M 261.058594 23.769531 "/>
<path style=" stroke:none;fill-rule:nonzero;fill:rgb(39.215687%,33.333334%,54.901963%);fill-opacity:1;" d="M 273.652344 20.003906 C 273.824219 20.003906 273.996094 20.003906 274.175781 20.003906 C 274.089844 20.160156 274.003906 20.316406 273.914062 20.476562 C 273.828125 20.320312 273.742188 20.164062 273.652344 20.003906 Z M 273.652344 20.003906 "/>
<path style=" stroke:none;fill-rule:nonzero;fill:rgb(40.000001%,32.941177%,49.019608%);fill-opacity:1;" d="M 273.914062 12.472656 C 274.171875 12.589844 274.171875 12.589844 274.4375 12.710938 C 274.179688 12.824219 274.179688 12.824219 273.914062 12.945312 C 273.914062 12.789062 273.914062 12.632812 273.914062 12.472656 Z M 273.914062 12.472656 "/>
<path style=" stroke:none;fill-rule:nonzero;fill:rgb(40.392157%,33.333334%,45.490196%);fill-opacity:1;" d="M 274.175781 3.058594 C 274.261719 3.214844 274.347656 3.371094 274.4375 3.53125 C 274.265625 3.453125 274.09375 3.375 273.914062 3.296875 C 274 3.21875 274.085938 3.140625 274.175781 3.058594 Z M 274.175781 3.058594 "/>
<path style=" stroke:none;fill-rule:nonzero;fill:rgb(43.529412%,34.509805%,53.725493%);fill-opacity:1;" d="M 248.726562 240.292969 C 249.25 240.53125 249.25 240.53125 249.25 240.53125 Z M 248.726562 240.292969 "/>
<path style=" stroke:none;fill-rule:nonzero;fill:rgb(43.921569%,34.509805%,52.941179%);fill-opacity:1;" d="M 285.984375 236.058594 C 286.507812 236.292969 286.507812 236.292969 286.507812 236.292969 Z M 285.984375 236.058594 "/>
<path style=" stroke:none;fill-rule:nonzero;fill:rgb(43.137255%,34.509805%,54.901963%);fill-opacity:1;" d="M 248.726562 234.644531 C 249.25 234.882812 249.25 234.882812 249.25 234.882812 Z M 248.726562 234.644531 "/>
<path style=" stroke:none;fill-rule:nonzero;fill:rgb(43.137255%,34.509805%,53.725493%);fill-opacity:1;" d="M 285.984375 230.410156 C 286.507812 230.644531 286.507812 230.644531 286.507812 230.644531 Z M 285.984375 230.410156 "/>
<path style=" stroke:none;fill-rule:nonzero;fill:rgb(41.568628%,34.117648%,56.862748%);fill-opacity:1;" d="M 248.726562 225.230469 C 249.25 225.46875 249.25 225.46875 249.25 225.46875 Z M 248.726562 225.230469 "/>
<path style=" stroke:none;fill-rule:nonzero;fill:rgb(41.960785%,33.725491%,55.29412%);fill-opacity:1;" d="M 285.984375 224.761719 C 286.507812 224.996094 286.507812 224.996094 286.507812 224.996094 Z M 285.984375 224.761719 "/>
<path style=" stroke:none;fill-rule:nonzero;fill:rgb(40.784314%,33.333334%,57.647061%);fill-opacity:1;" d="M 285.984375 219.113281 C 286.507812 219.347656 286.507812 219.347656 286.507812 219.347656 Z M 285.984375 219.113281 "/>
<path style=" stroke:none;fill-rule:nonzero;fill:rgb(39.607844%,33.333334%,59.607846%);fill-opacity:1;" d="M 273.390625 215.816406 C 273.914062 216.054688 273.914062 216.054688 273.914062 216.054688 Z M 273.390625 215.816406 "/>
<path style=" stroke:none;fill-rule:nonzero;fill:rgb(36.862746%,31.764707%,65.098041%);fill-opacity:1;" d="M 248.726562 208.285156 C 249.25 208.523438 249.25 208.523438 249.25 208.523438 Z M 248.726562 208.285156 "/>
<path style=" stroke:none;fill-rule:nonzero;fill:rgb(35.686275%,31.764707%,67.843139%);fill-opacity:1;" d="M 273.914062 202.875 C 274.4375 203.109375 274.4375 203.109375 274.4375 203.109375 Z M 273.914062 202.875 "/>
<path style=" stroke:none;fill-rule:nonzero;fill:rgb(34.117648%,30.980393%,70.588237%);fill-opacity:1;" d="M 248.726562 200.753906 C 249.25 200.992188 249.25 200.992188 249.25 200.992188 Z M 248.726562 200.753906 "/>
<path style=" stroke:none;fill-rule:nonzero;fill:rgb(28.627452%,29.019609%,82.352942%);fill-opacity:1;" d="M 248.726562 189.457031 C 249.25 189.695312 249.25 189.695312 249.25 189.695312 Z M 248.726562 189.457031 "/>
<path style=" stroke:none;fill-rule:nonzero;fill:rgb(18.431373%,25.490198%,97.647059%);fill-opacity:1;" d="M 166.867188 184.28125 C 167.390625 184.515625 167.390625 184.515625 167.390625 184.515625 Z M 166.867188 184.28125 "/>
<path style=" stroke:none;fill-rule:nonzero;fill:rgb(18.431373%,25.490198%,98.823529%);fill-opacity:1;" d="M 164.769531 184.28125 C 165.292969 184.515625 165.292969 184.515625 165.292969 184.515625 Z M 164.769531 184.28125 "/>
<path style=" stroke:none;fill-rule:nonzero;fill:rgb(18.431373%,24.705882%,97.647059%);fill-opacity:1;" d="M 150.601562 183.339844 C 151.125 183.574219 151.125 183.574219 151.125 183.574219 Z M 150.601562 183.339844 "/>
<path style=" stroke:none;fill-rule:nonzero;fill:rgb(17.254902%,23.137255%,98.431373%);fill-opacity:1;" d="M 196.253906 181.691406 C 196.777344 181.925781 196.777344 181.925781 196.777344 181.925781 Z M 196.253906 181.691406 "/>
<path style=" stroke:none;fill-rule:nonzero;fill:rgb(18.82353%,26.274511%,97.647059%);fill-opacity:1;" d="M 118.328125 178.632812 C 118.851562 178.867188 118.851562 178.867188 118.851562 178.867188 Z M 118.328125 178.632812 "/>
<path style=" stroke:none;fill-rule:nonzero;fill:rgb(20%,25.098041%,96.470588%);fill-opacity:1;" d="M 110.457031 177.691406 C 110.984375 177.925781 110.984375 177.925781 110.984375 177.925781 Z M 110.457031 177.691406 "/>
<path style=" stroke:none;fill-rule:nonzero;fill:rgb(16.862746%,24.313726%,97.647059%);fill-opacity:1;" d="M 269.714844 174.867188 C 270.242188 175.101562 270.242188 175.101562 270.242188 175.101562 Z M 269.714844 174.867188 "/>
<path style=" stroke:none;fill-rule:nonzero;fill:rgb(15.686275%,24.313726%,98.431373%);fill-opacity:1;" d="M 268.667969 174.867188 C 269.191406 175.101562 269.191406 175.101562 269.191406 175.101562 Z M 268.667969 174.867188 "/>
<path style=" stroke:none;fill-rule:nonzero;fill:rgb(16.078432%,24.313726%,98.431373%);fill-opacity:1;" d="M 261.582031 174.867188 C 262.109375 175.101562 262.109375 175.101562 262.109375 175.101562 Z M 261.582031 174.867188 "/>
<path style=" stroke:none;fill-rule:nonzero;fill:rgb(16.078432%,23.137255%,97.254902%);fill-opacity:1;" d="M 259.484375 174.867188 C 260.007812 175.101562 260.007812 175.101562 260.007812 175.101562 Z M 259.484375 174.867188 "/>
<path style=" stroke:none;fill-rule:nonzero;fill:rgb(17.647059%,25.098041%,98.431373%);fill-opacity:1;" d="M 255.023438 174.867188 C 255.546875 175.101562 255.546875 175.101562 255.546875 175.101562 Z M 255.023438 174.867188 "/>
<path style=" stroke:none;fill-rule:nonzero;fill:rgb(18.431373%,24.313726%,98.431373%);fill-opacity:1;" d="M 331.636719 165.453125 C 332.160156 165.6875 332.160156 165.6875 332.160156 165.6875 Z M 331.636719 165.453125 "/>
<path style=" stroke:none;fill-rule:nonzero;fill:rgb(21.960784%,27.450982%,98.431373%);fill-opacity:1;" d="M 88.15625 162.390625 C 88.679688 162.628906 88.679688 162.628906 88.679688 162.628906 Z M 88.15625 162.390625 "/>
<path style=" stroke:none;fill-rule:nonzero;fill:rgb(21.960784%,26.666668%,98.039216%);fill-opacity:1;" d="M 82.910156 160.980469 C 83.433594 161.214844 83.433594 161.214844 83.433594 161.214844 Z M 82.910156 160.980469 "/>
<path style=" stroke:none;fill-rule:nonzero;fill:rgb(22.745098%,27.450982%,96.078432%);fill-opacity:1;" d="M 72.414062 156.039062 C 72.9375 156.273438 72.9375 156.273438 72.9375 156.273438 Z M 72.414062 156.039062 "/>
<path style=" stroke:none;fill-rule:nonzero;fill:rgb(20%,25.490198%,98.823529%);fill-opacity:1;" d="M 357.871094 86.609375 C 358.398438 86.84375 358.398438 86.84375 358.398438 86.84375 Z M 357.871094 86.609375 "/>
<path style=" stroke:none;fill-rule:nonzero;fill:rgb(18.82353%,24.313726%,98.039216%);fill-opacity:1;" d="M 351.3125 83.785156 C 351.835938 84.019531 351.835938 84.019531 351.835938 84.019531 Z M 351.3125 83.785156 "/>
<path style=" stroke:none;fill-rule:nonzero;fill:rgb(19.215687%,26.666668%,98.823529%);fill-opacity:1;" d="M 348.6875 82.84375 C 349.214844 83.078125 349.214844 83.078125 349.214844 83.078125 Z M 348.6875 82.84375 "/>
<path style=" stroke:none;fill-rule:nonzero;fill:rgb(20%,27.058825%,98.431373%);fill-opacity:1;" d="M 125.414062 62.132812 C 125.9375 62.367188 125.9375 62.367188 125.9375 62.367188 Z M 125.414062 62.132812 "/>
<path style=" stroke:none;fill-rule:nonzero;fill:rgb(20%,27.450982%,98.823529%);fill-opacity:1;" d="M 160.308594 58.601562 C 160.832031 58.835938 160.832031 58.835938 160.832031 58.835938 Z M 160.308594 58.601562 "/>
<path style=" stroke:none;fill-rule:nonzero;fill:rgb(18.039216%,26.666668%,99.215686%);fill-opacity:1;" d="M 197.300781 58.367188 C 197.828125 58.601562 197.828125 58.601562 197.828125 58.601562 Z M 197.300781 58.367188 "/>
<path style=" stroke:none;fill-rule:nonzero;fill:rgb(16.862746%,25.882354%,99.215686%);fill-opacity:1;" d="M 195.992188 58.367188 C 196.515625 58.601562 196.515625 58.601562 196.515625 58.601562 Z M 195.992188 58.367188 "/>
<path style=" stroke:none;fill-rule:nonzero;fill:rgb(14.901961%,23.137255%,98.823529%);fill-opacity:1;" d="M 195.203125 58.367188 C 195.726562 58.601562 195.726562 58.601562 195.726562 58.601562 Z M 195.203125 58.367188 "/>
<path style=" stroke:none;fill-rule:nonzero;fill:rgb(15.294118%,23.921569%,98.823529%);fill-opacity:1;" d="M 167.917969 58.367188 C 168.441406 58.601562 168.441406 58.601562 168.441406 58.601562 Z M 167.917969 58.367188 "/>
<path style=" stroke:none;fill-rule:nonzero;fill:rgb(17.647059%,27.058825%,99.215686%);fill-opacity:1;" d="M 163.71875 58.367188 C 164.242188 58.601562 164.242188 58.601562 164.242188 58.601562 Z M 163.71875 58.367188 "/>
<path style=" stroke:none;fill-rule:nonzero;fill:rgb(18.039216%,25.098041%,98.823529%);fill-opacity:1;" d="M 294.902344 50.835938 C 295.429688 51.070312 295.429688 51.070312 295.429688 51.070312 Z M 294.902344 50.835938 "/>
<path style=" stroke:none;fill-rule:nonzero;fill:rgb(18.431373%,25.882354%,98.431373%);fill-opacity:1;" d="M 280.734375 48.953125 C 281.261719 49.1875 281.261719 49.1875 281.261719 49.1875 Z M 280.734375 48.953125 "/>
<path style=" stroke:none;fill-rule:nonzero;fill:rgb(18.431373%,27.058825%,97.647059%);fill-opacity:1;" d="M 266.566406 48.953125 C 267.09375 49.1875 267.09375 49.1875 267.09375 49.1875 Z M 266.566406 48.953125 "/>
<path style=" stroke:none;fill-rule:nonzero;fill:rgb(37.254903%,32.941177%,61.56863%);fill-opacity:1;" d="M 248.726562 27.535156 C 249.25 27.773438 249.25 27.773438 249.25 27.773438 Z M 248.726562 27.535156 "/>
<path style=" stroke:none;fill-rule:nonzero;fill:rgb(39.215687%,32.941177%,54.509807%);fill-opacity:1;" d="M 248.726562 20.003906 C 249.25 20.242188 249.25 20.242188 249.25 20.242188 Z M 248.726562 20.003906 "/>
<path style=" stroke:none;fill-rule:nonzero;fill:rgb(40.000001%,32.941177%,54.11765%);fill-opacity:1;" d="M 285.984375 19.535156 C 286.507812 19.769531 286.507812 19.769531 286.507812 19.769531 Z M 285.984375 19.535156 "/>
<path style=" stroke:none;fill-rule:nonzero;fill:rgb(40.000001%,33.333334%,51.372552%);fill-opacity:1;" d="M 248.726562 16.238281 C 249.25 16.476562 249.25 16.476562 249.25 16.476562 Z M 248.726562 16.238281 "/>
<path style=" stroke:none;fill-rule:nonzero;fill:rgb(40.000001%,33.333334%,50.588238%);fill-opacity:1;" d="M 273.914062 14.59375 C 274.4375 14.828125 274.4375 14.828125 274.4375 14.828125 Z M 273.914062 14.59375 "/>
<path style=" stroke:none;fill-rule:nonzero;fill:rgb(40.392157%,33.333334%,49.803922%);fill-opacity:1;" d="M 248.726562 14.355469 C 249.25 14.59375 249.25 14.59375 249.25 14.59375 Z M 248.726562 14.355469 "/>
<path style=" stroke:none;fill-rule:nonzero;fill:rgb(40.392157%,32.941177%,49.411765%);fill-opacity:1;" d="M 285.984375 13.886719 C 286.507812 14.121094 286.507812 14.121094 286.507812 14.121094 Z M 285.984375 13.886719 "/>
<path style=" stroke:none;fill-rule:nonzero;fill:rgb(40.392157%,33.725491%,50.196081%);fill-opacity:1;" d="M 261.84375 13.886719 C 262.371094 14.121094 262.371094 14.121094 262.371094 14.121094 Z M 261.84375 13.886719 "/>
<path style=" stroke:none;fill-rule:nonzero;fill:rgb(40.392157%,32.941177%,48.627451%);fill-opacity:1;" d="M 285.984375 12.003906 C 286.507812 12.238281 286.507812 12.238281 286.507812 12.238281 Z M 285.984375 12.003906 "/>
<path style=" stroke:none;fill-rule:nonzero;fill:rgb(40.392157%,33.725491%,48.235294%);fill-opacity:1;" d="M 273.390625 10.589844 C 273.914062 10.828125 273.914062 10.828125 273.914062 10.828125 Z M 273.390625 10.589844 "/>
<path style=" stroke:none;fill-rule:nonzero;fill:rgb(40.392157%,33.333334%,47.058824%);fill-opacity:1;" d="M 248.726562 8.707031 C 249.25 8.945312 249.25 8.945312 249.25 8.945312 Z M 248.726562 8.707031 "/>
<path style=" stroke:none;fill-rule:nonzero;fill:rgb(40.784314%,32.549021%,46.666667%);fill-opacity:1;" d="M 285.984375 8.238281 C 286.507812 8.472656 286.507812 8.472656 286.507812 8.472656 Z M 285.984375 8.238281 "/>
<path style=" stroke:none;fill-rule:nonzero;fill:rgb(40.392157%,33.333334%,47.450981%);fill-opacity:1;" d="M 261.84375 8.238281 C 262.371094 8.472656 262.371094 8.472656 262.371094 8.472656 Z M 261.84375 8.238281 "/>
<path style=" stroke:none;fill-rule:nonzero;fill:rgb(40.392157%,32.549021%,46.27451%);fill-opacity:1;" d="M 285.984375 6.355469 C 286.507812 6.589844 286.507812 6.589844 286.507812 6.589844 Z M 285.984375 6.355469 "/>
<path style=" stroke:none;fill-rule:nonzero;fill:rgb(40.784314%,33.333334%,45.882353%);fill-opacity:1;" d="M 248.726562 4.941406 C 249.25 5.179688 249.25 5.179688 249.25 5.179688 Z M 248.726562 4.941406 "/>
<path style=" stroke:none;fill-rule:nonzero;fill:rgb(40.784314%,33.333334%,45.490196%);fill-opacity:1;" d="M 248.726562 3.058594 C 249.25 3.296875 249.25 3.296875 249.25 3.296875 Z M 248.726562 3.058594 "/>
<path style=" stroke:none;fill-rule:nonzero;fill:rgb(40.784314%,32.549021%,45.09804%);fill-opacity:1;" d="M 285.984375 2.589844 C 286.507812 2.824219 286.507812 2.824219 286.507812 2.824219 Z M 285.984375 2.589844 "/>
<path style=" stroke:none;fill-rule:nonzero;fill:rgb(40.392157%,33.333334%,45.490196%);fill-opacity:1;" d="M 248.726562 1.175781 C 249.25 1.414062 249.25 1.414062 249.25 1.414062 Z M 248.726562 1.175781 "/>
<path style=" stroke:none;fill-rule:nonzero;fill:rgb(40.784314%,33.333334%,45.09804%);fill-opacity:1;" d="M 285.984375 0.707031 C 286.507812 0.941406 286.507812 0.941406 286.507812 0.941406 Z M 285.984375 0.707031 "/>
</g>
</svg>
