<svg version="1.1" xmlns="http://www.w3.org/2000/svg" style="display: block;" viewBox="0 0 2048 1365" width="1536" height="1024" preserveAspectRatio="none">
<path transform="translate(0,0)" fill="rgb(23,21,254)" d="M 1253.9 546.413 C 1263.86 545.413 1273.48 545.569 1282.56 550.349 C 1323.25 571.761 1279.69 646.866 1291.12 682.741 C 1292.47 686.981 1295.1 690.518 1299.16 692.473 C 1334.72 709.571 1583.61 583.092 1632.84 564.265 C 1641.52 560.945 1655.18 555.661 1664.12 560.105 C 1666.66 561.364 1668.52 563.278 1669.33 566.007 C 1669.91 567.954 1669.48 569.643 1668.42 571.362 C 1664.55 577.614 1656.83 582.817 1650.74 586.707 C 1623.75 603.917 1593.63 617.267 1565.05 631.661 C 1514.21 657.269 1462.76 683.454 1410.16 705.271 C 1389.55 713.721 1368.46 720.939 1347 726.887 C 1259.66 750.591 1235.6 719.25 1249.42 633.011 C 1251.01 623.125 1258.64 599.561 1256.47 591.11 C 1243.87 579.273 1097.94 664.852 1074.76 678.285 L 933.773 759.423 C 896.787 780.67 860.011 802.702 820.563 819.75 C 796.085 830.328 756.357 843.385 734.897 819.693 C 725.829 809.682 724.628 797.841 725.565 784.829 C 731.555 746.045 751.649 709.872 760.41 672.457 C 739.794 680.195 704.348 703.082 684.068 715.435 C 630.561 748.1 577.348 781.245 524.436 814.866 C 490.875 835.971 454.538 860.48 418.487 876.789 C 412.284 880.494 400.684 881.121 394.096 877.196 C 372.301 864.21 422.433 832.793 429.668 827.542 C 518.699 762.934 612.454 704.136 707.981 649.672 C 724.673 640.155 744.146 631.418 762.535 625.717 C 784.71 621.306 798.295 627.692 805.18 648.395 C 815.191 678.499 771.794 763.401 776.417 784.24 C 785.842 789.703 823.467 765.919 832.717 760.645 C 850.959 750.12 869.319 739.802 887.794 729.692 C 964.222 687.588 1040.95 646.033 1117.98 605.03 C 1158.79 583.791 1209.4 555.577 1253.9 546.413 z"/>
</svg>