<svg version="1.1" xmlns="http://www.w3.org/2000/svg" style="display: block;" viewBox="0 0 2048 1365" width="1536" height="1024" preserveAspectRatio="none">
<path transform="translate(0,0)" fill="rgb(19,19,19)" d="M 977.881 167.569 C 984.098 167.003 990.694 166.866 996.971 166.802 C 1164.43 165.095 1376.86 178.39 1503.86 300.509 C 1600.25 393.197 1633.98 544.442 1634.76 673.999 C 1635.77 842.024 1614.6 1037.86 1491.65 1163.73 C 1379.79 1278.26 1205.87 1303.95 1052.75 1305.33 C 1047.78 1305.49 1042.81 1305.58 1037.84 1305.6 C 910.529 1305.97 703.316 1293.27 609.849 1199.81 C 593.696 1183.69 580.333 1164.99 570.308 1144.48 C 537.091 1076.81 529.159 969.532 529.144 893.901 C 514.759 886.01 445.87 852.948 439.878 844.73 C 438.682 843.089 438.032 840.997 438.43 839.002 C 439.037 835.966 441.14 833.745 443.413 831.786 C 451.305 824.984 461.525 819.606 470.314 813.99 C 488.33 802.685 506.121 791.027 523.678 779.021 C 513.918 739.715 507.999 700.271 501.191 660.195 C 480.269 537.045 466.662 393.962 557.663 293.912 C 579.993 269.361 612.542 245.984 643.209 232.363 C 745.374 186.984 867.077 171.89 977.881 167.569 z M 459.904 839.724 C 471.459 845.97 543.305 880.868 543.683 886.323 C 551.688 1001.61 545.095 1151.28 661.318 1219.74 C 761.801 1278.93 929.526 1292.59 1051.78 1289.95 C 1206.69 1283.79 1373.26 1262.45 1484.53 1142.13 C 1551.62 1071.39 1588.8 971.464 1603.75 876.32 C 1632.81 691.461 1631.78 441.894 1484.24 304.845 C 1365.32 194.387 1150.76 178.272 995.401 181.457 C 869.096 186.396 667.569 203.11 576.184 301.2 C 477.398 407.234 505.404 581.161 526.757 710.635 C 528.619 722.598 543.469 783.387 537.408 788.036 C 513.364 806.479 485.005 822.505 459.904 839.724 z"/>
<path transform="translate(0,0)" fill="rgb(19,19,19)" d="M 1564.15 123.878 C 1568.86 124.831 1570.94 125.817 1573.97 129.494 C 1574.27 130.66 1575.11 133.153 1574.64 133.833 C 1567.83 143.705 1518.44 189.615 1511.7 193.668 C 1505.35 192.299 1501.51 191.008 1501.72 184.199 C 1506.05 176.107 1556.27 128.463 1564.15 123.878 z"/>
<path transform="translate(0,0)" fill="rgb(19,19,19)" d="M 1476.64 74.5088 C 1483.16 74.4195 1487.04 74.6695 1489.17 81.0494 C 1488.6 84.2493 1486.68 92.1283 1485.35 94.9584 C 1478.88 108.736 1468.57 154.839 1459.59 164.108 C 1456.09 164.244 1447.29 161.807 1448.42 158.01 C 1453.94 139.441 1466.61 88.5021 1476.64 74.5088 z"/>
<path transform="translate(0,0)" fill="rgb(19,19,19)" d="M 1622.87 207.069 C 1627.87 206.873 1629.62 207.992 1632.01 211.993 C 1632.35 215.513 1632.58 216.296 1630.96 219.371 C 1624.27 224.806 1573.82 236.804 1562.07 239.773 C 1560.65 239.817 1559.48 239.871 1558.15 239.307 C 1555.94 238.368 1553.7 236.575 1552.9 234.242 C 1552.32 232.579 1552.35 231.78 1553.21 230.222 C 1557.87 221.776 1610.91 211.132 1622.87 207.069 z"/>
</svg>